<?xml version="1.0" encoding="UTF-8"?>
<svg xmlns="http://www.w3.org/2000/svg" viewBox="0 0 90.43 119.88">
  <defs>
    <style>
      .cls-1 {
        opacity: .5;
      }

      .cls-1, .cls-2 {
        fill: #dddd90;
      }

      .cls-1, .cls-3 {
        mix-blend-mode: multiply;
      }

      .cls-4 {
        isolation: isolate;
      }

      .cls-5 {
        fill: none;
        stroke: #c4c278;
        stroke-miterlimit: 10;
      }
    </style>
  </defs>
  <g class="cls-4">
    <g id="Calque_2" data-name="Calque 2">
      <g id="Calque_1-2" data-name="Calque 1">
        <g id="Calque_3" data-name="Calque 3">
          <g>
            <rect class="cls-2" x=".35" y=".5" width="55.1" height="109.02"/>
            <polyline class="cls-5" points="55.46 43.73 49.79 38.07 43.49 31.77 37.2 25.48 30.9 19.18 24.61 12.89 18.31 6.59 12.22 .5"/>
            <polyline class="cls-5" points="55.46 31.34 49.69 25.58 43.4 19.28 37.1 12.98 30.81 6.69 24.62 .5"/>
            <polyline class="cls-5" points="55.46 18.94 49.6 13.08 43.3 6.78 37.01 .5 37.01 .49"/>
            <polyline class="cls-5" points="49.41 .5 49.5 .59 55.46 6.54"/>
            <polyline class="cls-5" points=".35 1.23 5.72 6.6 12.02 12.89 18.32 19.19 24.61 25.48 30.91 31.78 37.2 38.07 43.5 44.37 49.79 50.67 55.46 56.33"/>
            <polyline class="cls-5" points=".35 13.82 5.72 19.18 12.02 25.48 18.31 31.77 24.61 38.07 30.9 44.37 37.2 50.67 43.49 56.96 49.79 63.26 55.46 68.92"/>
            <polyline class="cls-5" points=".35 26.41 5.72 31.78 12.02 38.07 18.32 44.37 24.61 50.67 30.91 56.97 37.2 63.26 43.5 69.56 49.79 75.85 55.46 81.51"/>
            <polyline class="cls-5" points="55.46 94.11 49.79 88.45 43.49 82.15 37.2 75.85 30.9 69.55 24.61 63.26 18.31 56.96 12.02 50.67 5.72 44.37 .35 39"/>
            <polyline class="cls-5" points="55.46 106.7 43.5 94.75 37.2 88.45 30.91 82.15 24.61 75.85 18.32 69.56 12.02 63.26 5.72 56.97 .35 51.6"/>
            <polyline class="cls-5" points="45.68 109.52 37.2 101.04 30.9 94.74 24.61 88.45 18.31 82.15 12.02 75.85 5.72 69.55 .35 64.19"/>
            <polyline class="cls-5" points="33.09 109.52 30.91 107.34 24.61 101.04 18.32 94.75 12.02 88.45 5.72 82.15 .35 76.78"/>
            <polyline class="cls-5" points="20.49 109.52 18.31 107.33 12.02 101.04 5.72 94.74 .35 89.38"/>
            <polyline class="cls-5" points="7.9 109.52 5.72 107.34 .35 101.97"/>
            <polyline class="cls-5" points=".35 11.96 5.72 6.6 11.81 .5"/>
            <polyline class="cls-5" points=".35 24.54 5.72 19.18 12.02 12.89 18.31 6.59 24.4 .5"/>
            <polyline class="cls-5" points="37.01 .49 37 .5 30.81 6.69 24.61 12.89 18.32 19.19 12.02 25.48 5.72 31.78 .35 37.14"/>
            <polyline class="cls-5" points="49.58 .5 49.5 .59 43.3 6.78 37.1 12.98 30.9 19.18 24.61 25.48 18.31 31.77 12.02 38.07 5.72 44.37 .35 49.73"/>
            <polyline class="cls-5" points="55.46 7.23 49.6 13.08 43.4 19.28 37.2 25.48 30.91 31.78 24.61 38.07 18.32 44.37 12.02 50.67 5.72 56.97 .35 62.33"/>
            <polyline class="cls-5" points="55.46 19.81 49.69 25.58 43.49 31.77 37.2 38.07 30.9 44.37 24.61 50.67 18.31 56.96 12.02 63.26 5.72 69.55 .35 74.91"/>
            <polyline class="cls-5" points=".35 87.52 5.72 82.15 12.02 75.85 18.32 69.56 24.61 63.26 30.91 56.97 37.2 50.67 43.5 44.37 49.79 38.07 55.46 32.41"/>
            <polyline class="cls-5" points="55.46 45 49.79 50.67 43.49 56.96 37.2 63.26 30.9 69.55 24.61 75.85 18.31 82.15 12.02 88.45 5.72 94.74 .35 100.1"/>
            <polyline class="cls-5" points="3.54 109.52 5.72 107.34 12.02 101.04 18.32 94.75 24.61 88.45 30.91 82.15 37.2 75.85 43.5 69.56 49.79 63.26 55.46 57.6"/>
            <polyline class="cls-5" points="55.46 70.18 49.79 75.85 43.49 82.15 37.2 88.45 30.9 94.74 24.61 101.04 18.31 107.33 16.12 109.52"/>
            <polyline class="cls-5" points="55.46 82.79 49.79 88.45 43.5 94.75 37.2 101.04 30.91 107.34 28.72 109.52"/>
            <polyline class="cls-5" points="40.47 109.52 43.08 106.91 49.38 100.62 55.46 94.53"/>
            <line class="cls-5" x1="55.46" y1="107.25" x2="53.18" y2="109.52"/>
          </g>
          <g class="cls-3">
            <polygon class="cls-1" points="70.2 10.51 70.19 10.5 70.2 10.51 70.18 10.51 70.19 10.5 70.18 10.51 33.53 10.51 33.53 119.52 88.64 119.52 88.64 10.51 70.2 10.51"/>
          </g>
          <g>
            <rect class="cls-2" x="34.97" y="10.5" width="55.1" height="109.02"/>
            <polyline class="cls-5" points="90.07 53.74 84.41 48.08 78.11 41.78 71.82 35.49 65.52 29.19 59.22 22.89 52.92 16.59 46.84 10.51"/>
            <polyline class="cls-5" points="90.07 41.34 84.31 35.58 78.02 29.29 71.72 22.99 65.42 16.7 59.23 10.51"/>
            <polyline class="cls-5" points="90.07 28.95 84.21 23.09 77.91 16.79 71.63 10.51 71.62 10.5"/>
            <polyline class="cls-5" points="84.03 10.51 84.11 10.59 90.07 16.55"/>
            <polyline class="cls-5" points="34.97 11.23 40.34 16.6 46.63 22.89 52.93 29.19 59.22 35.49 65.53 41.79 71.82 48.08 78.12 54.38 84.41 60.67 90.07 66.33"/>
            <polyline class="cls-5" points="34.97 23.82 40.33 29.19 46.63 35.49 52.92 41.78 59.22 48.08 65.52 54.37 71.82 60.67 78.11 66.97 84.41 73.27 90.07 78.93"/>
            <polyline class="cls-5" points="34.97 36.42 40.34 41.79 46.63 48.08 52.93 54.38 59.22 60.67 65.53 66.97 71.82 73.27 78.12 79.57 84.41 85.86 90.07 91.52"/>
            <polyline class="cls-5" points="90.07 104.11 84.41 98.45 78.11 92.15 71.82 85.86 65.52 79.56 59.22 73.27 52.92 66.97 46.63 60.67 40.33 54.37 34.97 49.01"/>
            <polyline class="cls-5" points="90.07 116.71 78.12 104.75 71.82 98.45 65.53 92.16 59.22 85.86 52.93 79.57 46.63 73.27 40.34 66.97 34.97 61.6"/>
            <polyline class="cls-5" points="80.3 119.52 71.82 111.05 65.52 104.74 59.22 98.45 52.92 92.15 46.63 85.86 40.33 79.56 34.97 74.2"/>
            <polyline class="cls-5" points="67.7 119.52 65.53 117.35 59.22 111.05 52.93 104.75 46.63 98.45 40.34 92.16 34.97 86.79"/>
            <polyline class="cls-5" points="55.11 119.52 52.92 117.34 46.63 111.05 40.33 104.74 34.97 99.38"/>
            <polyline class="cls-5" points="42.52 119.52 40.34 117.35 34.97 111.98"/>
            <polyline class="cls-5" points="34.97 21.96 40.34 16.6 46.43 10.51"/>
            <polyline class="cls-5" points="34.97 34.55 40.33 29.19 46.63 22.89 52.92 16.59 59.01 10.51"/>
            <polyline class="cls-5" points="71.62 10.5 71.61 10.51 65.42 16.7 59.22 22.89 52.93 29.19 46.63 35.49 40.34 41.79 34.97 47.15"/>
            <polyline class="cls-5" points="84.2 10.51 84.11 10.59 77.91 16.79 71.72 22.99 65.52 29.19 59.22 35.49 52.92 41.78 46.63 48.08 40.33 54.37 34.97 59.73"/>
            <polyline class="cls-5" points="90.07 17.23 84.21 23.09 78.02 29.29 71.82 35.49 65.53 41.79 59.22 48.08 52.93 54.38 46.63 60.67 40.34 66.97 34.97 72.34"/>
            <polyline class="cls-5" points="90.07 29.82 84.31 35.58 78.11 41.78 71.82 48.08 65.52 54.37 59.22 60.67 52.92 66.97 46.63 73.27 40.33 79.56 34.97 84.92"/>
            <polyline class="cls-5" points="34.97 97.52 40.34 92.16 46.63 85.86 52.93 79.57 59.22 73.27 65.53 66.97 71.82 60.67 78.12 54.38 84.41 48.08 90.07 42.42"/>
            <polyline class="cls-5" points="90.07 55 84.41 60.67 78.11 66.97 71.82 73.27 65.52 79.56 59.22 85.86 52.92 92.15 46.63 98.45 40.33 104.74 34.97 110.11"/>
            <polyline class="cls-5" points="38.15 119.52 40.34 117.35 46.63 111.05 52.93 104.75 59.22 98.45 65.53 92.16 71.82 85.86 78.12 79.57 84.41 73.27 90.07 67.61"/>
            <polyline class="cls-5" points="90.07 80.19 84.41 85.86 78.11 92.15 71.82 98.45 65.52 104.74 59.22 111.05 52.92 117.34 50.74 119.52"/>
            <polyline class="cls-5" points="90.07 92.79 84.41 98.45 78.12 104.75 71.82 111.05 65.53 117.35 63.34 119.52"/>
            <polyline class="cls-5" points="75.09 119.52 77.69 116.92 83.99 110.63 90.07 104.54"/>
            <line class="cls-5" x1="90.07" y1="117.25" x2="87.8" y2="119.52"/>
          </g>
        </g>
      </g>
    </g>
  </g>
</svg>