<?xml version="1.0" encoding="UTF-8"?>
<svg xmlns="http://www.w3.org/2000/svg" viewBox="0 0 92.29 92.96">
  <defs>
    <style>
      .cls-1 {
        isolation: isolate;
      }

      .cls-2 {
        mix-blend-mode: multiply;
        opacity: .5;
      }

      .cls-2, .cls-3 {
        fill: #f68e56;
      }

      .cls-4 {
        fill: #ffe8d2;
      }

      .cls-5 {
        fill: #fbaf5d;
      }
    </style>
  </defs>
  <g class="cls-1">
    <g id="Calque_2" data-name="Calque 2">
      <g id="Calque_2-2" data-name="Calque 2">
        <path class="cls-5" d="m16.85,0h58.59c3.43,0,6.22,2.79,6.22,6.22v11.89H10.63V6.22c0-3.43,2.79-6.22,6.22-6.22Z"/>
        <rect class="cls-3" y="11.78" width="92.29" height="12.66" rx="4.59" ry="4.59"/>
        <path class="cls-3" d="m87.03,33.63v45.26c0,7.77-6.3,14.07-14.07,14.07H19.33c-7.77,0-14.08-6.3-14.08-14.07v-44.47c0-1.11.07-2.22.21-3.31.07-.65.17-1.28.29-1.92l.13-.67.78-4.08.08-.4h79.26l.05.4.55,4.08.19,1.42c.05.39.09.78.13,1.17.07.84.11,1.68.11,2.52Z"/>
        <rect class="cls-4" x="5.25" y="39.22" width="81.78" height="33.89"/>
        <path class="cls-2" d="m86.92,31.11H5.46c.07-.65.17-1.28.29-1.92l.13-.67.78-4.08h79.39l.55,4.08.19,1.42c.05.39.09.78.13,1.17Z"/>
        <path class="cls-5" d="m38.37,59.25l-3.77-2.69c-.28-.2-.63-.24-.95-.13l-4.35,1.59c-.8.29-1.59-.46-1.34-1.28l1.39-4.42c.1-.32.04-.68-.17-.94l-2.85-3.65c-.53-.67-.05-1.66.8-1.67l4.63-.05c.34,0,.66-.17.84-.45l2.59-3.84c.48-.71,1.56-.56,1.83.25l1.48,4.39c.11.32.37.57.69.66l4.45,1.27c.82.23,1.02,1.31.33,1.82l-3.72,2.76c-.27.2-.43.53-.42.86l.16,4.63c.03.85-.93,1.37-1.63.88Z"/>
        <path class="cls-5" d="m40.19,72.19l-2.78-1.98c-.12-.09-.28-.11-.42-.06l-3.21,1.17c-.35.13-.7-.2-.59-.56l1.02-3.26c.04-.14.02-.3-.08-.41l-2.11-2.69c-.23-.3-.02-.73.35-.73l3.42-.03c.15,0,.29-.08.37-.2l1.91-2.83c.21-.31.68-.25.8.11l1.09,3.24c.05.14.16.25.3.29l3.28.94c.36.1.45.58.15.8l-2.74,2.04c-.12.09-.19.23-.18.38l.12,3.41c.01.37-.41.6-.71.38Z"/>
        <path class="cls-5" d="m58.7,66.74l-3.77-2.69c-.28-.2-.63-.24-.95-.13l-4.35,1.59c-.8.29-1.59-.46-1.34-1.28l1.39-4.42c.1-.32.04-.68-.17-.94l-2.85-3.65c-.53-.67-.05-1.66.8-1.67l4.63-.05c.34,0,.66-.17.84-.45l2.59-3.84c.48-.71,1.56-.56,1.83.25l1.48,4.39c.11.32.37.57.69.66l4.45,1.27c.82.23,1.02,1.31.33,1.82l-3.72,2.76c-.27.2-.43.53-.42.86l.16,4.63c.03.85-.93,1.37-1.63.88Z"/>
      </g>
    </g>
  </g>
</svg>