<?xml version="1.0" encoding="UTF-8"?>
<svg id="Calque_2" data-name="Calque 2" xmlns="http://www.w3.org/2000/svg" viewBox="0 0 190.32 164.98">
  <defs>
    <style>
      .cls-1 {
        fill: #fff;
      }

      .cls-2 {
        fill: #f9c;
      }

      .cls-3 {
        fill: #ffb4cc;
      }

      .cls-4 {
        fill: #fcc;
      }

      .cls-5 {
        fill: #1d1d1b;
      }
    </style>
  </defs>
  <g id="Pig">
    <ellipse class="cls-4" cx="95.16" cy="95.6" rx="95.16" ry="69.38"/>
    <ellipse class="cls-3" cx="95.16" cy="120.37" rx="33.98" ry="24.77"/>
    <circle class="cls-5" cx="150.12" cy="95.6" r="12.94"/>
    <ellipse class="cls-2" cx="109.97" cy="120.37" rx="7.35" ry="9.75"/>
    <ellipse class="cls-2" cx="80.35" cy="120.37" rx="7.35" ry="9.75"/>
    <circle class="cls-1" cx="154.42" cy="93.84" r="6.47"/>
    <circle class="cls-5" cx="40.2" cy="95.6" r="12.94"/>
    <circle class="cls-1" cx="44.49" cy="93.84" r="6.47"/>
    <path class="cls-3" d="M16.5,0C2.65,24.8,2.51,46.06,12.54,64.69c9.63,3.23,43.88-11.97,58-28.92C60.17,21,46.72,7.38,16.5,0Z"/>
    <path class="cls-3" d="M171.65,.5c13.85,24.8,13.99,46.06,3.96,64.69-9.63,3.23-43.88-11.97-58-28.92,10.38-14.77,23.82-28.39,54.05-35.77Z"/>
  </g>
</svg>