<?xml version="1.0" encoding="UTF-8"?>
<svg id="Calque_2" data-name="Calque 2" xmlns="http://www.w3.org/2000/svg" viewBox="0 0 190.32 164.98">
  <defs>
    <style>
      .cls-1 {
        fill: #fff;
      }

      .cls-2 {
        fill: #f9c;
      }

      .cls-3 {
        fill: #ffb4cc;
      }

      .cls-4 {
        fill: #fcc;
      }

      .cls-5 {
        fill: #e89cb7;
      }

      .cls-6 {
        fill: #ea9b9b;
      }

      .cls-7 {
        fill: #1d1d1b;
      }
    </style>
  </defs>
  <g id="Pig">
    <g>
      <path class="cls-4" d="M154.77,149.67c-.56,.33-1.12,.65-1.69,.97,.57-.32,1.13-.64,1.69-.97Z"/>
      <path class="cls-4" d="M156.86,148.41c-.59,.36-1.18,.72-1.77,1.08,.6-.35,1.19-.71,1.77-1.08Z"/>
      <path class="cls-4" d="M152.73,150.84c-.58,.32-1.17,.64-1.77,.96,.59-.31,1.18-.63,1.77-.96Z"/>
      <path class="cls-4" d="M150.69,151.94c-2.1,1.1-4.25,2.14-6.47,3.11,2.22-.98,4.38-2.02,6.47-3.11Z"/>
      <path class="cls-4" d="M144.04,155.13c-.66,.29-1.32,.57-1.99,.85,.67-.28,1.33-.56,1.99-.85Z"/>
      <path class="cls-4" d="M8.72,66.56c.29-.46,.59-.92,.9-1.38-.31,.46-.6,.92-.9,1.38Z"/>
      <path class="cls-4" d="M111.21,163.99c-.63,.08-1.26,.15-1.89,.22,.63-.07,1.26-.14,1.89-.22Z"/>
      <path class="cls-4" d="M167.94,140.28c-.5,.43-1,.86-1.51,1.28,.51-.42,1.02-.85,1.51-1.28Z"/>
      <path class="cls-4" d="M9.8,64.9c.3-.44,.6-.87,.91-1.31-.31,.43-.61,.87-.91,1.31Z"/>
      <path class="cls-4" d="M166.23,141.73c-.52,.42-1.04,.84-1.57,1.26,.53-.41,1.06-.83,1.57-1.26Z"/>
      <path class="cls-4" d="M141.58,156.17c-.58,.24-1.15,.47-1.74,.69,.58-.23,1.16-.46,1.74-.69Z"/>
      <path class="cls-4" d="M124.39,161.64c-.54,.13-1.09,.25-1.64,.37,.55-.12,1.09-.25,1.64-.37Z"/>
      <path class="cls-4" d="M119.41,162.7c-.58,.11-1.16,.22-1.74,.32,.58-.1,1.17-.21,1.74-.32Z"/>
      <path class="cls-4" d="M121.9,162.2c-.54,.12-1.09,.23-1.63,.34,.55-.11,1.09-.22,1.63-.34Z"/>
      <path class="cls-4" d="M139.27,157.08c-.56,.21-1.12,.42-1.69,.63,.57-.21,1.13-.42,1.69-.63Z"/>
      <path class="cls-4" d="M114.41,163.56c-.85,.13-1.7,.24-2.55,.36,.85-.11,1.71-.23,2.55-.36Z"/>
      <path class="cls-4" d="M116.92,163.15c-.74,.13-1.48,.25-2.23,.36,.75-.11,1.49-.23,2.23-.36Z"/>
      <path class="cls-4" d="M126.95,161.01c-.58,.15-1.17,.3-1.76,.44,.59-.14,1.18-.29,1.76-.44Z"/>
      <path class="cls-4" d="M134.68,158.73c-.71,.24-1.43,.47-2.15,.69,.72-.23,1.44-.46,2.15-.69Z"/>
      <path class="cls-4" d="M136.98,157.93c-.59,.21-1.18,.42-1.78,.62,.6-.2,1.19-.41,1.78-.62Z"/>
      <path class="cls-4" d="M132.37,159.47c-.81,.25-1.62,.49-2.44,.73,.82-.23,1.63-.48,2.44-.73Z"/>
      <path class="cls-4" d="M129.91,160.2c-.77,.22-1.55,.43-2.33,.64,.78-.21,1.56-.42,2.33-.64Z"/>
      <path class="cls-4" d="M164.5,143.1c-2.36,1.83-4.86,3.57-7.49,5.21,2.62-1.64,5.12-3.38,7.49-5.21Z"/>
      <path class="cls-4" d="M25.59,142.93c-.81-.63-1.61-1.27-2.39-1.93,.78,.65,1.58,1.3,2.39,1.93Z"/>
      <path class="cls-4" d="M10.41,127.18c-2.1-2.99-3.91-6.11-5.41-9.33,1.5,3.22,3.31,6.34,5.41,9.33Z"/>
      <path class="cls-4" d="M23.2,141c-1.5-1.26-2.93-2.56-4.3-3.89,1.37,1.34,2.8,2.63,4.3,3.89Z"/>
      <path class="cls-4" d="M0,95.59c0-.62,.01-1.24,.03-1.86-.02,.62-.03,1.24-.03,1.86Z"/>
      <path class="cls-4" d="M0,95.6c0,7.78,1.76,15.27,5,22.25-3.24-6.99-5-14.47-5-22.25H0Z"/>
      <path class="cls-4" d="M31.78,147.34c-1.48-.96-2.92-1.96-4.31-2.99,1.39,1.03,2.83,2.03,4.31,2.99Z"/>
      <path class="cls-4" d="M97.81,164.95c-.88,.02-1.77,.03-2.65,.03,.89,0,1.77-.01,2.65-.03Z"/>
      <path class="cls-4" d="M77.99,163.85c-1.45-.19-2.89-.41-4.32-.65,1.43,.24,2.87,.45,4.32,.65Z"/>
      <path class="cls-4" d="M.07,93.13c.02-.42,.04-.83,.07-1.25-.03,.41-.05,.83-.07,1.25Z"/>
      <path class="cls-4" d="M41.32,152.81c-1.05-.52-2.08-1.06-3.1-1.61,1.02,.55,2.05,1.09,3.1,1.61Z"/>
      <path class="cls-4" d="M47.79,155.78c-1.12-.47-2.22-.96-3.31-1.46,1.09,.5,2.19,.99,3.31,1.46Z"/>
      <path class="cls-4" d="M7.64,68.32c.3-.51,.61-1.02,.93-1.53-.32,.51-.63,1.02-.93,1.53Z"/>
      <path class="cls-4" d="M1.81,82.07c.1-.36,.2-.71,.3-1.06-.1,.35-.2,.71-.3,1.06Z"/>
      <path class="cls-4" d="M2.32,80.32c.11-.37,.23-.73,.35-1.1-.12,.36-.24,.73-.35,1.1Z"/>
      <path class="cls-4" d="M3.51,76.86c.16-.42,.33-.84,.5-1.26-.17,.42-.34,.83-.5,1.26Z"/>
      <path class="cls-4" d="M4.94,73.48c.79-1.72,1.68-3.41,2.65-5.07-.97,1.66-1.85,3.35-2.65,5.07Z"/>
      <path class="cls-4" d="M4.2,75.16c.21-.5,.43-1,.66-1.5-.23,.5-.45,1-.66,1.5Z"/>
      <path class="cls-4" d="M.98,85.64c.07-.35,.14-.7,.22-1.05-.08,.35-.15,.7-.22,1.05Z"/>
      <path class="cls-4" d="M.39,89.3c.04-.36,.09-.72,.14-1.08-.05,.36-.1,.72-.14,1.08Z"/>
      <path class="cls-4" d="M.66,87.46c.06-.35,.11-.71,.18-1.06-.06,.35-.12,.7-.18,1.06Z"/>
      <path class="cls-4" d="M1.36,83.85c.08-.35,.17-.7,.26-1.05-.09,.35-.17,.7-.26,1.05Z"/>
      <path class="cls-4" d="M.2,91.17c.03-.37,.06-.75,.1-1.12-.04,.37-.07,.75-.1,1.12Z"/>
      <path class="cls-4" d="M2.89,78.58c.13-.38,.27-.77,.41-1.15-.14,.38-.28,.76-.41,1.15Z"/>
      <path class="cls-4" d="M103.09,164.73c-.54,.03-1.09,.06-1.63,.09,.55-.03,1.09-.05,1.63-.09Z"/>
      <path class="cls-4" d="M11.45,62.57c-.18,.24-.35,.49-.53,.73,.17-.24,.35-.48,.53-.72,0,0,0,0,0-.01Z"/>
      <path class="cls-4" d="M100.46,164.87c-.59,.02-1.19,.04-1.78,.06,.6-.02,1.19-.03,1.78-.06Z"/>
      <path class="cls-4" d="M16.07,65.12c-3.11,6.85-4.81,14.18-4.81,21.79,0,38.32,42.6,69.38,95.16,69.38,24.3,0,46.47-6.64,63.29-17.57-.52,.48-1.06,.96-1.6,1.43,13.86-12.05,22.21-27.59,22.21-44.55,0-12.6-4.61-24.41-12.66-34.6-.63,1.41-1.31,2.81-2.06,4.2-9.63,3.23-43.88-11.97-58-28.92,1.68-2.39,3.44-4.75,5.34-7.05-8.79-1.95-18.11-3.01-27.78-3.01-10.21,0-20.04,1.18-29.27,3.35,1.64,2.04,3.18,4.11,4.65,6.21-12.73,15.28-41.81,29.13-54.47,29.35Zm24.13,43.42c-7.15,0-12.94-5.79-12.94-12.94s5.79-12.94,12.94-12.94,12.94,5.79,12.94,12.94-5.79,12.94-12.94,12.94Zm109.93-25.88c7.15,0,12.94,5.79,12.94,12.94s-5.79,12.94-12.94,12.94-12.94-5.79-12.94-12.94,5.79-12.94,12.94-12.94Zm-54.96,12.94c18.77,0,33.98,11.09,33.98,24.77s-15.21,24.77-33.98,24.77-33.98-11.09-33.98-24.77c0-.06,0-.12,0-.19,0-.06,0-.12,0-.19,0-8.03,5.24-15.16,13.35-19.68-.49,.39-.95,.79-1.4,1.2,5.93-3.69,13.62-5.92,22.03-5.92Z"/>
      <path class="cls-4" d="M105.73,164.55c-.53,.04-1.07,.08-1.61,.12,.54-.04,1.07-.08,1.61-.12Z"/>
      <path class="cls-4" d="M108.39,164.31c-.55,.06-1.1,.11-1.65,.16,.55-.05,1.1-.1,1.65-.16Z"/>
      <path class="cls-4" d="M13.95,131.78c1.54,1.83,3.19,3.61,4.95,5.33-1.76-1.72-3.41-3.5-4.95-5.33Z"/>
      <path class="cls-6" d="M7.59,68.41s.04-.06,.05-.09c-.02,.03-.04,.06-.05,.09Z"/>
      <path class="cls-6" d="M27.47,144.35c-.63-.47-1.26-.94-1.87-1.42,.62,.48,1.24,.96,1.87,1.42Z"/>
      <path class="cls-6" d="M4.86,73.66c.03-.06,.05-.12,.08-.18-.03,.06-.05,.12-.08,.18Z"/>
      <path class="cls-6" d="M8.57,66.78c.05-.08,.1-.15,.14-.22-.05,.07-.1,.15-.14,.22Z"/>
      <path class="cls-6" d="M9.61,65.18c.06-.09,.13-.19,.19-.28-.06,.09-.13,.19-.19,.28Z"/>
      <path class="cls-6" d="M44.48,154.32c-1.07-.49-2.12-1-3.16-1.52,1.04,.52,2.09,1.03,3.16,1.52Z"/>
      <path class="cls-6" d="M34.63,149.13c-.97-.58-1.91-1.18-2.85-1.79,.93,.61,1.88,1.21,2.85,1.79Z"/>
      <path class="cls-6" d="M157.02,148.32c-.05,.03-.11,.07-.16,.1,.05-.03,.11-.07,.16-.1Z"/>
      <path class="cls-6" d="M164.65,142.98c-.05,.04-.1,.08-.15,.12,.05-.04,.1-.08,.15-.12Z"/>
      <path class="cls-6" d="M10.71,63.59c.07-.1,.14-.2,.22-.3-.07,.1-.14,.2-.22,.3Z"/>
      <path class="cls-6" d="M168.1,140.15c-.05,.05-.11,.09-.16,.14,.05-.05,.11-.09,.16-.14Z"/>
      <path class="cls-6" d="M.83,86.4c.05-.25,.1-.51,.15-.76-.05,.25-.1,.5-.15,.76Z"/>
      <path class="cls-6" d="M58.12,159.52c-2.85-.88-5.62-1.85-8.32-2.92,2.7,1.07,5.47,2.04,8.32,2.92Z"/>
      <path class="cls-6" d="M.3,90.05c.03-.25,.06-.5,.09-.75-.03,.25-.06,.5-.09,.75Z"/>
      <path class="cls-6" d="M.54,88.22c.04-.25,.08-.51,.12-.76-.04,.25-.08,.51-.12,.76Z"/>
      <path class="cls-6" d="M.14,91.88c.02-.24,.04-.48,.06-.72-.02,.24-.04,.48-.06,.72Z"/>
      <path class="cls-6" d="M.03,93.73c0-.2,.02-.4,.03-.6,0,.2-.02,.4-.03,.6Z"/>
      <path class="cls-6" d="M4.02,75.61c.06-.15,.12-.3,.18-.44-.06,.15-.12,.3-.18,.44Z"/>
      <path class="cls-6" d="M1.2,84.59c.05-.25,.11-.5,.17-.74-.06,.25-.11,.5-.17,.74Z"/>
      <path class="cls-6" d="M13.95,131.78c-.86-1.02-1.68-2.06-2.47-3.11,.79,1.05,1.61,2.09,2.47,3.11Z"/>
      <path class="cls-6" d="M3.3,77.43c.07-.19,.14-.38,.21-.57-.07,.19-.14,.38-.21,.57Z"/>
      <path class="cls-6" d="M2.67,79.22c.07-.21,.14-.43,.21-.64-.07,.21-.14,.43-.21,.64Z"/>
      <path class="cls-6" d="M1.62,82.8c.06-.24,.13-.48,.19-.72-.07,.24-.13,.48-.19,.72Z"/>
      <path class="cls-6" d="M2.11,81.01c.07-.23,.14-.46,.21-.69-.07,.23-.14,.46-.21,.69Z"/>
      <path class="cls-6" d="M166.43,141.56c-.07,.06-.14,.11-.2,.17,.07-.06,.14-.11,.2-.17Z"/>
      <path class="cls-6" d="M101.46,164.82c-.33,.02-.67,.03-1,.05,.33-.01,.67-.03,1-.05Z"/>
      <path class="cls-6" d="M129.93,160.2s-.01,0-.02,0c0,0,.01,0,.02,0Z"/>
      <path class="cls-6" d="M127.57,160.84c-.21,.06-.42,.11-.63,.16,.21-.05,.42-.11,.63-.16Z"/>
      <path class="cls-6" d="M125.18,161.45c-.26,.06-.53,.13-.8,.19,.27-.06,.53-.12,.8-.19Z"/>
      <path class="cls-6" d="M135.2,158.55c-.17,.06-.34,.12-.52,.18,.17-.06,.34-.12,.52-.18Z"/>
      <path class="cls-6" d="M137.57,157.71c-.2,.07-.4,.15-.6,.22,.2-.07,.4-.14,.6-.22Z"/>
      <path class="cls-6" d="M132.53,159.42c-.05,.02-.11,.03-.16,.05,.05-.02,.11-.03,.16-.05Z"/>
      <path class="cls-6" d="M97.81,164.95c.29,0,.57-.02,.86-.02-.29,0-.57,.02-.86,.02Z"/>
      <path class="cls-6" d="M114.69,163.51c-.09,.01-.18,.03-.28,.04,.09-.01,.18-.03,.28-.04Z"/>
      <path class="cls-6" d="M104.12,164.67c-.34,.02-.69,.05-1.03,.07,.34-.02,.69-.04,1.03-.07Z"/>
      <path class="cls-6" d="M109.31,164.21c-.31,.03-.62,.06-.93,.09,.31-.03,.62-.06,.93-.09Z"/>
      <path class="cls-6" d="M117.67,163.02c-.25,.04-.5,.09-.75,.13,.25-.04,.5-.09,.75-.13Z"/>
      <path class="cls-6" d="M122.75,162.01c-.28,.06-.57,.12-.85,.19,.29-.06,.57-.12,.85-.19Z"/>
      <path class="cls-6" d="M106.74,164.46c-.33,.03-.67,.06-1.01,.08,.34-.03,.67-.05,1.01-.08Z"/>
      <path class="cls-6" d="M120.26,162.53c-.28,.06-.57,.11-.85,.17,.28-.05,.57-.11,.85-.17Z"/>
      <path class="cls-6" d="M150.96,151.8c-.09,.05-.18,.1-.27,.14,.09-.05,.18-.1,.27-.14Z"/>
      <path class="cls-6" d="M139.85,156.86c-.19,.08-.39,.15-.58,.22,.19-.07,.39-.15,.58-.22Z"/>
      <path class="cls-6" d="M111.86,163.91c-.22,.03-.44,.05-.65,.08,.22-.03,.44-.05,.65-.08Z"/>
      <path class="cls-6" d="M155.08,149.49c-.1,.06-.21,.12-.31,.18,.1-.06,.21-.12,.31-.18Z"/>
      <path class="cls-6" d="M144.22,155.06c-.06,.02-.11,.05-.17,.07,.06-.02,.11-.05,.17-.07Z"/>
      <path class="cls-6" d="M69.11,162.34c-1.51-.31-3-.65-4.47-1.01,1.47,.36,2.96,.7,4.47,1.01Z"/>
      <path class="cls-6" d="M142.06,155.98c-.16,.07-.32,.13-.47,.19,.16-.06,.32-.13,.47-.19Z"/>
      <path class="cls-6" d="M153.08,150.64c-.12,.07-.23,.13-.35,.19,.12-.06,.23-.13,.35-.19Z"/>
      <path class="cls-6" d="M80.67,164.18c-.9-.1-1.79-.21-2.68-.33,.89,.12,1.78,.23,2.68,.33Z"/>
      <path class="cls-6" d="M100.46,164.87c.33-.01,.67-.03,1-.05,.55-.03,1.09-.05,1.63-.09,.34-.02,.69-.04,1.03-.07,.54-.04,1.07-.08,1.61-.12,.34-.03,.67-.05,1.01-.08,.55-.05,1.1-.1,1.65-.16,.31-.03,.62-.06,.93-.09,.63-.07,1.26-.14,1.89-.22,.22-.03,.44-.05,.65-.08,.85-.11,1.71-.23,2.55-.36,.09-.01,.18-.03,.28-.04,.75-.11,1.49-.23,2.23-.36,.25-.04,.5-.09,.75-.13,.58-.1,1.17-.21,1.74-.32,.28-.05,.57-.11,.85-.17,.55-.11,1.09-.22,1.63-.34,.29-.06,.57-.12,.85-.19,.55-.12,1.09-.25,1.64-.37,.27-.06,.53-.12,.8-.19,.59-.14,1.18-.29,1.76-.44,.21-.05,.42-.11,.63-.16,.78-.21,1.56-.42,2.33-.64,0,0,.01,0,.02,0,.82-.23,1.63-.48,2.44-.73,.05-.02,.11-.03,.16-.05,.72-.23,1.44-.46,2.15-.69,.17-.06,.34-.12,.52-.18,.6-.2,1.19-.41,1.78-.62,.2-.07,.4-.14,.6-.22,.57-.21,1.13-.42,1.69-.63,.19-.07,.39-.15,.58-.22,.58-.23,1.16-.46,1.74-.69,.16-.06,.32-.13,.47-.19,.67-.28,1.33-.56,1.99-.85,.06-.02,.11-.05,.17-.07,2.22-.98,4.38-2.01,6.47-3.11,.09-.05,.18-.1,.27-.14,.59-.31,1.18-.63,1.77-.96,.12-.06,.23-.13,.35-.19,.57-.32,1.13-.64,1.69-.97,.1-.06,.21-.12,.31-.18,.6-.35,1.19-.71,1.77-1.08,.05-.03,.11-.07,.16-.1,2.62-1.64,5.12-3.38,7.49-5.21,.05-.04,.1-.08,.15-.12,.53-.41,1.06-.83,1.57-1.26,.07-.06,.14-.11,.2-.17,.51-.42,1.02-.85,1.51-1.28,.05-.05,.11-.09,.16-.14,.54-.47,1.08-.95,1.6-1.43-16.82,10.93-38.99,17.57-63.29,17.57-52.55,0-95.16-31.06-95.16-69.38,0-7.61,1.7-14.94,4.81-21.79-1.38,.02-2.58-.11-3.53-.43-.38-.7-.73-1.41-1.08-2.11-.18,.24-.36,.48-.53,.72-.07,.1-.14,.2-.22,.3-.31,.43-.61,.87-.91,1.31-.06,.09-.13,.19-.19,.28-.31,.46-.6,.92-.9,1.38-.05,.08-.1,.15-.14,.22-.32,.51-.63,1.02-.93,1.53-.02,.03-.04,.06-.05,.09-.97,1.66-1.85,3.35-2.65,5.07-.03,.06-.05,.12-.08,.18-.23,.5-.45,1-.66,1.5-.06,.15-.12,.3-.18,.44-.17,.42-.34,.83-.5,1.26-.07,.19-.14,.38-.21,.57-.14,.38-.28,.76-.41,1.15-.07,.21-.14,.43-.21,.64-.12,.36-.24,.73-.35,1.1-.07,.23-.14,.46-.21,.69-.1,.35-.2,.71-.3,1.06-.07,.24-.13,.48-.19,.72-.09,.35-.17,.7-.26,1.05-.06,.25-.11,.5-.17,.74-.08,.35-.15,.7-.22,1.05-.05,.25-.1,.5-.15,.76-.06,.35-.12,.7-.18,1.06-.04,.25-.08,.51-.12,.76-.05,.36-.1,.72-.14,1.08-.03,.25-.06,.5-.09,.75-.04,.37-.07,.75-.1,1.12-.02,.24-.04,.48-.06,.72-.03,.41-.05,.83-.07,1.25,0,.2-.02,.4-.03,.6-.02,.62-.03,1.24-.03,1.86H0c0,7.78,1.76,15.27,5,22.25,1.5,3.22,3.31,6.34,5.41,9.33,.35,.5,.71,.99,1.07,1.49,.79,1.05,1.61,2.09,2.47,3.11,1.54,1.83,3.19,3.61,4.95,5.33,1.37,1.34,2.8,2.63,4.3,3.89,.78,.65,1.58,1.3,2.39,1.93,.62,.48,1.24,.96,1.87,1.42,1.39,1.03,2.83,2.03,4.31,2.99,.93,.61,1.88,1.21,2.85,1.79,1.17,.71,2.37,1.39,3.59,2.06,1.02,.55,2.05,1.09,3.1,1.61,1.04,.52,2.09,1.03,3.16,1.52,1.09,.5,2.19,.99,3.31,1.46,.66,.28,1.33,.55,2.01,.82,2.7,1.07,5.47,2.04,8.32,2.92,2.13,.66,4.31,1.26,6.52,1.81,1.47,.36,2.96,.7,4.47,1.01,1.51,.31,3.03,.6,4.56,.86,1.43,.24,2.87,.45,4.32,.65,.89,.12,1.78,.23,2.68,.33,4.73,.53,9.56,.8,14.49,.8,.89,0,1.77-.01,2.65-.03,.29,0,.57-.02,.86-.02,.6-.02,1.19-.03,1.78-.06Z"/>
      <path class="cls-3" d="M65.63,117.03c0,13.68,15.21,24.77,33.98,24.77,7.76,0,14.91-1.9,20.62-5.09-6.21,4.95-15.14,8.05-25.07,8.05-18.68,0-33.83-10.99-33.97-24.59,0,.06,0,.12,0,.19,0,13.68,15.21,24.77,33.98,24.77s33.98-11.09,33.98-24.77-15.21-24.77-33.98-24.77c-8.41,0-16.1,2.23-22.03,5.92-4.69,4.25-7.51,9.64-7.51,15.52Zm44.34-6.42c4.06,0,7.35,4.37,7.35,9.75s-3.29,9.75-7.35,9.75-7.35-4.37-7.35-9.75,3.29-9.75,7.35-9.75Zm-29.62,0c4.06,0,7.35,4.37,7.35,9.75s-3.29,9.75-7.35,9.75-7.35-4.37-7.35-9.75,3.29-9.75,7.35-9.75Z"/>
      <path class="cls-5" d="M61.18,120c0,.06,0,.12,0,.19,.08-7.48,4.7-14.16,11.94-18.67,.45-.41,.92-.81,1.4-1.2-8.11,4.53-13.35,11.66-13.35,19.68Z"/>
      <path class="cls-5" d="M61.19,120.18c.14,13.6,15.29,24.59,33.97,24.59,9.93,0,18.86-3.1,25.07-8.05-5.72,3.19-12.87,5.09-20.62,5.09-18.77,0-33.98-11.09-33.98-24.77,0-5.88,2.82-11.27,7.51-15.52-7.25,4.51-11.87,11.19-11.94,18.67Z"/>
      <path class="cls-7" d="M150.12,108.54c7.15,0,12.94-5.79,12.94-12.94s-5.79-12.94-12.94-12.94-12.94,5.79-12.94,12.94,5.79,12.94,12.94,12.94Zm4.3-21.16c3.57,0,6.47,2.9,6.47,6.47s-2.9,6.47-6.47,6.47-6.47-2.9-6.47-6.47,2.9-6.47,6.47-6.47Z"/>
      <path class="cls-2" d="M109.97,130.12c4.06,0,7.35-4.37,7.35-9.75s-3.29-9.75-7.35-9.75-7.35,4.37-7.35,9.75,3.29,9.75,7.35,9.75Z"/>
      <ellipse class="cls-2" cx="80.35" cy="120.37" rx="7.35" ry="9.75"/>
      <path class="cls-1" d="M154.42,100.31c3.57,0,6.47-2.9,6.47-6.47s-2.9-6.47-6.47-6.47-6.47,2.9-6.47,6.47,2.9,6.47,6.47,6.47Z"/>
      <path class="cls-7" d="M40.2,82.65c-7.15,0-12.94,5.79-12.94,12.94s5.79,12.94,12.94,12.94,12.94-5.79,12.94-12.94-5.79-12.94-12.94-12.94Zm4.3,17.66c-3.57,0-6.47-2.9-6.47-6.47s2.9-6.47,6.47-6.47,6.47,2.9,6.47,6.47-2.9,6.47-6.47,6.47Z"/>
      <path class="cls-1" d="M44.49,87.37c-3.57,0-6.47,2.9-6.47,6.47s2.9,6.47,6.47,6.47,6.47-2.9,6.47-6.47-2.9-6.47-6.47-6.47Z"/>
      <path class="cls-3" d="M12.09,61.73c.33-.42,.66-.85,1-1.26,.07-.09,.14-.18,.21-.26,.35-.43,.71-.86,1.07-1.28,.06-.07,.12-.15,.19-.22,.38-.44,.77-.89,1.17-1.32,.04-.05,.09-.1,.13-.15,.09-.1,.19-.21,.28-.31-7.18-14.8-6.62-31.59,4.24-51.04,21.68,5.29,32.83,14.51,40.97,24.84,1.49-.41,3.01-.8,4.54-1.16C56.01,17.26,42.43,6.33,16.5,0,3.17,23.86,2.55,44.44,11.45,62.57c.14-.18,.28-.36,.42-.54,.07-.1,.15-.19,.22-.29Z"/>
      <path class="cls-3" d="M14.56,58.71c.38-.44,.77-.89,1.17-1.32-.4,.44-.79,.88-1.17,1.32Z"/>
      <path class="cls-3" d="M16.14,56.92c-.09,.1-.19,.21-.28,.31,.09-.1,.19-.2,.28-.3,0,0,0,0,0,0Z"/>
      <path class="cls-3" d="M64.67,35.19c-10.74,12.89-35.67,24.53-45.51,24.03-1.15,1.92-2.18,3.89-3.09,5.9,12.66-.22,41.75-14.07,54.47-29.35-1.47-2.1-3.01-4.17-4.65-6.21-1.53,.36-3.04,.75-4.54,1.16,1.16,1.47,2.26,2.96,3.31,4.47Z"/>
      <path class="cls-3" d="M11.87,62.02c-.14,.18-.28,.36-.42,.54,0,0,0,0,0,.01,.14-.18,.27-.37,.41-.55Z"/>
      <path class="cls-3" d="M12.09,61.73c.33-.42,.66-.85,1-1.26-.34,.42-.67,.84-1,1.26Z"/>
      <path class="cls-3" d="M13.3,60.2c.35-.43,.71-.86,1.07-1.28-.36,.42-.72,.85-1.07,1.28Z"/>
      <path class="cls-3" d="M15.73,57.38s.09-.1,.13-.15c-.04,.05-.09,.1-.13,.15Z"/>
      <path class="cls-3" d="M11.87,62.02c.07-.1,.15-.19,.22-.29-.07,.1-.15,.19-.22,.29Z"/>
      <path class="cls-3" d="M13.09,60.47c.07-.09,.14-.18,.21-.26-.07,.09-.14,.18-.21,.26Z"/>
      <path class="cls-3" d="M14.37,58.92c.06-.07,.12-.15,.19-.22-.06,.07-.12,.15-.19,.22Z"/>
      <path class="cls-3" d="M17.14,58.89c-.35-.65-.68-1.3-1-1.96-.09,.1-.19,.2-.28,.3-.04,.05-.09,.1-.13,.15-.4,.44-.79,.88-1.17,1.32-.06,.07-.12,.15-.19,.22-.36,.42-.72,.85-1.07,1.28-.07,.09-.14,.18-.21,.26-.34,.42-.67,.84-1,1.26-.07,.1-.15,.19-.22,.29-.14,.18-.27,.37-.41,.55,.35,.71,.71,1.41,1.08,2.11,.95,.32,2.15,.45,3.53,.43,.91-2.01,1.94-3.97,3.09-5.9-.76-.04-1.45-.14-2.02-.33Z"/>
      <path class="cls-5" d="M17.21,55.79c4.24-4.4,9.16-8.43,14.65-12,0,0,0,0,0,0,0,0,0,0,0,0,8.58-5.57,18.55-10.03,29.49-13.06C53.21,20.39,42.07,11.17,20.38,5.88c-10.86,19.45-11.43,36.25-4.24,51.04,.34-.37,.69-.73,1.04-1.1,.01-.01,.02-.02,.03-.04Z"/>
      <path class="cls-5" d="M19.16,59.22c9.84,.5,34.78-11.14,45.51-24.03-1.06-1.51-2.16-3-3.31-4.47-10.94,3.03-20.91,7.49-29.49,13.06-5.11,4.69-9.39,9.88-12.71,15.44Z"/>
      <path class="cls-5" d="M31.87,43.79c-5.49,3.57-10.42,7.6-14.65,12,4.24-4.4,9.16-8.43,14.65-12Z"/>
      <path class="cls-5" d="M17.18,55.83c-.35,.36-.7,.73-1.04,1.1,0,0,0,0,0,0,.34-.37,.68-.74,1.03-1.1Z"/>
      <polygon class="cls-5" points="31.87 43.79 31.87 43.79 31.87 43.79 31.87 43.79"/>
      <path class="cls-5" d="M17.18,55.83s.02-.02,.03-.04c-.01,.01-.02,.02-.03,.04Z"/>
      <path class="cls-5" d="M31.87,43.79s0,0,0,0c-5.49,3.57-10.41,7.6-14.65,12-.01,.01-.02,.02-.03,.04-.35,.36-.69,.73-1.03,1.1,.32,.66,.65,1.31,1,1.96,.57,.19,1.25,.29,2.02,.33,3.32-5.56,7.6-10.75,12.71-15.44Z"/>
      <path class="cls-3" d="M167.76,6.38c10.4,18.63,11.36,34.83,5.11,49.16,1.71,1.76,3.31,3.58,4.79,5.45,7.87-17.62,6.8-37.54-6.01-60.5-25.33,6.19-38.88,16.76-48.71,28.72,1.54,.34,3.07,.71,4.57,1.11,8.08-9.97,19.2-18.81,40.25-23.95Z"/>
      <path class="cls-3" d="M175.6,65.2c.74-1.38,1.43-2.78,2.06-4.2-1.48-1.88-3.08-3.69-4.79-5.45-.57,1.3-1.18,2.58-1.87,3.85-7.89,2.65-35.96-9.81-47.53-23.7,1.27-1.81,2.61-3.61,4.03-5.37-1.51-.4-3.03-.77-4.57-1.11-1.9,2.31-3.66,4.67-5.34,7.05,14.12,16.95,48.38,32.15,58,28.92Z"/>
      <path class="cls-5" d="M167.76,6.38c-21.05,5.14-32.17,13.98-40.25,23.95,18.44,4.86,34.23,13.75,45.36,25.22,6.25-14.34,5.3-30.53-5.11-49.16Z"/>
      <path class="cls-5" d="M127.51,30.33c-1.43,1.76-2.76,3.55-4.03,5.37,11.57,13.89,39.64,26.34,47.53,23.7,.68-1.27,1.3-2.55,1.87-3.85-11.14-11.47-26.93-20.36-45.36-25.22Z"/>
    </g>
  </g>
</svg>