<?xml version="1.0" encoding="UTF-8"?>
<svg id="Calque_2" data-name="Calque 2" xmlns="http://www.w3.org/2000/svg" viewBox="0 0 323.79 323.79">
  <defs>
    <style>
      .cls-1 {
        fill: #3faf6c;
      }

      .cls-2 {
        fill: #063;
      }
    </style>
  </defs>
  <g id="Plante">
    <g>
      <g>
        <g>
          <path class="cls-1" d="M69.96,218.24c5.89-2.47,12.34-4.47,19.11-6.21-6.42,3.34-15.76,10.32-24.43,17.3-11.88,26.96-14.63,49.63-14.63,49.63,0,0,42.72-34.21,56.27-51.29-11.22,21.86-24.8,40-41.11,47.54-4.93,1.47-10,2.69-15.17,3.75h0s5.66-.95,14.63-3.54c19.3-5.58,53.92-18.78,80.48-46.57,3.39-3.55,6.53-7.22,9.45-10.96,4.1-11.82,8.59-26.22,9.31-34.47,1.18,6.11,1.96,12.08,2.05,17.82,20.69-34.72,24.93-69.67,24.93-69.67,0,0-56.21,9.41-95.1,50.11-10.96,11.46-19.37,24.19-25.8,36.55Z"/>
          <path class="cls-2" d="M106.29,227.68c-13.55,17.08-56.27,51.28-56.27,51.29h0s0,0,0,0c5.17-1.05,10.24-2.27,15.17-3.75,16.3-7.54,29.88-25.68,41.11-47.54Z"/>
        </g>
        <g>
          <path class="cls-1" d="M57.04,136.73c5.91,2.42,11.89,5.57,17.9,9.13-6.9-2.18-18.44-3.84-29.51-5.04C17.97,151.48,0,165.57,0,165.57c0,0,54.4,6.02,76.06,3.53-23.39,7.52-45.82,10.75-62.68,4.55C8.85,171.2,4.4,168.48,0,165.57h0s4.67,3.33,12.85,7.84c17.59,9.7,51.41,24.85,89.84,23.97,4.9-.11,9.72-.49,14.43-1.07,11.26-5.45,24.62-12.46,30.96-17.79-3.49,5.16-7.16,9.93-11.15,14.05,39.18-9.92,66.89-31.64,66.89-31.64,0,0-46.4-33.09-102.68-31.81-15.85,.36-30.8,3.41-44.09,7.6Z"/>
          <path class="cls-2" d="M76.06,169.1C54.4,171.59,0,165.57,0,165.57h0s0,0,0,0c4.4,2.91,8.85,5.63,13.37,8.08,16.86,6.2,39.29,2.97,62.68-4.55Z"/>
        </g>
        <g>
          <path class="cls-1" d="M105.54,69.96c2.47,5.89,4.47,12.34,6.21,19.11-3.34-6.42-10.32-15.76-17.3-24.43-26.96-11.88-49.63-14.63-49.63-14.63,0,0,34.21,42.72,51.29,56.27-21.86-11.22-40-24.8-47.54-41.11-1.47-4.93-2.69-10-3.75-15.17h0s.95,5.66,3.54,14.63c5.58,19.3,18.78,53.92,46.57,80.48,3.55,3.39,7.22,6.53,10.96,9.45,11.82,4.1,26.22,8.59,34.47,9.31-6.11,1.18-12.08,1.96-17.82,2.05,34.72,20.69,69.67,24.93,69.67,24.93,0,0-9.41-56.21-50.11-95.1-11.46-10.96-24.19-19.37-36.55-25.8Z"/>
          <path class="cls-2" d="M96.1,106.29c-17.08-13.55-51.28-56.27-51.29-56.27h0s0,0,0,0c1.05,5.17,2.27,10.24,3.75,15.17,7.54,16.3,25.68,29.88,47.54,41.11Z"/>
        </g>
        <g>
          <path class="cls-1" d="M187.06,57.04c-2.42,5.91-5.57,11.89-9.13,17.9,2.18-6.9,3.84-18.44,5.04-29.51C172.3,17.97,158.22,0,158.22,0c0,0-6.02,54.4-3.53,76.06-7.52-23.39-10.75-45.82-4.55-62.68C152.59,8.85,155.31,4.4,158.22,0h0s-3.33,4.67-7.84,12.85c-9.7,17.59-24.85,51.41-23.97,89.84,.11,4.9,.49,9.72,1.07,14.43,5.45,11.26,12.46,24.62,17.79,30.96-5.16-3.49-9.93-7.16-14.05-11.15,9.92,39.18,31.64,66.89,31.64,66.89,0,0,33.09-46.4,31.81-102.68-.36-15.85-3.41-30.8-7.6-44.09Z"/>
          <path class="cls-2" d="M154.69,76.06C152.2,54.4,158.22,0,158.22,0h0s0,0,0,0c-2.91,4.4-5.63,8.85-8.08,13.37-6.2,16.86-2.97,39.29,4.55,62.68Z"/>
        </g>
        <g>
          <path class="cls-1" d="M253.83,105.54c-5.89,2.47-12.34,4.47-19.11,6.21,6.42-3.34,15.76-10.32,24.43-17.3,11.88-26.96,14.63-49.63,14.63-49.63,0,0-42.72,34.21-56.27,51.29,11.22-21.86,24.8-40,41.11-47.54,4.93-1.47,10-2.69,15.17-3.75h0s-5.66,.95-14.63,3.54c-19.3,5.58-53.92,18.78-80.48,46.57-3.39,3.55-6.53,7.22-9.45,10.96-4.1,11.82-8.59,26.22-9.31,34.47-1.18-6.11-1.96-12.08-2.05-17.82-20.69,34.72-24.93,69.67-24.93,69.67,0,0,56.21-9.41,95.1-50.11,10.96-11.46,19.37-24.19,25.8-36.55Z"/>
          <path class="cls-2" d="M217.5,96.1c13.55-17.08,56.27-51.28,56.27-51.29h0s0,0,0,0c-5.17,1.05-10.24,2.27-15.17,3.75-16.3,7.54-29.88,25.68-41.11,47.54Z"/>
        </g>
        <g>
          <path class="cls-1" d="M266.74,187.06c-5.91-2.42-11.89-5.57-17.9-9.13,6.9,2.18,18.44,3.84,29.51,5.04,27.46-10.66,45.44-24.75,45.44-24.75,0,0-54.4-6.02-76.06-3.53,23.39-7.52,45.82-10.75,62.68-4.55,4.53,2.44,8.98,5.17,13.37,8.08h0s-4.67-3.33-12.85-7.84c-17.59-9.7-51.41-24.85-89.84-23.97-4.9,.11-9.72,.49-14.43,1.07-11.26,5.45-24.62,12.46-30.96,17.79,3.49-5.16,7.16-9.93,11.15-14.05-39.18,9.92-66.89,31.64-66.89,31.64,0,0,46.4,33.09,102.68,31.81,15.85-.36,30.8-3.41,44.09-7.6Z"/>
          <path class="cls-2" d="M247.73,154.69c21.66-2.49,76.05,3.53,76.06,3.53h0s0,0,0,0c-4.4-2.91-8.85-5.63-13.37-8.08-16.86-6.2-39.29-2.97-62.68,4.55Z"/>
        </g>
        <g>
          <path class="cls-1" d="M218.24,253.83c-2.47-5.89-4.47-12.34-6.21-19.11,3.34,6.42,10.32,15.76,17.3,24.43,26.96,11.88,49.63,14.63,49.63,14.63,0,0-34.21-42.72-51.29-56.27,21.86,11.22,40,24.8,47.54,41.11,1.47,4.93,2.69,10,3.75,15.17h0s-.95-5.66-3.54-14.63c-5.58-19.3-18.78-53.92-46.57-80.48-3.55-3.39-7.22-6.53-10.96-9.45-11.82-4.1-26.22-8.59-34.47-9.31,6.11-1.18,12.08-1.96,17.82-2.05-34.72-20.69-69.67-24.93-69.67-24.93,0,0,9.41,56.21,50.11,95.1,11.46,10.96,24.19,19.37,36.55,25.8Z"/>
          <path class="cls-2" d="M227.68,217.5c17.08,13.55,51.28,56.27,51.29,56.27h0s0,0,0,0c-1.05-5.17-2.27-10.24-3.75-15.17-7.54-16.3-25.68-29.88-47.54-41.11Z"/>
        </g>
      </g>
      <path class="cls-2" d="M163.08,289.85c-14.87-23.61,0-123.41,0-123.41,0,0-7.02,91.08,4.07,116.63,.68,4.96-.96,6.85-4.07,6.78Z"/>
    </g>
  </g>
</svg>