<?xml version="1.0" encoding="UTF-8"?>
<svg id="Calque_2" data-name="Calque 2" xmlns="http://www.w3.org/2000/svg" viewBox="0 0 293.77 208.56">
  <defs>
    <style>
      .cls-1 {
        fill: #fffafd;
      }

      .cls-2 {
        fill: #a8a0a5;
      }

      .cls-3 {
        fill: #f2e9ef;
      }
    </style>
  </defs>
  <g id="Sugar">
    <g>
      <g>
        <polygon class="cls-1" points="183.05 31.69 128.17 0 17.66 34.59 72.6 66.68 183.05 31.69"/>
        <polygon class="cls-1" points="72.77 130.14 72.77 130.21 72.92 130.29 183.42 95.7 183.42 95.51 72.77 130.14"/>
        <polygon class="cls-2" points="72.6 130.2 72.77 130.29 72.77 130.21 72.7 130.17 72.6 130.2"/>
        <polygon class="cls-2" points="17.66 98.39 17.66 34.59 17.66 98.54 72.29 130.02 72.29 129.94 17.66 98.39"/>
        <polygon class="cls-2" points="72.29 129.94 72.29 66.78 72.6 66.68 17.66 34.59 17.66 98.39 72.29 129.94"/>
        <polygon class="cls-2" points="72.7 130.17 72.77 130.21 72.77 130.14 72.7 130.17"/>
        <polygon class="cls-3" points="72.29 130.29 72.6 130.2 72.29 130.02 72.29 130.29"/>
        <polygon class="cls-3" points="183.42 95.51 183.42 95.51 183.42 31.57 183.05 31.69 183.42 31.9 183.42 95.51"/>
        <polygon class="cls-3" points="72.77 66.78 72.77 130.14 183.42 95.51 183.42 31.9 183.05 31.69 72.6 66.68 72.77 66.78"/>
        <polygon class="cls-3" points="72.29 129.94 72.29 130.02 72.6 130.2 72.7 130.17 72.29 129.94"/>
        <polygon class="cls-3" points="72.6 66.68 72.29 66.78 72.29 129.94 72.7 130.17 72.77 130.14 72.77 66.78 72.6 66.68"/>
      </g>
      <g>
        <polygon class="cls-1" points="128.01 150.97 128.01 151.16 238.52 185.75 238.66 185.67 238.66 185.6 128.01 150.97"/>
        <polygon class="cls-1" points="293.77 90.05 183.27 55.46 128.38 87.15 238.83 122.14 293.77 90.05"/>
        <polygon class="cls-3" points="239.14 185.48 293.77 154 293.77 153.85 239.14 185.4 239.14 185.48"/>
        <polygon class="cls-3" points="238.66 185.67 238.66 185.75 238.83 185.66 238.74 185.63 238.66 185.67"/>
        <polygon class="cls-3" points="238.66 185.6 238.66 185.67 238.74 185.63 238.66 185.6"/>
        <polygon class="cls-3" points="238.83 122.14 239.14 122.24 239.14 185.4 293.77 153.85 293.77 90.05 238.83 122.14"/>
        <polygon class="cls-2" points="239.14 185.75 239.14 185.48 238.83 185.66 239.14 185.75"/>
        <polygon class="cls-2" points="128.38 87.15 128.01 87.03 128.01 150.97 128.01 150.97 128.01 87.36 128.38 87.15"/>
        <polygon class="cls-2" points="238.66 122.24 238.83 122.14 128.38 87.15 128.01 87.36 128.01 150.97 238.66 185.6 238.66 122.24"/>
        <polygon class="cls-2" points="238.74 185.63 238.83 185.66 239.14 185.48 239.14 185.4 238.74 185.63"/>
        <polygon class="cls-2" points="238.66 185.6 238.74 185.63 239.14 185.4 239.14 122.24 238.83 122.14 238.66 122.24 238.66 185.6"/>
      </g>
      <g>
        <polygon class="cls-1" points="0 173.77 0 173.96 110.51 208.56 110.65 208.47 110.65 208.41 0 173.77"/>
        <polygon class="cls-1" points="165.76 112.86 55.25 78.26 .37 109.95 110.82 144.94 165.76 112.86"/>
        <polygon class="cls-3" points="111.13 208.28 165.76 176.8 165.76 176.66 111.13 208.2 111.13 208.28"/>
        <polygon class="cls-3" points="110.65 208.47 110.65 208.56 110.82 208.46 110.72 208.43 110.65 208.47"/>
        <polygon class="cls-3" points="110.82 144.94 111.13 145.04 111.13 208.2 165.76 176.66 165.76 112.86 110.82 144.94"/>
        <polygon class="cls-3" points="110.65 208.41 110.65 208.47 110.72 208.43 110.65 208.41"/>
        <polygon class="cls-2" points="0 109.83 0 110.16 .37 109.95 0 109.83"/>
        <polygon class="cls-2" points="111.13 208.56 111.13 208.28 110.82 208.46 111.13 208.56"/>
        <polygon class="cls-2" points="110.65 145.04 110.82 144.94 .37 109.95 0 110.16 0 173.77 110.65 208.41 110.65 145.04"/>
        <polygon class="cls-2" points="110.72 208.43 110.82 208.46 111.13 208.28 111.13 208.2 110.72 208.43"/>
        <polygon class="cls-2" points="110.65 208.41 110.72 208.43 111.13 208.2 111.13 145.04 110.82 144.94 110.65 145.04 110.65 208.41"/>
      </g>
    </g>
  </g>
</svg>