<?xml version="1.0" encoding="UTF-8"?>
<svg id="Usine_Right_Out" xmlns="http://www.w3.org/2000/svg" viewBox="0 0 128 128">
  <defs>
    <style>
      .cls-1 {
        fill: #1fbcef;
      }

      .cls-2 {
        fill: #3f85ba;
      }

      .cls-3 {
        fill: #4e6b9f;
      }
    </style>
  </defs>
  <g>
    <rect class="cls-2" y="-.03" width="128" height="128.06" rx="8.89" ry="8.89"/>
    <rect class="cls-1" width="128" height="100.04" rx="8.89" ry="8.89"/>
  </g>
  <g>
    <path class="cls-3" d="M94.81,60.55h0s-1.45-8.13-1.45-8.13c-.03-.26-.13-.62-.29-1.06-.51-2.34-4.67-9.68-6.63-11v-14.26c0-2.65-.55-5.17-1.54-7.45,.17-.1,.33-.2,.48-.31,1.91-1.42,2.58-3.99,2-6.66,0-.01,0-.02,0-.04-.02-.09-.04-.19-.06-.28-.32-1.31-.94-2.63-1.87-3.85-2.91-3.83-8.71-5.35-11.71-3.17-1.13,.82-1.83,2.01-2.14,3.38-.25-.05-.51-.1-.76-.15-1.42-.39-2.39-.48-4.15-.48h-5.62c-1.5,0-2.95,.17-4.36,.48-.34-1.12-.98-2.09-1.91-2.78-.89-.66-1.94-.99-3.06-1.02-2.93-.94-6.74,.51-9.19,3.75-2.91,3.83-2.83,8.69,.17,10.87,.1,.07,.21,.14,.31,.21-1.07,2.37-1.66,4.98-1.66,7.73v14.75c-1.99,1.44-5.41,5.08-6.74,10.95l-1.45,8.13c0,1.78-.33,10.34,3.75,10.59-.05,5.89-.32,25.84,9.9,25.84h1.98c3.21,0,6.23-.35,7.14-3.11,.77-.74,1.23-1.88,1.23-3.62v-1.44c1.24,.17,2.33,.44,3.81,.44h5.62c1.92,0,2.62-.19,4.38-.32v3.25c0,4.53,4.33,4.8,8.16,4.8h1.98c10,0,9.96-19.1,9.91-25.44,4.08-.26,3.75-8.82,3.75-10.59Z"/>
    <ellipse class="cls-1" cx="65.07" cy="28.61" rx="8.15" ry="5.8"/>
    <ellipse class="cls-1" cx="79.91" cy="92.27" rx="5.22" ry="2.09"/>
    <ellipse class="cls-1" cx="50.55" cy="92.27" rx="5.22" ry="2.09"/>
    <path class="cls-1" d="M72.78,15.64c-2.16,0-3.9,1.75-3.9,3.9s1.75,3.9,3.9,3.9,3.9-1.75,3.9-3.9-1.75-3.9-3.9-3.9Zm0,5.86c-1.08,0-1.95-.87-1.95-1.95s.87-1.95,1.95-1.95,1.95,.87,1.95,1.95-.87,1.95-1.95,1.95Z"/>
    <path class="cls-1" d="M57.36,15.64c-2.16,0-3.9,1.75-3.9,3.9s1.75,3.9,3.9,3.9,3.9-1.75,3.9-3.9-1.75-3.9-3.9-3.9Zm0,5.86c-1.08,0-1.95-.87-1.95-1.95s.87-1.95,1.95-1.95,1.95,.87,1.95,1.95-.87,1.95-1.95,1.95Z"/>
    <ellipse class="cls-3" cx="65.07" cy="26.3" rx="4.05" ry="2.88"/>
    <path class="cls-1" d="M84.61,8.52c-2.06-2.78-5.47-3.75-7.6-2.17-2.13,1.58-2.19,5.12-.13,7.9s5.47,3.75,7.6,2.17c2.13-1.58,2.19-5.12,.13-7.9Z"/>
    <path class="cls-1" d="M64.9,48.69h0c-8.56,0-15.33,7.27-15.33,18.48s6.94,18.64,15.5,18.64,15.5-7.44,15.5-18.64-7.11-18.48-15.67-18.48Zm10.29,6.4c-.06,0-.11,0-.17,0,.06,0,.11,0,.17,0Zm.17,.02s-.09-.02-.14-.02c.05,0,.09,.01,.14,.02Zm-1.71,.49s-.06,.05-.08,.07c.03-.03,.05-.05,.08-.07Zm1.31-.52c-.05,0-.1,0-.15,0,.05,0,.1,0,.15,0Zm-.23,.02s-.08,.01-.12,.02c.04,0,.08-.01,.12-.02Zm-.21,.04s-.07,.02-.11,.03c.04-.01,.07-.02,.11-.03Zm-.19,.06s-.07,.02-.1,.04c.03-.01,.07-.03,.1-.04Zm-.18,.07s-.07,.03-.11,.05c.03-.02,.07-.03,.11-.05Zm-.17,.09s-.07,.04-.1,.06c.03-.02,.07-.04,.1-.06Zm-.17,.11s-.07,.05-.1,.07c.03-.03,.06-.05,.1-.07Zm-.32,.29s-.04,.04-.06,.07c0,0,0,0,0,0,.02-.02,.04-.04,.05-.06Zm-.16,.2s-.02,.02-.02,.03c0-.01,.02-.02,.02-.03Zm.17,2.58s.02,.02,.03,.04c-.01-.01-.02-.02-.03-.04Zm-.54-1.24s0,.02,0,.02c0,0,0-.02,0-.02Zm.02,.2s0,.01,0,.02c0,0,0-.01,0-.02Zm.04,.19s0,.02,0,.02c0,0,0-.02,0-.02Zm.06,.18s0,.02,.01,.03c0,0,0-.02-.01-.03Zm.08,.17s.01,.03,.02,.04c0-.01-.01-.03-.02-.04Zm.09,.17s.02,.03,.03,.05c0-.02-.02-.03-.03-.05Zm.11,.16s.02,.03,.03,.05c-.01-.02-.02-.03-.03-.05Zm.3,.32s.01,.01,.02,.02c0,0,0,0,0,0,0,0-.01-.01-.02-.02Zm1.14,.49c.06,0,.12,0,.19,0-.06,0-.13,0-.19,0Zm-.96-.35s0,0,0,0c0,0,0,0,0,0Zm.36,.2c.18,.08,.38,.13,.59,.15-.2-.02-.4-.07-.59-.15Zm2.07-.28s-.02,.01-.02,.02c0,0,.02-.01,.02-.02Zm-.16,.12s-.03,.02-.04,.03c.01,0,.03-.02,.04-.03Zm-.17,.1s-.04,.02-.05,.03c.02,0,.04-.02,.05-.03Zm-.18,.08s-.04,.01-.06,.02c.02,0,.04-.01,.06-.02Zm-.19,.06s-.05,.01-.07,.02c.02,0,.05-.01,.07-.02Zm-.19,.05s-.06,.01-.1,.01c.03,0,.06,0,.1-.01Zm-.19,.03s-.09,0-.14,0c.05,0,.09,0,.14,0Z"/>
    <path class="cls-1" d="M53.13,6.12c-2.13-1.58-5.53-.61-7.6,2.17-2.06,2.78-2.01,6.32,.13,7.9,2.13,1.58,5.53,.61,7.6-2.17s2.01-6.32-.13-7.9Z"/>
    <ellipse class="cls-1" cx="39.48" cy="64.68" rx="2.56" ry="3.9"/>
    <path class="cls-1" d="M90.98,60.78c-1.41,0-2.56,1.75-2.56,3.9s1.14,3.9,2.56,3.9,2.56-1.75,2.56-3.9-1.14-3.9-2.56-3.9Z"/>
  </g>
</svg>