<?xml version="1.0" encoding="UTF-8"?>
<svg id="Calque_2" data-name="Calque 2" xmlns="http://www.w3.org/2000/svg" viewBox="0 0 128 128">
  <defs>
    <style>
      .cls-1 {
        fill: #6d1b44;
      }

      .cls-2 {
        fill: #aa2d71;
      }

      .cls-3 {
        fill: #bc4681;
      }

      .cls-4 {
        fill: #515059;
      }

      .cls-5 {
        fill: #ec69a4;
      }
    </style>
  </defs>
  <g id="Calque_4" data-name="Calque 4">
    <g>
      <g>
        <g>
          <rect class="cls-3" width="128" height="128" rx="8.89" ry="8.89"/>
          <rect class="cls-5" width="128" height="100" rx="8.89" ry="8.89"/>
        </g>
        <path class="cls-1" d="m23.5,110h81c3.31,0,6,2.69,6,6v12H17.5v-12c0-3.31,2.69-6,6-6Z"/>
      </g>
      <path class="cls-4" d="m26,116h76v7.94c0,2.24-1.82,4.06-4.06,4.06H30.06c-2.24,0-4.06-1.82-4.06-4.06v-7.94h0Z" transform="translate(128 244) rotate(180)"/>
      <path class="cls-1" d="m66.19,98.83l13.41-23.22c1.07-1.85-.27-4.17-2.41-4.17h-26.81c-2.14,0-3.48,2.32-2.41,4.17l13.41,23.22c1.07,1.85,3.75,1.85,4.82,0Z"/>
      <path class="cls-1" d="m26.54,46.48l-18.37-10.6c-1.47-.85-3.3.21-3.3,1.91v21.21c0,1.7,1.84,2.76,3.3,1.91l18.37-10.6c1.47-.85,1.47-2.97,0-3.82Z"/>
      <path class="cls-1" d="m101.62,52.92l18.37,10.6c1.47.85,3.3-.21,3.3-1.91v-21.21c0-1.7-1.84-2.76-3.3-1.91l-18.37,10.6c-1.47.85-1.47,2.97,0,3.82Z"/>
    </g>
  </g>
  <g id="Calque_1-2" data-name="Calque 1">
    <path class="cls-2" d="m84.74,50.98l-14.08-24.38c-.17-.3-.36-.58-.56-.84v-9.77h.95c1.33,0,2.41-1.08,2.41-2.41v-.52c0-1.33-1.08-2.41-2.41-2.41h-13.58c-1.33,0-2.41,1.08-2.41,2.41v.52c0,1.33,1.08,2.41,2.41,2.41h.95v9.16c-.4.43-.77.9-1.09,1.44l-14.08,24.38c-2.96,5.13.74,11.54,6.66,11.54h28.15c5.92,0,9.63-6.41,6.66-11.54Z"/>
  </g>
</svg>