<?xml version="1.0" encoding="UTF-8"?>
<svg id="Calque_2" data-name="Calque 2" xmlns="http://www.w3.org/2000/svg" viewBox="0 0 129.97 129.97">
  <defs>
    <style>
      .cls-1 {
        fill: #7cc576;
      }

      .cls-2 {
        fill: #3cb878;
      }

      .cls-3 {
        fill: #3a3737;
      }

      .cls-4 {
        fill: #8ca85d;
      }

      .cls-5 {
        fill: #acd373;
      }
    </style>
  </defs>
  <g id="Calque_1-2" data-name="Calque 1">
    <g id="Calque_4" data-name="Calque 4">
      <rect class="cls-1" width="129.97" height="129.97" rx="8.89" ry="8.89"/>
      <rect class="cls-5" width="129.97" height="101.54" rx="8.89" ry="8.89"/>
      <path class="cls-2" d="m23.77,111.69h82.43c3.31,0,6,2.69,6,6v12.28H17.77v-12.28c0-3.31,2.69-6,6-6Z"/>
      <path class="cls-3" d="m30.46,117.79h69.06c2.24,0,4.06,1.82,4.06,4.06v8.13H26.4v-8.13c0-2.24,1.82-4.06,4.06-4.06Z"/>
      <path class="cls-2" d="m67.17,100.42l13.69-23.71c1.07-1.85-.27-4.17-2.41-4.17h-27.37c-2.14,0-3.48,2.32-2.41,4.17l13.69,23.71c1.07,1.85,3.75,1.85,4.82,0Z"/>
      <path class="cls-2" d="m27,47.23l-18.75-10.83c-1.47-.85-3.3.21-3.3,1.91v21.65c0,1.7,1.84,2.76,3.3,1.91l18.75-10.83c1.47-.85,1.47-2.97,0-3.82Z"/>
      <path class="cls-2" d="m103.13,53.71l18.75,10.83c1.47.85,3.3-.21,3.3-1.91v-21.65c0-1.7-1.84-2.76-3.3-1.91l-18.75,10.83c-1.47.85-1.47,2.97,0,3.82Z"/>
      <path class="cls-4" d="m85.81,51.55l-14.08-24.38c-.17-.3-.36-.58-.56-.84v-9.77h.95c1.33,0,2.41-1.08,2.41-2.41v-.52c0-1.33-1.08-2.41-2.41-2.41h-13.58c-1.33,0-2.41,1.08-2.41,2.41v.52c0,1.33,1.08,2.41,2.41,2.41h.95v9.16c-.4.43-.77.9-1.09,1.44l-14.08,24.38c-2.96,5.13.74,11.54,6.66,11.54h28.15c5.92,0,9.63-6.41,6.66-11.54Z"/>
    </g>
  </g>
</svg>