<?xml version="1.0" encoding="UTF-8"?>
<svg id="Calque_2" data-name="Calque 2" xmlns="http://www.w3.org/2000/svg" viewBox="0 0 97.66 97.66">
  <defs>
    <style>
      .cls-1 {
        fill: #6d1b44;
      }

      .cls-2 {
        fill: #bc4681;
      }

      .cls-3 {
        fill: #515059;
      }

      .cls-4 {
        fill: #ec69a4;
      }
    </style>
  </defs>
  <g id="Calque_4" data-name="Calque 4">
    <g>
      <g>
        <g>
          <rect class="cls-2" width="97.66" height="97.66" rx="8.89" ry="8.89"/>
          <rect class="cls-4" width="97.66" height="76.3" rx="8.89" ry="8.89"/>
        </g>
        <path class="cls-1" d="m19.35,83.93h58.96c3.31,0,6,2.69,6,6v7.73H13.35v-7.73c0-3.31,2.69-6,6-6Z"/>
      </g>
      <path class="cls-3" d="m19.84,88.5h57.99v5.1c0,2.24-1.82,4.06-4.06,4.06H23.89c-2.24,0-4.06-1.82-4.06-4.06v-5.1h0Z" transform="translate(97.66 186.16) rotate(180)"/>
      <path class="cls-1" d="m51.07,74.41l9.09-15.74c1.07-1.85-.27-4.17-2.41-4.17h-18.17c-2.14,0-3.48,2.32-2.41,4.17l9.09,15.74c1.07,1.85,3.75,1.85,4.82,0Z"/>
      <path class="cls-1" d="m19.47,35.01l-12.45-7.19c-1.47-.85-3.3.21-3.3,1.91v14.37c0,1.7,1.84,2.76,3.3,1.91l12.45-7.19c1.47-.85,1.47-2.97,0-3.82Z"/>
      <path class="cls-1" d="m78.31,40.83l12.45,7.19c1.47.85,3.3-.21,3.3-1.91v-14.37c0-1.7-1.84-2.76-3.3-1.91l-12.45,7.19c-1.47.85-1.47,2.97,0,3.82Z"/>
    </g>
  </g>
</svg>