<?xml version="1.0" encoding="UTF-8"?>
<svg id="Usine_Left_Out" xmlns="http://www.w3.org/2000/svg" viewBox="0 0 128 145.62">
  <defs>
    <style>
      .cls-1 {
        fill: #3a3737;
      }

      .cls-2 {
        fill: #f8ae60;
      }

      .cls-3 {
        fill: #cc644c;
      }
    </style>
  </defs>
  <g>
    <path class="cls-2" d="M31,109.3H97.78c7.24,0,13.11,5.88,13.11,13.11v23.21H17.89v-23.21c0-7.24,5.88-13.11,13.11-13.11Z"/>
    <path class="cls-3" d="M23.89,127.62H104.89c3.31,0,6,2.69,6,6v12H17.89v-12c0-3.31,2.69-6,6-6Z"/>
    <path class="cls-1" d="M30.45,133.62H98.34c2.24,0,4.06,1.82,4.06,4.06v7.94H26.39v-7.94c0-2.24,1.82-4.06,4.06-4.06Z"/>
  </g>
  <path id="Out" class="cls-3" d="M66.8,123.56l4.28-7.42c1.07-1.85-.27-4.17-2.41-4.17h-8.57c-2.14,0-3.48,2.32-2.41,4.17l4.28,7.42c1.07,1.85,3.75,1.85,4.82,0Z"/>
</svg>