<?xml version="1.0" encoding="UTF-8"?>
<svg id="Usine_Right_Out" xmlns="http://www.w3.org/2000/svg" viewBox="0 0 128 128">
  <defs>
    <style>
      .cls-1 {
        fill: #2eb5b0;
      }

      .cls-2 {
        fill: #832a2b;
      }

      .cls-3 {
        fill: #fefbfd;
      }

      .cls-4 {
        fill: #1d6173;
      }

      .cls-5 {
        fill: #a9a0a5;
        isolation: isolate;
        opacity: .75;
      }

      .cls-6 {
        fill: #ea5254;
      }

      .cls-7 {
        fill: #217782;
      }

      .cls-8 {
        stroke: #2eb5b0;
        stroke-miterlimit: 10;
        stroke-width: 3px;
      }

      .cls-8, .cls-9 {
        fill: none;
      }

      .cls-10 {
        fill: #f39b9b;
      }
    </style>
  </defs>
  <rect class="cls-7" x="0" y="-.03" width="128" height="128.06" rx="8.89" ry="8.89"/>
  <rect class="cls-1" x="0" width="128" height="100.04" rx="8.89" ry="8.89"/>
  <g>
    <path class="cls-2" d="m22.57,82.66c-.29-.25-.58-.5-.86-.75-.6-.49-1.17-.99-1.74-1.51h0s.07-.06.07-.06c.51.51,1.05,1.01,1.6,1.51.02.02.05.04.07.06s.05.04.07.06c.26.23.53.47.8.7Z"/>
    <path class="cls-2" d="m71.65,96.79c-.06,0-.12.02-.18.02-.1.01-.2.02-.3.03.17-.02.33-.03.49-.05Z"/>
    <path class="cls-2" d="m74.55,96.39c-.16.03-.33.06-.49.09-.15.02-.3.04-.45.06.32-.05.63-.1.94-.15Z"/>
    <path class="cls-2" d="m76.17,96.1c-.17.03-.33.06-.49.1-.3.06-.6.11-.9.15.3-.05.6-.1.9-.16.17-.03.33-.06.5-.09Z"/>
    <path class="cls-2" d="m56.31,41.01c-.16-2.07-.8-4-1.82-5.68-.12-1.78-1.43-3.24-3.14-3.58h0s0,0,0,0c-1.55-1.22-3.39-2.1-5.39-2.52-.88-.19-1.78-.28-2.72-.28-7.25,0-13.13,5.88-13.13,13.13s5.88,13.13,13.13,13.13c2.35,0,4.55-.61,6.46-1.7.42-.23.82-.49,1.21-.77,2.64-1.9,4.54-4.76,5.2-8.07.17-.84.26-1.7.26-2.58,0-.36-.02-.71-.05-1.06Zm12.96,24.42c1.27-.17,2.48-.45,3.62-.82-1.16.35-2.38.62-3.62.82Zm4.02-.95c2.83-.9,5.23-2.27,6.51-4-1.63,1.71-3.88,3.1-6.51,4Zm6.75-4.36c-.07.11-.14.22-.22.33.26-.27.49-.54.72-.83-.19.17-.39.33-.5.5Zm.68-.75c-.06.09-.12.17-.19.25.21-.19.41-.39.45-.59-.08.12-.17.23-.27.34Zm8.08-30.44c-.86,0-1.7.08-2.51.24-1.29-.91-2.86-1.45-4.57-1.45-4.36,0-7.89,3.53-7.89,7.89,0,1.96.72,3.75,1.9,5.14-.05.43-.07.87-.07,1.32,0,.83.07,1.64.23,2.43.74,3.97,3.26,7.3,6.7,9.15,1.85.99,3.96,1.55,6.2,1.55,7.25,0,13.13-5.88,13.13-13.13s-5.88-13.13-13.13-13.13Z"/>
    <path class="cls-2" d="m88.74,92.11c-.7.32-1.4.61-2.12.89.72-.29,1.42-.59,2.12-.89Z"/>
    <path class="cls-2" d="m90.4,91.34h0c-.32.15-.63.3-.95.45.32-.14.64-.29.95-.45Z"/>
    <path class="cls-2" d="m92.47,90.3c-.06.04-.13.07-.19.11-.13.06-.26.13-.39.2-.05.03-.1.05-.15.07.25-.13.49-.25.74-.38Z"/>
    <path class="cls-2" d="m94.11,89.41h0s-.02.02-.03.02c.01-.01.02-.02.03-.02Z"/>
    <path class="cls-2" d="m78.71,95.54s-.05.02-.07.02c-.07.02-.15.04-.23.06-.23.05-.46.11-.69.16-.26.06-.51.12-.76.17.4-.09.78-.18,1.17-.27.19-.04.38-.09.58-.14Z"/>
    <path class="cls-2" d="m79.87,95.24c-.08.03-.17.05-.25.07-.09.02-.18.04-.26.06.17-.04.34-.09.51-.13Z"/>
    <path class="cls-2" d="m80.03,95.2c-.05.02-.1.04-.16.04.04,0,.07-.02.11-.03.02,0,.04,0,.05-.01Z"/>
    <path class="cls-2" d="m100.9,30.84s-.03,0-.04,0c-.06,0-.13,0-.19,0,.07,0,.15,0,.23-.01Z"/>
    <path class="cls-7" d="m106.22,28.58s.1-.04.14-.06c-.28.28-.58.56-.9.8-.69.51-1.46.9-2.26,1.15-.1.04-.2.06-.3.09-.11.03-.21.05-.32.08-.15.03-.3.06-.45.09-.15.03-.3.05-.45.06-.06,0-.13.01-.19.01-.04,0-.08.01-.12.01-.05,0-.1,0-.15.01-.06,0-.11,0-.17.01-.03,0-.06,0-.09,0-.01,0-.03,0-.04,0-.08,0-.16.01-.23.01h-.14c-.13,0-.27,0-.4-.01-.13,0-.27-.02-.41-.03-.02,0-.03,0-.04,0-.14-.02-.29-.03-.43-.05-.14-.02-.29-.04-.44-.07-.33-.06-.65-.13-.98-.22-2.84-.76-5.67-2.68-7.8-5.54-4.16-5.62-4.05-12.76.26-15.96s11.18-1.24,15.35,4.37c3.88,5.23,4.05,11.78.58,15.24Z"/>
    <path class="cls-9" d="m78.13,95.67c.09-.02.19-.04.28-.06.07-.02.15-.04.23-.06.02,0,.05-.01.07-.02-.19.05-.38.1-.58.14Z"/>
    <path class="cls-6" d="m22.57,82.66c-.29-.25-.58-.5-.86-.75-.6-.49-1.17-.99-1.74-1.51h0s.07-.06.07-.06c.51.51,1.05,1.01,1.6,1.51.02.02.05.04.07.06s.05.04.07.06c.26.23.53.47.8.7Z"/>
    <path class="cls-6" d="m71.65,96.79c-.06,0-.12.02-.18.02-.1.01-.2.02-.3.03.17-.02.33-.03.49-.05Z"/>
    <path class="cls-6" d="m74.55,96.39c-.16.03-.33.06-.49.09-.15.02-.3.04-.45.06.32-.05.63-.1.94-.15Z"/>
    <path class="cls-6" d="m76.17,96.1c-.17.03-.33.06-.49.1-.3.06-.6.11-.9.15.3-.05.6-.1.9-.16.17-.03.33-.06.5-.09Z"/>
    <path class="cls-4" d="m56.31,41.01c-.16-2.07-.8-4-1.82-5.68-.12-1.78-1.43-3.24-3.14-3.58h0s0,0,0,0c-1.55-1.22-3.39-2.1-5.39-2.52-.88-.19-1.78-.28-2.72-.28-7.25,0-13.13,5.88-13.13,13.13s5.88,13.13,13.13,13.13c2.35,0,4.55-.61,6.46-1.7.42-.23.82-.49,1.21-.77,2.64-1.9,4.54-4.76,5.2-8.07.17-.84.26-1.7.26-2.58,0-.36-.02-.71-.05-1.06Zm12.96,24.42c1.27-.17,2.48-.45,3.62-.82-1.16.35-2.38.62-3.62.82Zm4.02-.95c2.83-.9,5.23-2.27,6.51-4-1.63,1.71-3.88,3.1-6.51,4Zm6.75-4.36c-.07.11-.14.22-.22.33.26-.27.49-.54.72-.83-.19.17-.39.33-.5.5Zm.68-.75c-.06.09-.12.17-.19.25.21-.19.41-.39.45-.59-.08.12-.17.23-.27.34Zm8.08-30.44c-.86,0-1.7.08-2.51.24-1.29-.91-2.86-1.45-4.57-1.45-4.36,0-7.89,3.53-7.89,7.89,0,1.96.72,3.75,1.9,5.14-.05.43-.07.87-.07,1.32,0,.83.07,1.64.23,2.43.74,3.97,3.26,7.3,6.7,9.15,1.85.99,3.96,1.55,6.2,1.55,7.25,0,13.13-5.88,13.13-13.13s-5.88-13.13-13.13-13.13Z"/>
    <path class="cls-6" d="m78.41,95.62c-.23.05-.46.11-.69.16-.26.06-.51.12-.76.17.4-.09.78-.18,1.17-.27.09-.02.19-.04.28-.06Z"/>
    <path class="cls-6" d="m79.34,11.78s-.02.1-.03.14c-.56-.17-1.07-.32-1.56-.45.53.09,1.06.19,1.59.31Z"/>
    <path class="cls-6" d="m79.87,95.24c-.08.03-.17.05-.25.07-.09.02-.18.04-.26.06.17-.04.34-.09.51-.13Z"/>
    <path class="cls-6" d="m100.9,30.84s-.03,0-.04,0c-.06,0-.13,0-.19,0,.07,0,.15,0,.23-.01Z"/>
    <path class="cls-6" d="m88.74,92.11c-.7.32-1.4.61-2.12.89.72-.29,1.42-.59,2.12-.89Z"/>
    <path class="cls-6" d="m90.4,91.34h0c-.32.15-.63.3-.95.45.32-.14.64-.29.95-.45Z"/>
    <path class="cls-6" d="m92.47,90.3c-.06.04-.13.07-.19.11-.13.06-.26.13-.39.2-.05.03-.1.05-.15.07.25-.13.49-.25.74-.38Z"/>
    <path class="cls-6" d="m109.44,77.81h0s0,0,0,0h0s-.06-.05-.09-.07c.03.02.06.05.1.07Z"/>
    <path class="cls-10" d="m100.9,30.84s-.03,0-.04,0c-.06,0-.13,0-.19,0,.07,0,.15,0,.23-.01Z"/>
    <path class="cls-2" d="m100.9,30.84s-.03,0-.04,0c-.06,0-.13,0-.19,0,.07,0,.15,0,.23-.01Z"/>
    <path class="cls-1" d="m75.9,44.5c.74,3.97,3.26,7.3,6.7,9.15-.13-3.75-2.73-7.06-6.7-9.15Zm4.14,15.63c-.07.11-.14.22-.22.33.26-.27.49-.54.72-.83-.19.17-.39.33-.5.5Zm-10.77,5.3c1.27-.17,2.48-.45,3.62-.82-1.16.35-2.38.62-3.62.82Zm-18.84-15s-.01.02-.01.02c-.43.97-.68,1.99-.73,3.04.42-.23.82-.49,1.21-.77,2.64-1.9,4.54-4.76,5.2-8.07-2.64,1.45-4.65,3.45-5.67,5.78Z"/>
    <path class="cls-7" d="m89.62,35.62c0,4.36-3.53,7.89-7.89,7.89-2.4,0-4.54-1.07-5.99-2.75-1.19-1.38-1.9-3.18-1.9-5.14,0-4.36,3.53-7.89,7.89-7.89,1.7,0,3.28.54,4.57,1.45,2.01,1.43,3.32,3.78,3.32,6.43Z"/>
    <circle class="cls-4" cx="81.73" cy="35.62" r="3.95"/>
    <circle class="cls-7" cx="86.52" cy="32.07" r="1.83"/>
    <g>
      <path class="cls-7" d="m56.31,41.01c-1.43,1.53-3.48,2.49-5.75,2.49-4.36,0-7.89-3.53-7.89-7.89,0-2.63,1.29-4.96,3.27-6.39,2.01.42,3.84,1.3,5.39,2.52h.01c1.71.35,3.02,1.8,3.14,3.59,1.01,1.68,1.66,3.61,1.82,5.68Z"/>
      <path class="cls-4" d="m54.51,35.62c0,2.18-1.77,3.95-3.95,3.95s-3.95-1.77-3.95-3.95,1.77-3.95,3.95-3.95c.27,0,.52.03.77.07h.01c1.71.35,3.02,1.8,3.14,3.59.01.1.02.19.02.28Z"/>
    </g>
    <path class="cls-1" d="m50.9,52.72c-.39.28-.79.54-1.21.77.02-.9.2-1.79.56-2.65.05-.13.11-.26.18-.39,0,0,0-.02.01-.02.16-.32.34-.63.54-.92-.24,1.05-.26,2.14-.07,3.21Z"/>
    <path class="cls-2" d="m79.8,60.49c-1.28,1.74-3.68,3.1-6.51,4,2.63-.9,4.88-2.3,6.51-4Z"/>
    <path class="cls-2" d="m80.99,59.04c-.05.2-.25.4-.45.59.06-.09.13-.17.19-.25.1-.11.19-.22.27-.34Z"/>
    <path class="cls-10" d="m71.17,96.84c.1,0,.2-.02.3-.03.06,0,.12-.02.18-.02-.16.02-.32.03-.49.05Zm2.45-.3c.15-.02.3-.04.45-.06.17-.03.33-.05.49-.09-.31.05-.62.1-.94.15Zm2.06-.35c-.3.06-.6.11-.9.16.3-.05.6-.1.9-.15,0,0,0,0,0,0Z"/>
    <g>
      <path class="cls-5" d="m22.57,82.66c-.29-.25-.58-.5-.86-.75.02.02.05.04.07.05.26.23.53.47.8.7Z"/>
      <path class="cls-5" d="m76.17,96.1c-.17.03-.33.06-.49.1-.3.06-.6.11-.9.15.3-.05.6-.1.9-.16.17-.03.33-.06.5-.09Z"/>
      <path class="cls-5" d="m78.64,95.56c-.07.02-.15.04-.23.06-.23.05-.46.11-.69.16-.26.06-.51.12-.76.17.4-.09.78-.18,1.17-.27.17-.04.34-.07.51-.12Z"/>
      <path class="cls-5" d="m79.62,95.31c-.25.07-.49.13-.74.19.06-.02.13-.04.2-.05,0,0,.02,0,.02,0,.09-.02.18-.04.26-.06.09-.02.18-.04.26-.06Z"/>
      <path class="cls-5" d="m80.03,95.2c-.05.02-.1.04-.16.04.04,0,.07-.02.11-.03.02,0,.04,0,.05-.01Z"/>
      <path class="cls-5" d="m88.74,92.11c-.7.32-1.4.61-2.12.89.72-.29,1.42-.59,2.12-.89Z"/>
      <path class="cls-5" d="m90.4,91.34h0c-.32.15-.63.3-.95.45.32-.14.64-.29.95-.45Z"/>
      <path class="cls-5" d="m92.47,90.3c-.06.04-.13.07-.19.11-.13.06-.26.13-.39.2-.05.03-.1.05-.15.07.25-.13.49-.25.74-.38Z"/>
      <path class="cls-5" d="m94.11,89.41h0s-.02.02-.03.02c.01-.01.02-.02.03-.02Z"/>
      <path class="cls-3" d="m21.71,81.9c-.6-.49-1.17-.99-1.74-1.51h0s.07-.06.07-.06c.51.51,1.05,1.01,1.6,1.51.02.02.05.04.07.06Z"/>
      <path class="cls-3" d="m22.57,82.66c-.29-.25-.58-.5-.86-.75-.6-.49-1.17-.99-1.74-1.51.54.49,1.09.97,1.67,1.44.02.02.05.04.07.06s.05.04.07.06c.26.23.53.47.8.7Z"/>
      <path class="cls-3" d="m71.65,96.79c-.06,0-.12.02-.18.02-.1.01-.2.02-.3.03.17-.02.33-.03.49-.05Z"/>
      <path class="cls-3" d="m74.55,96.39c-.16.03-.33.06-.49.09-.15.02-.3.04-.45.06.32-.05.63-.1.94-.15Z"/>
      <path class="cls-3" d="m76.17,96.1c-.17.03-.33.06-.49.1-.3.06-.6.11-.9.15.3-.05.6-.1.9-.16.17-.03.33-.06.5-.09Z"/>
      <path class="cls-3" d="m79.87,95.24c-.08.03-.17.05-.25.07-.09.02-.18.04-.26.06.17-.04.34-.09.51-.13Z"/>
      <path class="cls-3" d="m80.03,95.2c-.05.02-.1.04-.16.04.04,0,.07-.02.11-.03.02,0,.04,0,.05-.01Z"/>
      <path class="cls-9" d="m100.67,30.85c.06,0,.13,0,.19,0,.02,0,.03,0,.04,0-.08,0-.16.01-.23.01Z"/>
      <path class="cls-4" d="m109.33,48.92c0-5.35-1.11-10.44-3.11-15.06.34-.19.66-.41.98-.64,3.72-2.76,5.12-7.7,4.16-12.89-.05-.25-.1-.5-.15-.75-.04-.18-.08-.36-.13-.54-.08-.31-.17-.62-.27-.93-.69-2.31-1.86-4.61-3.49-6.75-5.88-7.73-17.59-10.81-23.66-6.4-2.27,1.65-3.71,4.05-4.32,6.82-.01.05-.02.1-.03.14-.56-.17-1.07-.32-1.56-.45-2.84-.77-4.79-.95-8.33-.95h-11.35c-3.03,0-5.97.33-8.8.96-.69-2.27-1.98-4.23-3.86-5.62-1.8-1.34-3.94-2.01-6.19-2.07-5.93-1.9-13.6,1.05-18.56,7.57-5.88,7.73-5.72,17.57.35,21.97.21.15.42.29.63.42-2.16,4.78-3.35,10.06-3.35,15.62v29.63s.07-.06.11-.09c.48.48.97.95,1.48,1.4.03.03.05.05.08.07h0s0,0,0,0h0s.07-.06.07-.06c.51.51,1.05,1.01,1.6,1.51.02.02.05.04.07.06s.05.04.07.06c.26.23.53.47.8.7.06.05.12.11.19.16.21.18.41.35.62.52.14.12.28.23.42.35,8.4,6.74,19.36,11.15,31.56,12.75,2.36.32,4.77.52,7.21.61.53.02,1.06.04,1.59.05.01,0,.02,0,.03,0,.02,0,.05,0,.07,0,.52.01,1.04.02,1.55.02.27,0,.54,0,.82,0,.16,0,.32-.01.48-.02.29-.01.58-.02.88-.03.42-.02.84-.04,1.27-.06.44-.03.88-.06,1.31-.1.04,0,.09-.01.13-.01.04,0,.09,0,.13-.01.05,0,.09,0,.14-.02.06,0,.13-.01.2-.02.17-.02.33-.03.49-.05.66-.07,1.31-.16,1.96-.25.32-.05.63-.1.94-.15.03,0,.05,0,.07-.01.05-.01.1-.02.15-.03.3-.05.6-.1.9-.16.17-.03.33-.06.5-.09.1-.02.2-.04.3-.06,0,0,.02,0,.02,0,.15-.03.31-.06.46-.1.4-.09.78-.18,1.17-.27.19-.04.38-.09.58-.14h.01c.05-.02.11-.03.16-.04.06-.02.13-.04.2-.05,0,0,.02,0,.02,0,.09-.02.18-.04.26-.06.17-.04.34-.09.51-.13.04,0,.07-.02.11-.03.02,0,.04,0,.05-.01h0s.05-.01.07-.02c.02,0,.03-.01.05-.02.02,0,.04-.01.05-.02.22-.06.44-.12.66-.19h0s.07-.02.11-.03c.06-.02.12-.03.19-.05.13-.04.26-.07.39-.11.41-.12.82-.25,1.22-.38.02,0,.05-.01.07-.02.05-.02.1-.03.15-.05.11-.03.21-.07.31-.11.09-.02.17-.05.26-.09.33-.11.66-.22.99-.34.05-.02.1-.04.15-.06.64-.23,1.27-.47,1.9-.72h0c.72-.29,1.42-.59,2.12-.9.23-.11.47-.21.7-.32.32-.14.64-.29.95-.45.04-.02.09-.04.13-.06.06-.03.11-.05.17-.08.09-.04.18-.09.26-.13.26-.12.52-.25.78-.39.25-.13.49-.25.74-.38.25-.12.49-.26.73-.39.12-.06.23-.12.35-.19.18-.1.36-.19.53-.29.01-.01.02-.02.03-.02.02-.01.04-.02.05-.03.29-.16.57-.32.85-.49.6-.35,1.19-.7,1.78-1.07,0,0,0,0,0,0,.32-.2.64-.4.95-.6.44-.29.88-.58,1.31-.87.12-.08.24-.16.36-.25.06-.04.13-.09.19-.13h0s.07-.05.11-.08c.27-.19.54-.37.8-.57.61-.43,1.2-.88,1.79-1.32.59-.45,1.17-.9,1.74-1.37,1.82-1.47,3.53-3.02,5.14-4.61.07-.07.15-.14.22-.22-.03-.03-.06-.06-.09-.08v-28.82ZM26.61,12.86c1.19-1.61,2.61-2.91,4.13-3.88-.03.03-.06.06-.1.09,3.81-2.51,8.27-2.9,11.39-.59,4.31,3.2,4.42,10.35.25,15.96-2.81,3.79-6.86,5.92-10.51,5.92-.11,0-.22,0-.33,0-1.67-.04-3.25-.53-4.58-1.53-4.31-3.2-4.42-10.35-.25-15.96Zm62.2,42.34c-2.24,0-4.35-.56-6.2-1.55,0,.1,0,.19,0,.29,0,1.96-.68,3.82-1.88,5.45.1-.11.19-.22.27-.34-.05.2-.25.4-.45.59-.22.28-.46.56-.72.83-.01.01-.02.02-.02.03-1.28,1.74-3.68,3.1-6.51,4-.13.05-.27.09-.4.13-1.14.37-2.35.65-3.62.82-3.97.62-8.12.41-10.97-.81-2.32-.99-4.28-2.42-5.75-4.07-1.82-1.88-2.88-4.16-2.88-6.62,0-.07,0-.14,0-.21,0-.07,0-.14,0-.22-1.91,1.09-4.11,1.7-6.46,1.7-7.25,0-13.13-5.88-13.13-13.13s5.88-13.13,13.13-13.13c.93,0,1.84.1,2.72.28,1.3-.94,2.89-1.5,4.62-1.5,4.36,0,7.89,3.53,7.89,7.89,0,2.09-.81,3.98-2.14,5.4.03.35.05.7.05,1.06,0,.89-.09,1.75-.26,2.58,2.78-1.53,6.26-2.43,10.04-2.43s7.03.85,9.76,2.28c-.15-.78-.23-1.6-.23-2.43,0-.45.02-.89.07-1.32-1.19-1.38-1.9-3.18-1.9-5.14,0-4.36,3.53-7.89,7.89-7.89,1.7,0,3.28.54,4.57,1.45.81-.16,1.65-.24,2.51-.24,7.25,0,13.13,5.88,13.13,13.13s-5.88,13.13-13.13,13.13Zm14.4-24.73c-.1.04-.2.06-.3.09-.11.03-.21.05-.32.08-.15.03-.3.06-.45.09-.15.03-.3.05-.45.06-.15.02-.31.03-.47.03-.06,0-.11,0-.17.01-.03,0-.06,0-.09,0-.01,0-.03,0-.04,0-.02,0-.03,0-.04,0-.06,0-.13,0-.19,0h-.14c-.13,0-.27,0-.4-.01-.13,0-.27-.02-.41-.03-.02,0-.03,0-.04,0-.14-.02-.29-.03-.43-.05-.14-.02-.29-.04-.44-.07-.33-.06-.65-.13-.98-.22-2.84-.76-5.67-2.68-7.8-5.54-4.16-5.62-4.05-12.76.26-15.96s11.18-1.24,15.35,4.37c3.88,5.23,4.05,11.78.58,15.24.05-.02.1-.04.14-.06-.28.28-.58.56-.9.8-.69.51-1.46.9-2.26,1.15Z"/>
      <path class="cls-7" d="m42.28,24.44c-2.81,3.79-6.86,5.92-10.51,5.92-.11,0-.22,0-.33,0-1.67-.04-3.25-.53-4.58-1.53-4.31-3.2-4.42-10.35-.25-15.96,1.19-1.61,2.61-2.91,4.13-3.88-.03.03-.06.06-.1.09,3.81-2.51,8.27-2.9,11.39-.59,4.31,3.2,4.42,10.35.25,15.96Z"/>
      <path class="cls-7" d="m58.45,35.62c0,2.09-.81,3.98-2.14,5.4-.16-2.07-.8-4-1.82-5.68-.12-1.78-1.43-3.24-3.14-3.58h0s0,0,0,0c-1.55-1.22-3.39-2.1-5.39-2.52,1.3-.94,2.89-1.5,4.62-1.5,4.36,0,7.89,3.53,7.89,7.89Z"/>
      <path class="cls-9" d="m82.61,53.65c-3.44-1.84-5.96-5.18-6.7-9.15-2.73-1.43-6.1-2.28-9.76-2.28s-7.26.91-10.04,2.43c-.66,3.31-2.56,6.17-5.2,8.07-.39.28-.79.54-1.21.77,0,.08,0,.15,0,.22,0,.07,0,.14,0,.21,0,2.46,1.06,4.74,2.88,6.62,1.46,1.65,3.42,3.08,5.75,4.07,2.85,1.22,7.01,1.43,10.97.81,1.24-.19,2.46-.46,3.62-.82.13-.04.27-.08.4-.13,2.63-.9,4.88-2.3,6.51-4,0,0,.01-.02.02-.03.07-.11.15-.21.22-.33.11-.17.3-.33.5-.5.06-.09.13-.17.19-.25,1.21-1.63,1.88-3.48,1.88-5.45,0-.1,0-.19,0-.29Zm-16.46,1.5c-4.52,0-8.19-2.61-8.19-5.82s3.66-5.82,8.19-5.82,8.19,2.61,8.19,5.82-3.66,5.82-8.19,5.82Z"/>
      <ellipse class="cls-7" cx="66.14" cy="49.32" rx="8.19" ry="5.82"/>
      <path class="cls-3" d="m88.74,92.11c-.7.32-1.4.61-2.12.89.72-.29,1.42-.59,2.12-.89Z"/>
      <path class="cls-3" d="m90.52,91.28s-.09.04-.13.06c-.32.15-.63.3-.95.44.32-.14.64-.29.95-.45.04-.02.09-.04.13-.06Z"/>
      <path class="cls-3" d="m92.47,90.3c-.06.04-.13.07-.19.11-.13.06-.26.13-.39.2-.05.03-.1.05-.15.07.25-.13.49-.25.74-.38Z"/>
      <path class="cls-3" d="m94.16,89.38s-.03.02-.05.03c-.01,0-.02.01-.03.02.01-.01.02-.02.03-.02.02-.01.04-.02.05-.03Z"/>
      <path class="cls-3" d="m99.73,85.9s-.07.05-.11.08h0s.07-.05.11-.08Z"/>
    </g>
    <path class="cls-8" d="m56.36,42.07c0,.89-.09,1.75-.26,2.58-.66,3.31-2.56,6.17-5.2,8.07-.39.28-.79.54-1.21.77-1.91,1.09-4.11,1.7-6.46,1.7-7.25,0-13.13-5.88-13.13-13.13s5.88-13.13,13.13-13.13c.93,0,1.84.1,2.72.28,2.01.42,3.84,1.3,5.39,2.52h.01c1.26,1,2.32,2.21,3.14,3.59,1.01,1.68,1.66,3.61,1.82,5.68.03.35.05.7.05,1.06Z"/>
    <path class="cls-8" d="m101.93,42.07c0,7.25-5.88,13.13-13.13,13.13-2.24,0-4.35-.56-6.2-1.55-3.44-1.84-5.96-5.18-6.7-9.15-.15-.78-.23-1.6-.23-2.43,0-.45.02-.89.07-1.32.21-2.18.96-4.2,2.12-5.93,0,0,0,0,0-.01.74-1.13,1.66-2.13,2.71-2.97,1.63-1.32,3.58-2.25,5.72-2.66.81-.16,1.65-.24,2.51-.24,7.25,0,13.13,5.88,13.13,13.13Z"/>
    <path class="cls-8" d="m56.36,42.07c0-4.14,19.31-4.14,19.31,0"/>
  </g>
</svg>