<?xml version="1.0" encoding="UTF-8"?>
<svg id="Usine_Base" xmlns="http://www.w3.org/2000/svg" viewBox="0 0 128 128">
  <defs>
    <style>
      .cls-1 {
        fill: #acce74;
      }

      .cls-2 {
        fill: #5c9161;
      }

      .cls-3 {
        fill: #6dab6a;
      }
    </style>
  </defs>
  <rect class="cls-3" y="-.06" width="128" height="128.11" rx="8.89" ry="8.89"/>
  <rect class="cls-1" y="-.06" width="128" height="100.09" rx="8.89" ry="8.89"/>
  <path class="cls-2" d="M32.81,87.36s.07-.02,.11-.02c.4-.07,1.85-.36,3.96-.97,5.38-1.56,15.03-5.24,22.44-12.98,0,0,.02-.02,.03-.03,1.71-1.79,2.96-3.97,3.7-6.34l.02-.06c-.75,8.55-1.15,19.6,1.26,23.43,.87,.02,1.32-.51,1.13-1.89-1.78-4.1-1.89-14.24-1.66-22.11,1.6,2.34,3.48,4.65,5.71,6.77,3.19,3.06,6.74,5.4,10.19,7.19h0c-.69-1.64-1.25-3.44-1.73-5.33,.93,1.79,2.88,4.39,4.82,6.81,7.51,3.31,13.82,4.08,13.83,4.08,0,0,0,0,0,0,0,0,0,0,0,0h0s0,0,0,0c0,0,0,0,0,0,0,0,0,0,0,0,0-.04-.02-.07-.02-.11-.07-.4-.36-1.85-.97-3.96-1.29-4.46-4.04-11.85-9.35-18.46,2.44-.38,4.76-.95,6.93-1.63h0c-1.65-.68-3.31-1.56-4.99-2.55,1.92,.61,5.14,1.07,8.23,1.41,7.66-2.97,12.67-6.9,12.67-6.9-.01,0-.02-.02-.04-.02-.21-.14-1.47-1.01-3.55-2.16-4.06-2.24-11.23-5.52-19.66-6.44,1.46-1.99,2.69-4.04,3.74-6.06h0c-1.64,.69-3.44,1.24-5.33,1.73,1.79-.93,4.39-2.88,6.81-4.82,3.31-7.51,4.08-13.82,4.08-13.83h0s0,0,0,0c0,0,0,0,0,0,0,0,0,0,0,0,0,0,0,0,0,0,0,0,0,0,0,0-.04,0-.07,.02-.11,.02-.4,.07-1.85,.36-3.96,.97-4.46,1.29-11.85,4.04-18.46,9.35-.38-2.44-.95-4.76-1.63-6.93h0c-.67,1.64-1.55,3.31-2.55,4.99,.61-1.92,1.07-5.14,1.41-8.23-2.97-7.66-6.9-12.66-6.9-12.66,0,0-.93,1.3-2.19,3.58-2.24,4.06-5.52,11.23-6.44,19.66-1.99-1.46-4.04-2.69-6.06-3.74h0c.69,1.64,1.25,3.44,1.73,5.33-.93-1.79-2.88-4.39-4.82-6.81-7.51-3.31-13.82-4.08-13.83-4.08,0,0,0,0,0,0,0,0,0,0,0,0,0,0,0,0,0,0,0,0,0,0,0,0,0,0,0,0,0,0,0,0,0,0,0,0,0,.04,.02,.07,.02,.11,.07,.4,.36,1.85,.97,3.96,1.29,4.46,4.04,11.85,9.35,18.46-2.44,.38-4.76,.95-6.93,1.63h0c1.65,.68,3.31,1.56,4.99,2.55-1.92-.61-5.14-1.07-8.23-1.41-7.66,2.97-12.66,6.9-12.66,6.9,0,0,1.3,.93,3.58,2.19,4.06,2.24,11.23,5.52,19.66,6.44-1.46,1.99-2.69,4.04-3.74,6.05h0c1.64-.69,3.44-1.24,5.33-1.73-1.79,.93-4.39,2.88-6.81,4.82-3.31,7.51-4.08,13.82-4.08,13.83h0Zm0,0M107.87,52.88c-.58-.36-1.17-.71-1.76-1.05,.59,.33,1.18,.68,1.76,1.05Z"/>
</svg>