<?xml version="1.0" encoding="UTF-8"?>
<svg id="Usine_Right_Out" xmlns="http://www.w3.org/2000/svg" viewBox="0 0 128 128">
  <defs>
    <style>
      .cls-1 {
        fill: #ba4d38;
      }

      .cls-2 {
        fill: #ed6d50;
      }

      .cls-3 {
        fill: #a13d30;
      }
    </style>
  </defs>
  <rect class="cls-1" y="-.03" width="128" height="128.06" rx="8.89" ry="8.89"/>
  <rect class="cls-2" width="128" height="100.04" rx="8.89" ry="8.89"/>
  <g>
    <path class="cls-1" d="m39.36,10.93h49.28c2.89,0,5.23,2.35,5.23,5.23v10h-59.74v-10c0-2.89,2.35-5.23,5.23-5.23Z"/>
    <path class="cls-3" d="m98.95,20.84H29.05c-2.13,0-3.86,1.73-3.86,3.86v2.93c0,2.13,1.73,3.86,3.86,3.86h1.74l-.66,3.43-.11.56c-.1.54-.19,1.07-.24,1.61-.12.92-.18,1.85-.18,2.78v4.04h0v28.51h0v4.86c0,6.54,5.31,11.83,11.84,11.83h45.11c6.54,0,11.83-5.3,11.83-11.83v-4.86h0v-28.51h0v-4.7c0-.71-.03-1.41-.09-2.12-.03-.33-.07-.66-.11-.98l-.16-1.19-.46-3.43h1.39c2.13,0,3.86-1.73,3.86-3.86v-2.93c0-2.13-1.73-3.86-3.86-3.86Z"/>
    <path class="cls-2" d="m57.46,60.76l-3.17-2.26c-.24-.17-.53-.2-.8-.11l-3.66,1.34c-.67.24-1.34-.39-1.13-1.08l1.17-3.72c.08-.27.03-.57-.14-.79l-2.4-3.07c-.45-.56-.04-1.4.67-1.4l3.89-.04c.29,0,.56-.14.71-.38l2.18-3.23c.4-.6,1.31-.47,1.54.21l1.24,3.69c.09.27.31.48.58.56l3.74,1.07c.69.19.86,1.1.28,1.53l-3.13,2.32c-.23.17-.36.45-.35.72l.13,3.89c.03.71-.78,1.15-1.37.74h0Z"/>
    <path class="cls-2" d="m58.99,71.65l-2.34-1.67c-.1-.08-.24-.09-.35-.05l-2.7.98c-.29.11-.59-.17-.5-.47l.86-2.74c.03-.12.02-.25-.07-.34l-1.77-2.26c-.19-.25-.02-.61.29-.61l2.88-.03c.13,0,.24-.07.31-.17l1.61-2.38c.18-.26.57-.21.67.09l.92,2.73c.04.12.13.21.25.24l2.76.79c.3.08.38.49.13.67l-2.3,1.72c-.1.08-.16.19-.15.32l.1,2.87c0,.31-.34.5-.6.32h0Z"/>
    <path class="cls-2" d="m74.56,67.06l-3.17-2.26c-.24-.17-.53-.2-.8-.11l-3.66,1.34c-.67.24-1.34-.39-1.13-1.08l1.17-3.72c.08-.27.03-.57-.14-.79l-2.4-3.07c-.45-.56-.04-1.4.67-1.4l3.89-.04c.29,0,.56-.14.71-.38l2.18-3.23c.4-.6,1.31-.47,1.54.21l1.24,3.69c.09.27.31.48.58.56l3.74,1.07c.69.19.86,1.1.28,1.53l-3.13,2.32c-.23.17-.36.45-.35.72l.13,3.89c.03.71-.78,1.15-1.37.74h0Z"/>
  </g>
</svg>