<?xml version="1.0" encoding="UTF-8"?>
<svg id="Usine_Right_Out" xmlns="http://www.w3.org/2000/svg" viewBox="0 0 146 128">
  <defs>
    <style>
      .cls-1 {
        fill: #5f8447;
      }

      .cls-2 {
        fill: #7fbf76;
      }

      .cls-3 {
        fill: #4c5e30;
      }
    </style>
  </defs>
  <g>
    <path class="cls-1" d="m128,17.5h11.24c3.73,0,6.76,3.03,6.76,6.76v79.48c0,3.73-3.03,6.76-6.76,6.76h-11.24V17.5h0Z"/>
    <path class="cls-2" d="m128,17.5h11.24c3.73,0,6.76,3.03,6.76,6.76v61.48c0,3.73-3.03,6.76-6.76,6.76h-11.24V17.5h0Z"/>
  </g>
  <path id="In" class="cls-3" d="m131.9,57.41l7.42,4.28c1.85,1.07,4.17-.27,4.17-2.41v-8.57c0-2.14-2.32-3.48-4.17-2.41l-7.42,4.28c-1.85,1.07-1.85,3.75,0,4.82Z"/>
</svg>