<?xml version="1.0" encoding="UTF-8"?>
<svg id="Usine_Right_Out" xmlns="http://www.w3.org/2000/svg" viewBox="0 0 128 128">
  <defs>
    <style>
      .cls-1 {
        fill: #7fbf76;
      }

      .cls-2 {
        fill: #4c5e30;
      }

      .cls-3 {
        fill: none;
        stroke: #5f8447;
        stroke-miterlimit: 10;
      }
    </style>
  </defs>
  <rect class="cls-2" x="0" y="-.03" width="128" height="128.06" rx="8.89" ry="8.89"/>
  <rect class="cls-1" x="0" y="0" width="128" height="100.04" rx="8.89" ry="8.89"/>
  <g>
    <rect class="cls-2" x="21.59" y="28.59" width="84.82" height="42.87" transform="translate(-16.63 59.91) rotate(-45)"/>
    <polyline class="cls-3" points="85.36 58.98 85.36 52.75 85.36 45.82 85.36 38.9 85.36 31.97 85.36 25.03 85.36 18.1 85.36 11.41"/>
    <polyline class="cls-3" points="92.18 52.16 92.18 45.82 92.18 38.9 92.18 31.97 92.17 25.04 92.17 18.23"/>
    <polyline class="cls-3" points="98.99 45.34 98.99 38.89 98.99 31.96 98.99 25.05 98.99 25.04"/>
    <polyline class="cls-3" points="105.82 31.87 105.82 31.96 105.82 38.52"/>
    <polyline class="cls-3" points="78.43 5.28 78.43 11.19 78.43 18.11 78.43 25.04 78.42 31.97 78.43 38.9 78.43 45.82 78.43 52.76 78.43 59.68 78.43 65.9"/>
    <polyline class="cls-3" points="71.5 12.21 71.5 18.11 71.5 25.04 71.5 31.96 71.5 38.89 71.5 45.82 71.5 52.75 71.5 59.68 71.5 66.61 71.5 72.84"/>
    <polyline class="cls-3" points="64.57 19.14 64.57 25.05 64.57 31.97 64.57 38.9 64.57 45.82 64.58 52.76 64.57 59.68 64.57 66.61 64.57 73.53 64.57 79.76"/>
    <polyline class="cls-3" points="57.65 86.69 57.65 80.46 57.65 73.53 57.65 66.61 57.65 59.68 57.64 52.75 57.64 45.82 57.65 38.89 57.65 31.96 57.65 26.06"/>
    <polyline class="cls-3" points="50.71 93.62 50.72 80.47 50.72 73.53 50.72 66.61 50.71 59.68 50.71 52.76 50.71 45.82 50.72 38.9 50.72 32.99"/>
    <polyline class="cls-3" points="43.79 89.79 43.79 80.47 43.79 73.53 43.79 66.6 43.79 59.67 43.79 52.75 43.79 45.82 43.79 39.92"/>
    <polyline class="cls-3" points="36.86 82.86 36.86 80.47 36.86 73.53 36.86 66.61 36.86 59.68 36.86 52.76 36.86 46.85"/>
    <polyline class="cls-3" points="29.94 75.93 29.93 73.53 29.93 66.61 29.94 59.67 29.94 53.77"/>
    <polyline class="cls-3" points="23.01 69.01 23 66.61 23 60.71"/>
    <polyline class="cls-3" points="72.53 11.18 78.43 11.19 85.13 11.19"/>
    <polyline class="cls-3" points="65.6 18.11 71.5 18.11 78.43 18.11 85.36 18.1 92.05 18.11"/>
    <polyline class="cls-3" points="98.99 25.04 98.98 25.04 92.17 25.04 85.36 25.03 78.43 25.04 71.5 25.04 64.57 25.05 58.67 25.04"/>
    <polyline class="cls-3" points="105.91 31.97 105.82 31.96 98.99 31.96 92.18 31.97 85.36 31.97 78.42 31.97 71.5 31.96 64.57 31.97 57.65 31.96 51.75 31.96"/>
    <polyline class="cls-3" points="105.44 38.89 98.99 38.89 92.18 38.9 85.36 38.9 78.43 38.9 71.5 38.89 64.57 38.9 57.65 38.89 50.72 38.9 44.81 38.9"/>
    <polyline class="cls-3" points="98.52 45.82 92.18 45.82 85.36 45.82 78.43 45.82 71.5 45.82 64.57 45.82 57.64 45.82 50.71 45.82 43.79 45.82 37.89 45.82"/>
    <polyline class="cls-3" points="30.96 52.75 36.86 52.76 43.79 52.75 50.71 52.76 57.64 52.75 64.58 52.76 71.5 52.75 78.43 52.76 85.36 52.75 91.58 52.75"/>
    <polyline class="cls-3" points="84.66 59.67 78.43 59.68 71.5 59.68 64.57 59.68 57.65 59.68 50.71 59.68 43.79 59.67 36.86 59.68 29.94 59.67 24.03 59.68"/>
    <polyline class="cls-3" points="20.61 66.6 23 66.61 29.93 66.61 36.86 66.61 43.79 66.6 50.72 66.61 57.65 66.61 64.57 66.61 71.5 66.61 77.73 66.61"/>
    <polyline class="cls-3" points="70.81 73.53 64.57 73.53 57.65 73.53 50.72 73.53 43.79 73.53 36.86 73.53 29.93 73.53 27.53 73.53"/>
    <polyline class="cls-3" points="63.87 80.46 57.65 80.46 50.72 80.47 43.79 80.47 36.86 80.47 34.46 80.46"/>
    <polyline class="cls-3" points="40.93 86.92 43.79 86.92 50.71 86.93 57.41 86.92"/>
    <line class="cls-3" x1="50.42" y1="93.92" x2="47.92" y2="93.92"/>
  </g>
</svg>