<?xml version="1.0" encoding="UTF-8"?>
<svg id="Usine_Right_Out" xmlns="http://www.w3.org/2000/svg" viewBox="0 0 128 128">
  <defs>
    <style>
      .cls-1 {
        fill: #ea5152;
      }

      .cls-2 {
        fill: #45b177;
      }

      .cls-3 {
        fill: #f07f48;
      }

      .cls-4 {
        fill: #f7ca9a;
      }

      .cls-5 {
        fill: #26733b;
      }

      .cls-6 {
        fill: #1b5126;
      }

      .cls-7 {
        fill: #65270c;
      }
    </style>
  </defs>
  <rect class="cls-5" x="0" y="-.03" width="128" height="128.06" rx="8.89" ry="8.89"/>
  <rect class="cls-2" x="0" width="128" height="100.04" rx="8.89" ry="8.89"/>
  <g>
    <path class="cls-5" d="m114.52,62.61l-6.25,2.38s-.67-1.78-1.4-4.02v-8.72c0-4.37-.8-8.55-2.25-12.41-.18-.49-.37-.96-.58-1.44-.1,0-.2,0-.3.01h0c-1.66.1-3.4.18-5.19.26-1.41.05-2.85.11-4.33.15-1.88.06-3.81.11-5.78.15-1.22.02-2.46.05-3.71.07-2.37.04-4.77.06-7.18.08-.26,0-.52,0-.78,0-.97,0-1.95,0-2.93,0-.66,0-1.31,0-1.97,0-1.21,0-2.41,0-3.61,0-1.16,0-2.31,0-3.46,0-.99,0-1.97,0-2.95-.02-.81,0-1.62,0-2.42-.01-.55,0-1.1-.01-1.65-.02-.7,0-1.39-.02-2.07-.02-1.9-.02-3.76-.04-5.57-.07-.53,0-1.05-.01-1.58-.02-1.27-.02-2.52-.04-3.72-.06-1.73-.03-3.38-.06-4.93-.09-4.12-.09-7.61-.18-10.19-.25-.34-.01-.67-.02-.97-.03-1.01-.03-1.85-.05-2.5-.07h0c-.54-.02-.94-.03-1.18-.03.03-.08.07-.16.11-.25,0-.01.01-.03.02-.04-.04-.03-.09-.05-.13-.08.45-.61,1-1.3,1.63-2.05.78-.93,1.69-1.95,2.69-3.02,0,0,.02-.02.03-.03.54-.58,1.12-1.16,1.72-1.76,1.26-1.26,2.63-2.55,4.08-3.82,1.6-1.41,3.31-2.8,5.07-4.1.8-.59,1.62-1.16,2.44-1.7.03-.02.05-.03.08-.05,0,0,0,0,.02,0,.4-.26.8-.52,1.2-.77.16-.11.33-.21.5-.31.09-.06.19-.12.29-.17.73-.43,1.46-.84,2.19-1.21,1.16-.6,2.33-1.13,3.49-1.55.14-.05.29-.11.44-.16.06-.02.12-.04.18-.06.02,0,.04-.01.06-.02,1.58-.45,3.18-.8,4.79-1.05,2.63-.42,5.25-.59,7.74-.6,1.28,0,2.53.03,3.73.1,1.66.09,3.23.24,4.66.42,1.67.21,3.16.46,4.4.7.14.02.27.05.41.08.71.14,1.41.31,2.1.5,1.01.28,2,.64,2.97,1.05l.4.18c.7.32,1.41.67,2.11,1.04.55.29,1.09.59,1.64.9.03,0,.04.02.06.03.7.4,1.4.83,2.09,1.26.52.33,1.03.67,1.55,1.01,5.13,3.44,9.82,7.59,12.9,10.86.11.12.22.24.33.35.02.01.03.02.03.04.82.88,1.51,1.7,2.05,2.41.14.17.26.34.37.5.01.02.03.04.04.06h0c-.05.05-.1.1-.15.14-.05.04-.1.09-.15.13h0c-.1.09-.21.17-.32.26,0,0-.01,0-.02.01-.13.09-.26.19-.39.27,1.36,1.03,2.8,2.17,3.23,2.73.88,1.14,3.94,8.33,3.56,11.32-.38,2.99,3.23,10.65,3.23,10.65Z"/>
    <path class="cls-5" d="m24.64,39.5c-1.64,4.08-2.55,8.53-2.55,13.18v6.93c-1.19,3.06-2.58,6.01-2.58,6.01l-6.03-2.88s4.23-7.34,4.1-10.35c-.13-3.01,3.51-9.91,4.48-10.99.38-.42,1.44-1.15,2.58-1.9Z"/>
    <path class="cls-7" d="m74.28,52.63c0,2.99-3.42,5.42-7.62,5.42s-7.62-2.43-7.62-5.42,3.41-5.42,7.62-5.42,7.62,2.43,7.62,5.42Z"/>
    <path class="cls-3" d="m74.28,52.63c0,2.99-3.42,5.42-7.62,5.42s-7.62-2.43-7.62-5.42,3.41-5.42,7.62-5.42,7.62,2.43,7.62,5.42Z"/>
    <path class="cls-6" d="m104.63,39.84c-.18-.49-.37-.96-.58-1.44-.1,0-.2,0-.3.01h0c-1.66.1-3.4.18-5.19.26-1.41.05-2.85.11-4.33.15-1.88.06-3.81.11-5.78.15.03.29.05.58.05.88,0,.04,0,.08,0,.13-.06,4-3.33,7.21-7.34,7.21s-7.27-3.21-7.34-7.21c0-.04,0-.09,0-.13,0-.24,0-.48.03-.72-.66,0-1.31,0-1.97,0-1.21,0-2.41,0-3.61,0-1.16,0-2.31,0-3.46,0-.99,0-1.97,0-2.95-.02-.81,0-1.62,0-2.42-.01.03.25.04.5.04.76v.04c-.02,4.04-3.3,7.3-7.34,7.3s-7.34-3.29-7.34-7.34c0-.05,0-.11,0-.17,0-.27.02-.53.06-.79-1.73-.03-3.38-.06-4.93-.09-4.12-.09-7.61-.18-10.19-.25-.34-.01-.67-.02-.97-.03-1.01-.03-1.85-.05-2.5-.07h0c-.54-.02-.94-.03-1.18-.03-.11.25-.22.51-.33.77-.04.1-.08.2-.12.3-1.64,4.08-2.55,8.53-2.55,13.18v25.84c10.93,7.49,25.76,12.09,42.09,12.09s31.71-4.78,42.7-12.52v-25.84c0-4.37-.8-8.55-2.25-12.41Zm-24.36,22.11c-.06.08-.12.16-.18.25t0,0c-.22.28-.46.56-.72.83-1.51,1.58-3.58,2.86-6.01,3.7,0,0-.02,0-.04.01-1.19.38-2.47.68-3.76.88-3.68.57-7.55.38-10.19-.76-2.18-.93-4.02-2.27-5.38-3.82,0,0-.01-.02-.03-.03-1.64-1.88-2.59-4.07-2.62-6.22,0-.05,0-.1,0-.16,0-.88.17-1.75.52-2.6.06-.15.13-.3.2-.44,1.97-4.4,7.77-7.59,14.61-7.59,8.47,0,15.33,4.88,15.33,10.91,0,1.81-.62,3.53-1.73,5.03Z"/>
    <path class="cls-6" d="m106.14,36.51c-.18.2-.38.4-.59.58,0-.02-.02-.04-.04-.06-.11-.16-.23-.33-.37-.5-.54-.71-1.23-1.52-2.05-2.41,0-.02-.02-.03-.03-.04-.11-.11-.22-.23-.33-.35-3.08-3.27-7.77-7.42-12.9-10.86-.51-.34-1.02-.68-1.55-1.01-.69-.43-1.39-.86-2.09-1.26-.02,0-.04-.02-.06-.03-.55-.31-1.09-.61-1.64-.9-.71-.37-1.41-.72-2.11-1.04l-.4-.18c-.96-.42-1.96-.77-2.97-1.05.6-2.47,1.91-4.6,3.96-6.09,5.65-4.1,16.56-1.23,22.03,5.96.96,1.27,1.76,2.6,2.37,3.95.38.83.7,1.67.94,2.51.12.4.22.8.31,1.2.05.24.1.47.14.71.77,4.19-.11,8.2-2.62,10.87Z"/>
    <path class="cls-5" d="m66.66,46.01c-6.84,0-12.63,3.19-14.61,7.59-.07.14-.14.29-.2.44-.34.84-.51,1.72-.52,2.6,0,.06,0,.11,0,.16.02,2.15.97,4.34,2.62,6.22.02,0,.02.02.03.03,1.36,1.55,3.2,2.89,5.38,3.82,2.64,1.13,6.51,1.33,10.19.76,1.3-.2,2.57-.49,3.76-.88.02,0,.03,0,.04-.01,2.43-.84,4.5-2.12,6.01-3.7.25-.27.49-.55.72-.83t0,0c.06-.08.12-.16.18-.25,1.1-1.51,1.73-3.22,1.73-5.03,0-6.03-6.87-10.91-15.33-10.91Zm0,12.03c-4.21,0-7.62-2.43-7.62-5.42s3.41-5.42,7.62-5.42,7.62,2.43,7.62,5.42-3.42,5.42-7.62,5.42Z"/>
    <path class="cls-4" d="m74.28,52.63c0,2.99-3.42,5.42-7.62,5.42s-7.62-2.43-7.62-5.42,3.41-5.42,7.62-5.42,7.62,2.43,7.62,5.42Z"/>
    <path class="cls-5" d="m88.51,39.86s0,.08,0,.13c-.06,4-3.33,7.21-7.34,7.21s-7.27-3.21-7.34-7.21c0-.04,0-.09,0-.13,0-.24,0-.48.03-.72.97,0,1.95,0,2.93,0,.26,0,.52,0,.78,0-.05.24-.07.48-.07.73,0,.04,0,.09,0,.14.07,1.96,1.69,3.53,3.67,3.53s3.6-1.57,3.67-3.53c0-.04,0-.09,0-.14,0-.28-.03-.55-.09-.81,1.25-.02,2.49-.04,3.71-.07.03.29.05.58.05.88Z"/>
    <path class="cls-2" d="m84.84,39.86s0,.09,0,.14c-.07,1.96-1.69,3.53-3.67,3.53s-3.6-1.57-3.67-3.53c0-.04,0-.09,0-.14,0-.25.02-.49.07-.73,2.41-.01,4.81-.04,7.18-.08.06.26.09.53.09.81Z"/>
    <path class="cls-6" d="m50.93,17.34c-.14.05-.29.1-.44.16-1.16.42-2.32.95-3.49,1.55-.73.37-1.46.78-2.19,1.21-.09.05-.19.11-.29.17-.17.1-.34.2-.5.31-.4.24-.81.5-1.2.77,0,0,0,0-.02,0-.02.01-.05.03-.08.05-.82.54-1.64,1.11-2.44,1.7-1.76,1.29-3.47,2.68-5.07,4.1-1.45,1.27-2.82,2.57-4.08,3.82-.6.6-1.17,1.18-1.72,1.76,0,0-.02.02-.03.03-1.01,1.07-1.91,2.09-2.69,3.02-.63.75-1.18,1.44-1.63,2.05-.15-.1-.3-.2-.45-.31-.06-.04-.12-.09-.19-.15-4.38-3.33-5.3-9.8-2.71-15.9.64-1.51,1.5-3,2.57-4.41,4.61-6.06,11.73-8.79,17.24-7.06h0c2.12.04,4.12.67,5.81,1.92,1.75,1.3,2.94,3.1,3.58,5.2Z"/>
    <g>
      <path class="cls-5" d="m59.49,39.86v.04c-.02,4.04-3.3,7.3-7.34,7.3s-7.34-3.29-7.34-7.34c0-.05,0-.11,0-.17,0-.27.02-.53.06-.79,1.2.02,2.45.04,3.72.06-.07.25-.1.52-.11.79,0,.03,0,.07,0,.1,0,2.03,1.65,3.67,3.67,3.67s3.67-1.65,3.67-3.67c0-.27-.03-.54-.09-.8.69,0,1.38.01,2.07.02.55,0,1.09.01,1.65.02.03.25.04.5.04.76Z"/>
      <path class="cls-2" d="m55.82,39.86c0,2.03-1.65,3.67-3.67,3.67s-3.67-1.65-3.67-3.67c0-.03,0-.07,0-.1,0-.27.04-.54.11-.79.52,0,1.04.01,1.58.02,1.8.03,3.66.05,5.57.07.06.25.09.52.09.8Z"/>
    </g>
    <path class="cls-2" d="m66.66,47.21c-4.21,0-7.62,2.43-7.62,5.42s3.41,5.42,7.62,5.42,7.62-2.43,7.62-5.42-3.42-5.42-7.62-5.42Z"/>
    <path class="cls-1" d="m105.39,37.24s-.1.09-.15.13h0s.1-.09.15-.13Z"/>
  </g>
</svg>