<?xml version="1.0" encoding="UTF-8"?>
<svg id="Usine_Right_Out" xmlns="http://www.w3.org/2000/svg" viewBox="0 0 128 128">
  <defs>
    <style>
      .cls-1 {
        fill: #c65878;
      }

      .cls-2 {
        fill: #ed6d7d;
      }

      .cls-3 {
        fill: #9a4165;
      }
    </style>
  </defs>
  <rect class="cls-1" y="-.03" width="128" height="128.06" rx="8.89" ry="8.89"/>
  <rect class="cls-2" width="128" height="100.04" rx="8.89" ry="8.89"/>
  <path class="cls-3" d="M97.18,54.87c8.89-10.62,8.35-26.46-1.63-36.44-9.98-9.98-25.82-10.52-36.44-1.63l-1.24-1.24c-.27-.27-.65-.38-1.1-.34-.81,.05-1.82,.56-2.69,1.43l-4.32,4.32c-.98,.98-1.5,2.14-1.43,2.99,.02,.32,.13,.59,.34,.8l2.69,2.69c-3.61,8.97-2.21,19.48,4.19,27.26l-30.4,30.4c-.81,.81-.81,2.13,0,2.94l.88,.88c.81,.81,2.13,.81,2.94,0l30.41-30.41c7.77,6.34,18.23,7.71,27.16,4.11l2.69,2.69c.2,.2,.47,.31,.79,.34,.85,.08,2.02-.45,3-1.43l4.32-4.32c.87-.87,1.38-1.88,1.43-2.69,.03-.45-.08-.83-.34-1.1l-1.24-1.24Z"/>
</svg>