<?xml version="1.0" encoding="UTF-8"?>
<svg id="Usine_Right_Out" xmlns="http://www.w3.org/2000/svg" viewBox="0 0 128 128.06">
  <defs>
    <style>
      .cls-1 {
        fill: #448cca;
      }

      .cls-2 {
        fill: #213f83;
      }

      .cls-3 {
        fill: #305ca8;
      }
    </style>
  </defs>
  <rect class="cls-3" width="128" height="128.06" rx="8.89" ry="8.89"/>
  <rect class="cls-1" y=".03" width="128" height="100.04" rx="8.89" ry="8.89"/>
  <g>
    <path class="cls-3" d="m69.34,18.06v8.65c0,.05,0,.1,0,.15,0,.55-.08,1.06-.2,1.55h-10.26c-.13-.49-.2-1.01-.2-1.55,0-.05,0-.1,0-.15v-8.65c0-.5.05-.99.16-1.47h10.36c.11.47.16.96.16,1.47Z"/>
    <path class="cls-2" d="m75.57,9.42c0,.14,0,.3-.02.43,0,.12-.03.24-.05.35-.16.79-.55,1.49-1.1,2.05-.39.39-.86.7-1.4.9-.19.07-.38.12-.58.16.04.09.09.17.11.26.03.09.07.2.09.3.02.03.03.07.03.11.02.1.03.2.03.31v.06c0,.61-.25,1.18-.66,1.59s-.97.66-1.59.66h-12.89c-1.24,0-2.24-1.01-2.24-2.24v-.06c0-.1.02-.2.03-.3,0-.04,0-.09.03-.14.03-.09.05-.18.09-.27h0c.03-.09.07-.18.11-.26,0,0-.03,0-.03,0-.22-.05-.44-.11-.64-.2-1.27-.52-2.21-1.69-2.43-3.09-.03-.2-.04-.4-.04-.61,0-1.1.45-2.1,1.17-2.82.72-.72,1.72-1.17,2.83-1.17h15.15c2.21,0,4,1.79,4,3.99Z"/>
    <path class="cls-2" d="m77.71,38.27v47.8c0,2.95-2.65,8.6-5.92,8.6h-15.58c-3.27,0-5.92-5.65-5.92-8.6v-47.8c0-2.29,2.05-11.41,4.58-11.41h18.25c2.53,0,4.58,9.12,4.58,11.41h0Z"/>
  </g>
</svg>