<?xml version="1.0" encoding="UTF-8"?>
<svg id="Calque_1" data-name="Calque 1" xmlns="http://www.w3.org/2000/svg" viewBox="0 0 128 128">
  <defs>
    <style>
      .cls-1 {
        fill: #b0b0af;
      }

      .cls-2 {
        fill: #3a3737;
      }

      .cls-3 {
        fill: #6a6766;
      }
    </style>
  </defs>
  <path class="cls-2" d="M102.19,60.56v67.44s-76.38,0-76.38,0v-14.15c0-6.44-5.22-11.66-11.66-11.66H0V25.81H67.44c19.19,0,34.75,15.56,34.75,34.75Z"/>
  <rect class="cls-1" x="102.21" y="55.63" width="12.22" height="70.3" rx="4.61" ry="4.61" transform="translate(216.65 181.56) rotate(-180)"/>
  <path class="cls-1" d="M100.68,50.42c-3.57-10.79-12.04-19.26-22.84-22.82-2.29-.75-3.67-3.07-3.19-5.42l.6-2.94c.56-2.71,3.34-4.4,5.98-3.56,14.92,4.74,26.61,16.42,31.37,31.34,.84,2.64-.84,5.42-3.56,5.98l-2.94,.6c-2.36,.48-4.67-.9-5.43-3.18Z"/>
  <rect class="cls-1" x="31.06" y="-15.52" width="12.22" height="70.3" rx="4.61" ry="4.61" transform="translate(17.55 56.8) rotate(-90)"/>
  <path class="cls-1" d="M25.81,120.77c0-7.64,.73-11.37-3.36-15.46-3.67-3.67-8.54-3.13-15.37-3.12h-.93c-2.28,0-4.12,1.85-4.12,4.12v3.53c0,2.28,1.85,4.12,4.12,4.12h1.04s0,0,0,0c1.33,0,2.47-.02,3.55,0,1.85,.05,3.22,1.45,3.18,3.3v3.51s0,0,0,0v1.04c0,2.28,1.85,4.12,4.12,4.12h3.64c2.28,0,4.12-1.85,4.12-4.12v-1.04s0,0,0,0Z"/>
  <path class="cls-3" d="M46.43,64.84l5.31,16.17c.84,2.56,4.36,2.97,5.12,.59l1.94-6.12c.23-.71,.76-1.25,1.48-1.47l5.89-1.83c2.39-.74,2-4.28-.58-5.12l-16.09-5.29c-2.03-.67-3.73,1.04-3.07,3.07Z"/>
</svg>