<?xml version="1.0" encoding="UTF-8"?>
<svg id="Calque_1" data-name="Calque 1" xmlns="http://www.w3.org/2000/svg" viewBox="0 0 128 128">
  <defs>
    <style>
      .cls-1 {
        fill: #b0b0af;
      }

      .cls-2 {
        fill: #3a3737;
      }

      .cls-3 {
        fill: #6a6766;
      }
    </style>
  </defs>
  <path class="cls-2" d="M25.81,67.44V0S102.19,0,102.19,0V14.15c0,6.44,5.22,11.66,11.66,11.66h14.15V102.19H60.56c-19.19,0-34.75-15.56-34.75-34.75Z"/>
  <rect class="cls-1" x="13.56" y="2.07" width="12.22" height="70.3" rx="4.61" ry="4.61"/>
  <path class="cls-1" d="M27.32,77.58c3.57,10.79,12.04,19.26,22.84,22.82,2.29,.75,3.67,3.07,3.19,5.42l-.6,2.94c-.56,2.71-3.34,4.4-5.98,3.56-14.92-4.74-26.61-16.42-31.37-31.34-.84-2.64,.84-5.42,3.56-5.98l2.94-.6c2.36-.48,4.67,.9,5.43,3.18Z"/>
  <rect class="cls-1" x="84.71" y="73.22" width="12.22" height="70.3" rx="4.61" ry="4.61" transform="translate(199.2 17.55) rotate(90)"/>
  <path class="cls-1" d="M102.19,7.23c0,7.64-.73,11.37,3.36,15.46,3.67,3.67,8.54,3.13,15.37,3.12h.93c2.28,0,4.12-1.85,4.12-4.12v-3.53c0-2.28-1.85-4.12-4.12-4.12h-1.04c-1.33,0-2.47,.03-3.55,0-1.85-.05-3.22-1.45-3.18-3.3v-3.51s0,0,0,0v-1.04c0-2.28-1.85-4.12-4.12-4.12h-3.64c-2.28,0-4.12,1.85-4.12,4.12v1.04s0,0,0,0Z"/>
  <path class="cls-3" d="M81.57,63.16l-5.31-16.17c-.84-2.56-4.36-2.97-5.12-.59l-1.94,6.12c-.23,.71-.76,1.25-1.48,1.47l-5.89,1.83c-2.39,.74-2,4.28,.58,5.12l16.09,5.29c2.03,.67,3.73-1.04,3.07-3.07Z"/>
</svg>