<?xml version="1.0" encoding="UTF-8"?>
<svg id="Usine_Right_Out" xmlns="http://www.w3.org/2000/svg" viewBox="0 0 128 128">
  <defs>
    <style>
      .cls-1 {
        fill: #b54c3c;
      }

      .cls-2 {
        fill: #f28d56;
      }

      .cls-3 {
        fill: #ca6347;
      }
    </style>
  </defs>
  <rect class="cls-3" x="0" y="-.03" width="128" height="128.06" rx="8.89" ry="8.89"/>
  <rect class="cls-2" x="0" y="0" width="128" height="100.04" rx="8.89" ry="8.89"/>
  <g>
    <path class="cls-1" d="M103.73,17.77l-5.64-5.64c-1.82-1.82-3.9-3.2-6.12-4.17,0,0,0,0,0,0-7.66-4.68-17.79-3.71-24.42,2.91L24.27,54.15c-7.77,7.77-7.77,20.36,0,28.13l5.64,5.64c1.82,1.82,3.9,3.2,6.12,4.17-1.31-.8-2.56-1.77-3.7-2.91h0c1.14,1.14,2.38,2.1,3.69,2.91,7.66,4.68,17.8,3.72,24.43-2.91l43.28-43.28c7.77-7.77,7.77-20.36,0-28.13Z"/>
    <path class="cls-2" d="M58.46,80.34l27.73-27.73c1.37-1.37,1.37-3.59,0-4.97s-3.59-1.37-4.97,0l-27.73,27.73c-1.37,1.37-1.37,3.59,0,4.97s3.59,1.37,4.97,0Z"/>
    <circle class="cls-2" cx="92.32" cy="41.52" r="3.51"/>
  </g>
</svg>