<?xml version="1.0" encoding="UTF-8"?>
<svg id="Usine_Right_Out" xmlns="http://www.w3.org/2000/svg" viewBox="0 0 128 128">
  <defs>
    <style>
      .cls-1 {
        fill: #8560a5;
      }

      .cls-2 {
        fill: #5b4b85;
      }

      .cls-3 {
        fill: #443e6d;
      }
    </style>
  </defs>
  <g>
    <rect class="cls-2" y="-.03" width="128" height="128.06" rx="8.89" ry="8.89"/>
    <rect class="cls-1" y="0" width="128" height="100.04" rx="8.89" ry="8.89"/>
  </g>
  <g id="Calque_3" data-name="Calque 3">
    <path class="cls-3" d="M108.46,49.29c-2.34,22.92-16.65,41.13-41.56,41.13S19.67,72.19,23.19,49.29c3.93-25.57,21.37-41.13,46.28-41.13s41.34,18.07,38.98,41.13Z"/>
    <path class="cls-2" d="M70.9,7.91c-21.31,0-38.65,17.34-38.65,38.66,0,17.51,14.24,31.75,31.75,31.75s31.75-14.24,31.75-31.75c0-13.7-11.15-24.85-24.85-24.85s-24.85,11.15-24.85,24.85c0,9.9,8.05,17.95,17.95,17.95s17.95-8.05,17.95-17.95c0-6.09-4.95-11.04-11.04-11.04s-11.04,4.95-11.04,11.04c0,2.29,1.85,4.14,4.14,4.14s4.14-1.85,4.14-4.14c0-1.52,1.24-2.76,2.76-2.76s2.76,1.24,2.76,2.76c0,5.33-4.34,9.67-9.67,9.67s-9.67-4.34-9.67-9.67c0-9.14,7.43-16.57,16.57-16.57s16.57,7.43,16.57,16.57c0,12.94-10.53,23.47-23.47,23.47s-23.47-10.53-23.47-23.47c0-16.75,13.62-30.38,30.37-30.38s30.38,13.63,30.38,30.38c0,20.55-16.72,37.28-37.28,37.28S26.72,67.13,26.72,46.57c0-2.29-1.85-4.14-4.14-4.14s-4.14,1.85-4.14,4.14c0,25.12,20.44,45.56,45.56,45.56s45.56-20.44,45.56-45.56c0-21.32-17.34-38.66-38.66-38.66Z"/>
  </g>
</svg>