<?xml version="1.0" encoding="UTF-8"?>
<svg id="Calque_2" data-name="Calque 2" xmlns="http://www.w3.org/2000/svg" viewBox="0 0 100.83 105.9">
  <defs>
    <style>
      .cls-1 {
        fill: #3a3737;
      }

      .cls-2 {
        fill: #686665;
      }

      .cls-3 {
        fill: #afafaf;
      }
    </style>
  </defs>
  <g id="Calque_3" data-name="Calque 3">
    <g>
      <rect class="cls-1" x="12.22" width="76" height="105.9"/>
      <path class="cls-2" d="m50.51,82.37l7.68-13.6c1.22-2.16-.99-4.64-3.2-3.61l-5.7,2.64c-.66.31-1.42.3-2.08,0l-5.46-2.57c-2.22-1.04-4.44,1.45-3.22,3.61l7.64,13.53c.96,1.71,3.37,1.71,4.34,0Z"/>
      <path class="cls-2" d="m50.51,46.7l7.68-13.6c1.22-2.16-.99-4.64-3.2-3.61l-5.7,2.64c-.66.31-1.42.3-2.08,0l-5.46-2.57c-2.22-1.04-4.44,1.45-3.22,3.61l7.64,13.53c.96,1.71,3.37,1.71,4.34,0Z"/>
      <rect class="cls-3" y="2.8" width="12.22" height="102.59" rx="4.61" ry="4.61" transform="translate(12.22 108.19) rotate(180)"/>
      <rect class="cls-3" x="88.6" y="1.65" width="12.22" height="102.59" rx="4.61" ry="4.61" transform="translate(189.43 105.9) rotate(180)"/>
    </g>
  </g>
</svg>