<?xml version="1.0" encoding="UTF-8"?>
<svg xmlns="http://www.w3.org/2000/svg" viewBox="0 0 114.85 48.47">
  <defs>
    <style>
      .cls-1 {
        isolation: isolate;
      }

      .cls-2, .cls-3 {
        fill: #9e998d;
      }

      .cls-3 {
        mix-blend-mode: multiply;
        opacity: .5;
      }
    </style>
  </defs>
  <g class="cls-1">
    <g id="Calque_2" data-name="Calque 2">
      <g id="Calque_1-2" data-name="Calque 1">
        <g id="Calque_3" data-name="Calque 3">
          <g>
            <path class="cls-2" d="m114.85,39.05c0,1.46-.35,2.93-1.07,4.27-.2.39-.43.76-.69,1.12-1.84,2.56-4.85,4.06-8.06,4.02-10.08-.12-31.75-.44-34.66-.95-3.81-.67-49.16-4.91-52.24-5.72-11.15-2.94-13.23-4.79-16.62-10.59-.87-1.49-1.35-3.09-1.48-4.68-.26-3.42,1.14-6.86,3.89-9.39C13.93,7.94,27.84,3.43,45.12.45c21.45-3.69,43.59,16.47,51.55,19.5,4.74,1.81,11.2,8.03,15.65,12.75,1.68,1.79,2.54,4.06,2.54,6.35Z"/>
            <path class="cls-3" d="m113.78,43.33c-.2.39-.43.76-.69,1.12-1.84,2.56-4.85,4.06-8.06,4.02-10.08-.12-31.75-.44-34.66-.95-3.81-.67-49.16-4.91-52.24-5.72-11.15-2.94-13.23-4.79-16.62-10.59-.87-1.49-1.35-3.09-1.48-4.68,15.26,3.12,75.79,15.14,113.75,16.8Z"/>
          </g>
        </g>
      </g>
    </g>
  </g>
</svg>