<?xml version="1.0" encoding="UTF-8"?>
<svg xmlns="http://www.w3.org/2000/svg" viewBox="0 0 128.3 66.82">
  <defs>
    <style>
      .cls-1, .cls-2 {
        fill: #519e32;
      }

      .cls-3 {
        isolation: isolate;
      }

      .cls-2 {
        mix-blend-mode: multiply;
        opacity: .5;
      }
    </style>
  </defs>
  <g class="cls-3">
    <g id="Calque_2" data-name="Calque 2">
      <g id="Calque_1-2" data-name="Calque 1">
        <g id="Calque_3" data-name="Calque 3">
          <g>
            <path class="cls-1" d="m128.3,24.45v19.7c0,1.37-.12,2.7-.36,4-.61,3.45-2,6.63-3.99,9.34-4.12,5.66-10.79,9.33-18.32,9.33H22.67c-7.53,0-14.2-3.67-18.32-9.33-1.99-2.71-3.38-5.89-3.99-9.34-.24-1.3-.36-2.63-.36-4v-19.7h.13C1.31,12.96,11.02,4,22.82,4c6.9,0,13.07,3.07,17.26,7.9C44.73,4.81,53.76,0,64.15,0s19.43,4.81,24.08,11.9c4.18-4.83,10.36-7.9,17.25-7.9,11.8,0,21.51,8.96,22.7,20.45h.12Z"/>
            <path class="cls-2" d="m123.95,57.49c-4.12,5.66-10.79,9.33-18.32,9.33H22.67c-7.53,0-14.2-3.67-18.32-9.33h119.6Z"/>
          </g>
        </g>
      </g>
    </g>
  </g>
</svg>