<?xml version="1.0" encoding="UTF-8"?>
<svg xmlns="http://www.w3.org/2000/svg" viewBox="0 0 122.85 107.98">
  <defs>
    <style>
      .cls-1 {
        isolation: isolate;
      }

      .cls-2, .cls-3 {
        fill: #9e998d;
      }

      .cls-3 {
        mix-blend-mode: multiply;
        opacity: .5;
      }
    </style>
  </defs>
  <g class="cls-1">
    <g id="Calque_2" data-name="Calque 2">
      <g id="Calque_1-2" data-name="Calque 1">
        <g id="Calque_3" data-name="Calque 3">
          <g>
            <path class="cls-2" d="m122.85,88.38c.02,2.43-.44,4.81-1.31,7.02-1.09,2.8-2.86,5.32-5.18,7.34l-.66.58c-3.45,2.99-7.85,4.64-12.42,4.64h-30.16c-.79,0-1.57-.05-2.36-.15l-51.09-6.42c-8.33-1.05-14.98-7.46-16.31-15.76l-2.07-12.93-1.06-6.57c-.45-2.81-.26-5.7.56-8.43L11.37,22.47c1.08-3.6,3.21-6.8,6.12-9.18C23.78,8.14,35.76,0,48.49,0c13.5,0,31.26,2.56,39.98,3.96,3.44.55,6.66,2.05,9.3,4.32l18.19,15.62c4.16,3.57,6.56,8.75,6.59,14.23l.3,50.25Z"/>
            <path class="cls-3" d="m121.54,95.41c-1.09,2.8-2.86,5.32-5.18,7.34l-.66.58c-3.45,2.99-7.85,4.64-12.42,4.64h-30.16c-.79,0-1.57-.05-2.36-.15l-51.09-6.42c-8.33-1.05-14.98-7.46-16.31-15.76l-2.07-12.93c8.74,6.52,28.42,19.53,50.43,23.12,29.72,4.85,48.33,2.83,61.07.81,3.07-.48,6.02-.9,8.74-1.25Z"/>
          </g>
        </g>
      </g>
    </g>
  </g>
</svg>