<?xml version="1.0" encoding="UTF-8"?>
<svg xmlns="http://www.w3.org/2000/svg" viewBox="0 0 67.48 42.24">
  <defs>
    <style>
      .cls-1 {
        isolation: isolate;
      }

      .cls-2, .cls-3 {
        fill: #9e998d;
      }

      .cls-3 {
        mix-blend-mode: multiply;
        opacity: .5;
      }
    </style>
  </defs>
  <g class="cls-1">
    <g id="Calque_2" data-name="Calque 2">
      <g id="Calque_1-2" data-name="Calque 1">
        <g id="Calque_3" data-name="Calque 3">
          <g>
            <path class="cls-2" d="m67.48,13.62c0,7.59-6.31,14.88-11.12,19.52-1.95,1.88-3.65,3.33-4.59,4.18-2.64,2.4-12.59,1.04-22.6.89-2-.03-5.23.31-14.29,1.78l-9.2,2.12c-.84.35-1.73-.02-2.44-1.01l-.57-.8c-1.23-1.71-2.05-4.14-2.43-6.81-.5-3.48-.24-7.36.87-10.56l3.25-9.31s4.74-4.68,9.49-7.08c4.74-2.4,13.63.62,18.96,0,3.2-.38,9.39-3.09,13.83-5.19,4.04-1.92,8.26-1.81,12.26.44,4.15,2.35,8.58,6.17,8.58,11.83Z"/>
            <path class="cls-3" d="m56.36,33.14c-1.95,1.88-3.65,3.33-4.59,4.18-2.64,2.4-12.59,1.04-22.6.89-2-.03-5.23.31-14.29,1.78l-9.2,2.12c-.84.35-1.73-.02-2.44-1.01l-.57-.8c-1.23-1.71-2.05-4.14-2.43-6.81,3.39.88,6.56,1.54,8.27,1.54,4.74,0,13.48-2.23,18.52-2.23s14.87-.38,22.07,0c2.5.14,5.03.25,7.26.34Z"/>
          </g>
        </g>
      </g>
    </g>
  </g>
</svg>