<?xml version="1.0" encoding="UTF-8"?>
<svg xmlns="http://www.w3.org/2000/svg" viewBox="0 0 42.68 21.9">
  <defs>
    <style>
      .cls-1 {
        isolation: isolate;
      }

      .cls-2, .cls-3 {
        fill: #9e998d;
      }

      .cls-3 {
        mix-blend-mode: multiply;
        opacity: .5;
      }
    </style>
  </defs>
  <g class="cls-1">
    <g id="Calque_2" data-name="Calque 2">
      <g id="Calque_1-2" data-name="Calque 1">
        <g id="Calque_3" data-name="Calque 3">
          <g>
            <path class="cls-2" d="m39.44,13.55l-18.6,7.93c-1.16.49-2.45.56-3.65.19l-13.4-4.09C1.52,16.89.04,14.82,0,12.56c-.01-.47.05-.94.17-1.42l1.84-7.14C2.62,1.64,4.75,0,7.19,0h28.61c2.07,0,3.96,1.19,4.84,3.07l1.54,3.3c.21.44.35.9.42,1.36.42,2.38-.83,4.83-3.16,5.82Z"/>
            <path class="cls-3" d="m39.44,13.55l-18.6,7.93c-1.16.49-2.45.56-3.65.19l-13.4-4.09C1.52,16.89.04,14.82,0,12.56l5.57,1.84c8.29,2.74,17.3,2.27,25.25-1.33l11.78-5.34c.42,2.38-.83,4.83-3.16,5.82Z"/>
          </g>
        </g>
      </g>
    </g>
  </g>
</svg>