<?xml version="1.0" encoding="UTF-8"?>
<svg id="Usine_Right_Out" xmlns="http://www.w3.org/2000/svg" viewBox="0 0 146.27 128">
  <defs>
    <style>
      .cls-1 {
        fill: #5674b8;
      }

      .cls-2 {
        fill: #343077;
      }

      .cls-3 {
        fill: #445097;
      }
    </style>
  </defs>
  <g>
    <path class="cls-3" d="m0,17.5h11.24c3.73,0,6.76,3.03,6.76,6.76v79.48c0,3.73-3.03,6.76-6.76,6.76H0V17.5H0Z" transform="translate(18 128) rotate(-180)"/>
    <path class="cls-1" d="m0,17.5h11.24c3.73,0,6.76,3.03,6.76,6.76v61.48c0,3.73-3.03,6.76-6.76,6.76H0V17.5H0Z" transform="translate(18 110) rotate(-180)"/>
  </g>
  <path id="Out" class="cls-2" d="m14.09,52.48l-7.5-4.15c-1.87-1.04-4.17.34-4.13,2.48l.16,8.57c.04,2.14,2.38,3.44,4.21,2.33l7.34-4.42c1.83-1.1,1.79-3.78-.09-4.82Z"/>
</svg>