<?xml version="1.0" encoding="UTF-8"?>
<svg id="Usine_Right_Out" xmlns="http://www.w3.org/2000/svg" viewBox="0 0 128 128">
  <defs>
    <style>
      .cls-1 {
        fill: #5674b8;
      }

      .cls-2 {
        fill: #f7ca9a;
      }

      .cls-3 {
        fill: #343077;
      }

      .cls-4 {
        fill: #fff1e1;
      }

      .cls-5 {
        fill: #445097;
      }

      .cls-6 {
        fill: #f28d4e;
      }

      .cls-7 {
        fill: #010101;
      }

      .cls-8 {
        fill: #65270c;
      }
    </style>
  </defs>
  <rect class="cls-5" x="0" y="-.03" width="128" height="128.06" rx="8.89" ry="8.89"/>
  <rect class="cls-1" x="0" width="128" height="100.04" rx="8.89" ry="8.89"/>
  <g id="Ninja">
    <g id="Bear2">
      <path class="cls-8" d="m84.66,38.86c0,2.07-1.67,3.75-3.75,3.75s-3.75-1.68-3.75-3.75,1.68-3.75,3.75-3.75,3.75,1.68,3.75,3.75Z"/>
      <path class="cls-5" d="m109.08,24.34c-.05-.24-.09-.48-.15-.72-.04-.17-.08-.35-.12-.52-.08-.29-.16-.59-.25-.89-.66-2.19-1.77-4.38-3.32-6.42-3.51-4.62-9.2-7.48-14.38-7.93-.49-.05-.97-.07-1.45-.07-.18,0-.37,0-.55.01-.15,0-.31.02-.46.03-.12,0-.23.02-.35.03-.02,0-.03,0-.04,0-1.98.19-3.8.79-5.27,1.86-2.16,1.56-3.52,3.85-4.1,6.48,0,0-.01.02,0,.02-.02.04-.02.08-.03.12-.46-.14-.9-.27-1.3-.39-.01,0-.03,0-.04,0-.07-.02-.13-.04-.19-.05-2.04-.55-3.61-.78-5.73-.86-.04,0-.08,0-.11,0-.62-.02-1.28-.03-2.03-.03h-10.91c-.32,0-.63,0-.95.02-.11,0-.22,0-.33.01-.23,0-.47.02-.71.03-.74.04-1.48.1-2.21.19-.65.07-1.29.16-1.93.26-.22.04-.45.08-.68.12-.45.08-.89.17-1.33.26-.04,0-.07.01-.1.02h0s-.08.02-.12.03c-.81.18-1.61.39-2.41.62-.58-2.63-1.95-4.92-4.11-6.49-.9-.65-1.88-1.14-2.92-1.47h0s0,0-.01,0c-.89-.28-1.82-.45-2.77-.51-.15-.01-.3-.02-.45-.02-.11,0-.22-.01-.33,0-.18,0-.36,0-.54.02-.14,0-.28.01-.42.02-.14.01-.28.02-.43.04-.28.03-.56.07-.85.11-.13.02-.26.05-.4.07-4.12.8-8.34,3.4-11.44,7.48-5.59,7.35-5.44,16.7.34,20.88.2.14.4.27.6.4h0c-1.09,2.42-1.92,4.97-2.46,7.62-.48,2.33-.73,4.75-.73,7.23v24.51c1.15,1.04,2.34,2.02,3.59,2.97.02.01.04.03.06.04,10.51,7.94,24.44,12.78,39.73,12.78,16.95,0,32.23-5.95,43.03-15.48v-24.84c0-2.24-.21-4.43-.6-6.55-.52-2.82-1.36-5.52-2.49-8.08,0,0,.01,0,.02-.01.08-.05.16-.09.24-.14.02,0,.03-.02.05-.03.06-.03.12-.07.18-.11.01,0,.02,0,.02-.02.16-.1.32-.21.48-.32,1.42-1.03,2.5-2.37,3.23-3.91.04-.06.06-.13.09-.19,1.09-2.4,1.38-5.28.86-8.24Zm-57.8,22.02c-4.14,0-7.5-3.35-7.5-7.5s3.36-7.5,7.5-7.5,7.5,3.35,7.5,7.5-3.35,7.5-7.5,7.5Zm22.13-7.5c0-4.14,3.36-7.5,7.5-7.5s7.5,3.35,7.5,7.5-3.35,7.5-7.5,7.5-7.5-3.35-7.5-7.5Zm-22.13-3.75c-2.07,0-3.75,1.68-3.75,3.75s1.68,3.75,3.75,3.75,3.75-1.68,3.75-3.75-1.67-3.75-3.75-3.75Z"/>
      <path class="cls-6" d="m84.66,38.86c0,2.07-1.67,3.75-3.75,3.75s-3.75-1.68-3.75-3.75,1.68-3.75,3.75-3.75,3.75,1.68,3.75,3.75Z"/>
      <path class="cls-3" d="m105.13,36.59c3.54-2.62,4.86-7.32,3.95-12.25-.05-.24-.09-.48-.15-.72-.04-.17-.08-.35-.12-.52-.08-.29-.16-.59-.25-.89-.64-2.07-1.68-4.13-3.11-6.05-.2-.26-.4-.52-.6-.76-.19-.23-.38-.46-.58-.68-.17-.19-.35-.39-.53-.57-.09-.1-.18-.19-.27-.28-.23-.24-.47-.46-.71-.68-1.2-1.11-2.5-2.02-3.84-2.74-.11-.07-.22-.13-.34-.19-.08-.03-.15-.07-.22-.1-.06-.03-.12-.06-.17-.09-1.5-.71-3.03-1.17-4.53-1.36-.15-.02-.3-.04-.45-.06-.27-.03-.53-.05-.8-.06-.14,0-.27-.01-.41-.01-2.26,0-4.4.63-6.2,1.97-2.1,1.56-3.42,3.85-3.95,6.48-.04-.01-.08-.03-.12-.04-1-.31-2.04-.59-3.08-.81-.03,0-.05-.01-.07-.02-.02,0-.04-.01-.05-.01-.48-.1-.96-.19-1.45-.27-.08-.02-.17-.04-.25-.04h0s-.02,0-.03,0c-.02,0-.03,0-.04,0-.44-.07-.87-.14-1.31-.18-.8-.1-1.61-.18-2.44-.22-.66-.04-1.32-.06-1.99-.06h-10.3c-3.62,0-7.11.54-10.4,1.53,0-.02,0-.03-.01-.04-.07-.32-.15-.64-.25-.95h0s0-.02,0-.03c-.65-2.15-1.88-4-3.66-5.32-1.72-1.28-3.75-1.91-5.9-1.96-.04,0-.07,0-.11,0h0c-4.73-.07-9.99,2.65-13.64,7.57-5.23,7.04-5.2,15.96-.02,20.16.11.09.22.18.34.26.19.14.38.27.57.39-1.15,2.62-2,5.39-2.51,8.29-.35,2.02-.54,4.11-.54,6.23v27.71c-.11.08-.22.16-.33.25,10.51,7.94,24.44,12.78,39.73,12.78,16.95,0,32.23-5.95,43.03-15.48.02-.02.04-.03.05-.05.03-.02.06-.05.08-.08v-25.14c0-5.09-1.06-9.92-2.95-14.31.32-.18.63-.39.93-.6Zm-53.84-5.23c4.14,0,7.5,3.35,7.5,7.5s-3.35,7.5-7.5,7.5-7.5-3.35-7.5-7.5,3.36-7.5,7.5-7.5Zm22.13,7.5c0-4.14,3.36-7.5,7.5-7.5s7.5,3.35,7.5,7.5-3.35,7.5-7.5,7.5-7.5-3.35-7.5-7.5Zm-22.13,3.75c2.08,0,3.75-1.68,3.75-3.75s-1.67-3.75-3.75-3.75-3.75,1.68-3.75,3.75,1.68,3.75,3.75,3.75Z"/>
      <ellipse class="cls-2" cx="96.23" cy="23.2" rx="9.24" ry="12.04" transform="translate(5.14 61.93) rotate(-36.59)"/>
      <path class="cls-8" d="m90.98,27.23c-3.66-4.93-3.84-11.1-.62-14.41-.43.2-.85.44-1.25.73-4.1,3.04-4.2,9.84-.24,15.17s10.5,7.2,14.6,4.16c.31-.23.59-.49.86-.76-4.09,1.91-9.76-.06-13.35-4.89h0Z"/>
      <ellipse class="cls-5" cx="66.1" cy="56.27" rx="15.65" ry="11.13"/>
      <ellipse class="cls-6" cx="66.1" cy="51.89" rx="7.78" ry="5.53"/>
      <path class="cls-5" d="m80.91,31.37c-4.14,0-7.5,3.35-7.5,7.5s3.36,7.5,7.5,7.5,7.5-3.35,7.5-7.5-3.35-7.5-7.5-7.5Zm0,11.25c-2.07,0-3.75-1.68-3.75-3.75s1.68-3.75,3.75-3.75,3.75,1.68,3.75,3.75-1.67,3.75-3.75,3.75Z"/>
      <path class="cls-2" d="m84.66,38.86c0,2.07-1.67,3.75-3.75,3.75s-3.75-1.68-3.75-3.75,1.68-3.75,3.75-3.75,3.75,1.68,3.75,3.75Z"/>
      <path class="cls-1" d="m84.66,38.86c0,2.07-1.67,3.75-3.75,3.75s-3.75-1.68-3.75-3.75,1.68-3.75,3.75-3.75,3.75,1.68,3.75,3.75Z"/>
      <ellipse class="cls-5" cx="36" cy="22.74" rx="12.04" ry="9.24" transform="translate(-3.71 38.09) rotate(-53.41)"/>
      <path class="cls-5" d="m30.79,30.83c-4.1-3.04-4.2-9.84-.24-15.17.58-.78,1.22-1.48,1.9-2.11-1.44.92-2.79,2.16-3.92,3.69-3.96,5.34-3.86,12.13.24,15.17,3.5,2.59,8.76,1.61,12.7-2.05-3.59,2.3-7.74,2.64-10.67.47h0Z"/>
      <g>
        <path class="cls-5" d="m51.29,31.37c-4.14,0-7.5,3.35-7.5,7.5s3.36,7.5,7.5,7.5,7.5-3.35,7.5-7.5-3.35-7.5-7.5-7.5Zm0,11.25c-2.07,0-3.75-1.68-3.75-3.75s1.68-3.75,3.75-3.75,3.75,1.68,3.75,3.75-1.67,3.75-3.75,3.75Z"/>
        <path class="cls-2" d="m55.04,38.86c0,2.07-1.67,3.75-3.75,3.75s-3.75-1.68-3.75-3.75,1.68-3.75,3.75-3.75,3.75,1.68,3.75,3.75Z"/>
        <path class="cls-1" d="m55.04,38.86c0,2.07-1.67,3.75-3.75,3.75s-3.75-1.68-3.75-3.75,1.68-3.75,3.75-3.75,3.75,1.68,3.75,3.75Z"/>
      </g>
      <path class="cls-8" d="m59.67,64.07c-5.69-2.32-9.04-7.5-8-12-.26.4-.51.82-.69,1.27-1.93,4.72,1.55,10.49,7.66,13.1,5.89,2.52,17.67.5,20.67-4.27.21-.33.82-.67.9-1.04-2.5,3.75-14.97,5.21-20.54,2.94Z"/>
      <circle class="cls-4" cx="69.61" cy="50.33" r="1.74"/>
      <circle class="cls-4" cx="96.92" cy="14.82" r="1.22"/>
      <g>
        <circle class="cls-4" cx="104.29" cy="26.59" r="1.22"/>
        <circle class="cls-4" cx="104.27" cy="25.98" r="1.22"/>
        <circle class="cls-4" cx="104.23" cy="25.4" r="1.22"/>
        <circle class="cls-4" cx="104.16" cy="24.83" r="1.22"/>
        <circle class="cls-4" cx="104.08" cy="24.28" r="1.22"/>
        <circle class="cls-4" cx="103.98" cy="23.75" r="1.22"/>
        <circle class="cls-4" cx="103.86" cy="23.23" r="1.22"/>
        <circle class="cls-4" cx="103.71" cy="22.72" r="1.22"/>
        <circle class="cls-4" cx="103.55" cy="22.24" r="1.22"/>
        <circle class="cls-4" cx="103.37" cy="21.77" r="1.22"/>
        <circle class="cls-4" cx="103.18" cy="21.31" r="1.22"/>
        <circle class="cls-4" cx="102.96" cy="20.87" r="1.22"/>
        <circle class="cls-4" cx="102.73" cy="20.44" r="1.22"/>
        <circle class="cls-4" cx="102.48" cy="20.03" r="1.22"/>
        <circle class="cls-4" cx="102.21" cy="19.64" r="1.22"/>
        <circle class="cls-4" cx="101.92" cy="19.26" r="1.22"/>
        <circle class="cls-4" cx="101.61" cy="18.89" r="1.22"/>
        <circle class="cls-4" cx="101.29" cy="18.54" r="1.22"/>
        <circle class="cls-4" cx="100.95" cy="18.2" r="1.22"/>
        <circle class="cls-4" cx="100.6" cy="17.88" r="1.22"/>
        <circle class="cls-4" cx="100.23" cy="17.56" r="1.22"/>
      </g>
      <circle class="cls-4" cx="42.46" cy="15.31" r="1.22"/>
      <g>
        <circle class="cls-4" cx="39.35" cy="28.84" r="1.22"/>
        <circle class="cls-4" cx="39.76" cy="28.4" r="1.22"/>
        <circle class="cls-4" cx="40.14" cy="27.95" r="1.22"/>
        <circle class="cls-4" cx="40.49" cy="27.5" r="1.22"/>
        <circle class="cls-4" cx="40.82" cy="27.06" r="1.22"/>
        <circle class="cls-4" cx="41.13" cy="26.61" r="1.22"/>
        <circle class="cls-4" cx="41.41" cy="26.15" r="1.22"/>
        <circle class="cls-4" cx="41.67" cy="25.7" r="1.22"/>
        <circle class="cls-4" cx="41.9" cy="25.24" r="1.22"/>
        <circle class="cls-4" cx="42.11" cy="24.78" r="1.22"/>
        <circle class="cls-4" cx="42.29" cy="24.32" r="1.22"/>
        <circle class="cls-4" cx="42.45" cy="23.85" r="1.22"/>
        <circle class="cls-4" cx="42.58" cy="23.39" r="1.22"/>
        <circle class="cls-4" cx="42.7" cy="22.92" r="1.22"/>
        <circle class="cls-4" cx="42.78" cy="22.45" r="1.22"/>
        <circle class="cls-4" cx="42.85" cy="21.98" r="1.22"/>
        <circle class="cls-4" cx="42.89" cy="21.51" r="1.22"/>
        <circle class="cls-4" cx="42.92" cy="21.03" r="1.22"/>
        <circle class="cls-4" cx="42.92" cy="20.55" r="1.22"/>
        <circle class="cls-4" cx="42.9" cy="20.07" r="1.22"/>
        <circle class="cls-4" cx="42.85" cy="19.59" r="1.22"/>
      </g>
    </g>
    <g>
      <path class="cls-5" d="m23.12,36.69c.2.14.4.27.6.4,0,.01-.01.02-.01.03,4.28-1.04,8.29-2.32,11.21-3.88,8.97.02,19.88-5.44,31.2-5.44s19.04,6.05,31.14,6.53c2.22,1.22,4.57,2.22,6.95,3.05-.03-.06-.05-.13-.08-.19.32-.18.63-.39.93-.6,3.83-2.84,5.06-8.12,3.68-13.47-.03-.12-.07-.24-.1-.36-.03-.09-.05-.17-.07-.25-.66-2.28-1.79-4.57-3.41-6.69-5.59-7.35-16.72-10.27-22.49-6.09-2.16,1.56-3.52,3.85-4.1,6.48-.53-.11-1.06-.22-1.59-.3-2.65-.72-4.51-.88-7.85-.88h-10.78c-2.87,0-5.67.31-8.36.91-.65-2.16-1.88-4.02-3.67-5.36-1.73-1.28-3.77-1.91-5.93-1.96-5.63-1.78-12.91,1.02-17.61,7.21-5.59,7.35-5.44,16.7.33,20.88h0Z"/>
      <path class="cls-5" d="m107.07,51.51v25.22s-.04.03-.05.05c-10.8,9.53-26.09,15.48-43.03,15.48-15.29,0-29.23-4.84-39.73-12.78-.02-.02-.04-.03-.06-.04-1.25-.95-2.45-1.94-3.59-2.97-.03-.02-.06-.05-.09-.08v-24.45c0-2.47.26-4.89.74-7.22.03,0,.05.01.08.01,1.19.19,2.42.37,3.68.55.04,0,.07.01.11.02,7.66,1.08,16.57,1.99,26.16,2.33,2.46.09,4.96-.54,7.51-1.18,2.34-.59,4.74-1.21,7.17-1.28.05,0,.1,0,.14,0,.13,0,.26,0,.39,0,5.26,0,10.37,2.65,15.27,2.48,9.21-.33,17.56-1.2,24.67-2.23.04,0,.08-.01.12-.02.34,2,.53,4.04.53,6.14Z"/>
    </g>
    <g>
      <path class="cls-5" d="m85.68,10.56c5.52-4.1,14.31-1.59,19.65,5.6,1.49,2.01,2.55,4.17,3.19,6.33-.66-2.28-1.79-4.57-3.41-6.69-5.59-7.35-16.72-10.27-22.49-6.09-2.16,1.56-3.52,3.85-4.1,6.48,1.09.23,2.16.51,3.2.84.54-2.63,1.86-4.92,3.95-6.48h0Z"/>
      <path class="cls-5" d="m26.63,16.17c-5.24,7.05-5.2,16,.02,20.19.1.09.2.16.3.24.19.14.38.27.57.39-1.15,2.61-2,5.39-2.51,8.28-.36,2.03-.54,4.11-.54,6.24v27.7c-.09.07-.18.14-.28.21-1.25-.95-2.45-1.94-3.59-2.97-.03-.02-.06-.05-.09-.08-.02-.01-.03-.02-.04-.04v-24.4c0-5.28,1.14-10.31,3.19-14.85-.2-.13-.4-.26-.6-.4-5.77-4.19-5.92-13.54-.34-20.88,3.8-5,9.27-7.78,14.21-7.73.11,0,.22,0,.33,0,.15,0,.3.01.45.02.31.03.63.06.94.11.43.06.85.15,1.26.26.15.04.28.08.43.13-4.75-.11-10.05,2.62-13.71,7.57Z"/>
      <path class="cls-5" d="m60.6,15.38h10.3c2.06,0,4.07.18,6.03.51-2.65-.72-4.51-.88-7.85-.88h-10.78c-2.87,0-5.67.31-8.36.91.1.32.18.65.26.99,3.29-.99,6.79-1.53,10.4-1.53h0Z"/>
      <path class="cls-5" d="m108.59,22.75c.04.12.07.24.1.36-.03-.12-.07-.24-.1-.36Z"/>
      <path class="cls-5" d="m103.28,32.86c-2.04,1.51-4.67,1.81-7.3,1.07,2.65.76,5.32.47,7.37-1.06.31-.23.59-.49.86-.76-.05.02-.09.04-.14.06-.24.24-.51.48-.79.69Z"/>
      <path class="cls-5" d="m90.86,27.23c-3.66-4.93-3.84-11.1-.62-14.41-.43.2-.85.44-1.25.73-4.1,3.04-4.2,9.84-.24,15.17,1.97,2.66,4.59,4.46,7.22,5.21,2.63.74,5.27.44,7.3-1.07.28-.21.54-.45.79-.69-4.08,1.81-9.67-.17-13.21-4.94h0Z"/>
      <path class="cls-5" d="m32.12,33.79c-1.24-.17-2.4-.62-3.42-1.38-4.1-3.04-4.2-9.84-.24-15.17,1.08-1.46,2.36-2.64,3.72-3.55.05-.05.09-.09.14-.13-1.44.92-2.79,2.16-3.92,3.69-3.96,5.34-3.86,12.13.24,15.17,1.03.77,2.22,1.21,3.48,1.38h0Z"/>
      <path class="cls-7" d="m32.88,33.85c-.24-.01-.48-.03-.72-.06.23.03.47.05.72.06Z"/>
      <path class="cls-5" d="m28.46,17.23c-3.96,5.34-3.86,12.13.24,15.17,1.02.75,2.18,1.2,3.42,1.38.02,0,.04,0,.06.01.23.03.47.05.72.06,2.82.11,5.91-1.13,8.44-3.49-3.59,2.3-7.74,2.64-10.67.47-4.1-3.04-4.2-9.84-.24-15.17.54-.73,1.14-1.38,1.76-1.97-1.37.91-2.64,2.1-3.72,3.55h0Z"/>
      <path class="cls-5" d="m53.05,62.55c1.39,1.57,3.26,2.94,5.47,3.88,2.69,1.15,6.6,1.35,10.35.78-.94.13-1.9.19-2.89.19-5.37,0-10.11-1.92-12.93-4.86Z"/>
      <path class="cls-5" d="m72.51,66.39c2.8-.86,5.19-2.18,6.44-3.88-1.6,1.68-3.82,3.03-6.44,3.88h0Z"/>
      <path class="cls-5" d="m50.86,53.33c-.37.9-.54,1.84-.53,2.79.02-1.05.24-2.07.64-3.02-.04.08-.08.15-.11.23Z"/>
      <path class="cls-5" d="m80.09,61.13c-.08.12-.18.24-.28.36-.05.07-.1.13-.15.2.2-.18.39-.37.43-.56Z"/>
      <path class="cls-5" d="m59.55,64.07c-5.69-2.32-9.04-7.5-8-12-.22.32-.41.67-.58,1.04-.4.96-.62,1.97-.64,3.02.02,2.22,1,4.49,2.72,6.43,2.82,2.93,7.56,4.86,12.93,4.86.99,0,1.95-.07,2.89-.19,1.25-.19,2.48-.47,3.64-.82,2.61-.86,4.84-2.2,6.44-3.88.08-.11.16-.22.24-.34.1-.16.29-.32.47-.48.05-.07.1-.13.15-.2-3.03,3.48-14.88,4.78-20.26,2.58h0Z"/>
    </g>
  </g>
</svg>