<?xml version="1.0" encoding="UTF-8"?>
<svg id="Calque_1" data-name="Calque 1" xmlns="http://www.w3.org/2000/svg" viewBox="0 0 1920 1080">
  <defs>
    <style>
      .cls-1 {
        fill: #f7ca9a;
      }

      .cls-2 {
        fill: #fff1e1;
      }

      .cls-3 {
        fill: #661616;
      }

      .cls-4 {
        fill: #f28d4f;
      }

      .cls-5 {
        fill: #662400;
      }
    </style>
  </defs>
  <g id="Bear">
    <g id="Bear2">
      <path class="cls-5" d="m622.65,462.34l-17.02-22.03c-3.84-5.74-30.31-22.63-38.86-23.51l-22.77-43.58c-4.23-8.09-9.97-14.89-16.71-20.26.37-.56.71-1.14,1.01-1.76,5.58-11.21-1.79-25.88-16.46-32.78-14.67-6.89-34.38-2.39-39.96,8.82-2.12,4.27-2.36,9.03-1.05,13.67-6.46,1.2-9.58,2.36-15.72,5.57l-16.79,8.77c-5.89,3.08-11.13,6.9-15.67,11.29-3.04-3.63-7.04-6.07-11.67-6.75-12.39-1.82-24.64,9.66-27.35,25.63-2.72,15.98,5.12,30.41,17.51,32.23.42.06.84.1,1.26.14.5,8.74,2.82,17.48,7.12,25.7l23.03,44.08c-3.7,7.42-8.23,23.65-3.05,43.25l8.37,26.55c2.78,5.32,15.16,31.42,27.77,25.8,9.04,17.68,39.41,77.74,69.97,61.77l5.92-3.1c11.47-5.99,21.4-13.06,14.32-26.62l-5.01-9.67c5.2-2.3,9.56-2.95,15.03-5.81l16.79-8.77c5.74-3,7.54-4.68,12.6-7.8l5.07,9.71c7.08,13.55,20.42,7.58,31.89,1.59l5.92-3.1c29.89-15.62-.06-72.66-10.12-91.52,11.79-7.15-2.56-32.22-5.34-37.52h-.02Z"/>
      <path class="cls-4" d="m620.22,459.93l-16.55-21.6c-3.74-5.62-29.32-22.32-37.54-23.24l-22.28-42.63c-4.14-7.91-9.71-14.58-16.24-19.87.35-.54.67-1.11.95-1.7,5.26-10.86-1.96-25.21-16.12-32.05-14.15-6.84-29.88-3.59-35.14,7.27-2,4.13-2.19,8.77-.88,13.3-6.19,1.1-12.32,3.15-18.2,6.22l-16.03,8.38c-5.63,2.94-10.62,6.62-14.94,10.83-2.96-3.56-6.82-5.98-11.27-6.68-11.92-1.89-23.57,9.17-26.03,24.69-2.47,15.53,5.2,29.64,17.11,31.53.4.06.81.11,1.21.14.57,8.51,2.87,17.04,7.07,25.08l22.53,43.12c-3.48,7.19-7.68,22.94-2.53,42.07l8.28,25.92c2.72,5.2,14.86,30.73,26.91,25.38,8.85,17.3,38.58,76.03,67.76,60.78l5.66-2.96c10.96-5.72,19-11.97,12.07-25.23l-4.94-9.45c4.98-2.19,10.6-3.34,15.83-6.07l16.03-8.38c5.49-2.87,10.23-7.13,15.05-10.13l4.96,9.49c6.93,13.26,16.65,10.22,27.61,4.5l5.66-2.96c28.55-14.92-.74-70.73-10.58-89.18,11.25-6.85-2.76-31.38-5.48-36.58l.02-.02Z"/>
      <ellipse class="cls-1" cx="503.82" cy="337.28" rx="16.22" ry="21.14" transform="translate(-19.23 643.89) rotate(-64.18)"/>
      <path class="cls-5" d="m498.95,347.82c-9.71-4.7-15.01-14.15-12.69-21.93-.51.67-.97,1.37-1.35,2.14-3.9,8.06,1.46,18.73,11.97,23.81s22.2,2.67,26.1-5.39c.29-.62.52-1.25.72-1.88-4.8,6.3-15.25,7.85-24.75,3.25h0Z"/>
      <ellipse class="cls-1" cx="483.84" cy="413.26" rx="27.49" ry="19.55" transform="translate(-136.38 271.07) rotate(-27.59)"/>
      <ellipse class="cls-4" cx="480.27" cy="406.44" rx="13.66" ry="9.71" transform="translate(-133.62 268.64) rotate(-27.59)"/>
      <ellipse class="cls-1" cx="627.66" cy="580.36" rx="17.61" ry="7.04" transform="translate(-197.41 356.67) rotate(-27.59)"/>
      <ellipse class="cls-1" cx="539.89" cy="626.22" rx="17.61" ry="7.04" transform="translate(-228.63 321.24) rotate(-27.59)"/>
      <ellipse class="cls-1" cx="617.64" cy="480.62" rx="8.62" ry="13.16" transform="translate(-152.35 340.69) rotate(-27.59)"/>
      <ellipse class="cls-1" cx="463.7" cy="561.06" rx="8.62" ry="13.16" transform="translate(-207.11 278.54) rotate(-27.59)"/>
      <circle class="cls-1" cx="492.73" cy="374.11" r="13.16"/>
      <circle class="cls-4" cx="492.73" cy="374.11" r="6.59"/>
      <ellipse class="cls-1" cx="409.71" cy="385.54" rx="21.14" ry="16.22" transform="translate(-35.19 729.89) rotate(-81)"/>
      <path class="cls-5" d="m408.17,402.38c-8.85-1.4-14.54-11.89-12.71-23.42.26-1.69.7-3.3,1.24-4.83-1.49,2.61-2.59,5.63-3.11,8.93-1.83,11.53,3.87,22.02,12.71,23.42,7.55,1.19,14.95-4.62,18.1-13.52-3.71,6.5-9.9,10.41-16.22,9.41h0Z"/>
      <circle class="cls-2" cx="497.07" cy="365.16" r="3.06"/>
      <g>
        <circle class="cls-1" cx="446.63" cy="398.2" r="13.16"/>
        <circle class="cls-4" cx="446.63" cy="398.2" r="6.59"/>
        <circle class="cls-2" cx="450.96" cy="389.25" r="3.06"/>
      </g>
      <path class="cls-5" d="m480.18,430.62c-10.74,1.02-20.17-4.32-22.21-12.18-.09.83-.13,1.68-.04,2.54.84,8.92,10.94,15.06,22.57,14.16,11.22-.87,27.91-13.6,28.69-23.45.06-.68.73-1.71.56-2.35-.84,7.87-19.06,20.29-29.57,21.29Z"/>
      <circle class="cls-2" cx="484.47" cy="401.15" r="3.06"/>
      <circle class="cls-2" cx="498.1" cy="323.67" r="2.14"/>
      <g>
        <circle class="cls-2" cx="519.13" cy="335.99" r="2.14"/>
        <circle class="cls-2" cx="518.6" cy="335.07" r="2.14"/>
        <circle class="cls-2" cx="518.06" cy="334.2" r="2.14"/>
        <circle class="cls-2" cx="517.5" cy="333.37" r="2.14"/>
        <circle class="cls-2" cx="516.93" cy="332.58" r="2.14"/>
        <circle class="cls-2" cx="516.33" cy="331.83" r="2.14"/>
        <circle class="cls-2" cx="515.72" cy="331.12" r="2.14"/>
        <circle class="cls-2" cx="515.09" cy="330.45" r="2.14"/>
        <circle class="cls-2" cx="514.44" cy="329.83" r="2.14"/>
        <circle class="cls-2" cx="513.79" cy="329.24" r="2.14"/>
        <circle class="cls-2" cx="513.11" cy="328.7" r="2.14"/>
        <circle class="cls-2" cx="512.41" cy="328.18" r="2.14"/>
        <circle class="cls-2" cx="511.7" cy="327.71" r="2.14"/>
        <circle class="cls-2" cx="510.98" cy="327.27" r="2.14"/>
        <circle class="cls-2" cx="510.23" cy="326.88" r="2.14"/>
        <circle class="cls-2" cx="509.48" cy="326.52" r="2.14"/>
        <circle class="cls-2" cx="508.71" cy="326.19" r="2.14"/>
        <circle class="cls-2" cx="507.92" cy="325.91" r="2.14"/>
        <circle class="cls-2" cx="507.12" cy="325.66" r="2.14"/>
        <circle class="cls-2" cx="506.31" cy="325.44" r="2.14"/>
        <circle class="cls-2" cx="505.47" cy="325.25" r="2.14"/>
      </g>
      <g>
        <path class="cls-1" d="m514.69,473.54c-25.58,13.37-34.47,45.69-16.97,79.18,17.5,33.48,49.85,44.87,75.45,31.5,25.58-13.37,34.72-46.44,17.22-79.92-17.5-33.48-50.11-44.13-75.7-30.75h0Zm41.95,16.21c-3.73-.84-6.08-4.54-5.27-8.27.82-3.74,4.5-6.08,8.23-5.25s6.08,4.54,5.27,8.27c-.82,3.74-4.5,6.08-8.23,5.25Z"/>
        <ellipse class="cls-2" cx="558.13" cy="482.99" rx="6.91" ry="6.93" transform="translate(-160.22 313.4) rotate(-27.59)"/>
      </g>
      <g>
        <ellipse class="cls-2" cx="588.7" cy="557.58" rx="2.37" ry="3.05" transform="translate(-119.21 952.95) rotate(-72.63)"/>
        <ellipse class="cls-2" cx="588.93" cy="556.51" rx="2.37" ry="3.05" transform="translate(-118.03 952.42) rotate(-72.63)"/>
        <ellipse class="cls-2" cx="589.15" cy="555.45" rx="2.37" ry="3.05" transform="translate(-116.86 951.89) rotate(-72.63)"/>
        <ellipse class="cls-2" cx="589.37" cy="554.39" rx="2.37" ry="3.05" transform="translate(-115.7 951.36) rotate(-72.63)"/>
        <ellipse class="cls-2" cx="589.56" cy="553.34" rx="2.37" ry="3.05" transform="translate(-114.56 950.81) rotate(-72.63)"/>
        <ellipse class="cls-2" cx="589.75" cy="552.3" rx="2.37" ry="3.05" transform="translate(-113.43 950.26) rotate(-72.63)"/>
        <ellipse class="cls-2" cx="589.92" cy="551.27" rx="2.37" ry="3.05" transform="translate(-112.33 949.69) rotate(-72.63)"/>
        <ellipse class="cls-2" cx="590.08" cy="550.24" rx="2.37" ry="3.05" transform="translate(-111.24 949.13) rotate(-72.63)"/>
        <ellipse class="cls-2" cx="590.22" cy="549.22" rx="2.37" ry="3.05" transform="translate(-110.16 948.55) rotate(-72.63)"/>
        <ellipse class="cls-2" cx="590.35" cy="548.21" rx="2.37" ry="3.05" transform="translate(-109.11 947.96) rotate(-72.63)"/>
        <ellipse class="cls-2" cx="590.46" cy="547.2" rx="2.37" ry="3.05" transform="translate(-108.07 947.36) rotate(-72.63)"/>
        <ellipse class="cls-2" cx="590.57" cy="546.21" rx="2.37" ry="3.05" transform="translate(-107.04 946.77) rotate(-72.63)"/>
        <ellipse class="cls-2" cx="590.66" cy="545.21" rx="2.37" ry="3.05" transform="translate(-106.03 946.15) rotate(-72.63)"/>
        <ellipse class="cls-2" cx="590.74" cy="544.24" rx="2.37" ry="3.05" transform="translate(-105.04 945.55) rotate(-72.63)"/>
        <ellipse class="cls-2" cx="590.8" cy="543.26" rx="2.37" ry="3.05" transform="translate(-104.07 944.92) rotate(-72.63)"/>
        <ellipse class="cls-2" cx="590.87" cy="542.29" rx="2.37" ry="3.05" transform="translate(-103.1 944.3) rotate(-72.63)"/>
        <ellipse class="cls-2" cx="590.9" cy="541.32" rx="2.37" ry="3.05" transform="translate(-102.15 943.65) rotate(-72.63)"/>
        <ellipse class="cls-2" cx="590.93" cy="540.37" rx="2.37" ry="3.05" transform="translate(-101.23 943.02) rotate(-72.63)"/>
        <ellipse class="cls-2" cx="590.94" cy="539.42" rx="2.37" ry="3.05" transform="translate(-100.31 942.36) rotate(-72.63)"/>
        <ellipse class="cls-2" cx="590.95" cy="538.48" rx="2.37" ry="3.05" transform="translate(-99.41 941.71) rotate(-72.63)"/>
        <ellipse class="cls-2" cx="590.94" cy="537.55" rx="2.37" ry="3.05" transform="translate(-98.53 941.05) rotate(-72.63)"/>
        <ellipse class="cls-2" cx="590.91" cy="536.63" rx="2.37" ry="3.05" transform="translate(-97.66 940.37) rotate(-72.63)"/>
        <ellipse class="cls-2" cx="590.88" cy="535.71" rx="2.37" ry="3.05" transform="translate(-96.81 939.69) rotate(-72.63)"/>
        <ellipse class="cls-2" cx="590.83" cy="534.8" rx="2.37" ry="3.05" transform="translate(-95.98 939.01) rotate(-72.63)"/>
        <ellipse class="cls-2" cx="590.77" cy="533.89" rx="2.37" ry="3.05" transform="translate(-95.15 938.31) rotate(-72.63)"/>
        <ellipse class="cls-2" cx="590.69" cy="533" rx="2.37" ry="3.05" transform="translate(-94.36 937.62) rotate(-72.63)"/>
        <ellipse class="cls-2" cx="590.6" cy="532.1" rx="2.37" ry="3.05" transform="translate(-93.56 936.91) rotate(-72.63)"/>
        <ellipse class="cls-2" cx="590.5" cy="531.22" rx="2.37" ry="3.05" transform="translate(-92.79 936.19) rotate(-72.63)"/>
        <ellipse class="cls-2" cx="590.4" cy="530.36" rx="2.37" ry="3.05" transform="translate(-92.04 935.49) rotate(-72.63)"/>
        <ellipse class="cls-2" cx="590.27" cy="529.49" rx="2.37" ry="3.05" transform="translate(-91.3 934.76) rotate(-72.63)"/>
        <ellipse class="cls-2" cx="590.14" cy="528.63" rx="2.37" ry="3.05" transform="translate(-90.57 934.02) rotate(-72.63)"/>
        <ellipse class="cls-2" cx="589.99" cy="527.77" rx="2.37" ry="3.05" transform="translate(-89.85 933.28) rotate(-72.63)"/>
        <ellipse class="cls-2" cx="589.83" cy="526.92" rx="2.37" ry="3.05" transform="translate(-89.16 932.53) rotate(-72.63)"/>
        <ellipse class="cls-2" cx="589.66" cy="526.08" rx="2.37" ry="3.05" transform="translate(-88.47 931.78) rotate(-72.63)"/>
        <ellipse class="cls-2" cx="589.47" cy="525.24" rx="2.37" ry="3.05" transform="translate(-87.8 931.01) rotate(-72.63)"/>
        <ellipse class="cls-2" cx="589.28" cy="524.42" rx="2.37" ry="3.05" transform="translate(-87.16 930.25) rotate(-72.63)"/>
        <ellipse class="cls-2" cx="589.07" cy="523.6" rx="2.37" ry="3.05" transform="translate(-86.52 929.47) rotate(-72.63)"/>
        <ellipse class="cls-2" cx="588.84" cy="522.79" rx="2.37" ry="3.05" transform="translate(-85.9 928.69) rotate(-72.63)"/>
        <ellipse class="cls-2" cx="588.61" cy="521.98" rx="2.37" ry="3.05" transform="translate(-85.3 927.91) rotate(-72.63)"/>
        <ellipse class="cls-2" cx="588.37" cy="521.19" rx="2.37" ry="3.05" transform="translate(-84.71 927.11) rotate(-72.63)"/>
        <ellipse class="cls-2" cx="588.11" cy="520.39" rx="2.37" ry="3.05" transform="translate(-84.13 926.31) rotate(-72.63)"/>
        <ellipse class="cls-2" cx="587.84" cy="519.61" rx="2.37" ry="3.05" transform="translate(-83.57 925.51) rotate(-72.63)"/>
        <ellipse class="cls-2" cx="587.55" cy="518.84" rx="2.37" ry="3.05" transform="translate(-83.04 924.69) rotate(-72.63)"/>
        <ellipse class="cls-2" cx="587.27" cy="518.07" rx="2.37" ry="3.05" transform="translate(-82.5 923.87) rotate(-72.63)"/>
        <ellipse class="cls-2" cx="586.95" cy="517.3" rx="2.37" ry="3.05" transform="translate(-82 923.04) rotate(-72.63)"/>
        <ellipse class="cls-2" cx="586.64" cy="516.55" rx="2.37" ry="3.05" transform="translate(-81.5 922.21) rotate(-72.63)"/>
        <ellipse class="cls-2" cx="586.31" cy="515.8" rx="2.37" ry="3.05" transform="translate(-81.01 921.38) rotate(-72.63)"/>
        <ellipse class="cls-2" cx="585.97" cy="515.06" rx="2.37" ry="3.05" transform="translate(-80.54 920.53) rotate(-72.63)"/>
        <ellipse class="cls-2" cx="585.62" cy="514.32" rx="2.37" ry="3.05" transform="translate(-80.08 919.67) rotate(-72.63)"/>
        <ellipse class="cls-2" cx="585.26" cy="513.59" rx="2.37" ry="3.05" transform="translate(-79.64 918.82) rotate(-72.63)"/>
        <ellipse class="cls-2" cx="584.88" cy="512.87" rx="2.37" ry="3.05" transform="translate(-79.22 917.95) rotate(-72.63)"/>
        <ellipse class="cls-2" cx="584.49" cy="512.15" rx="2.37" ry="3.05" transform="translate(-78.8 917.07) rotate(-72.63)"/>
        <ellipse class="cls-2" cx="584.1" cy="511.44" rx="2.37" ry="3.05" transform="translate(-78.41 916.21) rotate(-72.63)"/>
        <ellipse class="cls-2" cx="583.69" cy="510.74" rx="2.37" ry="3.05" transform="translate(-78.02 915.32) rotate(-72.63)"/>
        <ellipse class="cls-2" cx="583.27" cy="510.04" rx="2.37" ry="3.05" transform="translate(-77.65 914.43) rotate(-72.63)"/>
        <ellipse class="cls-2" cx="582.83" cy="509.36" rx="2.37" ry="3.05" transform="translate(-77.31 913.54) rotate(-72.63)"/>
        <ellipse class="cls-2" cx="582.38" cy="508.68" rx="2.37" ry="3.05" transform="translate(-76.98 912.63) rotate(-72.63)"/>
        <ellipse class="cls-2" cx="581.93" cy="508" rx="2.37" ry="3.05" transform="translate(-76.64 911.72) rotate(-72.63)"/>
        <ellipse class="cls-2" cx="581.45" cy="507.34" rx="2.37" ry="3.05" transform="translate(-76.34 910.8) rotate(-72.63)"/>
        <ellipse class="cls-2" cx="580.98" cy="506.67" rx="2.37" ry="3.05" transform="translate(-76.04 909.88) rotate(-72.63)"/>
        <ellipse class="cls-2" cx="580.49" cy="506.02" rx="2.37" ry="3.05" transform="translate(-75.76 908.96) rotate(-72.63)"/>
        <ellipse class="cls-2" cx="579.98" cy="505.37" rx="2.37" ry="3.05" transform="translate(-75.49 908.02) rotate(-72.63)"/>
        <ellipse class="cls-2" cx="579.48" cy="504.73" rx="2.37" ry="3.05" transform="translate(-75.24 907.08) rotate(-72.63)"/>
        <ellipse class="cls-2" cx="578.94" cy="504.09" rx="2.37" ry="3.05" transform="translate(-75.01 906.13) rotate(-72.63)"/>
        <ellipse class="cls-2" cx="578.41" cy="503.47" rx="2.37" ry="3.05" transform="translate(-74.79 905.19) rotate(-72.63)"/>
        <ellipse class="cls-2" cx="577.86" cy="502.84" rx="2.37" ry="3.05" transform="translate(-74.57 904.22) rotate(-72.63)"/>
        <ellipse class="cls-2" cx="577.3" cy="502.23" rx="2.37" ry="3.05" transform="translate(-74.38 903.26) rotate(-72.63)"/>
        <ellipse class="cls-2" cx="576.73" cy="501.63" rx="2.37" ry="3.05" transform="translate(-74.2 902.29) rotate(-72.63)"/>
        <ellipse class="cls-2" cx="576.16" cy="501.02" rx="2.37" ry="3.05" transform="translate(-74.03 901.31) rotate(-72.63)"/>
        <ellipse class="cls-2" cx="575.57" cy="500.43" rx="2.37" ry="3.05" transform="translate(-73.88 900.33) rotate(-72.63)"/>
        <ellipse class="cls-2" cx="574.97" cy="499.83" rx="2.37" ry="3.05" transform="translate(-73.73 899.35) rotate(-72.63)"/>
        <ellipse class="cls-2" cx="574.35" cy="499.26" rx="2.37" ry="3.05" transform="translate(-73.62 898.35) rotate(-72.63)"/>
        <ellipse class="cls-2" cx="573.72" cy="498.67" rx="2.37" ry="3.05" transform="translate(-73.5 897.34) rotate(-72.63)"/>
        <ellipse class="cls-2" cx="573.09" cy="498.11" rx="2.37" ry="3.05" transform="translate(-73.4 896.34) rotate(-72.63)"/>
        <ellipse class="cls-2" cx="572.44" cy="497.54" rx="2.37" ry="3.05" transform="translate(-73.32 895.33) rotate(-72.63)"/>
        <ellipse class="cls-2" cx="571.78" cy="497" rx="2.37" ry="3.05" transform="translate(-73.26 894.31) rotate(-72.63)"/>
      </g>
      <circle class="cls-2" cx="413.72" cy="368.73" r="2.14"/>
      <path class="cls-5" d="m527.27,572.59c-25.14-16.38-42.47-52.99-36.1-74.25-1.36,1.73-1.66,6.6-2.5,8.74-8.02,20.3,7.17,56.09,31.91,73.78,20.84,14.91,60.07,10.93,68.86-8.82.75-1.67,1.41-3.36,1.93-5.11-12.78,16.29-39.48,21.7-64.09,5.67Z"/>
      <g>
        <circle class="cls-2" cx="419.88" cy="392.32" r="2.14"/>
        <circle class="cls-2" cx="420.16" cy="391.3" r="2.14"/>
        <circle class="cls-2" cx="420.39" cy="390.29" r="2.14"/>
        <circle class="cls-2" cx="420.59" cy="389.31" r="2.14"/>
        <circle class="cls-2" cx="420.74" cy="388.34" r="2.14"/>
        <circle class="cls-2" cx="420.85" cy="387.39" r="2.14"/>
        <circle class="cls-2" cx="420.91" cy="386.46" r="2.14"/>
        <circle class="cls-2" cx="420.95" cy="385.54" r="2.14"/>
        <circle class="cls-2" cx="420.93" cy="384.64" r="2.14"/>
        <circle class="cls-2" cx="420.88" cy="383.76" r="2.14"/>
        <circle class="cls-2" cx="420.79" cy="382.9" r="2.14"/>
        <circle class="cls-2" cx="420.66" cy="382.04" r="2.14"/>
        <circle class="cls-2" cx="420.49" cy="381.2" r="2.14"/>
        <circle class="cls-2" cx="420.28" cy="380.39" r="2.14"/>
        <circle class="cls-2" cx="420.03" cy="379.58" r="2.14"/>
        <circle class="cls-2" cx="419.76" cy="378.79" r="2.14"/>
        <circle class="cls-2" cx="419.44" cy="378.02" r="2.14"/>
        <circle class="cls-2" cx="419.09" cy="377.26" r="2.14"/>
        <circle class="cls-2" cx="418.7" cy="376.52" r="2.14"/>
        <circle class="cls-2" cx="418.28" cy="375.78" r="2.14"/>
        <circle class="cls-2" cx="417.82" cy="375.06" r="2.14"/>
      </g>
      <circle class="cls-2" cx="461.87" cy="552.02" r="2.14"/>
      <circle class="cls-2" cx="615.54" cy="471.72" r="2.14"/>
      <g>
        <circle class="cls-2" cx="470.1" cy="565.99" r="1.45"/>
        <circle class="cls-2" cx="469.94" cy="564.67" r="1.45"/>
        <circle class="cls-2" cx="469.8" cy="563.53" r="1.45"/>
        <circle class="cls-2" cx="469.65" cy="562.54" r="1.45"/>
        <circle class="cls-2" cx="469.5" cy="561.69" r="1.45"/>
        <circle class="cls-2" cx="469.32" cy="560.93" r="1.45"/>
        <circle class="cls-2" cx="469.12" cy="560.26" r="1.45"/>
        <circle class="cls-2" cx="468.89" cy="559.65" r="1.45"/>
        <circle class="cls-2" cx="468.61" cy="559.07" r="1.45"/>
        <circle class="cls-2" cx="468.29" cy="558.51" r="1.45"/>
        <circle class="cls-2" cx="467.91" cy="557.93" r="1.45"/>
        <circle class="cls-2" cx="467.47" cy="557.33" r="1.45"/>
        <circle class="cls-2" cx="466.95" cy="556.65" r="1.45"/>
        <circle class="cls-2" cx="466.34" cy="555.9" r="1.45"/>
        <circle class="cls-2" cx="465.66" cy="555.05" r="1.45"/>
      </g>
      <g>
        <circle class="cls-2" cx="624.85" cy="486.4" r="1.45"/>
        <circle class="cls-2" cx="624.7" cy="485.08" r="1.45"/>
        <circle class="cls-2" cx="624.56" cy="483.95" r="1.45"/>
        <circle class="cls-2" cx="624.41" cy="482.96" r="1.45"/>
        <circle class="cls-2" cx="624.26" cy="482.1" r="1.45"/>
        <circle class="cls-2" cx="624.07" cy="481.35" r="1.45"/>
        <circle class="cls-2" cx="623.88" cy="480.67" r="1.45"/>
        <circle class="cls-2" cx="623.64" cy="480.06" r="1.45"/>
        <circle class="cls-2" cx="623.38" cy="479.49" r="1.45"/>
        <circle class="cls-2" cx="623.05" cy="478.92" r="1.45"/>
        <circle class="cls-2" cx="622.67" cy="478.35" r="1.45"/>
        <circle class="cls-2" cx="622.23" cy="477.74" r="1.45"/>
        <circle class="cls-2" cx="621.71" cy="477.07" r="1.45"/>
        <circle class="cls-2" cx="621.11" cy="476.32" r="1.45"/>
        <circle class="cls-2" cx="620.42" cy="475.46" r="1.45"/>
      </g>
    </g>
  </g>
  <g>
    <path class="cls-3" d="m571.13,321.75l3.61-.17h1.68c8.63,0,19.27,2.44,31.94,7.31,6.27,2.58,9.52,6.72,9.75,12.44v.5c0,4.2-1.91,7.79-5.71,10.76-2.24,1.51-4.6,2.3-7.06,2.35h-.34c-2.24,0-5.69-1.04-10.34-3.11-7.56-2.58-13.9-3.87-18.99-3.87h-1.18l-.92.08c-5.21.17-8.26,2.02-9.16,5.55-.39,1.57-.59,2.72-.59,3.45l.08,1.09c.11,3.25,8.63,8.04,25.55,14.37,6.33,2.69,11.88,5.66,16.64,8.91,8.8,6.78,13.39,14.71,13.78,23.78v2.19c0,5.6-1.68,11.65-5.04,18.15-.95,2.13-3.42,5.1-7.4,8.91-4.26,3.75-10,6.47-17.23,8.15-3.08.56-5.46.87-7.14.92l-3.53.17h-2.02c-8.18,0-18.13-1.79-29.83-5.38-2.8-.84-5.1-2.16-6.89-3.95-2.35-2.58-3.59-5.49-3.7-8.74v-.67c0-4.14,1.88-7.67,5.63-10.59,2.24-1.46,4.59-2.24,7.06-2.35h.17c1.9,0,5.35.84,10.34,2.52,6.89,1.85,12.94,2.77,18.15,2.77h1.26l.84-.08c5.99-.22,9.83-1.85,11.51-4.87.95-2.07,1.43-3.92,1.43-5.55v-.25c-.11-3.08-7.84-7.51-23.2-13.28-7.17-2.91-13.34-6.11-18.49-9.58-4.87-3.87-7.82-6.83-8.82-8.91-3.47-4.99-5.32-10.22-5.55-15.72v-1.51c0-7.9,2.41-15.35,7.23-22.35,3.03-3.64,5.46-5.99,7.31-7.06,6.11-4.03,12.49-6.16,19.16-6.39Z"/>
    <path class="cls-3" d="m634.25,349.23h1.01c4.37,0,8.01,2.21,10.93,6.64.84,1.18,2.13,5.77,3.87,13.78l5.46,22.1h.08c.39-.62,3.16-5.94,8.32-15.97,3.03-4.09,6.58-6.13,10.67-6.13h1.09c5.21,0,9.41,3.08,12.61,9.24,4.76,7.79,7.25,11.77,7.48,11.93h.17c2.19-19.44,3.53-30.09,4.03-31.94,1.4-3.59,3.59-6.11,6.56-7.56,1.96-.95,3.87-1.43,5.71-1.43h.59c4.54,0,8.32,2.33,11.35,6.98,1.01,2.13,1.51,4.06,1.51,5.8v.84c0,1.23-2.75,24.48-8.24,69.75-.9,3.36-2.44,5.86-4.62,7.48-2.52,1.96-5.13,2.94-7.82,2.94h-1.01c-5.44,0-9.83-3.45-13.19-10.34l-14.37-23.28-.25-.08c-8.85,17.42-13.59,26.59-14.2,27.48-2.97,3.7-6.42,5.55-10.34,5.55h-1.01c-4.48,0-8.18-2.27-11.09-6.81-.84-1.34-2.24-6.53-4.2-15.55-9.19-37.26-13.78-56.36-13.78-57.32v-1.43c0-4.87,2.61-8.74,7.82-11.6,1.85-.73,3.47-1.09,4.87-1.09Z"/>
    <path class="cls-3" d="m776.19,348.05h2.1c17.65,0,30.9,6.16,39.75,18.49,4.71,7.17,7.06,15.35,7.06,24.54,0,7.4-3.45,12.19-10.34,14.37,0,.34-16.45.95-49.33,1.85,1.29,2.75,3.81,5.38,7.56,7.9,2.24,1.34,4.85,2.02,7.82,2.02h1.51c7.34,0,13.19-1.85,17.56-5.55,2.3-1.23,4.43-1.85,6.39-1.85h.84c4.87,0,8.77,2.61,11.68,7.82.67,1.91,1.01,3.56,1.01,4.96v.84c0,7.45-6.78,13.39-20.34,17.82-5.6,1.63-11.46,2.44-17.56,2.44-12.21,0-22.38-3.95-30.51-11.85-3.87-3.81-6.58-7.09-8.15-9.83-5.1-7.9-8.21-16.61-9.33-26.14-.17-1.79-.25-3.22-.25-4.29v-3.36c0-9.47,3.05-18.18,9.16-26.14,7.9-9.36,19.02-14.03,33.36-14.03Zm-14.12,32.94h.08c2.63,0,13.47-.34,32.52-1.01v-.25c-3.47-3.53-9.3-5.29-17.48-5.29s-12.92,1.93-14.88,5.8c-.11,0-.2.25-.25.76Z"/>
    <path class="cls-3" d="m876.2,348.05h2.1c17.65,0,30.9,6.16,39.75,18.49,4.71,7.17,7.06,15.35,7.06,24.54,0,7.4-3.45,12.19-10.34,14.37,0,.34-16.45.95-49.33,1.85,1.29,2.75,3.81,5.38,7.56,7.9,2.24,1.34,4.85,2.02,7.82,2.02h1.51c7.34,0,13.19-1.85,17.56-5.55,2.3-1.23,4.43-1.85,6.39-1.85h.84c4.87,0,8.77,2.61,11.68,7.82.67,1.91,1.01,3.56,1.01,4.96v.84c0,7.45-6.78,13.39-20.34,17.82-5.6,1.63-11.46,2.44-17.56,2.44-12.21,0-22.38-3.95-30.51-11.85-3.87-3.81-6.58-7.09-8.15-9.83-5.1-7.9-8.21-16.61-9.33-26.14-.17-1.79-.25-3.22-.25-4.29v-3.36c0-9.47,3.05-18.18,9.16-26.14,7.9-9.36,19.02-14.03,33.36-14.03Zm-14.12,32.94h.08c2.63,0,13.47-.34,32.52-1.01v-.25c-3.47-3.53-9.3-5.29-17.48-5.29s-12.92,1.93-14.88,5.8c-.11,0-.2.25-.25.76Z"/>
    <path class="cls-3" d="m955.03,332.34h.67c4.93,0,8.85,2.63,11.77,7.9,1.06,2.35,1.6,7.26,1.6,14.71.06,0,.14,1.04.25,3.11l.92.08c10.64,0,16.81.34,18.49,1.01,3.42,1.4,5.91,3.56,7.48,6.47.95,1.96,1.43,3.87,1.43,5.71v.67c0,4.54-2.35,8.32-7.06,11.35-2.19,1.01-3.95,1.51-5.29,1.51l-15.8-.34v8.66c0,3.25-.03,7.26-.08,12.02,0,4.99.87,8.68,2.61,11.09.95.67,2.24,1.01,3.87,1.01,3.98,0,9.55-1.68,16.72-5.04,1.4-.34,2.55-.5,3.45-.5h1.09c4.87,0,8.77,2.58,11.68,7.73.67,1.91,1.01,3.56,1.01,4.96v.76c0,4.48-2.3,8.26-6.89,11.35-9.64,4.76-18.71,7.14-27.23,7.14-11.09,0-19.75-4.34-25.97-13.03-4.48-6.95-6.72-14.93-6.72-23.95.06-7.17.08-13.08.08-17.73v-5.04h-1.26c-4.09,0-7.62-1.82-10.59-5.46-1.68-2.41-2.52-4.87-2.52-7.4v-.84c0-4.87,2.61-8.77,7.82-11.68,1.85-.67,3.47-1.01,4.87-1.01h1.43l-.67-12.52c0-3.59,1.79-6.98,5.38-10.17,2.58-1.68,5.07-2.52,7.48-2.52Z"/>
  </g>
  <g>
    <path class="cls-3" d="m712.34,459.72l2.98-.14h1.39c7.11,0,15.88,2.01,26.32,6.02,5.17,2.12,7.85,5.54,8.03,10.25v.42c0,3.46-1.57,6.42-4.71,8.86-1.85,1.25-3.79,1.89-5.82,1.94h-.28c-1.85,0-4.69-.85-8.52-2.56-6.23-2.12-11.45-3.19-15.65-3.19h-.97l-.76.07c-4.29.14-6.81,1.66-7.55,4.57-.32,1.29-.48,2.24-.48,2.84l.07.9c.09,2.68,7.11,6.63,21.05,11.84,5.22,2.22,9.79,4.66,13.71,7.34,7.25,5.59,11.03,12.12,11.36,19.6v1.8c0,4.62-1.39,9.6-4.16,14.96-.79,1.75-2.82,4.2-6.09,7.34-3.51,3.09-8.24,5.33-14.2,6.72-2.54.46-4.5.72-5.89.76l-2.91.14h-1.66c-6.74,0-14.94-1.48-24.58-4.43-2.31-.69-4.2-1.78-5.68-3.25-1.94-2.12-2.96-4.52-3.05-7.2v-.55c0-3.42,1.55-6.32,4.64-8.73,1.85-1.2,3.79-1.85,5.82-1.94h.14c1.57,0,4.41.69,8.52,2.08,5.68,1.52,10.66,2.29,14.96,2.29h1.04l.69-.07c4.94-.18,8.1-1.52,9.49-4.02.78-1.71,1.18-3.23,1.18-4.57v-.21c-.09-2.54-6.46-6.19-19.11-10.94-5.91-2.4-10.99-5.03-15.24-7.89-4.02-3.19-6.44-5.63-7.27-7.34-2.86-4.11-4.39-8.43-4.57-12.95v-1.25c0-6.51,1.98-12.65,5.96-18.42,2.49-3,4.5-4.94,6.02-5.82,5.03-3.32,10.3-5.08,15.79-5.26Z"/>
    <path class="cls-3" d="m795.17,483.34h2.56c7.29,0,14.08,2.7,20.36,8.1,3.46,3.51,6,6.9,7.62,10.18,3.19,6.46,4.78,13.39,4.78,20.78,0,10.43-3.05,19.39-9.14,26.87-3.51,3.69-5.93,5.77-7.27,6.23-4.94,3.14-10.2,4.71-15.79,4.71h-1.59c-7.43,0-14.52-2.29-21.26-6.86-.97-.42-3.21-2.49-6.72-6.23-5.82-7.2-8.73-15.65-8.73-25.35,0-10.34,3.42-19.41,10.25-27.22,3.55-3.46,6.12-5.54,7.69-6.23,5.77-3.32,11.52-4.99,17.24-4.99Zm-13.43,38.5c0,5.36,1.82,9.72,5.47,13.09,3,2.35,6.42,3.53,10.25,3.53,4.99,0,8.43-3.09,10.32-9.28.6-2.26.9-4.39.9-6.37v-.97c0-5.96-1.85-10.8-5.54-14.54-1.75-1.48-3.95-2.22-6.58-2.22-6.46,0-11.01,3.28-13.64,9.83-.79,2.68-1.18,4.99-1.18,6.93Z"/>
    <path class="cls-3" d="m849.33,459.58c4.06,0,7.29,2.03,9.7,6.09.78,1.11,1.18,4.16,1.18,9.14.28,44.41.42,69.3.42,74.65,0,3.79-1.8,6.88-5.4,9.28-1.8.97-3.62,1.45-5.47,1.45-3.97,0-7.18-1.98-9.63-5.96-.79-1.98-1.18-3.83-1.18-5.54,0-8.77-.19-35.04-.55-78.81,0-1.94.88-4.11,2.63-6.51,2.35-2.54,5.12-3.81,8.31-3.81Z"/>
    <path class="cls-3" d="m925.57,458.89h.69c4.02,0,7.22,2.15,9.63,6.44.65,1.75.97,3.07.97,3.95,0,14.82.09,41.57.28,80.26-.19,1.75-.88,3.6-2.08,5.54-2.22,2.45-4.29,3.83-6.23,4.16-2.91.65-7.11.97-12.6.97-15.98,0-28.14-3.76-36.5-11.29-3.6-3.6-5.7-6.28-6.3-8.03-2.68-4.94-4.02-9.9-4.02-14.89v-3.25c0-7.06,2.1-13.92,6.3-20.57.92-1.61,3.23-4.2,6.93-7.76,6.09-5.08,13.55-8.66,22.37-10.73,5.22-1.15,8.59-1.73,10.11-1.73v-12.53c0-4.02,2.15-7.22,6.44-9.63,1.52-.6,2.86-.9,4.02-.9Zm-34.42,65.58v.07c0,6.19,3.46,10.16,10.39,11.91,4.06,1.29,8.47,1.94,13.23,1.94h.21s.07.02.07.07c.09-.05.18-.07.28-.07v-2.01c0-7.62-.05-18.44-.14-32.48h-.07c-6.51.74-12.3,2.86-17.38,6.37-4.39,3.28-6.58,8.01-6.58,14.2Z"/>
    <path class="cls-3" d="m960.06,456.26h.9c3.69,0,6.9,1.8,9.63,5.4,1.39,2.22,2.08,4.34,2.08,6.37v1.39c0,2.54-1.02,5.08-3.05,7.62-2.86,3-6.02,4.5-9.49,4.5h-.9c-2.63,0-5.19-1.04-7.69-3.12-2.54-2.58-3.81-5.33-3.81-8.24v-1.32c0-2.82,1.15-5.61,3.46-8.38,2.72-2.82,5.68-4.22,8.86-4.22Zm1.18,28.05h.76c3.88,0,7.04,2.03,9.49,6.09.69,1.2,1.04,3.32,1.04,6.37.78,30.1,1.2,47.83,1.25,53.19,0,2.96-1.55,5.73-4.64,8.31-2.03,1.29-3.99,1.94-5.89,1.94h-.55c-3.56,0-6.56-1.73-9-5.19-1.16-1.43-1.73-4.22-1.73-8.38-.79-32.92-1.18-50.32-1.18-52.22,0-2.82,1.43-5.49,4.29-8.03,2.12-1.39,4.18-2.08,6.16-2.08Z"/>
    <path class="cls-3" d="m1017.12,481.4h1.73c14.54,0,25.46,5.08,32.76,15.24,3.88,5.91,5.82,12.65,5.82,20.22,0,6.09-2.84,10.04-8.52,11.84,0,.28-13.55.79-40.65,1.52,1.06,2.26,3.14,4.43,6.23,6.51,1.85,1.11,3.99,1.66,6.44,1.66h1.25c6.05,0,10.87-1.52,14.47-4.57,1.89-1.02,3.65-1.52,5.26-1.52h.69c4.02,0,7.22,2.15,9.63,6.44.55,1.57.83,2.93.83,4.09v.69c0,6.14-5.59,11.03-16.76,14.68-4.62,1.34-9.44,2.01-14.47,2.01-10.07,0-18.44-3.25-25.14-9.76-3.19-3.14-5.43-5.84-6.72-8.1-4.2-6.51-6.76-13.69-7.69-21.54-.14-1.48-.21-2.65-.21-3.53v-2.77c0-7.8,2.52-14.98,7.55-21.54,6.51-7.71,15.67-11.57,27.49-11.57Zm-11.63,27.15h.07c2.17,0,11.1-.28,26.8-.83v-.21c-2.86-2.91-7.66-4.36-14.4-4.36s-10.64,1.59-12.26,4.78c-.09,0-.16.21-.21.62Z"/>
    <path class="cls-3" d="m1098.63,484.03h2.56c5.26,0,10.55,2.01,15.86,6.02,4.34,3.56,6.51,7.09,6.51,10.6v.76c0,4.02-2.14,7.23-6.44,9.63-1.52.55-2.86.83-4.02.83h-.69c-3.19,0-6.23-1.64-9.14-4.92-1.06-.78-2.22-1.18-3.46-1.18-1.8,0-3.25.95-4.36,2.84-1.16,1.48-2.38,4.18-3.67,8.1-2.49,8.91-3.74,18.93-3.74,30.06.09,1.71.14,2.84.14,3.39,0,1.75-.85,3.81-2.56,6.16-2.4,2.59-5.06,3.88-7.96,3.88h-.76c-4.02,0-7.23-2.15-9.63-6.44-.74-1.25-1.11-5.17-1.11-11.77-.92-29.45-1.39-45.31-1.39-47.58,0-2.95,1.57-5.72,4.71-8.31,1.98-1.29,3.95-1.94,5.89-1.94h.48c3.28,0,6.16,1.55,8.66,4.64,4.66-3.19,9.37-4.78,14.13-4.78Z"/>
    <path class="cls-3" d="m1155.49,481.81l1.39-.07c.69-.05,1.39-.07,2.08-.07,7.25,0,15.79,1.55,25.62,4.64,4.43,2.17,6.76,5.43,6.99,9.76v.55c0,3.69-1.85,6.79-5.54,9.28-1.76.83-3.42,1.29-4.99,1.39h-.14c-1.39,0-4.66-.76-9.83-2.29-4.66-1.06-8.8-1.59-12.4-1.59-.55,0-1.09.02-1.59.07-3.51.19-5.75.85-6.72,2.01,2.22,1.48,8.77,3.76,19.67,6.86,14.63,4.62,22.18,11.82,22.65,21.61v1.25c0,4.25-1.48,8.63-4.43,13.16-5.5,7.3-13.97,11.2-25.42,11.7l-1.32.07c-.93.05-1.87.07-2.84.07-7.06,0-15.1-1.2-24.1-3.6-2.17-.97-3.93-2.49-5.26-4.57-.97-1.75-1.48-3.44-1.52-5.06v-.55c0-3.37,1.55-6.3,4.64-8.8,1.84-1.2,3.78-1.85,5.82-1.94h.14c.97,0,3.74.48,8.31,1.45,4.43.88,8.54,1.32,12.33,1.32.83,0,1.64-.02,2.42-.07,4.39-.18,7.32-.97,8.8-2.35v-.14c-1.8-1.2-7.6-3.21-17.38-6.02-15.98-4.71-24.19-12.19-24.65-22.44v-1.32c0-5.08,1.87-9.97,5.61-14.68,5.22-6,12.44-9.21,21.68-9.63Z"/>
  </g>
</svg>