<?xml version="1.0" encoding="UTF-8"?>
<svg id="Usine_Right_Out" xmlns="http://www.w3.org/2000/svg" viewBox="0 0 128 128">
  <defs>
    <style>
      .cls-1 {
        fill: #c54d72;
      }

      .cls-2 {
        fill: #056734;
      }

      .cls-3 {
        fill: #8d2c4c;
      }

      .cls-4 {
        fill: #f7ca9a;
      }

      .cls-5 {
        fill: #d1eaf1;
      }

      .cls-6 {
        fill: #ed6ea7;
      }

      .cls-7 {
        fill: #40af6d;
      }

      .cls-8 {
        fill: #73bd84;
      }

      .cls-9 {
        fill: #65270c;
      }
    </style>
  </defs>
  <rect class="cls-1" x="0" y="-.03" width="128" height="128.06" rx="8.89" ry="8.89"/>
  <rect class="cls-6" x="0" width="128" height="100.04" rx="8.89" ry="8.89"/>
  <g>
    <path class="cls-2" d="m25.83,36.58c.19.14.39.28.59.4-2.02,4.59-3.14,9.67-3.14,15v6.47s0,19.45,0,19.45l-.05-.04c-1.46-1.34-2.82-2.77-4.08-4.26-.01-.01-.02-.02-.03-.03v-21.09c0-4.09.66-8.03,1.89-11.72.11-.33.22-.66.34-.99.32-.89.68-1.77,1.06-2.63-.21-.13-.41-.27-.62-.41-3.99-2.9-5.38-8.19-4.11-13.65.1-.47.23-.93.37-1.39.08-.25.16-.5.25-.75.26-.73.56-1.45.92-2.17.09-.19.19-.39.3-.59.08-.15.16-.29.24-.44.25-.44.51-.86.79-1.29.28-.44.58-.86.9-1.28,2.39-3.15,5.43-5.45,8.59-6.74,3.18-1.32,6.48-1.62,9.38-.77,0,0,.02,0,.02,0,.07.02.14.04.21.07-4.17-.1-8.75,1.92-12.38,5.66-.13.13-.25.25-.36.38-.24.26-.48.52-.7.8-.24.29-.48.6-.71.91-.13.18-.26.36-.38.54-.05.07-.1.14-.15.21-.14.21-.28.42-.42.63-1.48,2.35-2.43,4.84-2.85,7.27-.04.22-.07.44-.1.66s-.05.44-.07.66c-.02.16-.03.31-.04.47,0,.03,0,.05,0,.07-.01.1-.02.2-.02.31-.01.15-.01.3-.02.45v.14c0,.1,0,.2,0,.3,0,.1,0,.2,0,.3,0,.27.02.53.04.79.06.63.15,1.25.28,1.86,0,0,0,.01,0,.02.08.34.17.68.27,1,.08.26.17.51.26.75,0,.02.02.04.02.06.24.59.51,1.15.83,1.69.04.06.08.13.12.18.17.26.34.52.53.77.07.09.14.18.21.27.11.13.21.26.32.38.16.17.32.34.49.5.1.1.21.19.32.29.14.12.28.24.43.35.07.06.14.12.22.18Z"/>
    <path class="cls-2" d="m43.07,27.45c-.12.19-.26.38-.39.56-2.76,3.72-6.73,5.81-10.32,5.81-.11,0-.21,0-.33,0-1.64-.04-3.19-.52-4.49-1.5-3.14-2.34-4.02-6.82-2.56-11.23.03-.08.06-.17.09-.26.05-.14.11-.29.16-.43.03-.08.06-.16.09-.24.05-.12.09-.24.14-.36.08-.18.16-.36.25-.54,0-.02.02-.03.03-.05.08-.18.17-.36.27-.53.09-.16.18-.32.27-.48.03-.06.07-.12.1-.17.05-.09.11-.19.17-.29.01-.02.03-.04.04-.06,0-.02.02-.03.03-.05.21-.35.45-.7.7-1.04.29-.39.6-.76.92-1.11.16-.18.32-.36.49-.52.33-.34.67-.66,1.02-.95.18-.15.36-.29.53-.43.18-.14.36-.27.54-.4.18-.14.37-.26.56-.38l-.03.03s.02-.02.03-.02c-.03.03-.06.06-.09.09,0,0,.01-.01.02-.02,0,0,.01,0,.02-.01,0,0,.02-.01.02-.01,0,0,0,0,0,0,.09-.06.18-.12.28-.18,3.66-2.28,7.87-2.58,10.84-.37.27.2.52.41.76.65.31.3.59.63.84.97.17.24.32.48.47.73.14.25.27.51.39.78.12.27.22.55.31.82.08.26.15.51.21.78.01.06.03.12.04.17.05.23.09.47.12.7.08.6.12,1.21.1,1.84,0,.05,0,.09,0,.14,0,.11,0,.23-.02.34-.02.2-.03.41-.06.61-.1.97-.34,1.97-.69,2.95-.06.18-.14.37-.2.55-.07.18-.14.36-.22.54-.08.18-.16.36-.25.54-.09.18-.18.35-.27.53-.08.16-.17.32-.26.48,0,0,0,0,0,.01h0s0,.01,0,.01c0,0,0,0,0,.01t0,.01c-.04.07-.08.13-.12.2-.03.05-.06.1-.09.15-.03.04-.05.08-.07.12-.04.05-.07.1-.1.16-.03.04-.05.07-.07.11-.06.09-.12.17-.17.26Z"/>
    <path class="cls-2" d="m50.81,46.72c-4.28,0-7.74-3.46-7.74-7.74,0-.89.16-1.74.43-2.53.01-.04.02-.09.04-.13.05-.12.09-.24.14-.35.01-.02.02-.04.03-.06.04-.09.08-.19.13-.28.02-.04.04-.07.05-.11.04-.08.08-.15.12-.23.07-.14.15-.27.23-.4.05-.08.1-.16.16-.24.14-.2.28-.4.45-.6,1.4-1.76,3.57-2.87,6-2.87,4.28,0,7.74,3.46,7.74,7.74,0,1.09-.23,2.13-.63,3.07-.05.12-.1.23-.16.34-.05.09-.09.19-.14.28-.06.11-.12.21-.18.33-1.35,2.27-3.83,3.78-6.65,3.78Z"/>
    <path class="cls-3" d="m105.17,37.37c2.05,4.63,3.19,9.74,3.19,15.11v21.67c-9.7,11.08-24.96,18.4-42.24,18.96v-24.55c-2.88.13-5.66-.21-7.73-1.1-2.3-.98-4.23-2.39-5.67-4.03-.01-.01-.02-.02-.04-.04-1.75-1.84-2.76-4.05-2.76-6.43,0-.07,0-.14,0-.21,0-.06,0-.13,0-.19.02-.69.12-1.37.34-2.03.02-.07.04-.14.06-.2.04-.14.09-.27.15-.4,0-.02.02-.04.03-.06.04-.11.09-.22.15-.32,0,0,0-.02.01-.02,0-.03.02-.05.03-.07t0-.01c.09-.21.19-.41.3-.62.01-.03.03-.05.04-.07h0s.04-.08.06-.12c.06-.1.12-.21.18-.31.02-.03.03-.05.05-.08.01-.01.02-.03.03-.04.05-.08.1-.15.15-.23.04-.07.09-.13.13-.19.05-.07.1-.14.15-.21.03-.03.05-.06.06-.08.02-.03.04-.06.07-.09h0s.03-.04.04-.05c.07-.1.16-.2.24-.3.12-.14.25-.29.38-.43.17-.19.36-.38.54-.56.09-.09.19-.18.29-.27.09-.09.19-.18.3-.26.19-.16.38-.31.58-.47.2-.15.4-.3.61-.45.15-.1.3-.21.47-.31.25-.15.5-.3.75-.45.49-.28,1.01-.53,1.55-.77.14-.06.27-.12.41-.17.28-.12.56-.23.85-.32.14-.05.29-.1.44-.15.18-.06.36-.11.53-.16.27-.08.53-.16.81-.23.15-.04.31-.08.46-.11.14-.03.28-.06.43-.09.23-.05.46-.09.7-.13.08-.02.16-.03.25-.04.24-.04.48-.07.72-.1.1-.02.2-.03.3-.04.19-.02.38-.04.58-.06.63-.06,1.28-.08,1.94-.08V14.34h3.18c3.45,0,5.38.18,8.13.92.5.13,1.02.28,1.58.46.01-.05.02-.1.04-.15.6-2.72,2.01-5.08,4.24-6.69,3.82-2.77,9.92-2.53,15.32,0,3.03,1.42,5.84,3.55,7.91,6.28.33.43.64.87.92,1.32,1.32,2.01,2.24,4.13,2.77,6.23.05.18.09.36.13.53.06.25.1.49.15.74.91,5.14-.54,10.01-4.31,12.75-.33.24-.66.45-1.01.64Z"/>
    <path class="cls-7" d="m25.5,15.49c-.13.18-.26.36-.38.54.11-.16.21-.32.34-.48.02-.02.03-.04.05-.06Z"/>
    <path class="cls-7" d="m25.83,36.58c.19.14.39.28.59.4-2.02,4.59-3.14,9.67-3.14,15v6.47s0,19.45,0,19.45l-.03-12.96-.02-12.9c0-5.34,1.12-10.41,3.14-15-.2-.13-.4-.26-.59-.4-3.94-2.92-5.21-8.35-3.79-13.87.06-.26.13-.52.21-.77,0-.03.02-.06.03-.09.03-.08.05-.16.08-.25.06-.21.14-.42.21-.64.1-.28.2-.56.31-.83.06-.15.13-.31.19-.46.3-.71.66-1.4,1.06-2.1.07-.12.14-.24.21-.35.04-.07.08-.14.13-.2.05-.07.09-.14.14-.2-1.48,2.35-2.43,4.84-2.85,7.27-.04.22-.07.44-.1.66s-.05.44-.07.66c-.02.16-.03.31-.04.47,0,.03,0,.05,0,.07-.01.1-.02.2-.02.31-.01.15-.01.3-.02.45v.14c0,.1,0,.2,0,.3,0,.1,0,.2,0,.3,0,.27.02.53.04.79.06.63.15,1.25.28,1.86,0,0,0,.01,0,.02.08.34.17.68.27,1,.08.26.17.51.26.75,0,.02.02.04.02.06.24.59.51,1.15.83,1.69.04.06.08.13.12.18.17.26.34.52.53.77.07.09.14.18.21.27.11.13.21.26.32.38.16.17.32.34.49.5.1.1.21.19.32.29.14.12.28.24.43.35.07.06.14.12.22.18Z"/>
    <path class="cls-7" d="m43.07,27.45c-.12.19-.26.38-.39.56-2.76,3.72-6.73,5.81-10.32,5.81-.11,0-.21,0-.33,0-1.64-.04-3.19-.52-4.49-1.5-3.14-2.34-4.02-6.82-2.56-11.23.03-.08.06-.17.09-.26.05-.14.11-.29.16-.43.03-.08.06-.16.09-.24.05-.12.09-.24.14-.36.08-.18.16-.36.25-.54,0-.02.02-.03.03-.05.08-.18.17-.36.27-.53.09-.16.18-.32.27-.48.03-.06.07-.12.1-.17.05-.09.11-.19.17-.29.01-.02.03-.04.04-.06,0-.02.02-.03.03-.05.21-.35.45-.7.7-1.04.29-.39.6-.76.92-1.11.16-.18.32-.36.49-.52.33-.34.67-.66,1.02-.95.18-.15.36-.29.53-.43.18-.14.36-.27.54-.4.18-.14.37-.26.56-.38l-.03.03s.02-.02.03-.02c-.03.03-.06.06-.09.09,0,0,.01-.01.02-.02,0,0,.01,0,.02-.01,0,0,.02-.01.02-.01,0,0,0,0,0,0,.09-.06.18-.12.28-.18,3.66-2.28,7.87-2.58,10.84-.37.27.2.52.41.76.65.31.3.59.63.84.97.17.24.32.48.47.73.14.25.27.51.39.78.12.27.22.55.31.82.08.26.15.51.21.78.01.06.03.12.04.17.05.23.09.47.12.7.08.6.12,1.21.1,1.84,0,.05,0,.09,0,.14,0,.11,0,.23-.02.34-.02.2-.03.41-.06.61-.1.97-.34,1.97-.69,2.95-.06.18-.14.37-.2.55-.07.18-.14.36-.22.54-.08.18-.16.36-.25.54-.09.18-.18.35-.27.53-.08.16-.17.32-.26.48,0,0,0,0,0,.01h0s0,.01,0,.01c0,0,0,0,0,.01t0,.01c-.04.07-.08.13-.12.2-.03.05-.06.1-.09.15-.03.04-.05.08-.07.12-.04.05-.07.1-.1.16-.03.04-.05.07-.07.11-.06.09-.12.17-.17.26Z"/>
    <path class="cls-7" d="m42.68,9.26c-.93-.68-1.96-1.18-3.03-1.53.07,0,.14,0,.2,0h.03c2.13.09,4.15.75,5.86,2.02,1.83,1.36,3.1,3.27,3.77,5.48.01.02.02.03.02.05-.88.19-1.75.42-2.6.67-.6-2.72-2.02-5.08-4.25-6.7Z"/>
    <path class="cls-7" d="m50.81,46.72c-4.28,0-7.74-3.46-7.74-7.74,0-.89.16-1.74.43-2.53.01-.04.02-.09.04-.13.05-.12.09-.24.14-.35.01-.02.02-.04.03-.06.04-.09.08-.19.13-.28.02-.04.04-.07.05-.11.04-.08.08-.15.12-.23.07-.14.15-.27.23-.4.05-.08.1-.16.16-.24.14-.2.28-.4.45-.6,1.4-1.76,3.57-2.87,6-2.87,4.28,0,7.74,3.46,7.74,7.74,0,1.09-.23,2.13-.63,3.07-.05.12-.1.23-.16.34-.05.09-.09.19-.14.28-.06.11-.12.21-.18.33-1.35,2.27-3.83,3.78-6.65,3.78Z"/>
    <path class="cls-3" d="m105.45,37.26c1.96,4.53,3.05,9.53,3.05,14.78v21.95c-.04.05-.09.1-.14.16-9.7,11.08-24.96,18.4-42.24,18.96v-24.55c-2.88.13-5.66-.21-7.73-1.1-2.3-.98-4.23-2.39-5.67-4.03-.01-.01-.02-.02-.04-.04-1.75-1.84-2.76-4.05-2.76-6.43,0-.07,0-.14,0-.21,0-.06,0-.13,0-.19.02-.69.12-1.37.34-2.03.02-.07.04-.14.06-.2.04-.14.09-.27.15-.4,0-.02.02-.04.03-.06.04-.11.09-.22.15-.32,0,0,0-.02.01-.02,0-.03.02-.05.03-.07t0-.01c.09-.21.19-.41.3-.62.01-.03.03-.05.04-.07h0s.04-.08.06-.12c.06-.1.12-.21.18-.31.02-.03.03-.05.05-.08.01-.01.02-.03.03-.04.05-.08.1-.15.15-.23.04-.07.09-.13.13-.19.05-.07.1-.14.15-.21.03-.03.05-.06.06-.08.02-.03.04-.06.07-.09h0s.03-.04.04-.05c.07-.1.16-.2.24-.3.12-.14.25-.29.38-.43.17-.19.36-.38.54-.56.09-.09.19-.18.29-.27.09-.09.19-.18.3-.26.19-.16.38-.31.58-.47.2-.15.4-.3.61-.45.15-.1.3-.21.47-.31.25-.15.5-.3.75-.45.49-.28,1.01-.53,1.55-.77.14-.06.27-.12.41-.17.28-.12.56-.23.85-.32.14-.05.29-.1.44-.15.18-.06.36-.11.53-.16.27-.08.53-.16.81-.23.15-.04.31-.08.46-.11.14-.03.28-.06.43-.09.23-.05.46-.09.7-.13.08-.02.16-.03.25-.04.24-.04.48-.07.72-.1.1-.02.2-.03.3-.04.19-.02.38-.04.58-.06.63-.06,1.28-.08,1.94-.08V14.74h5.05c2.13,0,4.23.18,6.26.53.55.09,1.08.19,1.62.31,1.12.24,2.22.53,3.3.88.56-2.72,1.92-5.08,4.08-6.69,3.45-2.56,8.16-2.62,12.55-.61,2.85,1.3,5.58,3.48,7.75,6.39.19.25.37.5.54.76,1.39,2.05,2.37,4.24,2.94,6.41.05.18.09.36.13.53.06.25.1.49.15.74.94,5.09-.43,9.94-4.08,12.65-.31.23-.63.44-.96.62Z"/>
    <ellipse class="cls-3" cx="97.21" cy="22.8" rx="9.54" ry="12.43" transform="translate(5.57 62.44) rotate(-36.59)"/>
    <path class="cls-3" d="m91.8,26.96c-3.78-5.09-3.97-11.46-.64-14.89-.45.21-.88.45-1.29.75-4.23,3.14-4.34,10.16-.25,15.67,4.09,5.51,10.84,7.44,15.07,4.3.32-.24.61-.51.89-.79-4.22,1.98-10.08-.06-13.79-5.05h0Z"/>
    <path class="cls-6" d="m82.27,56.96c0,1.93-.67,3.75-1.85,5.35-.06.08-.12.16-.18.25-.22.28-.45.55-.7.81h0c-1.6,1.7-3.81,3.07-6.41,3.96-.13.05-.26.09-.39.13-1.12.36-2.3.63-3.53.8-1,.14-2.02.21-3.07.21h-.03c-4.96,0-9.39-1.59-12.36-4.08-.02-.02-.03-.03-.05-.05-.34-.29-.66-.59-.96-.9-.01-.01-.02-.02-.04-.04-1.75-1.84-2.76-4.05-2.76-6.43,0-.07,0-.14,0-.21,0-.06,0-.13,0-.19.01-.26.04-.52.07-.77,0-.02,0-.04.01-.05.01-.08.02-.16.04-.24.09-.51.23-1.01.41-1.49.02-.06.04-.13.07-.19,0-.03.02-.06.04-.08.01-.03.03-.06.04-.08,0,0,0-.01,0-.02h0s.02-.06.03-.08c0,0,0-.02.01-.02,0-.03.02-.05.03-.07t0-.01c.09-.21.19-.41.3-.62.01-.03.03-.05.04-.07h0s.04-.08.06-.12c.06-.1.12-.21.18-.31h0s.03-.05.04-.08c.01-.01.02-.03.03-.04.05-.08.1-.15.15-.23.04-.07.09-.13.13-.19.05-.07.1-.14.15-.21.03-.03.05-.06.06-.08.02-.03.04-.06.07-.09h0s.03-.04.04-.05c.03-.04.06-.07.09-.11,2.79-3.45,8.03-5.78,14.03-5.78h.03c8.91.01,16.13,5.15,16.13,11.5Z"/>
    <ellipse class="cls-6" cx="66.1" cy="52.43" rx="8.04" ry="5.71"/>
    <circle class="cls-6" cx="81.4" cy="38.98" r="7.74"/>
    <circle class="cls-6" cx="81.4" cy="38.98" r="3.87"/>
    <path class="cls-8" d="m45.25,22.69c-.05.18-.1.36-.15.54-.01.04-.03.09-.04.14-.1.32-.21.63-.34.95-.07.18-.14.36-.22.54-.08.18-.16.36-.25.54-.09.18-.18.35-.27.53-.08.16-.17.32-.26.48h0s0,.02,0,.02c0,0,0,0,0,0,0,0,0,0,0,.01t0,.01c-.04.07-.08.13-.12.2-.03.05-.06.1-.09.15-.03.04-.05.08-.07.12-.04.05-.07.1-.1.16-.03.04-.05.07-.07.11-.06.09-.12.17-.17.26-.12.19-.26.38-.39.56-2.76,3.72-6.73,5.81-10.32,5.81-.11,0-.21,0-.33,0-1.61-.06-3.13-.55-4.43-1.5-.29-.21-.56-.45-.8-.69-.23-.21-.44-.45-.62-.69-.02-.03-.04-.05-.06-.08h0s0-.02-.01-.02c-.04-.05-.07-.09-.11-.15-.04-.05-.07-.09-.1-.15-.02-.03-.04-.06-.06-.08-.08-.13-.16-.25-.24-.38-.07-.13-.15-.26-.22-.39-1.56-3.02-1.34-7.2.69-11,.27-.51.58-1.02.92-1.52.12-.17.24-.34.36-.51.01-.02.03-.04.04-.05.03-.05.07-.09.1-.13.04-.06.08-.11.13-.16.17-.23.35-.45.55-.66.09-.11.19-.21.28-.31.57-.62,1.17-1.18,1.8-1.68.21-.16.42-.32.64-.48.08-.05.16-.11.24-.16l.02-.02s.04-.02.05-.03c.02-.01.04-.03.05-.04,3.74-2.47,8.11-2.85,11.18-.58,2.94,2.18,3.89,6.23,2.83,10.35Z"/>
    <path class="cls-2" d="m40.65,30.19c-.47.44-.96.84-1.47,1.21-.09.06-.18.13-.27.19-.02.01-.04.03-.06.04-.06.05-.12.08-.18.13-.05.03-.1.07-.16.1-.12.07-.24.15-.35.22-.14.08-.29.17-.43.25-.07.04-.14.07-.21.11-1.69.9-3.48,1.37-5.17,1.39-.11,0-.21,0-.33,0-1.64-.04-3.19-.52-4.49-1.5-3.14-2.34-4.02-6.82-2.56-11.23.03-.08.06-.17.09-.26.05-.14.11-.29.16-.43.03-.08.06-.16.09-.24.05-.12.09-.24.14-.36.08-.18.16-.36.25-.54,0-.02.02-.03.03-.05.08-.18.17-.36.27-.53.09-.16.18-.32.27-.48.03-.06.07-.12.1-.17.05-.09.11-.19.17-.29.01-.02.03-.04.04-.06.22-.35.45-.69.7-1.03,1.14-1.54,2.48-2.78,3.93-3.73h0s.01-.01.02-.02c0,0,0,0,.01,0,0,0,.01,0,.01,0h0s0-.01.01-.01c0,0,.01-.01.02-.02,0,0,.01,0,.02-.01,0,0,.02-.01.02-.01t0,0s-.05.05-.08.07c-.67.63-1.29,1.32-1.87,2.09-.1.14-.2.28-.3.42-.02.03-.04.06-.06.09-.01.02-.02.03-.03.05-.04.06-.08.13-.13.19-.07.09-.13.18-.18.28-.09.14-.18.29-.26.43-.01.02-.02.04-.03.05s-.02.03-.03.04c-.08.15-.16.29-.24.44,0,.01-.01.03-.02.04-.01.02-.02.04-.03.05-.09.17-.17.34-.25.51,0,0-.01.02-.02.03,0,.01-.01.02-.02.04l-.09.2c-.09.2-.18.4-.26.61-.03.06-.05.12-.07.17-1.84,4.67-1.07,9.56,2.27,12.03h0c2.98,2.22,7.2,1.9,10.88-.4h0s.02-.02.03-.02c.04-.03.07-.05.1-.07Z"/>
    <circle class="cls-6" cx="86.1" cy="35.49" r="1.8"/>
    <g>
      <path class="cls-8" d="m58.55,38.98c0,1.07-.22,2.09-.61,3.01-.05.12-.1.23-.16.34-.05.09-.09.19-.14.28-.06.11-.12.21-.18.33-1.35,2.27-3.83,3.78-6.65,3.78-4.28,0-7.74-3.46-7.74-7.74,0-.89.16-1.74.43-2.53.01-.04.02-.09.04-.13.05-.12.09-.24.14-.35.01-.02.02-.04.03-.06.04-.09.08-.19.13-.28.02-.04.04-.07.05-.11.04-.08.08-.15.12-.23.07-.14.15-.27.23-.4.05-.08.1-.16.16-.24.14-.2.28-.4.45-.6,1.42-1.72,3.57-2.81,5.98-2.81,4.27,0,7.74,3.46,7.74,7.74Z"/>
      <circle class="cls-7" cx="50.81" cy="38.98" r="3.87"/>
      <circle class="cls-5" cx="55.5" cy="35.49" r="1.8"/>
    </g>
    <path class="cls-6" d="m80.68,61.97c-.05.2-.24.39-.45.58-.19.17-.39.32-.49.49-.07.1-.14.21-.21.31h0c-1.25,1.72-3.62,3.07-6.41,3.96-.13.05-.26.09-.39.13-1.13.34-2.32.61-3.53.8-1.02.16-2.05.26-3.07.31-2.88.13-5.66-.21-7.73-1.1-2.3-.98-4.23-2.39-5.67-4.03-.01-.01-.02-.02-.04-.04-.29-.34-.57-.69-.82-1.05,0-.01-.01-.02-.02-.03-.05-.06-.09-.13-.13-.18-.9-1.33-1.49-2.76-1.7-4.2-.01-.06-.02-.13-.03-.19-.04-.33-.06-.66-.06-.98,0-.06,0-.13,0-.19.02-.69.12-1.37.34-2.03.02-.07.04-.14.06-.2.04-.14.09-.27.15-.4,0-.02.02-.04.03-.06.04-.11.09-.22.15-.32,0,0,0-.02.01-.02,0-.02.02-.04.03-.06h0s0-.02,0-.02h0s0-.01,0-.02c.01-.03.03-.05.04-.07.02-.04.04-.09.07-.13.03-.05.05-.09.08-.14.07-.12.14-.24.22-.36.02-.04.04-.07.07-.11-1.07,4.65,2.39,10,8.26,12.4,1.74.71,4.11,1.06,6.66,1.11,5.66.1,12.17-1.32,14.29-3.82.1-.11.18-.22.26-.34Z"/>
    <circle class="cls-6" cx="69.73" cy="50.82" r="1.8"/>
    <circle class="cls-5" cx="41.68" cy="14.65" r="1.26"/>
    <g>
      <circle class="cls-5" cx="38.47" cy="28.63" r="1.26"/>
      <circle class="cls-5" cx="38.89" cy="28.17" r="1.26"/>
      <circle class="cls-5" cx="39.28" cy="27.71" r="1.26"/>
      <circle class="cls-5" cx="39.66" cy="27.25" r="1.26"/>
      <circle class="cls-5" cx="40" cy="26.79" r="1.26"/>
      <circle class="cls-5" cx="40.31" cy="26.32" r="1.26"/>
      <circle class="cls-5" cx="40.6" cy="25.85" r="1.26"/>
      <circle class="cls-5" cx="40.87" cy="25.38" r="1.26"/>
      <circle class="cls-5" cx="41.1" cy="24.91" r="1.26"/>
      <circle class="cls-5" cx="41.32" cy="24.44" r="1.26"/>
      <circle class="cls-5" cx="41.51" cy="23.96" r="1.26"/>
      <circle class="cls-5" cx="41.67" cy="23.48" r="1.26"/>
      <circle class="cls-5" cx="41.81" cy="23" r="1.26"/>
      <circle class="cls-5" cx="41.93" cy="22.51" r="1.26"/>
      <circle class="cls-5" cx="42.02" cy="22.03" r="1.26"/>
      <circle class="cls-5" cx="42.09" cy="21.54" r="1.26"/>
      <circle class="cls-5" cx="42.13" cy="21.05" r="1.26"/>
      <circle class="cls-5" cx="42.16" cy="20.56" r="1.26"/>
      <circle class="cls-5" cx="42.16" cy="20.07" r="1.26"/>
      <circle class="cls-5" cx="42.14" cy="19.57" r="1.26"/>
      <circle class="cls-5" cx="42.09" cy="19.07" r="1.26"/>
    </g>
    <path class="cls-1" d="m39.66,7.66c-.08,0-.16,0-.25,0-.14,0-.27,0-.4.01-.14,0-.29.01-.43.02-.27.02-.53.04-.8.07-.14.02-.27.03-.4.06-.4.06-.81.14-1.21.24,0,0,0,0-.01,0-.31.07-.61.16-.92.25-.16.05-.31.1-.47.15-.11.04-.23.07-.34.12-.66.24-1.32.53-1.97.86-.45.24-.9.49-1.34.77,0,0,0,0-.01,0-.29.19-.58.38-.87.58,0,0,0,0-.01,0-.18.13-.36.26-.53.4-.17.13-.33.25-.49.39-.02,0-.04.02-.05.04-.66.54-1.28,1.12-1.88,1.76-.13.13-.25.25-.36.38-.24.26-.48.52-.7.8-.24.29-.48.6-.71.91-.13.18-.26.36-.38.54-.05.07-.1.14-.15.21-.14.21-.28.42-.42.63-1.48,2.35-2.43,4.84-2.85,7.27-.04.22-.07.44-.1.66s-.05.44-.07.66c-.02.16-.03.31-.04.47,0,.03,0,.05,0,.07-.01.1-.02.21-.02.31-.01.15-.01.3-.02.45v.14c0,.1,0,.2,0,.3,0,.1,0,.2,0,.3.01.26.02.53.05.79.06.63.15,1.25.28,1.86,0,0,0,.01,0,.02.08.34.17.68.27,1,.08.26.17.51.26.75,0,.02.02.04.02.06.24.59.51,1.15.83,1.69.04.06.08.13.12.18.17.26.34.52.53.77.07.09.14.18.21.27.11.13.21.26.32.38.16.17.32.34.49.5.1.1.21.19.32.29.14.12.28.24.43.35.07.06.14.12.22.18.19.14.39.28.59.4-2.02,4.59-3.14,9.67-3.14,15v6.47s-.03,6.49-.03,6.49l-.02,12.92c-1.46-1.34-2.82-2.77-4.08-4.26v-21.18c0-4.07.65-7.98,1.86-11.66.11-.33.22-.66.34-.99.32-.89.68-1.77,1.06-2.63,0-.02.02-.04.03-.06-.21-.13-.41-.27-.62-.41-3.98-2.89-5.37-8.16-4.14-13.59.1-.47.23-.93.37-1.39.08-.25.16-.5.25-.75.26-.73.56-1.45.92-2.17.09-.19.19-.39.3-.59.08-.15.16-.29.24-.44.22-.41.47-.82.73-1.22,0,0,0-.01.01-.02.3-.48.63-.94.98-1.4,2.44-3.21,5.55-5.54,8.77-6.82,3.2-1.28,6.52-1.54,9.42-.62Z"/>
    <path class="cls-1" d="m49.58,15.23h0s-.04,0-.05.01c-.2.04-.4.09-.6.14-.22.05-.44.1-.66.16-.22.06-.44.12-.66.17-.21.06-.43.12-.64.18,0,0,0,0,0,0-.6-2.72-2.02-5.08-4.25-6.7-.88-.63-1.83-1.12-2.84-1.46h0c-.07-.03-.14-.05-.21-.07,2.23.05,4.34.71,6.12,2.03,1.85,1.38,3.11,3.31,3.79,5.54Z"/>
    <path class="cls-1" d="m58.43,67.4c-.26-.11-.51-.23-.76-.35-.08-.03-.15-.07-.23-.12-.19-.09-.38-.19-.57-.3-.07-.03-.14-.07-.2-.12-.17-.09-.33-.19-.49-.29-.02,0-.03-.01-.04-.02-.15-.09-.29-.18-.43-.28-.05-.03-.1-.06-.15-.1-.13-.08-.26-.18-.39-.27-.12-.08-.23-.17-.34-.26-.38-.29-.74-.6-1.08-.91-.02-.02-.03-.03-.05-.05-.15-.14-.29-.27-.42-.41-.13-.12-.24-.25-.35-.37,0,0-.01-.01-.01-.02-.02-.02-.03-.03-.04-.04-.01-.01-.02-.02-.03-.03-.02-.02-.04-.04-.06-.06-.03-.03-.05-.06-.07-.08-.03-.03-.05-.05-.07-.07-.17-.18-.34-.37-.49-.55-.09-.11-.18-.23-.27-.34,0-.01-.01-.02-.02-.03-.05-.06-.09-.13-.13-.18-.12-.17-.24-.34-.35-.51-.09-.15-.19-.3-.28-.46-.01-.02-.03-.04-.04-.07-.09-.17-.18-.35-.27-.52-.07-.14-.13-.28-.19-.42-.22-.53-.38-1.07-.49-1.64-.02-.06-.03-.13-.04-.19,0-.03-.01-.05-.01-.08-.02-.1-.03-.2-.04-.31-.01-.06-.02-.13-.03-.19-.03-.27-.04-.55-.04-.83,0-.01,0-.02,0-.03t0-.01s0,0,0,0h0s0,0,0,0h0s0-.01,0-.01h0s0,0,0,0t0-.01v-.12c0-.12,0-.24.01-.36,0-.13.02-.26.03-.39,0-.03,0-.07.01-.1,0-.03,0-.05,0-.07,0-.02,0-.04.01-.05.01-.08.02-.16.04-.24.01-.07.02-.15.04-.22.04-.25.1-.5.18-.74-.21.66-.32,1.34-.34,2.03,0,.07,0,.13,0,.19,0,.07,0,.14,0,.21,0,2.38,1.02,4.59,2.76,6.43.02.02.03.03.04.04,1.44,1.64,3.37,3.05,5.67,4.03,2.07.89,4.85,1.23,7.73,1.1v-.06c-2.87.13-5.63-.22-7.7-1.1Zm-14.89-31.08s-.03.09-.04.13c.06-.16.11-.32.18-.48-.05.12-.09.24-.14.35Zm13.92,6.62c-1.36,2.23-3.82,3.73-6.63,3.73-4.28,0-7.74-3.46-7.74-7.74,0-.86.15-1.7.41-2.48-.28.8-.43,1.64-.43,2.53,0,4.28,3.46,7.74,7.74,7.74,2.83,0,5.3-1.51,6.65-3.78Zm-5.23,8.11c-.08.1-.17.2-.24.3.03-.04.06-.07.09-.11.05-.06.1-.13.15-.19Zm-1.51,2.4s0,0,0-.01c.02-.03.03-.07.05-.1.02-.03.03-.06.04-.08.02-.04.04-.08.06-.12.05-.1.09-.2.15-.3-.12.2-.21.41-.3.62h0Zm-.2.43s.02-.04.03-.06c0-.03.02-.06.04-.08.01-.03.03-.06.04-.08,0,0,.01-.01.01-.02h0s.03-.07.05-.1c0-.01,0-.02.01-.02,0-.02,0-.03.02-.04h0s-.03.03-.03.06c0,0-.01.02-.01.02-.05.1-.1.21-.15.32Zm-.17.46s.02-.05.03-.07c.04-.13.09-.26.14-.38-.01.02-.02.04-.03.06-.05.13-.1.26-.15.4Zm-6.16-19.36s.03-.05.04-.07c-.08.13-.16.26-.23.4.06-.11.12-.22.19-.32Zm-.3.55s-.04.07-.05.11c-.05.09-.09.19-.13.28.06-.14.12-.26.18-.39Zm-.93-7.91c-.08.12-.16.24-.25.36-.35.47-.71.91-1.09,1.32-.15.16-.3.31-.45.47-.23.23-.46.45-.69.65-.14.12-.27.24-.41.35-.18.16-.36.3-.55.43-.05.04-.11.08-.17.12-.22.17-.45.32-.67.47-.17.12-.34.22-.51.32-.14.08-.29.17-.43.25-.07.04-.14.07-.21.11-1.36.7-2.76,1.13-4.14,1.27-.1.02-.21.03-.32.03-.07,0-.14.01-.21.01-.04,0-.08.01-.12.01-.11,0-.23,0-.34,0h-.07s-.1,0-.15,0c-.07,0-.15,0-.22,0-.25-.01-.49-.03-.73-.06-.02,0-.04,0-.06-.01-.12-.02-.25-.04-.37-.06-.1-.02-.2-.04-.31-.06-.15-.03-.3-.07-.45-.12-.89-.24-1.72-.63-2.47-1.19-.52-.39-.97-.83-1.37-1.33-.02-.03-.04-.05-.06-.07t-.01-.01h0s0,0,0,0c0,0,0,0,0-.01,0,0,0,0,0-.01-.06-.08-.12-.17-.18-.26-.11-.16-.22-.32-.32-.49-.04-.07-.08-.15-.13-.22-.09-.16-.19-.32-.26-.49-.01-.03-.02-.05-.03-.07-.07-.16-.14-.31-.2-.48-.04-.1-.08-.21-.12-.31-.05-.14-.09-.28-.13-.42-.04-.13-.07-.27-.11-.4-.04-.14-.07-.27-.09-.41-.01-.03-.02-.06-.02-.08-.03-.14-.05-.27-.07-.41-.03-.17-.05-.35-.06-.53-.02-.18-.03-.36-.04-.53-.02-.29-.02-.59,0-.89,0-.07,0-.14.01-.21.01-.34.04-.69.09-1.03.03-.19.06-.39.09-.58.02-.16.06-.33.09-.5.04-.18.08-.37.13-.55.05-.18.1-.37.16-.56,0,0,0-.01,0-.01h0s.01-.04.02-.06c.02-.07.04-.14.06-.21-1.46,4.41-.59,8.9,2.56,11.23,1.31.97,2.86,1.46,4.49,1.5.11,0,.21,0,.33,0,3.59,0,7.56-2.09,10.32-5.81.14-.18.27-.37.39-.56-.04.05-.07.1-.11.15Zm-11.62-14.8s0,0,0,0l-.07.07s0,0,.01,0c.03-.04.06-.07.09-.09-.01,0-.02.02-.03.02Zm0,.04s-.02,0-.02.01c0,0,.01,0,.02,0t0,0Zm-6.36,3.4c.05-.07.09-.14.15-.21.13-.18.25-.36.38-.54.23-.31.47-.62.71-.91.23-.28.46-.55.7-.8.12-.13.24-.26.36-.38,3.62-3.74,8.21-5.76,12.38-5.66,1.08.34,2.1.85,3.03,1.53,2.23,1.61,3.65,3.98,4.25,6.7.86-.25,1.72-.48,2.6-.67.02,0,.03,0,.05-.02,0-.02,0-.03-.01-.04-.02,0-.04,0-.05.01-.2.04-.4.09-.6.14-.22.05-.44.1-.66.16-.22.06-.44.12-.66.17-.21.06-.43.12-.64.18,0,0,0,0,0,0h0c-.6-2.72-2.02-5.08-4.25-6.7-.88-.64-1.84-1.13-2.86-1.46-.06-.03-.13-.05-.2-.07-.07,0-.15,0-.22,0-.14,0-.28,0-.42,0s-.29.01-.43.02c-.27.02-.53.04-.8.07-.14.02-.27.04-.4.06-.4.06-.81.14-1.21.24,0,0,0,0-.01,0-.3.07-.61.16-.92.25-.16.05-.31.1-.47.15-.11.04-.23.07-.34.12-.66.24-1.32.53-1.97.86-.45.24-.9.49-1.34.77,0,0,0,0-.01,0-.29.19-.58.38-.87.58,0,0,0,0-.01,0-.18.13-.36.26-.53.4-.17.13-.33.25-.49.39-.02,0-.04.02-.05.04-1.33,1.07-2.57,2.36-3.67,3.85-.39.52-.75,1.05-1.07,1.59-.05.07-.08.14-.13.2-.07.12-.14.24-.21.35-.4.69-.75,1.39-1.06,2.1-.07.15-.13.31-.19.46-.11.27-.21.55-.31.83-.07.21-.15.42-.21.64-.03.08-.05.17-.08.25-.01.03-.02.06-.03.09-.15.49-.27.99-.37,1.48-.05.23-.09.45-.13.67.42-2.43,1.37-4.92,2.85-7.27.14-.21.28-.42.42-.63Zm.64,20.17c.07.06.13.12.2.17.19.14.39.28.59.4-2.02,4.59-3.14,9.67-3.14,15v6.48s.02-6.47.02-6.47c0-5.34,1.12-10.41,3.14-15-.2-.13-.4-.26-.59-.4-.08-.06-.15-.12-.22-.18Zm-3.82-6.27c-.13-.6-.23-1.22-.28-1.86.05.63.15,1.25.28,1.86Z"/>
    <path class="cls-1" d="m58.2,14.29c-2.97,0-5.85.33-8.63.94h0s.01.03.01.04c-.02.01-.03.01-.05.02-.88.19-1.75.42-2.6.67-.6-2.72-2.02-5.08-4.25-6.7-.93-.68-1.96-1.18-3.03-1.53-4.17-.1-8.75,1.92-12.38,5.66-.13.13-.25.25-.36.38-.24.26-.48.52-.7.8-.24.29-.48.6-.71.91-.13.18-.26.36-.38.54-.05.07-.1.14-.15.21-.14.21-.28.42-.42.63-1.48,2.35-2.43,4.84-2.85,7.27-.04.22-.07.44-.1.66s-.05.44-.07.66c-.02.16-.03.31-.04.47,0,.03,0,.05,0,.07-.01.1-.02.2-.02.31-.01.15-.01.3-.02.45v.14c0,.1,0,.2,0,.3,0,.1,0,.2,0,.3,0,.27.02.53.04.79.06.63.15,1.25.28,1.86,0,0,0,.01,0,.02.08.34.17.68.27,1,.08.26.17.51.26.75,0,.02.02.04.02.06.24.59.51,1.15.83,1.69.04.06.08.13.12.18.17.26.34.52.53.77.07.09.14.18.21.27.11.13.21.26.32.38.16.17.32.34.49.5.1.1.21.19.32.29.14.12.28.24.43.35.07.06.14.12.22.18.19.14.39.28.59.4-2.02,4.59-3.14,9.67-3.14,15v6.47s0,19.45,0,19.45c10.12,9.38,24.61,15.24,40.71,15.24.72,0,1.43-.01,2.14-.04v-24.55c-2.88.13-5.66-.21-7.73-1.1-2.3-.98-4.23-2.39-5.67-4.03-.01-.01-.02-.02-.04-.04-1.75-1.84-2.76-4.05-2.76-6.43,0-.07,0-.14,0-.21,0-.06,0-.13,0-.19.02-.69.12-1.37.34-2.03.02-.07.04-.14.06-.2.04-.14.09-.27.15-.4,0-.02.02-.04.03-.06.04-.11.09-.22.15-.32,0,0,0-.02.01-.02,0-.03.02-.05.03-.07t0-.01c.09-.21.19-.41.3-.62.01-.03.03-.05.04-.07h0s.04-.08.06-.12c.06-.1.12-.21.18-.31.02-.03.03-.05.05-.08.01-.01.02-.03.03-.04.05-.08.1-.15.15-.23.04-.06.08-.13.13-.19.05-.07.1-.14.15-.21.02-.03.04-.05.06-.08.02-.03.04-.06.07-.09h0s.02-.04.04-.05c.07-.1.16-.2.24-.3.12-.15.25-.29.38-.43.17-.19.36-.38.54-.56.09-.09.19-.18.29-.27.09-.09.19-.18.3-.26.19-.16.38-.32.58-.47.2-.16.4-.3.61-.45.15-.1.31-.21.47-.31.25-.15.5-.3.75-.45.49-.28,1.01-.53,1.55-.77.14-.06.27-.12.41-.17.28-.12.56-.23.85-.32.14-.05.29-.1.44-.15.18-.06.36-.12.53-.16.27-.08.53-.16.81-.23.15-.04.3-.08.46-.11.14-.03.28-.06.43-.09.23-.05.46-.09.7-.13.08-.02.16-.03.25-.04.24-.04.48-.08.72-.1.1-.02.2-.03.3-.04.19-.03.39-.04.58-.06.63-.06,1.28-.08,1.94-.08V14.29h-7.93Zm-25.85,19.53c-.11,0-.21,0-.33,0-1.64-.04-3.19-.52-4.49-1.5-3.14-2.34-4.02-6.82-2.56-11.23.02-.09.05-.18.09-.26.12-.34.25-.68.39-1.02.08-.18.16-.36.25-.54,0-.02.02-.03.03-.05.08-.18.17-.36.27-.53.08-.16.17-.32.27-.48.03-.06.07-.12.1-.17.05-.09.1-.19.17-.29.01-.02.03-.04.04-.06,0-.02.02-.03.03-.05.21-.35.45-.7.7-1.04.29-.39.6-.76.92-1.11.16-.18.32-.36.49-.52.33-.34.67-.66,1.02-.95.18-.15.36-.29.53-.43.18-.14.36-.28.54-.4.18-.14.37-.26.56-.38l-.03.03s.02-.02.03-.02c-.03.03-.06.06-.09.09,0,0,.01-.01.02-.02,0,0,.01,0,.02-.01,0,0,.02-.01.02-.01,0,0,0,0,0,0,.09-.06.18-.12.28-.18,3.66-2.28,7.87-2.58,10.84-.37.27.2.52.41.76.65.31.3.59.63.84.97.17.24.32.48.47.73.14.25.27.51.39.78.12.27.22.55.31.82.08.26.15.51.21.78.01.06.03.12.04.17.05.23.09.47.12.7.08.6.12,1.21.1,1.84,0,.05,0,.09,0,.14,0,.11,0,.23-.02.34-.01.2-.03.41-.06.61-.1.97-.34,1.97-.69,2.95-.06.18-.14.37-.2.55-.06.18-.14.36-.22.54-.08.18-.16.36-.25.54-.09.18-.18.35-.27.53-.08.16-.17.32-.26.48,0,0,0,0,0,.01h0s0,.01,0,.01c0,0,0,0,0,.01t0,.01c-.04.07-.08.13-.12.2-.03.05-.06.1-.09.15-.03.04-.05.08-.07.12-.04.05-.07.1-.1.16-.03.04-.05.07-.07.11-.06.09-.12.17-.17.26-.12.19-.26.38-.39.56-2.76,3.72-6.73,5.81-10.32,5.81Zm25.59,8.18c-.05.12-.1.23-.16.34-.05.09-.09.19-.14.28-.06.11-.12.21-.18.33-1.35,2.27-3.83,3.78-6.65,3.78-4.28,0-7.74-3.46-7.74-7.74,0-1.07.21-2.09.61-3.01.01-.02.02-.04.03-.06.06-.14.12-.26.18-.39.04-.08.07-.15.12-.23.07-.14.15-.27.23-.4.05-.08.1-.16.16-.24.14-.2.28-.4.45-.6,1.4-1.76,3.57-2.87,6-2.87,4.28,0,7.74,3.46,7.74,7.74,0,1.09-.23,2.13-.63,3.07Z"/>
    <path class="cls-6" d="m66.13,45.4v1.26c-3.22,0-6,1.35-7.28,3.29-.1.15-.2.31-.28.47-.31.61-.48,1.26-.48,1.95,0,3.16,3.6,5.71,8.04,5.71v7.97h0c-2.38-.04-4.61-.36-6.31-.98-.11-.04-.22-.08-.33-.13-5.87-2.4-9.33-7.75-8.26-12.4,0,.01-.01.02-.02.03,0,.01-.02.02-.02.03-.03.04-.05.07-.07.11-.08.12-.15.24-.22.36-.1.18-.19.36-.28.55.02-.03.03-.07.04-.1,0-.01,0-.02.01-.02.01-.03.02-.05.04-.08,0-.03.02-.05.04-.07.01-.04.03-.07.05-.11.02-.04.04-.08.06-.12.06-.13.12-.25.19-.37.02-.04.04-.08.06-.12.06-.1.12-.21.18-.31.03-.04.05-.08.07-.12.05-.08.1-.15.15-.23.04-.07.09-.13.13-.19.05-.07.1-.14.15-.21.03-.03.05-.06.06-.08.02-.03.04-.06.07-.09h0s.03-.04.04-.05c.07-.1.16-.2.24-.3.12-.14.25-.29.38-.43.17-.19.36-.38.54-.56.09-.09.19-.18.29-.27.09-.09.19-.18.3-.26.19-.16.38-.31.58-.47.2-.15.4-.3.61-.45.15-.1.3-.21.47-.31.25-.15.5-.3.75-.45.49-.28,1.01-.53,1.55-.77.14-.06.27-.12.41-.17.28-.12.56-.23.85-.32.14-.05.29-.1.44-.15.18-.06.36-.11.53-.16.27-.08.53-.16.81-.23.15-.04.31-.08.46-.11.14-.03.28-.06.43-.09.23-.05.46-.09.7-.13.08-.02.16-.03.25-.04.24-.04.48-.07.72-.1.1-.02.2-.03.3-.04.19-.02.38-.04.58-.06.63-.06,1.28-.08,1.94-.08h0Z"/>
    <path class="cls-6" d="m49.96,56.9c0,2.41,1.04,4.64,2.81,6.48-1.77-2.01-2.79-4.35-2.81-6.64,0,.05,0,.1,0,.15Z"/>
    <path class="cls-6" d="m58.1,52.38c0,3.16,3.6,5.71,8.04,5.71v-11.43c-4.43,0-8.04,2.56-8.04,5.71Z"/>
    <path class="cls-4" d="m31.21,33.69s-.04,0-.06-.01c.02,0,.04,0,.06.01Z"/>
    <path class="cls-1" d="m45.59,17.89c-.03-.24-.07-.47-.12-.7-.01-.06-.03-.12-.04-.17-.06-.27-.13-.52-.21-.78-.09-.28-.19-.56-.31-.82-.12-.27-.25-.53-.39-.78-.15-.25-.3-.49-.47-.73-.25-.35-.53-.67-.84-.97-.24-.24-.49-.45-.76-.65-2.97-2.21-7.18-1.91-10.84.37-.09.06-.19.12-.28.18,0,0,0,0,0,0t0,0s-.01,0-.02,0c0,0-.01.01-.02.01-.01,0-.02.01-.02.02t-.01,0h0s0,0-.01.01c0,0-.01,0-.01,0,0,0-.01,0-.02.01h0s-.03.03-.04.05h-.01s0,.02,0,.02c0,0-.01.01-.02.02,0,0,0,0-.01,0t0,.01c-.61.59-1.19,1.23-1.72,1.94h0c-.06.08-.11.16-.16.24-.04.05-.07.1-.1.15-.02.03-.04.06-.06.09-.02.03-.04.06-.06.09-.01.02-.02.03-.03.05-.04.06-.08.13-.13.19-.07.09-.13.18-.18.28-.09.14-.18.29-.26.43-.01.02-.02.04-.03.05,0,0,0,.01,0,.02-.06.11-.12.22-.18.33-.03.05-.05.09-.08.14,0,.01-.01.03-.02.04-.01.02-.02.04-.03.05-.08.16-.16.32-.24.48,0,.01-.01.02-.02.03,0,0-.01.02-.02.03,0,.01-.01.02-.02.04l-.09.2c-.02.05-.05.11-.07.16-.04.09-.08.18-.12.27-.03.06-.05.12-.08.17-.03.06-.05.12-.07.17-.02.05-.04.11-.06.16-.02.05-.03.09-.05.14-.12.33-.23.66-.32.99-.05.16-.09.33-.13.49-.02.06-.04.13-.04.18-.03.12-.06.24-.08.36-.04.16-.07.31-.09.47-.01.03-.01.05-.02.08-.02.14-.04.26-.06.39,0,0,0,.02,0,.02-.02.12-.03.24-.04.35-.01.07-.02.14-.02.2,0,.05,0,.09-.01.14,0,.03,0,.07,0,.1,0,.04,0,.08,0,.13,0,.07-.01.14-.01.21-.02.3-.02.61,0,.91,0,.04,0,.07,0,.1,0,.17.02.35.04.51.01.09.02.19.03.28.01.07.02.13.03.2.03.19.06.37.09.55.02.07.03.14.04.2.02.08.04.16.06.24.12.47.26.92.46,1.36.04.09.08.19.13.29,0,.03.02.05.04.07.04.08.08.17.13.26.05.1.1.2.16.3.04.07.09.15.13.22.25.41.54.79.87,1.14.05.06.12.13.18.19.04.04.08.08.13.12.1.1.2.2.31.28.14.12.27.24.42.34.08.06.17.13.26.18.08.06.17.12.27.17.06.04.13.08.2.12l.2.11c.07.04.14.07.21.11.07.04.15.07.21.1.19.08.38.16.58.24.24.08.49.16.74.22l.27.06c.23.05.47.08.7.12.12.02.24.03.36.04.12,0,.24.02.36.02.63.03,1.28-.02,1.93-.12t.01,0c.39-.07.79-.16,1.18-.26h0c.26-.08.52-.16.79-.25h0c.16-.06.33-.13.49-.19.33-.14.66-.28.98-.45.16-.08.33-.17.48-.26h0c.26-.15.51-.3.76-.46-.01.01-.02.02-.03.03,0,0,0,0,0,0-.02.02-.04.04-.06.06-.02.02-.04.04-.06.05h0c-.1.1-.2.19-.31.29-.1.09-.21.18-.32.27-.1.09-.21.17-.33.26-.12.09-.23.17-.34.25-.34.24-.68.46-1.02.67,0,0,0,0,0,0-.35.2-.7.39-1.05.57t0,0c-.24.12-.49.22-.74.32-.05.02-.11.05-.16.06-.08.04-.18.07-.26.1,0,0-.01,0-.02,0-.03.01-.06.02-.09.03-.24.08-.47.16-.71.23-.11.03-.22.06-.34.09-.23.06-.47.11-.69.16-.16.03-.33.06-.49.08-.21.02-.4.05-.61.06-.28.02-.57.04-.85.03.05,0,.1,0,.15,0h.07c.11,0,.23,0,.34,0,.12,0,.23-.01.34-.02.1,0,.21-.02.32-.03,1.38-.14,2.78-.57,4.14-1.27.07-.04.14-.07.21-.11.14-.08.29-.16.43-.25.12-.07.24-.15.35-.22.12-.07.23-.15.34-.23.02-.01.04-.03.06-.04.09-.06.18-.13.27-.19.06-.04.11-.08.16-.12.06-.04.12-.08.17-.12.18-.14.37-.28.55-.43.14-.11.27-.23.41-.35.24-.2.47-.42.69-.65.15-.15.3-.3.45-.47.38-.41.74-.85,1.08-1.32.09-.12.17-.24.26-.36.04-.05.07-.1.11-.15.06-.09.12-.17.17-.26.03-.04.05-.07.07-.11.03-.05.06-.1.1-.16.03-.04.05-.08.07-.12.03-.05.06-.1.09-.15.04-.07.08-.13.12-.2t0-.01s0,0,0-.01c0,0,0,0,0,0,0,0,0-.01,0-.02.09-.16.18-.32.27-.48.09-.18.18-.35.27-.53.08-.18.17-.36.25-.54.08-.18.15-.36.22-.54.07-.18.14-.36.2-.55.05-.14.09-.27.13-.41.02-.05.03-.09.04-.14.05-.18.1-.36.15-.54.17-.62.29-1.25.36-1.87.03-.2.04-.41.06-.61,0-.11.01-.23.02-.34,0-.05,0-.09,0-.14.02-.63-.02-1.24-.1-1.84Zm-2.72-3.77c.05.13.08.27.09.41,0,.14,0,.28-.05.42-.02.06-.04.12-.07.17,0,0,0,0,0,.02,0,.02-.01.03-.02.04,0,.01-.01.03-.02.04-.01.03-.03.05-.04.07-.05.07-.1.14-.16.19-.12.12-.25.2-.39.27-.04.02-.07.03-.11.04-.02.01-.04.02-.06.02-.04.02-.08.02-.13.03-.13.03-.27.03-.4,0-.05-.01-.09-.02-.13-.03-.02,0-.04,0-.06-.02-.04-.01-.07-.03-.11-.04-.14-.06-.27-.15-.39-.27-.05-.05-.09-.09-.13-.15-.04-.05-.07-.1-.1-.16-.04-.07-.07-.15-.09-.23-.03-.09-.04-.19-.05-.29,0-.1,0-.19.02-.29,0-.04.02-.07.03-.11,0-.03.02-.07.03-.1,0-.01,0-.02.01-.03.06-.16.16-.3.28-.43h0c.49-.5,1.29-.5,1.78,0h0c.12.13.21.27.28.42Z"/>
    <path class="cls-1" d="m31.37,12.78s-.06.06-.09.09t-.01,0h0s-.02.02-.03.04h0s-.04.03-.05.04h-.01c-.15.11-.3.21-.46.33h0c-.17.13-.34.25-.51.39-.51.4-1,.85-1.47,1.34-.39.39-.77.82-1.11,1.28-.04.05-.08.1-.13.16-.04.04-.07.08-.1.13-.14.18-.27.37-.39.56-.35.5-.65,1.01-.92,1.52-2.69,5.09-2.15,10.83,1.56,13.59.73.55,1.54.93,2.4,1.18.15.05.3.08.45.12.1.03.2.05.31.06.12.03.25.05.37.06h0c-1.3-.16-2.53-.62-3.6-1.42-.27-.2-.52-.42-.76-.65-.23-.21-.44-.45-.62-.69-.02-.03-.04-.06-.06-.09h0s0,0,0,0c0,0-.01-.02-.02-.03-.03-.04-.07-.09-.1-.14-.04-.05-.07-.09-.1-.15-.02-.03-.04-.06-.06-.08h0c-.13-.2-.25-.4-.36-.6-.03-.06-.06-.11-.09-.17-.04-.07-.08-.15-.12-.22-.02-.04-.04-.07-.05-.1-.09-.18-.17-.36-.24-.55-.04-.1-.08-.21-.12-.31-.1-.27-.18-.55-.24-.83-.04-.14-.07-.27-.09-.41-.01-.03-.02-.06-.02-.08-.03-.14-.05-.27-.07-.41-.03-.17-.05-.35-.06-.53-.02-.17-.03-.35-.04-.53-.02-.29-.02-.59,0-.89,0-.07,0-.14.01-.21.01-.34.04-.69.09-1.03.03-.19.06-.39.09-.58.02-.16.06-.33.09-.5.04-.18.08-.36.13-.55.05-.18.1-.37.16-.56,0,0,0-.01,0-.02,0-.02.01-.03.02-.05.21-.7.49-1.39.82-2.09.08-.18.17-.36.27-.53.09-.16.18-.32.27-.48.03-.06.07-.12.1-.17.05-.09.11-.19.17-.29.01-.02.03-.04.04-.06,0-.02.02-.03.03-.05.21-.35.45-.69.7-1.03.29-.4.6-.77.92-1.13.16-.18.32-.36.49-.52.33-.34.67-.66,1.02-.95.18-.15.36-.29.53-.43.18-.14.36-.27.54-.4.17-.12.35-.24.52-.35,0,0,0,0,0,0,.01,0,.02-.02.03-.02Z"/>
    <path class="cls-9" d="m31.95,33.75c-.25-.01-.49-.03-.74-.06.24.03.49.05.74.06Z"/>
    <path class="cls-1" d="m27.38,16.59c-4.09,5.51-3.98,12.53.25,15.67,1.05.78,2.25,1.24,3.53,1.42.02,0,.04,0,.06.01.24.03.49.05.74.06,2.91.12,6.1-1.17,8.72-3.61-3.71,2.38-8,2.73-11.02.49-4.23-3.14-4.34-10.16-.25-15.67.56-.75,1.17-1.43,1.82-2.04-1.41.94-2.73,2.16-3.84,3.67h0Z"/>
    <path class="cls-6" d="m50.83,31.18c-2.43,0-4.6,1.12-6,2.87-.16.19-.31.39-.45.6-.07.1-.14.21-.2.31-.07.1-.13.21-.19.32-.04.07-.08.15-.12.23-.02.04-.04.07-.05.11-.05.09-.09.19-.13.28-.01.02-.02.04-.03.06-.05.12-.09.24-.14.35-.29.81-.45,1.69-.45,2.61,0,4.28,3.46,7.74,7.74,7.74,2.8,0,5.26-1.49,6.63-3.73.06-.11.13-.21.18-.33.05-.09.09-.18.14-.28.06-.11.11-.23.16-.34.41-.94.63-1.98.63-3.07,0-4.28-3.46-7.74-7.74-7.74Zm3.85,8.14h0c-.01.13-.03.24-.05.35s-.05.21-.08.32c-.01.03-.02.07-.04.1,0,.01,0,.02-.01.03,0,.01,0,.03-.01.04t0,.01s-.01.04-.02.06c-.02.06-.05.13-.07.19,0,0,0,.01,0,.02s0,0-.01.01h0c-.02.06-.05.12-.08.18-.02.03-.03.06-.04.08-.01.02-.02.04-.03.05-.04.07-.08.15-.13.23-.02.02-.03.04-.04.06,0,.01-.01.02-.02.03h0s0,.01-.01.02c-.03.03-.05.07-.07.1-.01.02-.03.04-.04.06-.03.04-.07.09-.11.13-.08.09-.16.19-.25.27,0,.01-.01.02-.02.03-.07.07-.15.14-.23.21-.02.02-.04.03-.06.04-.08.07-.17.14-.26.19-.08.06-.16.11-.25.16,0,0,0,0-.01,0-.04.02-.08.05-.12.07-.07.04-.15.08-.23.11-.08.04-.17.07-.26.1-.01,0-.02.01-.03.01-.08.03-.16.06-.24.07-.05.02-.09.03-.14.04-.05.02-.1.03-.16.04-.07.01-.14.02-.2.03-.06.01-.13.02-.19.02-.1.01-.21.02-.32.02-2.14,0-3.87-1.74-3.87-3.87,0-.53.1-1.03.3-1.49.04-.1.09-.2.14-.29.03-.06.06-.12.1-.18.02-.05.05-.09.08-.14,0,0,.01,0,.01,0,0-.02.02-.04.03-.06.28-.41.63-.77,1.05-1.05.09-.07.2-.13.3-.19.2-.11.41-.2.64-.27.04-.02.08-.03.13-.04,0,0,.01,0,.02,0,.09-.03.19-.05.29-.07.12-.03.24-.04.36-.05.02,0,.03,0,.05,0,.02,0,.03,0,.04,0,.1-.01.22-.02.33-.02,2.14,0,3.87,1.74,3.87,3.87,0,.14,0,.27-.02.4Zm2.45-3.06s-.02.04-.03.05c0,.01-.01.02-.02.03,0,0-.01,0-.01.01,0,.02-.02.04-.03.05-.01.03-.03.05-.04.07,0,0,0,.01,0,.01-.03.04-.05.07-.08.1-.04.04-.08.09-.12.13-.33.33-.77.52-1.27.52-.07,0-.14,0-.2-.01-.04,0-.07-.01-.1-.02-.06-.01-.13-.03-.18-.04-.03,0-.05-.01-.07-.02-.04-.01-.07-.02-.1-.04-.12-.05-.24-.11-.35-.18-.32-.21-.57-.53-.69-.91-.02-.04-.03-.07-.04-.1-.04-.15-.06-.31-.06-.48,0-.25.05-.49.14-.7.01-.03.03-.06.05-.09,0,0,0-.01,0-.02.02-.04.04-.07.06-.11,0,0,.01-.02.02-.02.02-.04.04-.07.06-.1.06-.08.12-.15.19-.22.06-.06.12-.11.18-.16.04-.03.08-.06.12-.08.13-.08.27-.15.41-.19.02-.01.05-.02.07-.02.06-.02.12-.03.18-.04.03,0,.06-.01.1-.02.06,0,.13-.01.2-.01.5,0,.94.2,1.27.52.16.16.29.36.39.57.09.21.14.46.14.7,0,.3-.07.58-.19.82Z"/>
    <circle class="cls-6" cx="50.83" cy="38.92" r="3.87"/>
    <path class="cls-6" d="m55.53,37.23c.99,0,1.8-.8,1.8-1.8s-.8-1.8-1.8-1.8-1.8.8-1.8,1.8.8,1.8,1.8,1.8Z"/>
    <path class="cls-9" d="m50.52,53.87c-.38.93-.56,1.9-.55,2.88.02-1.09.25-2.13.67-3.12-.04.08-.08.16-.12.24Z"/>
    <path class="cls-6" d="m52.78,63.39c1.44,1.62,3.37,3.03,5.65,4.01,2.07.88,4.83,1.23,7.7,1.1v-.09c-5.55,0-10.44-1.99-13.35-5.02Z"/>
    <path class="cls-6" d="m66.13,68.41v-2.34c-2.54-.05-4.91-.4-6.64-1.11-5.88-2.4-9.34-7.75-8.26-12.4-.23.34-.42.69-.6,1.07-.41.99-.64,2.04-.67,3.12.02,2.29,1.04,4.63,2.81,6.64,2.91,3.03,7.8,5.02,13.35,5.02h0Z"/>
    <path class="cls-1" d="m42.6,15.49c.49-.49.49-1.29,0-1.78s-1.29-.49-1.78,0-.49,1.29,0,1.78c.49.49,1.29.49,1.78,0Z"/>
  </g>
</svg>