<?xml version="1.0" encoding="UTF-8"?>
<svg xmlns="http://www.w3.org/2000/svg" viewBox="0 0 32.15 104.64">
  <defs>
    <style>
      .cls-1 {
        fill: #fff;
      }

      .cls-2 {
        fill: #b2b2b2;
      }

      .cls-3 {
        isolation: isolate;
      }

      .cls-4 {
        mix-blend-mode: multiply;
        opacity: .5;
      }

      .cls-4, .cls-5 {
        fill: #ef5050;
      }

      .cls-6 {
        fill: none;
        stroke: #fff;
        stroke-linecap: round;
        stroke-miterlimit: 10;
        stroke-width: 2px;
      }
    </style>
  </defs>
  <g class="cls-3">
    <g id="Calque_2" data-name="Calque 2">
      <g id="Calque_4" data-name="Calque 4">
        <path class="cls-2" d="m22.34,14.81v10.14c0,.7-.09,1.37-.25,2h-12.03c-.16-.63-.25-1.3-.25-2v-10.14c0-.59.06-1.16.19-1.72h12.15c.13.55.19,1.13.19,1.72Z"/>
        <path class="cls-5" d="m29.65,4.68c0,.17-.01.35-.02.51-.01.14-.03.28-.06.41-.19.93-.64,1.75-1.29,2.4-.46.46-1.01.82-1.64,1.06-.22.08-.44.14-.68.19-.32.08-.66.12-1,.12H7.19c-.34,0-.68-.04-1-.11-.01,0-.03-.01-.04-.01-.26-.06-.51-.13-.75-.23-1.49-.61-2.59-1.98-2.85-3.62-.03-.23-.05-.47-.05-.72,0-1.29.53-2.46,1.37-3.31.85-.85,2.02-1.37,3.32-1.37h17.77c2.59,0,4.69,2.1,4.69,4.68Z"/>
        <path class="cls-5" d="m26.26,10.39v.07c0,.72-.29,1.38-.77,1.86-.48.48-1.14.77-1.86.77h-15.11c-1.45,0-2.63-1.18-2.63-2.63v-.07c.01-.4.12-.79.3-1.13.32.07.66.11,1,.11h17.77c.34,0,.68-.04,1-.12.18.34.29.73.3,1.14Z"/>
        <path class="cls-4" d="m26.26,10.39H5.89c.01-.29.07-.57.17-.84.04-.1.08-.2.13-.29.32.07.66.11,1,.11h17.77c.34,0,.68-.04,1-.12.05.1.1.2.13.3.1.26.16.55.17.84Z"/>
        <path class="cls-5" d="m32.15,38.51v56.05c0,3.46-3.11,10.08-6.94,10.08H6.94c-3.83,0-6.94-6.62-6.94-10.08v-56.05c0-2.68,2.4-13.38,5.37-13.38h21.4c2.97,0,5.37,10.7,5.37,13.38Z"/>
        <path class="cls-4" d="m30.56,30.67l-5.03,10.63L.03,95.19c.42,3.59,3.34,9.24,6.88,9.24h18.26c3.83,0,6.94-6.62,6.94-10.08v-56.05c0-1.33-.59-4.65-1.55-7.63Z"/>
        <path class="cls-6" d="m2.47,47.19s-.82-9.46,1.52-14.72"/>
        <circle class="cls-1" cx="5.41" cy="30.14" r="1.05"/>
        <path class="cls-4" d="m29.65,4.68c0,.17-.01.35-.02.51-.01.14-.03.28-.06.41-.19.93-.64,1.75-1.29,2.4-.46.46-1.01.82-1.64,1.06-.22.08-.44.14-.68.19-.32.08-.66.12-1,.12H7.19c-.34,0-.68-.04-1-.11-.01,0-.03-.01-.04-.01-.26-.06-.51-.13-.75-.23-1.49-.61-2.59-1.98-2.85-3.62-.03-.23-.05-.47-.05-.72h27.15Z"/>
      </g>
    </g>
  </g>
</svg>