<?xml version="1.0" encoding="UTF-8"?>
<svg id="Calque_2" data-name="Calque 2" xmlns="http://www.w3.org/2000/svg" xmlns:xlink="http://www.w3.org/1999/xlink" viewBox="0 0 292.13 352.83">
  <defs>
    <style>
      .cls-1 {
        fill: #ffd4d4;
      }

      .cls-2 {
        fill: #fffafd;
      }

      .cls-3 {
        fill: #f49a9a;
      }

      .cls-4 {
        stroke-width: 4px;
      }

      .cls-4, .cls-5 {
        stroke: #1d1d1b;
      }

      .cls-4, .cls-5, .cls-6 {
        stroke-miterlimit: 10;
      }

      .cls-4, .cls-5, .cls-6, .cls-7 {
        fill: none;
      }

      .cls-5 {
        stroke-width: 6px;
      }

      .cls-8, .cls-9 {
        fill: #a8a0a5;
      }

      .cls-9 {
        opacity: .75;
      }

      .cls-10 {
        fill: #f9b256;
      }

      .cls-11 {
        fill: #6f6f6e;
      }

      .cls-12 {
        clip-path: url(#clippath);
      }

      .cls-6 {
        stroke: #ec6446;
        stroke-width: 7px;
      }

      .cls-13 {
        fill: #822a2a;
      }

      .cls-14 {
        fill: #ff5050;
      }
    </style>
    <clipPath id="clippath">
      <path class="cls-7" d="M202.37,209.29c7.88,10.25,20.11,5.41,29.52,2.78l-5.17-31.17c-.76-7.07-16.84-33.1-25.02-40.66-20.11,19.98-48.99,36.14-81.65,36.14s-62.33-10.24-82.63-28.49c-1.13-.92-2.21-1.87-3.27-2.82-7.23,5.64-15.58,17.61-20.25,38.66l-4.57,27.83c9.86,.93,21.84,4.12,27.22-2.88,8.67,6.7-3.23,47.98-13.71,41.86,0,0,.08,17.46,.36,19.06,3.49-3.59,59.73-20.15,107.78-17.27,21.19,1.25,85.13,18.26,87.92,19.92-.08-3.32-.45-20.23-.45-20.23-8.24,1.87-20.69-34.76-16.08-42.73Z"/>
    </clipPath>
  </defs>
  <g id="Diabettus">
    <g id="Bear3">
      <path class="cls-13" d="M233.18,216.46l-5.48-30.75c-.84-7.7-18.38-38.26-26.43-43.57v-55.17c0-10.24-2.18-19.99-6.09-28.83,.66-.37,1.3-.77,1.92-1.22,11.37-8.25,11.67-26.67,.66-41.15-11.01-14.48-32.95-20.24-44.32-11.99-4.33,3.14-7.04,7.75-8.15,13.05-7.05-2.16-10.75-2.63-18.53-2.63h-21.25c-7.46,0-14.66,1.08-21.45,3.08-1.14-5.19-3.85-9.7-8.1-12.78-11.37-8.25-29.52-3.2-40.52,11.28-11.01,14.48-10.71,32.9,.66,41.15,.39,.28,.78,.54,1.18,.79-4.04,8.95-6.28,18.85-6.28,29.26v55.8c-7.54,5.46-20.47,19.24-25.51,41.42L.02,214.95c0,6.73-1.25,39.13,14.21,40.09-.2,22.28-1.2,97.79,37.48,97.79h7.5c14.52,0,28.07-1.87,28.07-19.03l.04-12.22c6.37,.42,11.04,2.03,17.97,2.03h21.25c7.27,0,9.93-.73,16.58-1.21v12.29c0,17.16,16.37,18.15,30.89,18.15h7.5c37.84,0,37.7-72.29,37.49-96.27,15.44-.98,14.19-33.37,14.19-40.09Z"/>
      <path class="cls-14" d="M232.01,212.8l-5.23-30.08c-.8-7.53-17.56-37.43-25.25-42.62v-53.97c0-10.02-2.08-19.55-5.82-28.2,.63-.36,1.24-.76,1.83-1.19,10.87-8.07,11.15-26.09,.63-40.25-10.52-14.16-27.85-19.1-38.72-11.03-4.13,3.07-6.73,7.58-7.79,12.77-6.73-2.12-13.89-3.27-21.33-3.27h-20.3c-7.13,0-14,1.06-20.49,3.01-1.09-5.08-3.68-9.49-7.74-12.5-10.87-8.07-28.2-3.13-38.72,11.03-10.52,14.16-10.23,32.18,.63,40.25,.37,.27,.75,.53,1.13,.77-3.86,8.76-6,18.44-6,28.62v54.59c-7.2,5.34-19.56,18.82-24.37,40.52l-5.23,30.08c0,6.58-1.19,38.28,13.57,39.22-.19,21.8-1.14,95.66,35.8,95.66h7.16c13.87,0,25.12-2.03,25.12-18.82v-11.96c6.09,.41,12.28,2.19,18.9,2.19h20.3c6.95,0,13.88-1.78,20.23-2.25v12.02c0,16.79,11.25,18.82,25.12,18.82h7.16c36.15,0,36.02-70.72,35.82-94.18,14.75-.96,13.56-32.64,13.56-39.22Z"/>
      <ellipse class="cls-3" cx="179.99" cy="30.33" rx="18.2" ry="23.72" transform="translate(17.4 113.28) rotate(-36.59)"/>
      <path class="cls-13" d="M169.67,38.29c-7.22-9.72-7.57-21.87-1.22-28.4-.85,.4-1.68,.86-2.46,1.43-8.07,5.99-8.28,19.38-.47,29.9,7.81,10.52,20.69,14.19,28.76,8.2,.61-.46,1.17-.97,1.69-1.5-8.05,3.77-19.24-.12-26.3-9.63Z"/>
      <ellipse class="cls-3" cx="120.64" cy="95.52" rx="30.84" ry="21.94"/>
      <ellipse class="cls-14" cx="120.64" cy="86.88" rx="15.33" ry="10.9"/>
      <ellipse class="cls-3" cx="176.83" cy="336.43" rx="19.76" ry="7.9"/>
      <ellipse class="cls-3" cx="65.72" cy="336.43" rx="19.76" ry="7.9"/>
      <ellipse class="cls-3" cx="218.7" cy="232.03" rx="9.67" ry="14.77"/>
      <ellipse class="cls-3" cx="23.81" cy="232.03" rx="9.67" ry="14.77"/>
      <circle class="cls-3" cx="149.83" cy="61.21" r="14.77"/>
      <circle class="cls-14" cx="149.83" cy="61.21" r="7.39"/>
      <ellipse class="cls-3" cx="61.33" cy="29.44" rx="23.72" ry="18.2" transform="translate(1.13 61.13) rotate(-53.41)"/>
      <path class="cls-13" d="M51.05,45.38c-8.07-5.99-8.28-19.38-.47-29.9,1.14-1.54,2.41-2.92,3.74-4.16-2.84,1.82-5.5,4.25-7.73,7.27-7.81,10.52-7.6,23.91,.47,29.9,6.89,5.11,17.27,3.17,25.02-4.04-7.07,4.54-15.26,5.21-21.02,.93Z"/>
      <circle class="cls-1" cx="158.8" cy="54.56" r="3.43"/>
      <g>
        <circle class="cls-3" cx="91.46" cy="61.21" r="14.77"/>
        <circle class="cls-14" cx="91.46" cy="61.21" r="7.39"/>
        <circle class="cls-1" cx="100.42" cy="54.56" r="3.43"/>
      </g>
      <path class="cls-13" d="M107.98,110.88c-11.21-4.57-17.81-14.78-15.76-23.65-.52,.78-1,1.61-1.36,2.5-3.8,9.31,3.05,20.66,15.09,25.81,11.61,4.97,34.82,.98,40.72-8.41,.41-.65,1.61-1.32,1.78-2.05-4.93,7.39-29.5,10.27-40.47,5.8Z"/>
      <circle class="cls-1" cx="127.56" cy="83.8" r="3.43"/>
      <circle class="cls-1" cx="181.38" cy="13.84" r="2.4"/>
      <g>
        <circle class="cls-1" cx="195.89" cy="37.02" r="2.4"/>
        <circle class="cls-1" cx="195.84" cy="35.83" r="2.4"/>
        <circle class="cls-1" cx="195.76" cy="34.68" r="2.4"/>
        <circle class="cls-1" cx="195.63" cy="33.56" r="2.4"/>
        <circle class="cls-1" cx="195.47" cy="32.48" r="2.4"/>
        <circle class="cls-1" cx="195.27" cy="31.43" r="2.4"/>
        <circle class="cls-1" cx="195.03" cy="30.4" r="2.4"/>
        <circle class="cls-1" cx="194.75" cy="29.41" r="2.4"/>
        <circle class="cls-1" cx="194.43" cy="28.45" r="2.4"/>
        <circle class="cls-1" cx="194.08" cy="27.53" r="2.4"/>
        <circle class="cls-1" cx="193.69" cy="26.63" r="2.4"/>
        <circle class="cls-1" cx="193.27" cy="25.76" r="2.4"/>
        <circle class="cls-1" cx="192.81" cy="24.92" r="2.4"/>
        <circle class="cls-1" cx="192.31" cy="24.11" r="2.4"/>
        <circle class="cls-1" cx="191.78" cy="23.33" r="2.4"/>
        <circle class="cls-1" cx="191.21" cy="22.58" r="2.4"/>
        <circle class="cls-1" cx="190.62" cy="21.86" r="2.4"/>
        <circle class="cls-1" cx="189.98" cy="21.16" r="2.4"/>
        <circle class="cls-1" cx="189.32" cy="20.5" r="2.4"/>
        <circle class="cls-1" cx="188.62" cy="19.86" r="2.4"/>
        <circle class="cls-1" cx="187.89" cy="19.24" r="2.4"/>
      </g>
      <g>
        <path class="cls-3" d="M120,171.5c-32.39,0-58.02,27.53-58.02,69.92,0,42.39,26.26,70.53,58.66,70.53,32.39,0,58.66-28.14,58.66-70.53s-26.9-69.92-59.3-69.92Zm33.29,37.92c-3.27-2.77-3.69-7.67-.94-10.96,2.76-3.29,7.64-3.71,10.91-.94,3.27,2.77,3.69,7.67,.94,10.96-2.76,3.29-7.64,3.71-10.91,.94Z"/>
        <ellipse class="cls-1" cx="158.28" cy="203.47" rx="7.75" ry="7.78"/>
      </g>
      <g>
        <ellipse class="cls-1" cx="149.92" cy="293.54" rx="2.66" ry="3.42" transform="translate(-163.72 192.19) rotate(-45.04)"/>
        <ellipse class="cls-1" cx="150.71" cy="292.6" rx="2.66" ry="3.42" transform="translate(-162.83 192.47) rotate(-45.04)"/>
        <ellipse class="cls-1" cx="151.48" cy="291.66" rx="2.66" ry="3.42" transform="translate(-161.93 192.74) rotate(-45.04)"/>
        <ellipse class="cls-1" cx="152.24" cy="290.72" rx="2.66" ry="3.42" transform="translate(-161.04 193) rotate(-45.04)"/>
        <ellipse class="cls-1" cx="152.98" cy="289.78" rx="2.66" ry="3.42" transform="translate(-160.16 193.25) rotate(-45.04)"/>
        <ellipse class="cls-1" cx="153.71" cy="288.84" rx="2.66" ry="3.42" transform="translate(-159.28 193.49) rotate(-45.04)"/>
        <ellipse class="cls-1" cx="154.41" cy="287.9" rx="2.66" ry="3.42" transform="translate(-158.41 193.71) rotate(-45.04)"/>
        <ellipse class="cls-1" cx="155.1" cy="286.96" rx="2.66" ry="3.42" transform="translate(-157.54 193.93) rotate(-45.04)"/>
        <ellipse class="cls-1" cx="155.78" cy="286.02" rx="2.66" ry="3.42" transform="translate(-156.68 194.13) rotate(-45.04)"/>
        <ellipse class="cls-1" cx="156.43" cy="285.08" rx="2.66" ry="3.42" transform="translate(-155.82 194.32) rotate(-45.04)"/>
        <ellipse class="cls-1" cx="157.07" cy="284.14" rx="2.66" ry="3.42" transform="translate(-154.97 194.49) rotate(-45.04)"/>
        <ellipse class="cls-1" cx="157.69" cy="283.2" rx="2.66" ry="3.42" transform="translate(-154.12 194.66) rotate(-45.04)"/>
        <ellipse class="cls-1" cx="158.3" cy="282.26" rx="2.66" ry="3.42" transform="translate(-153.28 194.81) rotate(-45.04)"/>
        <ellipse class="cls-1" cx="158.89" cy="281.33" rx="2.66" ry="3.42" transform="translate(-152.45 194.96) rotate(-45.04)"/>
        <ellipse class="cls-1" cx="159.46" cy="280.39" rx="2.66" ry="3.42" transform="translate(-151.62 195.09) rotate(-45.04)"/>
        <ellipse class="cls-1" cx="160.02" cy="279.46" rx="2.66" ry="3.42" transform="translate(-150.79 195.21) rotate(-45.04)"/>
        <ellipse class="cls-1" cx="160.56" cy="278.52" rx="2.66" ry="3.42" transform="translate(-149.97 195.31) rotate(-45.04)"/>
        <ellipse class="cls-1" cx="161.08" cy="277.59" rx="2.66" ry="3.42" transform="translate(-149.16 195.41) rotate(-45.04)"/>
        <ellipse class="cls-1" cx="161.59" cy="276.65" rx="2.66" ry="3.42" transform="translate(-148.35 195.49) rotate(-45.04)"/>
        <ellipse class="cls-1" cx="162.08" cy="275.72" rx="2.66" ry="3.42" transform="translate(-147.54 195.57) rotate(-45.04)"/>
        <ellipse class="cls-1" cx="162.55" cy="274.79" rx="2.66" ry="3.42" transform="translate(-146.74 195.63) rotate(-45.04)"/>
        <ellipse class="cls-1" cx="163.01" cy="273.85" rx="2.66" ry="3.42" transform="translate(-145.95 195.68) rotate(-45.04)"/>
        <ellipse class="cls-1" cx="163.45" cy="272.92" rx="2.66" ry="3.42" transform="translate(-145.16 195.72) rotate(-45.04)"/>
        <ellipse class="cls-1" cx="163.88" cy="271.99" rx="2.66" ry="3.42" transform="translate(-144.38 195.75) rotate(-45.04)"/>
        <ellipse class="cls-1" cx="164.29" cy="271.06" rx="2.66" ry="3.42" transform="translate(-143.6 195.76) rotate(-45.04)"/>
        <ellipse class="cls-1" cx="164.68" cy="270.13" rx="2.66" ry="3.42" transform="translate(-142.83 195.77) rotate(-45.04)"/>
        <ellipse class="cls-1" cx="165.06" cy="269.2" rx="2.66" ry="3.42" transform="translate(-142.06 195.76) rotate(-45.04)"/>
        <ellipse class="cls-1" cx="165.42" cy="268.27" rx="2.66" ry="3.42" transform="translate(-141.3 195.74) rotate(-45.04)"/>
        <ellipse class="cls-1" cx="165.76" cy="267.35" rx="2.66" ry="3.42" transform="translate(-140.54 195.72) rotate(-45.04)"/>
        <ellipse class="cls-1" cx="166.09" cy="266.42" rx="2.66" ry="3.42" transform="translate(-139.79 195.68) rotate(-45.04)"/>
        <ellipse class="cls-1" cx="166.4" cy="265.49" rx="2.66" ry="3.42" transform="translate(-139.04 195.63) rotate(-45.04)"/>
        <ellipse class="cls-1" cx="166.7" cy="264.57" rx="2.66" ry="3.42" transform="translate(-138.3 195.56) rotate(-45.04)"/>
        <ellipse class="cls-1" cx="166.98" cy="263.64" rx="2.66" ry="3.42" transform="translate(-137.56 195.49) rotate(-45.04)"/>
        <ellipse class="cls-1" cx="167.25" cy="262.72" rx="2.66" ry="3.42" transform="translate(-136.83 195.41) rotate(-45.04)"/>
        <ellipse class="cls-1" cx="167.5" cy="261.79" rx="2.66" ry="3.42" transform="translate(-136.1 195.31) rotate(-45.04)"/>
        <ellipse class="cls-1" cx="167.73" cy="260.87" rx="2.66" ry="3.42" transform="translate(-135.38 195.21) rotate(-45.04)"/>
        <ellipse class="cls-1" cx="167.95" cy="259.94" rx="2.66" ry="3.42" transform="translate(-134.66 195.09) rotate(-45.04)"/>
        <ellipse class="cls-1" cx="168.15" cy="259.02" rx="2.66" ry="3.42" transform="translate(-133.95 194.96) rotate(-45.04)"/>
        <ellipse class="cls-1" cx="168.33" cy="258.1" rx="2.66" ry="3.42" transform="translate(-133.24 194.82) rotate(-45.04)"/>
        <ellipse class="cls-1" cx="168.5" cy="257.18" rx="2.66" ry="3.42" transform="translate(-132.54 194.67) rotate(-45.04)"/>
        <ellipse class="cls-1" cx="168.66" cy="256.26" rx="2.66" ry="3.42" transform="translate(-131.84 194.51) rotate(-45.04)"/>
        <ellipse class="cls-1" cx="168.8" cy="255.34" rx="2.66" ry="3.42" transform="translate(-131.15 194.34) rotate(-45.04)"/>
        <ellipse class="cls-1" cx="168.92" cy="254.42" rx="2.66" ry="3.42" transform="translate(-130.47 194.16) rotate(-45.04)"/>
        <ellipse class="cls-1" cx="169.03" cy="253.5" rx="2.66" ry="3.42" transform="translate(-129.78 193.97) rotate(-45.04)"/>
        <ellipse class="cls-1" cx="169.12" cy="252.58" rx="2.66" ry="3.42" transform="translate(-129.11 193.76) rotate(-45.04)"/>
        <ellipse class="cls-1" cx="169.2" cy="251.67" rx="2.66" ry="3.42" transform="translate(-128.44 193.55) rotate(-45.04)"/>
        <ellipse class="cls-1" cx="169.26" cy="250.75" rx="2.66" ry="3.42" transform="translate(-127.77 193.33) rotate(-45.04)"/>
        <ellipse class="cls-1" cx="169.31" cy="249.84" rx="2.66" ry="3.42" transform="translate(-127.11 193.09) rotate(-45.04)"/>
        <ellipse class="cls-1" cx="169.34" cy="248.92" rx="2.66" ry="3.42" transform="translate(-126.45 192.84) rotate(-45.04)"/>
        <ellipse class="cls-1" cx="169.36" cy="248.01" rx="2.66" ry="3.42" transform="translate(-125.8 192.59) rotate(-45.04)"/>
        <ellipse class="cls-1" cx="169.36" cy="247.09" rx="2.66" ry="3.42" transform="translate(-125.15 192.32) rotate(-45.04)"/>
        <ellipse class="cls-1" cx="169.35" cy="246.18" rx="2.66" ry="3.42" transform="translate(-124.51 192.04) rotate(-45.04)"/>
        <ellipse class="cls-1" cx="169.32" cy="245.27" rx="2.66" ry="3.42" transform="translate(-123.87 191.76) rotate(-45.04)"/>
        <ellipse class="cls-1" cx="169.28" cy="244.36" rx="2.66" ry="3.42" transform="translate(-123.24 191.46) rotate(-45.04)"/>
        <ellipse class="cls-1" cx="169.22" cy="243.45" rx="2.66" ry="3.42" transform="translate(-122.61 191.15) rotate(-45.04)"/>
        <ellipse class="cls-1" cx="169.14" cy="242.54" rx="2.66" ry="3.42" transform="translate(-121.99 190.83) rotate(-45.04)"/>
        <ellipse class="cls-1" cx="169.05" cy="241.63" rx="2.66" ry="3.42" transform="translate(-121.38 190.5) rotate(-45.04)"/>
        <ellipse class="cls-1" cx="168.95" cy="240.72" rx="2.66" ry="3.42" transform="translate(-120.76 190.16) rotate(-45.04)"/>
        <ellipse class="cls-1" cx="168.83" cy="239.81" rx="2.66" ry="3.42" transform="translate(-120.16 189.81) rotate(-45.04)"/>
        <ellipse class="cls-1" cx="168.7" cy="238.9" rx="2.66" ry="3.42" transform="translate(-119.55 189.45) rotate(-45.04)"/>
        <ellipse class="cls-1" cx="168.55" cy="238" rx="2.66" ry="3.42" transform="translate(-118.95 189.08) rotate(-45.04)"/>
        <ellipse class="cls-1" cx="168.39" cy="237.09" rx="2.66" ry="3.42" transform="translate(-118.36 188.7) rotate(-45.04)"/>
        <ellipse class="cls-1" cx="168.21" cy="236.19" rx="2.66" ry="3.42" transform="translate(-117.77 188.31) rotate(-45.04)"/>
        <ellipse class="cls-1" cx="168.02" cy="235.28" rx="2.66" ry="3.42" transform="translate(-117.19 187.91) rotate(-45.04)"/>
        <ellipse class="cls-1" cx="167.81" cy="234.38" rx="2.66" ry="3.42" transform="translate(-116.61 187.5) rotate(-45.04)"/>
        <ellipse class="cls-1" cx="167.59" cy="233.48" rx="2.66" ry="3.42" transform="translate(-116.04 187.07) rotate(-45.04)"/>
        <ellipse class="cls-1" cx="167.35" cy="232.58" rx="2.66" ry="3.42" transform="translate(-115.47 186.64) rotate(-45.04)"/>
        <ellipse class="cls-1" cx="167.1" cy="231.68" rx="2.66" ry="3.42" transform="translate(-114.91 186.2) rotate(-45.04)"/>
        <ellipse class="cls-1" cx="166.84" cy="230.78" rx="2.66" ry="3.42" transform="translate(-114.35 185.75) rotate(-45.04)"/>
        <ellipse class="cls-1" cx="166.56" cy="229.88" rx="2.66" ry="3.42" transform="translate(-113.79 185.29) rotate(-45.04)"/>
        <ellipse class="cls-1" cx="166.27" cy="228.98" rx="2.66" ry="3.42" transform="translate(-113.24 184.82) rotate(-45.04)"/>
        <ellipse class="cls-1" cx="165.96" cy="228.08" rx="2.66" ry="3.42" transform="translate(-112.7 184.34) rotate(-45.04)"/>
        <ellipse class="cls-1" cx="165.64" cy="227.18" rx="2.66" ry="3.42" transform="translate(-112.16 183.84) rotate(-45.04)"/>
        <ellipse class="cls-1" cx="165.3" cy="226.29" rx="2.66" ry="3.42" transform="translate(-111.62 183.34) rotate(-45.04)"/>
        <ellipse class="cls-1" cx="164.95" cy="225.39" rx="2.66" ry="3.42" transform="translate(-111.09 182.83) rotate(-45.04)"/>
        <ellipse class="cls-1" cx="164.58" cy="224.5" rx="2.66" ry="3.42" transform="translate(-110.57 182.31) rotate(-45.04)"/>
      </g>
      <circle class="cls-1" cx="74.05" cy="14.8" r="2.4"/>
      <path class="cls-13" d="M81.04,276.54c-16.49-29.36-14.7-74.77,2.68-92.6-2.25,1.01-5.08,5.7-7.03,7.39-18.53,16.02-22.02,59.5-6.61,89.95,12.98,25.66,54.06,42.08,73.06,27.01,1.61-1.27,3.15-2.61,4.58-4.08-21.17,9.56-50.54,1.06-66.68-27.67Z"/>
      <g>
        <circle class="cls-1" cx="67.92" cy="41.46" r="2.4"/>
        <circle class="cls-1" cx="68.73" cy="40.59" r="2.4"/>
        <circle class="cls-1" cx="69.48" cy="39.71" r="2.4"/>
        <circle class="cls-1" cx="70.19" cy="38.83" r="2.4"/>
        <circle class="cls-1" cx="70.84" cy="37.95" r="2.4"/>
        <circle class="cls-1" cx="71.44" cy="37.06" r="2.4"/>
        <circle class="cls-1" cx="71.99" cy="36.17" r="2.4"/>
        <circle class="cls-1" cx="72.5" cy="35.27" r="2.4"/>
        <circle class="cls-1" cx="72.95" cy="34.37" r="2.4"/>
        <circle class="cls-1" cx="73.36" cy="33.47" r="2.4"/>
        <circle class="cls-1" cx="73.72" cy="32.56" r="2.4"/>
        <circle class="cls-1" cx="74.03" cy="31.64" r="2.4"/>
        <circle class="cls-1" cx="74.3" cy="30.72" r="2.4"/>
        <circle class="cls-1" cx="74.52" cy="29.8" r="2.4"/>
        <circle class="cls-1" cx="74.69" cy="28.87" r="2.4"/>
        <circle class="cls-1" cx="74.83" cy="27.94" r="2.4"/>
        <circle class="cls-1" cx="74.91" cy="27.01" r="2.4"/>
        <circle class="cls-1" cx="74.96" cy="26.07" r="2.4"/>
        <circle class="cls-1" cx="74.96" cy="25.13" r="2.4"/>
        <circle class="cls-1" cx="74.92" cy="24.18" r="2.4"/>
        <circle class="cls-1" cx="74.84" cy="23.23" r="2.4"/>
      </g>
      <circle class="cls-1" cx="26.69" cy="222.09" r="2.4"/>
      <circle class="cls-1" cx="221.23" cy="222.09" r="2.4"/>
      <g>
        <circle class="cls-1" cx="27.61" cy="240.26" r="1.63"/>
        <circle class="cls-1" cx="28.14" cy="238.87" r="1.63"/>
        <circle class="cls-1" cx="28.59" cy="237.66" r="1.63"/>
        <circle class="cls-1" cx="28.96" cy="236.6" r="1.63"/>
        <circle class="cls-1" cx="29.25" cy="235.67" r="1.63"/>
        <circle class="cls-1" cx="29.47" cy="234.83" r="1.63"/>
        <circle class="cls-1" cx="29.62" cy="234.06" r="1.63"/>
        <circle class="cls-1" cx="29.7" cy="233.33" r="1.63"/>
        <circle class="cls-1" cx="29.73" cy="232.61" r="1.63"/>
        <circle class="cls-1" cx="29.7" cy="231.89" r="1.63"/>
        <circle class="cls-1" cx="29.62" cy="231.11" r="1.63"/>
        <circle class="cls-1" cx="29.5" cy="230.28" r="1.63"/>
        <circle class="cls-1" cx="29.33" cy="229.34" r="1.63"/>
        <circle class="cls-1" cx="29.12" cy="228.28" r="1.63"/>
        <circle class="cls-1" cx="28.88" cy="227.07" r="1.63"/>
      </g>
      <g>
        <circle class="cls-1" cx="222.86" cy="241.53" r="1.63"/>
        <circle class="cls-1" cx="223.4" cy="240.14" r="1.63"/>
        <circle class="cls-1" cx="223.85" cy="238.94" r="1.63"/>
        <circle class="cls-1" cx="224.22" cy="237.88" r="1.63"/>
        <circle class="cls-1" cx="224.51" cy="236.94" r="1.63"/>
        <circle class="cls-1" cx="224.72" cy="236.1" r="1.63"/>
        <circle class="cls-1" cx="224.88" cy="235.33" r="1.63"/>
        <circle class="cls-1" cx="224.96" cy="234.6" r="1.63"/>
        <circle class="cls-1" cx="224.99" cy="233.89" r="1.63"/>
        <circle class="cls-1" cx="224.96" cy="233.16" r="1.63"/>
        <circle class="cls-1" cx="224.88" cy="232.39" r="1.63"/>
        <circle class="cls-1" cx="224.76" cy="231.55" r="1.63"/>
        <circle class="cls-1" cx="224.59" cy="230.62" r="1.63"/>
        <circle class="cls-1" cx="224.38" cy="229.56" r="1.63"/>
        <circle class="cls-1" cx="224.14" cy="228.35" r="1.63"/>
      </g>
    </g>
    <circle class="cls-4" cx="98.95" cy="73.3" r="12.36"/>
    <circle class="cls-4" cx="141.85" cy="73.3" r="12.36"/>
    <path class="cls-5" d="M111.31,73.3c0-3.9,18.18-3.9,18.18,0"/>
    <g>
      <path class="cls-9" d="M37.42,147.9c20.3,18.24,51.49,28.49,82.63,28.49-29.63,0-61.85-11.45-82.63-28.49Z"/>
      <path class="cls-9" d="M38.03,251.72c0-.09,.05-.18,.13-.26,.86-4.98,1.42-17.65,1.7-28.19-.35,11.07-.97,23.89-1.82,28.45Z"/>
      <path class="cls-9" d="M204.3,256.78c-.03-.12-.05-.25-.08-.37-2.79-1.66-18.91-3.24-40.09-4.5,22.61,1.35,39.38,3.08,40.18,4.87Z"/>
      <path class="cls-9" d="M201.53,140.1c-20.12,20.05-48.75,36.29-81.49,36.29,32.66,0,61.54-16.15,81.65-36.14-.05-.05-.11-.11-.16-.15Z"/>
      <path class="cls-9" d="M204.3,256.78s.02,.1,.03,.14c0-.05-.01-.09-.03-.14Z"/>
      <path class="cls-9" d="M34.15,145.08c-1.01-.91-2-1.84-2.94-2.78-7.26,5.6-20.86,19.19-25.55,40.38L.83,210.43c.12,.04,3.61,.68,8.51,1.14l4.57-27.83c4.67-21.04,13.02-33.02,20.25-38.66Z"/>
      <path class="cls-2" d="M232.21,212.07l-4.55-28.13c-.56-8.21-17.29-38.54-25.8-43.84-.05,.05-.1,.1-.16,.15,8.19,7.55,24.27,33.59,25.02,40.66l5.17,31.17c-9.4,2.63-22.89,3.91-30.78-6.35-.15,5.29,1.05,41.15,3.1,50.68,.21,.12,.34,.25,.4,.37-2.1-8.92-3.53-43.45-3.38-48.81,7.88,10.25,21.56,6.73,30.97,4.1Z"/>
      <path class="cls-2" d="M40.15,205.68c-5.38,7-20.96,6.81-30.82,5.88l-.09,.55c.37,.11,22.75,6.32,30.8-4.15,.06,2.14,0,8.24-.18,15.31,.26-8.13,.36-15.31,.3-17.59Z"/>
      <path class="cls-2" d="M204.62,256.78s.02,.1,.03,.14c0-.05-.01-.1-.03-.14Z"/>
      <path class="cls-2" d="M38.16,251.46c-.02,.1-.03,.21-.05,.3,.12-3.89,76.75-2.77,126.01,.14-48.05-2.87-122.47-4.03-125.96-.44Z"/>
      <path class="cls-2" d="M34.3,144.96s-.1,.08-.15,.12c1.06,.96,2.14,1.9,3.27,2.82-1.07-.96-2.12-1.94-3.12-2.94Z"/>
      <path class="cls-2" d="M202.37,209.29c7.88,10.25,20.11,5.41,29.52,2.78l-5.17-31.17c-.76-7.07-16.84-33.1-25.02-40.66-20.11,19.98-48.99,36.14-81.65,36.14s-62.33-10.24-82.63-28.49c-1.13-.92-2.21-1.87-3.27-2.82-7.23,5.64-15.58,17.61-20.25,38.66l-4.57,27.83c9.86,.93,21.84,4.12,27.22-2.88,8.67,6.7-3.23,47.98-13.71,41.86,0,0,.08,17.46,.36,19.06,3.49-3.59,59.73-20.15,107.78-17.27,21.19,1.25,85.13,18.26,87.92,19.92-.08-3.32-.45-20.23-.45-20.23-8.24,1.87-20.69-34.76-16.08-42.73Z"/>
    </g>
    <g class="cls-12">
      <path class="cls-6" d="M5.99,162.14l85.86,22.43c21.29,4.1,43.19,3.74,64.33-1.05l79.43-18.81"/>
      <path class="cls-6" d="M6.68,182.81l85.86,22.43c21.29,4.1,43.19,3.74,64.33-1.05l79.43-18.81"/>
      <path class="cls-6" d="M7.06,200.26l85.86,22.43c21.29,4.1,43.19,3.74,64.33-1.05l79.43-18.81"/>
      <path class="cls-6" d="M7.75,221.61l85.86,22.43c21.29,4.1,43.19,3.74,64.33-1.05l79.43-18.81"/>
      <path class="cls-6" d="M4.77,241.17l85.86,22.43c21.29,4.1,43.19,3.74,64.33-1.05l79.43-18.81"/>
    </g>
    <g id="Needle">
      <g>
        <path class="cls-10" d="M229.93,245.44l-17-8.92c-4.29-2.25-5.94-7.55-3.7-11.84l-3.58,6.83c-2.25,4.29-.59,9.59,3.7,11.84l17,8.92c4.29,2.25,9.59,.6,11.84-3.7l3.58-6.83c-2.25,4.29-7.55,5.94-11.84,3.7Z"/>
        <path class="cls-11" d="M252.01,143.1l-1.79,3.42c.31-.59,.68-1.12,1.09-1.61,.16-.62,.39-1.22,.7-1.81Z"/>
        <path class="cls-11" d="M282.76,163.58l1.79-3.42c-.31,.59-.68,1.12-1.09,1.61-.16,.62-.39,1.22-.7,1.81Z"/>
        <path class="cls-11" d="M272.71,163.86l-17-8.92c-3.7-1.94-5.43-6.15-4.4-10.03-.41,.49-.78,1.02-1.09,1.61l-40.98,78.16c-2.25,4.29-.59,9.59,3.7,11.84l17,8.92c4.29,2.25,9.59,.59,11.84-3.7l40.98-78.16c.31-.59,.54-1.2,.7-1.81-2.6,3.06-7.05,4.03-10.75,2.09Z"/>
        <path class="cls-8" d="M251.73,144.45c.16-.83,.44-1.64,.85-2.43l-.57,1.08c-.31,.59-.54,1.2-.7,1.81,.14-.16,.28-.32,.42-.47Z"/>
        <path class="cls-8" d="M283.46,161.77c.41-.49,.78-1.02,1.09-1.61l.57-1.08c-.41,.78-.93,1.48-1.51,2.08-.04,.21-.09,.41-.14,.61Z"/>
        <path class="cls-8" d="M255.71,154.94l17,8.92c3.7,1.94,8.15,.97,10.75-2.09,.05-.2,.11-.41,.14-.61-2.64,2.69-6.82,3.46-10.33,1.62l-17-8.92c-3.51-1.84-5.25-5.72-4.54-9.41-.15,.15-.29,.31-.42,.47-1.04,3.88,.69,8.09,4.4,10.03Z"/>
        <path class="cls-2" d="M266.3,131.17s.04-.1,.07-.15c.1-.19,.21-.37,.33-.55,.06-.13,.11-.26,.18-.38-3.95-1.2-8.32,.53-10.31,4.32l-.57,1.08c1.99-3.79,6.35-5.52,10.3-4.32Z"/>
        <path class="cls-2" d="M286.8,140.54c-.07,.12-.14,.25-.22,.36-.08,.19-.17,.39-.27,.58-.03,.05-.06,.09-.08,.14,3.23,2.57,4.29,7.14,2.31,10.93l.57-1.08c1.99-3.79,.92-8.37-2.31-10.93Z"/>
        <path class="cls-2" d="M265.41,135.89c-.14-1.58,.14-3.2,.89-4.72-3.95-1.2-8.32,.53-10.3,4.32l-2.2,4.2c2.21-4.21,7.36-5.88,11.61-3.8Z"/>
        <path class="cls-2" d="M286.23,141.62c-.81,1.48-1.99,2.64-3.37,3.42,4.12,2.31,5.69,7.5,3.48,11.71l2.2-4.2c1.99-3.79,.92-8.36-2.31-10.93Z"/>
        <path class="cls-2" d="M282.86,145.04c-2.51,1.41-5.65,1.57-8.39,.14l-4.41-2.31c-2.74-1.44-4.39-4.11-4.66-6.98-4.25-2.07-9.4-.41-11.61,3.8l-1.22,2.33c-.41,.78-.69,1.6-.85,2.43,2.64-2.69,6.82-3.46,10.33-1.62l17,8.92c3.51,1.84,5.25,5.72,4.54,9.41,.59-.6,1.1-1.29,1.51-2.08l1.22-2.33c2.21-4.21,.65-9.4-3.48-11.71Z"/>
        <path class="cls-2" d="M256.27,153.86l17,8.92c3.51,1.84,7.69,1.07,10.33-1.62,.71-3.7-1.03-7.58-4.54-9.41l-17-8.92c-3.51-1.84-7.69-1.07-10.33,1.62-.71,3.7,1.03,7.58,4.54,9.41Z"/>
        <path class="cls-8" d="M286.23,141.62s.06-.09,.08-.14c.1-.19,.18-.39,.27-.58-.14,.23-.29,.44-.45,.65,.03,.02,.06,.05,.1,.07Z"/>
        <path class="cls-8" d="M266.7,130.47c-.11,.18-.23,.36-.33,.55-.03,.05-.04,.1-.07,.15,.04,.01,.07,.03,.11,.04,.08-.25,.17-.49,.28-.74Z"/>
        <path class="cls-8" d="M281.99,144.57l.66,.34c.08,.04,.14,.09,.22,.13,1.38-.78,2.56-1.93,3.37-3.42-.03-.02-.06-.05-.1-.07-1.08,1.43-2.53,2.46-4.15,3.01Z"/>
        <path class="cls-8" d="M266.3,136.34c-.46-1.65-.45-3.43,.12-5.13-.04-.01-.07-.03-.11-.04-.76,1.51-1.04,3.14-.89,4.72,.08,.04,.15,.07,.23,.11l.66,.34Z"/>
        <path class="cls-8" d="M281.99,144.57c-2.2,.76-4.69,.65-6.92-.52l-4.41-2.31c-2.22-1.17-3.73-3.15-4.36-5.39l-.66-.34c-.08-.04-.15-.07-.23-.11,.26,2.86,1.92,5.54,4.66,6.98l4.41,2.31c2.74,1.44,5.88,1.28,8.39-.14-.07-.04-.14-.09-.22-.13l-.66-.34Z"/>
        <path class="cls-2" d="M282.62,129.64c3.97,2.08,5.67,6.77,4.13,10.86,.02,.01,.03,.02,.05,.04,.04-.06,.08-.12,.11-.19,2.25-4.29,.6-9.59-3.7-11.84l-1.01-.53-.53,1.16,.95,.5Z"/>
        <path class="cls-2" d="M278.21,127.33l.95,.5,.66-1.1-1.01-.53c-4.29-2.25-9.59-.59-11.84,3.7-.03,.06-.06,.13-.09,.2,.02,0,.04,.01,.06,.02,2.48-3.6,7.31-4.86,11.28-2.78Z"/>
        <path class="cls-2" d="M266.93,130.11s-.04-.01-.06-.02c-.06,.13-.12,.26-.18,.38,.08-.12,.15-.25,.24-.36Z"/>
        <path class="cls-2" d="M286.58,140.9c.07-.12,.15-.24,.22-.36-.02-.01-.03-.02-.05-.04-.05,.13-.11,.27-.17,.4Z"/>
        <path class="cls-2" d="M285.41,139.63c.48,.25,.92,.55,1.34,.87,1.55-4.09-.16-8.78-4.13-10.86l-.95-.5-1.75,3.86c-.64,1.21-3.56-.32-2.93-1.53l2.17-3.64-.95-.5c-3.97-2.08-8.8-.82-11.28,2.78,.5,.16,1,.35,1.48,.6l17,8.92Z"/>
        <path class="cls-2" d="M285.41,139.63l-17-8.92c-.48-.25-.98-.45-1.48-.6-.08,.12-.16,.24-.24,.36-.11,.24-.2,.49-.28,.74,.48,.15,.96,.34,1.43,.59l17,8.92c.46,.24,.89,.53,1.29,.84,.16-.21,.31-.42,.45-.65,.06-.13,.11-.27,.17-.4-.41-.32-.86-.62-1.34-.87Z"/>
        <path class="cls-2" d="M281.99,144.57c1.62-.56,3.08-1.58,4.15-3.01-.4-.31-.83-.6-1.29-.84l-17-8.92c-.46-.24-.94-.43-1.43-.59-.56,1.7-.58,3.48-.12,5.13l15.69,8.23Z"/>
        <path class="cls-2" d="M270.66,141.73l4.41,2.31c2.22,1.17,4.72,1.28,6.92,.52l-15.69-8.23c.63,2.24,2.14,4.23,4.36,5.39Z"/>
        <polygon class="cls-11" points="292.13 106.14 279.82 126.73 282.2 127.98 292.13 106.14"/>
        <polygon class="cls-11" points="281.67 129.14 282.2 127.98 279.82 126.73 279.16 127.83 281.67 129.14"/>
        <path class="cls-11" d="M279.91,133l1.75-3.86-2.51-1.31-2.17,3.64c-.64,1.21,2.29,2.75,2.93,1.53Z"/>
      </g>
    </g>
  </g>
</svg>