<?xml version="1.0" encoding="UTF-8"?>
<svg id="Calque_2" data-name="Calque 2" xmlns="http://www.w3.org/2000/svg" viewBox="0 0 233.45 352.83">
  <defs>
    <style>
      .cls-1 {
        fill: #f7ca9a;
      }

      .cls-2 {
        fill: #191819;
      }

      .cls-3 {
        fill: #fff1e1;
      }

      .cls-4 {
        fill: #f28d4f;
      }

      .cls-5 {
        fill: #662400;
      }
    </style>
  </defs>
  <g id="Ninja">
    <g id="Bear2">
      <path class="cls-5" d="M233.43,216.46l-5.48-30.75c-.84-7.7-18.38-38.26-26.43-43.57v-55.17c0-10.24-2.18-19.99-6.09-28.83,.66-.37,1.3-.77,1.92-1.22,11.37-8.25,11.67-26.67,.66-41.15S165.07-4.46,153.69,3.79c-4.33,3.14-7.04,7.75-8.15,13.05-7.05-2.16-10.75-2.63-18.53-2.63h-21.25c-7.46,0-14.66,1.08-21.45,3.08-1.14-5.19-3.85-9.7-8.1-12.78-11.37-8.25-29.52-3.2-40.52,11.28-11.01,14.48-10.71,32.9,.66,41.15,.39,.28,.78,.54,1.18,.79-4.04,8.95-6.28,18.85-6.28,29.26v55.8c-7.54,5.46-20.47,19.24-25.51,41.42L.27,214.95c0,6.73-1.25,39.13,14.21,40.09-.2,22.28-1.2,97.79,37.48,97.79h7.5c14.52,0,28.07-1.87,28.07-19.03l.04-12.22c6.37,.42,11.04,2.03,17.97,2.03h21.25c7.27,0,9.93-.73,16.58-1.21v12.29c0,17.16,16.37,18.15,30.89,18.15h7.5c37.84,0,37.7-72.29,37.49-96.27,15.44-.98,14.19-33.37,14.19-40.09Z"/>
      <path class="cls-4" d="M232.26,212.8l-5.23-30.08c-.8-7.53-17.56-37.43-25.25-42.62v-53.97c0-10.02-2.08-19.55-5.82-28.2,.63-.36,1.24-.76,1.83-1.19,10.87-8.07,11.15-26.09,.63-40.25s-27.85-19.1-38.72-11.03c-4.13,3.07-6.73,7.58-7.79,12.77-6.73-2.12-13.89-3.27-21.33-3.27h-20.3c-7.13,0-14,1.06-20.49,3.01-1.09-5.08-3.68-9.49-7.74-12.5-10.87-8.07-28.2-3.13-38.72,11.03-10.52,14.16-10.23,32.18,.63,40.25,.37,.27,.75,.53,1.13,.77-3.86,8.76-6,18.44-6,28.62v54.59c-7.2,5.34-19.56,18.82-24.37,40.52l-5.23,30.08c0,6.58-1.19,38.28,13.57,39.22-.19,21.8-1.14,95.66,35.8,95.66h7.16c13.87,0,25.12-2.03,25.12-18.82v-11.96c6.09,.41,12.28,2.19,18.9,2.19h20.3c6.95,0,13.88-1.78,20.23-2.25v12.02c0,16.79,11.25,18.82,25.12,18.82h7.16c36.15,0,36.02-70.72,35.82-94.18,14.75-.96,13.56-32.64,13.56-39.22Z"/>
      <ellipse class="cls-1" cx="180.24" cy="30.33" rx="18.2" ry="23.72" transform="translate(17.45 113.43) rotate(-36.59)"/>
      <path class="cls-5" d="M169.91,38.29c-7.22-9.72-7.57-21.87-1.22-28.4-.85,.4-1.68,.86-2.46,1.43-8.07,5.99-8.28,19.38-.47,29.9,7.81,10.52,20.69,14.19,28.76,8.2,.61-.46,1.17-.97,1.69-1.5-8.05,3.77-19.24-.12-26.3-9.63Z"/>
      <ellipse class="cls-1" cx="120.89" cy="95.52" rx="30.84" ry="21.94"/>
      <ellipse class="cls-4" cx="120.89" cy="86.88" rx="15.33" ry="10.9"/>
      <ellipse class="cls-1" cx="177.08" cy="336.43" rx="19.76" ry="7.9"/>
      <ellipse class="cls-1" cx="65.97" cy="336.43" rx="19.76" ry="7.9"/>
      <ellipse class="cls-1" cx="218.95" cy="232.03" rx="9.67" ry="14.77"/>
      <ellipse class="cls-1" cx="24.06" cy="232.03" rx="9.67" ry="14.77"/>
      <circle class="cls-1" cx="150.07" cy="61.21" r="14.77"/>
      <circle class="cls-4" cx="150.07" cy="61.21" r="7.39"/>
      <ellipse class="cls-1" cx="61.58" cy="29.44" rx="23.72" ry="18.2" transform="translate(1.23 61.33) rotate(-53.41)"/>
      <path class="cls-5" d="M51.3,45.38c-8.07-5.99-8.28-19.38-.47-29.9,1.14-1.54,2.41-2.92,3.74-4.16-2.84,1.82-5.5,4.25-7.73,7.27-7.81,10.52-7.6,23.91,.47,29.9,6.89,5.11,17.27,3.17,25.02-4.04-7.07,4.54-15.26,5.21-21.02,.93Z"/>
      <circle class="cls-3" cx="159.04" cy="54.56" r="3.43"/>
      <g>
        <circle class="cls-1" cx="91.7" cy="61.21" r="14.77"/>
        <circle class="cls-4" cx="91.7" cy="61.21" r="7.39"/>
        <circle class="cls-3" cx="100.67" cy="54.56" r="3.43"/>
      </g>
      <path class="cls-5" d="M108.22,110.88c-11.21-4.57-17.81-14.78-15.76-23.65-.52,.78-1,1.61-1.36,2.5-3.8,9.31,3.05,20.66,15.09,25.81,11.61,4.97,34.82,.98,40.72-8.41,.41-.65,1.61-1.32,1.78-2.05-4.93,7.39-29.5,10.27-40.47,5.8Z"/>
      <circle class="cls-3" cx="127.8" cy="83.8" r="3.43"/>
      <circle class="cls-3" cx="181.62" cy="13.84" r="2.4"/>
      <g>
        <circle class="cls-3" cx="196.14" cy="37.02" r="2.4"/>
        <circle class="cls-3" cx="196.09" cy="35.83" r="2.4"/>
        <circle class="cls-3" cx="196.01" cy="34.68" r="2.4"/>
        <circle class="cls-3" cx="195.88" cy="33.56" r="2.4"/>
        <circle class="cls-3" cx="195.72" cy="32.48" r="2.4"/>
        <circle class="cls-3" cx="195.52" cy="31.43" r="2.4"/>
        <circle class="cls-3" cx="195.28" cy="30.4" r="2.4"/>
        <circle class="cls-3" cx="195" cy="29.41" r="2.4"/>
        <circle class="cls-3" cx="194.68" cy="28.45" r="2.4"/>
        <circle class="cls-3" cx="194.33" cy="27.53" r="2.4"/>
        <circle class="cls-3" cx="193.94" cy="26.63" r="2.4"/>
        <circle class="cls-3" cx="193.51" cy="25.76" r="2.4"/>
        <circle class="cls-3" cx="193.05" cy="24.92" r="2.4"/>
        <circle class="cls-3" cx="192.56" cy="24.11" r="2.4"/>
        <circle class="cls-3" cx="192.03" cy="23.33" r="2.4"/>
        <circle class="cls-3" cx="191.46" cy="22.58" r="2.4"/>
        <circle class="cls-3" cx="190.86" cy="21.86" r="2.4"/>
        <circle class="cls-3" cx="190.23" cy="21.16" r="2.4"/>
        <circle class="cls-3" cx="189.56" cy="20.5" r="2.4"/>
        <circle class="cls-3" cx="188.87" cy="19.86" r="2.4"/>
        <circle class="cls-3" cx="188.14" cy="19.24" r="2.4"/>
      </g>
      <g>
        <path class="cls-1" d="M120.25,171.5c-32.39,0-58.02,27.53-58.02,69.92,0,42.39,26.26,70.53,58.66,70.53,32.39,0,58.66-28.14,58.66-70.53s-26.9-69.92-59.3-69.92Zm33.29,37.92c-3.27-2.77-3.69-7.67-.94-10.96,2.76-3.29,7.64-3.71,10.91-.94s3.69,7.67,.94,10.96c-2.76,3.29-7.64,3.71-10.91,.94Z"/>
        <ellipse class="cls-3" cx="158.52" cy="203.47" rx="7.75" ry="7.78"/>
      </g>
      <g>
        <ellipse class="cls-3" cx="150.16" cy="293.54" rx="2.66" ry="3.42" transform="translate(-163.65 192.36) rotate(-45.04)"/>
        <ellipse class="cls-3" cx="150.96" cy="292.6" rx="2.66" ry="3.42" transform="translate(-162.75 192.65) rotate(-45.04)"/>
        <ellipse class="cls-3" cx="151.73" cy="291.66" rx="2.66" ry="3.42" transform="translate(-161.86 192.92) rotate(-45.04)"/>
        <ellipse class="cls-3" cx="152.49" cy="290.72" rx="2.66" ry="3.42" transform="translate(-160.97 193.18) rotate(-45.04)"/>
        <ellipse class="cls-3" cx="153.23" cy="289.78" rx="2.66" ry="3.42" transform="translate(-160.09 193.43) rotate(-45.04)"/>
        <ellipse class="cls-3" cx="153.95" cy="288.84" rx="2.66" ry="3.42" transform="translate(-159.21 193.66) rotate(-45.04)"/>
        <ellipse class="cls-3" cx="154.66" cy="287.9" rx="2.66" ry="3.42" transform="translate(-158.34 193.89) rotate(-45.04)"/>
        <ellipse class="cls-3" cx="155.35" cy="286.96" rx="2.66" ry="3.42" transform="translate(-157.47 194.1) rotate(-45.04)"/>
        <ellipse class="cls-3" cx="156.02" cy="286.02" rx="2.66" ry="3.42" transform="translate(-156.61 194.3) rotate(-45.04)"/>
        <ellipse class="cls-3" cx="156.68" cy="285.08" rx="2.66" ry="3.42" transform="translate(-155.75 194.49) rotate(-45.04)"/>
        <ellipse class="cls-3" cx="157.32" cy="284.14" rx="2.66" ry="3.42" transform="translate(-154.9 194.67) rotate(-45.04)"/>
        <ellipse class="cls-3" cx="157.94" cy="283.2" rx="2.66" ry="3.42" transform="translate(-154.05 194.83) rotate(-45.04)"/>
        <ellipse class="cls-3" cx="158.55" cy="282.26" rx="2.66" ry="3.42" transform="translate(-153.21 194.99) rotate(-45.04)"/>
        <ellipse class="cls-3" cx="159.14" cy="281.33" rx="2.66" ry="3.42" transform="translate(-152.37 195.13) rotate(-45.04)"/>
        <ellipse class="cls-3" cx="159.71" cy="280.39" rx="2.66" ry="3.42" transform="translate(-151.54 195.26) rotate(-45.04)"/>
        <ellipse class="cls-3" cx="160.27" cy="279.46" rx="2.66" ry="3.42" transform="translate(-150.72 195.38) rotate(-45.04)"/>
        <ellipse class="cls-3" cx="160.81" cy="278.52" rx="2.66" ry="3.42" transform="translate(-149.9 195.49) rotate(-45.04)"/>
        <ellipse class="cls-3" cx="161.33" cy="277.59" rx="2.66" ry="3.42" transform="translate(-149.08 195.58) rotate(-45.04)"/>
        <ellipse class="cls-3" cx="161.84" cy="276.65" rx="2.66" ry="3.42" transform="translate(-148.27 195.67) rotate(-45.04)"/>
        <ellipse class="cls-3" cx="162.33" cy="275.72" rx="2.66" ry="3.42" transform="translate(-147.47 195.74) rotate(-45.04)"/>
        <ellipse class="cls-3" cx="162.8" cy="274.79" rx="2.66" ry="3.42" transform="translate(-146.67 195.8) rotate(-45.04)"/>
        <ellipse class="cls-3" cx="163.26" cy="273.85" rx="2.66" ry="3.42" transform="translate(-145.88 195.85) rotate(-45.04)"/>
        <ellipse class="cls-3" cx="163.7" cy="272.92" rx="2.66" ry="3.42" transform="translate(-145.09 195.89) rotate(-45.04)"/>
        <ellipse class="cls-3" cx="164.13" cy="271.99" rx="2.66" ry="3.42" transform="translate(-144.31 195.92) rotate(-45.04)"/>
        <ellipse class="cls-3" cx="164.54" cy="271.06" rx="2.66" ry="3.42" transform="translate(-143.53 195.94) rotate(-45.04)"/>
        <ellipse class="cls-3" cx="164.93" cy="270.13" rx="2.66" ry="3.42" transform="translate(-142.75 195.94) rotate(-45.04)"/>
        <ellipse class="cls-3" cx="165.31" cy="269.2" rx="2.66" ry="3.42" transform="translate(-141.99 195.94) rotate(-45.04)"/>
        <ellipse class="cls-3" cx="165.67" cy="268.27" rx="2.66" ry="3.42" transform="translate(-141.22 195.92) rotate(-45.04)"/>
        <ellipse class="cls-3" cx="166.01" cy="267.35" rx="2.66" ry="3.42" transform="translate(-140.47 195.89) rotate(-45.04)"/>
        <ellipse class="cls-3" cx="166.34" cy="266.42" rx="2.66" ry="3.42" transform="translate(-139.71 195.85) rotate(-45.04)"/>
        <ellipse class="cls-3" cx="166.65" cy="265.49" rx="2.66" ry="3.42" transform="translate(-138.97 195.8) rotate(-45.04)"/>
        <ellipse class="cls-3" cx="166.95" cy="264.57" rx="2.66" ry="3.42" transform="translate(-138.22 195.74) rotate(-45.04)"/>
        <ellipse class="cls-3" cx="167.23" cy="263.64" rx="2.66" ry="3.42" transform="translate(-137.49 195.67) rotate(-45.04)"/>
        <ellipse class="cls-3" cx="167.49" cy="262.72" rx="2.66" ry="3.42" transform="translate(-136.75 195.58) rotate(-45.04)"/>
        <ellipse class="cls-3" cx="167.74" cy="261.79" rx="2.66" ry="3.42" transform="translate(-136.03 195.49) rotate(-45.04)"/>
        <ellipse class="cls-3" cx="167.98" cy="260.87" rx="2.66" ry="3.42" transform="translate(-135.31 195.38) rotate(-45.04)"/>
        <ellipse class="cls-3" cx="168.19" cy="259.94" rx="2.66" ry="3.42" transform="translate(-134.59 195.26) rotate(-45.04)"/>
        <ellipse class="cls-3" cx="168.4" cy="259.02" rx="2.66" ry="3.42" transform="translate(-133.88 195.14) rotate(-45.04)"/>
        <ellipse class="cls-3" cx="168.58" cy="258.1" rx="2.66" ry="3.42" transform="translate(-133.17 195) rotate(-45.04)"/>
        <ellipse class="cls-3" cx="168.75" cy="257.18" rx="2.66" ry="3.42" transform="translate(-132.47 194.85) rotate(-45.04)"/>
        <ellipse class="cls-3" cx="168.91" cy="256.26" rx="2.66" ry="3.42" transform="translate(-131.77 194.69) rotate(-45.04)"/>
        <ellipse class="cls-3" cx="169.05" cy="255.34" rx="2.66" ry="3.42" transform="translate(-131.08 194.52) rotate(-45.04)"/>
        <ellipse class="cls-3" cx="169.17" cy="254.42" rx="2.66" ry="3.42" transform="translate(-130.39 194.34) rotate(-45.04)"/>
        <ellipse class="cls-3" cx="169.28" cy="253.5" rx="2.66" ry="3.42" transform="translate(-129.71 194.14) rotate(-45.04)"/>
        <ellipse class="cls-3" cx="169.37" cy="252.58" rx="2.66" ry="3.42" transform="translate(-129.03 193.94) rotate(-45.04)"/>
        <ellipse class="cls-3" cx="169.45" cy="251.67" rx="2.66" ry="3.42" transform="translate(-128.36 193.73) rotate(-45.04)"/>
        <ellipse class="cls-3" cx="169.51" cy="250.75" rx="2.66" ry="3.42" transform="translate(-127.7 193.5) rotate(-45.04)"/>
        <ellipse class="cls-3" cx="169.56" cy="249.84" rx="2.66" ry="3.42" transform="translate(-127.03 193.27) rotate(-45.04)"/>
        <ellipse class="cls-3" cx="169.59" cy="248.92" rx="2.66" ry="3.42" transform="translate(-126.38 193.02) rotate(-45.04)"/>
        <ellipse class="cls-3" cx="169.61" cy="248.01" rx="2.66" ry="3.42" transform="translate(-125.73 192.76) rotate(-45.04)"/>
        <ellipse class="cls-3" cx="169.61" cy="247.09" rx="2.66" ry="3.42" transform="translate(-125.08 192.5) rotate(-45.04)"/>
        <ellipse class="cls-3" cx="169.6" cy="246.18" rx="2.66" ry="3.42" transform="translate(-124.44 192.22) rotate(-45.04)"/>
        <ellipse class="cls-3" cx="169.57" cy="245.27" rx="2.66" ry="3.42" transform="translate(-123.8 191.93) rotate(-45.04)"/>
        <ellipse class="cls-3" cx="169.52" cy="244.36" rx="2.66" ry="3.42" transform="translate(-123.17 191.63) rotate(-45.04)"/>
        <ellipse class="cls-3" cx="169.46" cy="243.45" rx="2.66" ry="3.42" transform="translate(-122.54 191.32) rotate(-45.04)"/>
        <ellipse class="cls-3" cx="169.39" cy="242.54" rx="2.66" ry="3.42" transform="translate(-121.92 191.01) rotate(-45.04)"/>
        <ellipse class="cls-3" cx="169.3" cy="241.63" rx="2.66" ry="3.42" transform="translate(-121.3 190.68) rotate(-45.04)"/>
        <ellipse class="cls-3" cx="169.2" cy="240.72" rx="2.66" ry="3.42" transform="translate(-120.69 190.34) rotate(-45.04)"/>
        <ellipse class="cls-3" cx="169.08" cy="239.81" rx="2.66" ry="3.42" transform="translate(-120.08 189.99) rotate(-45.04)"/>
        <ellipse class="cls-3" cx="168.95" cy="238.9" rx="2.66" ry="3.42" transform="translate(-119.48 189.63) rotate(-45.04)"/>
        <ellipse class="cls-3" cx="168.8" cy="238" rx="2.66" ry="3.42" transform="translate(-118.88 189.25) rotate(-45.04)"/>
        <ellipse class="cls-3" cx="168.64" cy="237.09" rx="2.66" ry="3.42" transform="translate(-118.29 188.87) rotate(-45.04)"/>
        <ellipse class="cls-3" cx="168.46" cy="236.19" rx="2.66" ry="3.42" transform="translate(-117.7 188.48) rotate(-45.04)"/>
        <ellipse class="cls-3" cx="168.27" cy="235.28" rx="2.66" ry="3.42" transform="translate(-117.12 188.08) rotate(-45.04)"/>
        <ellipse class="cls-3" cx="168.06" cy="234.38" rx="2.66" ry="3.42" transform="translate(-116.54 187.67) rotate(-45.04)"/>
        <ellipse class="cls-3" cx="167.84" cy="233.48" rx="2.66" ry="3.42" transform="translate(-115.97 187.25) rotate(-45.04)"/>
        <ellipse class="cls-3" cx="167.6" cy="232.58" rx="2.66" ry="3.42" transform="translate(-115.4 186.82) rotate(-45.04)"/>
        <ellipse class="cls-3" cx="167.35" cy="231.68" rx="2.66" ry="3.42" transform="translate(-114.83 186.38) rotate(-45.04)"/>
        <ellipse class="cls-3" cx="167.09" cy="230.78" rx="2.66" ry="3.42" transform="translate(-114.27 185.93) rotate(-45.04)"/>
        <ellipse class="cls-3" cx="166.81" cy="229.88" rx="2.66" ry="3.42" transform="translate(-113.72 185.46) rotate(-45.04)"/>
        <ellipse class="cls-3" cx="166.51" cy="228.98" rx="2.66" ry="3.42" transform="translate(-113.17 184.99) rotate(-45.04)"/>
        <ellipse class="cls-3" cx="166.21" cy="228.08" rx="2.66" ry="3.42" transform="translate(-112.62 184.51) rotate(-45.04)"/>
        <ellipse class="cls-3" cx="165.88" cy="227.18" rx="2.66" ry="3.42" transform="translate(-112.08 184.02) rotate(-45.04)"/>
        <ellipse class="cls-3" cx="165.55" cy="226.29" rx="2.66" ry="3.42" transform="translate(-111.55 183.52) rotate(-45.04)"/>
        <ellipse class="cls-3" cx="165.2" cy="225.39" rx="2.66" ry="3.42" transform="translate(-111.02 183.01) rotate(-45.04)"/>
        <ellipse class="cls-3" cx="164.83" cy="224.5" rx="2.66" ry="3.42" transform="translate(-110.49 182.49) rotate(-45.04)"/>
      </g>
      <circle class="cls-3" cx="74.3" cy="14.8" r="2.4"/>
      <path class="cls-5" d="M81.28,276.54c-16.49-29.36-14.7-74.77,2.68-92.6-2.25,1.01-5.08,5.7-7.03,7.39-18.53,16.02-22.02,59.5-6.61,89.95,12.98,25.66,54.06,42.08,73.06,27.01,1.61-1.27,3.15-2.61,4.58-4.08-21.17,9.56-50.54,1.06-66.68-27.67Z"/>
      <g>
        <circle class="cls-3" cx="68.17" cy="41.46" r="2.4"/>
        <circle class="cls-3" cx="68.98" cy="40.59" r="2.4"/>
        <circle class="cls-3" cx="69.73" cy="39.71" r="2.4"/>
        <circle class="cls-3" cx="70.43" cy="38.83" r="2.4"/>
        <circle class="cls-3" cx="71.08" cy="37.95" r="2.4"/>
        <circle class="cls-3" cx="71.69" cy="37.06" r="2.4"/>
        <circle class="cls-3" cx="72.24" cy="36.17" r="2.4"/>
        <circle class="cls-3" cx="72.74" cy="35.27" r="2.4"/>
        <circle class="cls-3" cx="73.2" cy="34.37" r="2.4"/>
        <circle class="cls-3" cx="73.61" cy="33.47" r="2.4"/>
        <circle class="cls-3" cx="73.96" cy="32.56" r="2.4"/>
        <circle class="cls-3" cx="74.28" cy="31.64" r="2.4"/>
        <circle class="cls-3" cx="74.54" cy="30.72" r="2.4"/>
        <circle class="cls-3" cx="74.77" cy="29.8" r="2.4"/>
        <circle class="cls-3" cx="74.94" cy="28.87" r="2.4"/>
        <circle class="cls-3" cx="75.07" cy="27.94" r="2.4"/>
        <circle class="cls-3" cx="75.16" cy="27.01" r="2.4"/>
        <circle class="cls-3" cx="75.21" cy="26.07" r="2.4"/>
        <circle class="cls-3" cx="75.21" cy="25.13" r="2.4"/>
        <circle class="cls-3" cx="75.17" cy="24.18" r="2.4"/>
        <circle class="cls-3" cx="75.08" cy="23.23" r="2.4"/>
      </g>
      <circle class="cls-3" cx="26.93" cy="222.09" r="2.4"/>
      <circle class="cls-3" cx="221.48" cy="222.09" r="2.4"/>
      <g>
        <circle class="cls-3" cx="27.85" cy="240.26" r="1.63"/>
        <circle class="cls-3" cx="28.39" cy="238.87" r="1.63"/>
        <circle class="cls-3" cx="28.84" cy="237.66" r="1.63"/>
        <circle class="cls-3" cx="29.2" cy="236.6" r="1.63"/>
        <circle class="cls-3" cx="29.49" cy="235.67" r="1.63"/>
        <circle class="cls-3" cx="29.71" cy="234.83" r="1.63"/>
        <circle class="cls-3" cx="29.86" cy="234.06" r="1.63"/>
        <circle class="cls-3" cx="29.95" cy="233.33" r="1.63"/>
        <circle class="cls-3" cx="29.98" cy="232.61" r="1.63"/>
        <circle class="cls-3" cx="29.95" cy="231.89" r="1.63"/>
        <circle class="cls-3" cx="29.87" cy="231.11" r="1.63"/>
        <circle class="cls-3" cx="29.74" cy="230.28" r="1.63"/>
        <circle class="cls-3" cx="29.58" cy="229.34" r="1.63"/>
        <circle class="cls-3" cx="29.37" cy="228.28" r="1.63"/>
        <circle class="cls-3" cx="29.13" cy="227.07" r="1.63"/>
      </g>
      <g>
        <circle class="cls-3" cx="223.11" cy="241.53" r="1.63"/>
        <circle class="cls-3" cx="223.65" cy="240.15" r="1.63"/>
        <circle class="cls-3" cx="224.09" cy="238.94" r="1.63"/>
        <circle class="cls-3" cx="224.46" cy="237.88" r="1.63"/>
        <circle class="cls-3" cx="224.75" cy="236.94" r="1.63"/>
        <circle class="cls-3" cx="224.97" cy="236.1" r="1.63"/>
        <circle class="cls-3" cx="225.12" cy="235.33" r="1.63"/>
        <circle class="cls-3" cx="225.21" cy="234.6" r="1.63"/>
        <circle class="cls-3" cx="225.24" cy="233.89" r="1.63"/>
        <circle class="cls-3" cx="225.21" cy="233.16" r="1.63"/>
        <circle class="cls-3" cx="225.13" cy="232.39" r="1.63"/>
        <circle class="cls-3" cx="225" cy="231.55" r="1.63"/>
        <circle class="cls-3" cx="224.84" cy="230.62" r="1.63"/>
        <circle class="cls-3" cx="224.63" cy="229.56" r="1.63"/>
        <circle class="cls-3" cx="224.39" cy="228.35" r="1.63"/>
      </g>
    </g>
    <g>
      <path class="cls-2" d="M36.19,56.93c.39,.28,.78,.54,1.18,.79,0,.02-.02,.04-.02,.06,8.43-2.04,16.33-4.57,22.08-7.65,17.68,.04,39.18-10.71,61.47-10.71s37.51,11.92,61.36,12.87c4.37,2.4,9,4.38,13.7,6.01-.05-.12-.1-.25-.15-.37,.63-.36,1.24-.76,1.83-1.19,7.54-5.6,9.98-15.99,7.26-26.55-.06-.24-.13-.47-.19-.71-.05-.17-.09-.34-.14-.5-1.3-4.5-3.53-9.01-6.71-13.19-11.01-14.48-32.95-20.24-44.32-11.99-4.25,3.08-6.94,7.58-8.08,12.77-1.04-.22-2.08-.43-3.13-.6-5.23-1.41-8.89-1.74-15.47-1.74h-21.25c-5.66,0-11.17,.62-16.47,1.8-1.29-4.25-3.7-7.93-7.23-10.56-3.4-2.52-7.43-3.77-11.68-3.87-11.09-3.5-25.43,2-34.7,14.2-11.01,14.48-10.71,32.9,.66,41.15Z"/>
      <path class="cls-2" d="M227.79,185.71c-.11-.99-.5-2.36-1.1-4-1.95-8.86-17.69-36.62-25.07-41.61v-53.97c0-4.13-.37-8.16-1.05-12.1-14.06,2.04-30.59,3.76-48.84,4.42-9.64,.35-19.71-4.88-30.08-4.88s-20.32,5.23-29.95,4.88c-22.18-.79-42.52-3.13-59.17-5.72-.94,4.6-1.45,9.36-1.45,14.23v55.8c-7.54,5.46-20.47,19.24-25.51,41.42L.11,214.95c0,6.73-1.25,39.13,14.21,40.09-.2,22.28-1.2,97.79,37.48,97.79h7.5c12.11,0,23.54-1.31,27-11.7,2.97-2.81,4.72-7.13,4.72-13.75v-5.43c4.69,.63,8.8,1.65,14.36,1.65h21.25c7.27,0,9.93-.73,16.58-1.21v12.29c0,17.16,16.37,18.15,30.89,18.15h7.5c37.84,0,37.7-72.29,37.49-96.27,15.44-.98,14.19-33.37,14.19-40.09l-5.48-30.75Z"/>
    </g>
    <g>
      <path d="M159.46,5.45c10.87-8.07,28.2-3.13,38.72,11.03,2.94,3.96,5.03,8.22,6.29,12.48-1.3-4.5-3.53-9.01-6.71-13.19-11.01-14.48-32.95-20.24-44.32-11.99-4.25,3.08-6.94,7.58-8.08,12.77,2.14,.46,4.25,1.01,6.31,1.66,1.06-5.19,3.66-9.7,7.79-12.77Z"/>
      <path d="M58.65,346.2c-36.95,0-35.99-73.86-35.8-95.66-14.76-.94-13.57-32.64-13.57-39.22l5.23-30.08c4.81-21.7,17.17-35.18,24.37-40.52v-54.59c0-10.18,2.14-19.86,6-28.62-.38-.24-.76-.5-1.13-.77-10.87-8.07-11.15-26.09-.63-40.25C50.33,6.75,60.78,1.37,70.14,1.58c-11.09-3.5-25.43,2-34.7,14.2-11.01,14.48-10.71,32.9,.66,41.15,.39,.28,.78,.54,1.18,.79-4.04,8.95-6.28,18.85-6.28,29.26v55.8c-7.54,5.46-20.47,19.24-25.51,41.42L.02,214.95c0,6.73-1.25,39.13,14.21,40.09-.2,22.28-1.2,97.79,37.48,97.79h7.5c12.11,0,23.54-1.31,27-11.7-4.56,4.32-11.99,5.07-20.4,5.07h-7.16Z"/>
      <path d="M110.05,14.94h20.3c4.05,0,8.02,.35,11.88,1.01-5.23-1.41-8.89-1.74-15.47-1.74h-21.25c-5.66,0-11.17,.62-16.47,1.8,.19,.64,.36,1.29,.51,1.95,6.49-1.95,13.37-3.01,20.49-3.01Z"/>
      <path d="M233.18,216.46l-5.48-30.75c-.11-.99-.5-2.36-1.1-4,.08,.37,.15,.71,.18,1.01l5.23,30.08c0,6.58,1.19,38.26-13.56,39.22,.2,23.46,.33,94.18-35.82,94.18h-7.16c-13.87,0-25.12-2.03-25.12-18.82v-12.02c-6.35,.46-13.28,2.25-20.23,2.25h-20.3c-6.63,0-12.82-1.77-18.9-2.19v6.52c4.69,.63,8.8,1.65,14.36,1.65h21.25c7.27,0,9.93-.73,16.58-1.21v12.29c0,17.16,16.37,18.15,30.89,18.15h7.5c37.84,0,37.7-72.29,37.49-96.27,15.44-.98,14.19-33.37,14.19-40.09Z"/>
      <path d="M204.61,29.47c.07,.24,.13,.47,.19,.71-.06-.24-.13-.47-.19-.71Z"/>
      <path d="M194.14,49.38c-4.01,2.98-9.21,3.57-14.39,2.11,5.22,1.5,10.48,.93,14.53-2.08,.61-.46,1.17-.97,1.69-1.5-.09,.04-.18,.07-.27,.11-.48,.48-1,.94-1.56,1.36Z"/>
      <path d="M169.67,38.29c-7.22-9.72-7.57-21.87-1.22-28.4-.85,.4-1.68,.86-2.46,1.43-8.07,5.99-8.28,19.38-.47,29.9,3.89,5.24,9.04,8.78,14.23,10.27,5.18,1.45,10.38,.86,14.39-2.11,.56-.42,1.07-.88,1.56-1.36-8.03,3.56-19.05-.33-26.03-9.74Z"/>
      <path d="M53.92,51.21c-2.44-.34-4.73-1.23-6.73-2.71-8.07-5.99-8.28-19.38-.47-29.9,2.13-2.87,4.65-5.21,7.33-7,.09-.09,.18-.18,.27-.26-2.84,1.82-5.5,4.25-7.73,7.27-7.81,10.52-7.6,23.91,.47,29.9,2.03,1.51,4.38,2.39,6.86,2.72Z"/>
      <path d="M55.43,51.33c-.47-.02-.94-.05-1.41-.11,.46,.06,.93,.09,1.41,.11Z"/>
      <path d="M46.71,18.59c-7.81,10.52-7.6,23.91,.47,29.9,2,1.48,4.29,2.37,6.73,2.71,.04,0,.07,.01,.11,.02,.46,.06,.93,.09,1.41,.11,5.55,.22,11.64-2.23,16.64-6.88-7.07,4.54-15.26,5.21-21.02,.93-8.07-5.99-8.28-19.38-.47-29.9,1.07-1.44,2.24-2.72,3.47-3.89-2.69,1.79-5.2,4.13-7.33,7Z"/>
      <path d="M95.17,107.88c2.74,3.1,6.42,5.79,10.78,7.65,5.3,2.27,13.01,2.66,20.39,1.54-1.85,.25-3.75,.38-5.7,.38-10.58,0-19.92-3.79-25.47-9.57Z"/>
      <path d="M133.52,115.45c5.52-1.7,10.22-4.3,12.68-7.65-3.15,3.31-7.53,5.97-12.68,7.65Z"/>
      <path d="M90.86,89.72c-.72,1.78-1.06,3.63-1.05,5.5,.04-2.07,.48-4.07,1.27-5.96-.07,.16-.16,.3-.22,.46Z"/>
      <path d="M148.44,105.08c-.16,.24-.35,.48-.55,.71-.1,.13-.2,.26-.3,.39,.39-.35,.76-.72,.85-1.1Z"/>
      <path d="M107.98,110.88c-11.21-4.57-17.81-14.78-15.76-23.65-.43,.64-.81,1.32-1.14,2.04-.79,1.89-1.23,3.89-1.27,5.96,.03,4.37,1.98,8.84,5.36,12.66,5.55,5.78,14.89,9.57,25.47,9.57,1.95,0,3.85-.13,5.7-.38,2.46-.38,4.89-.92,7.17-1.62,5.15-1.69,9.53-4.34,12.68-7.65,.16-.22,.32-.44,.47-.67,.19-.31,.57-.63,.93-.95,.1-.13,.2-.26,.3-.39-5.98,6.86-29.31,9.41-39.92,5.08Z"/>
      <path d="M143.13,308.29c1.2-.95,2.35-1.96,3.47-3.02-7.83,4.33-16.63,6.67-25.96,6.67-32.39,0-58.66-28.14-58.66-70.53,0-20.81,6.18-38.02,16.3-50.17,1.6-2.76,3.41-5.23,5.43-7.31-2.25,1.01-5.08,5.7-7.03,7.39-18.53,16.02-22.02,59.5-6.61,89.95,12.98,25.66,54.06,42.08,73.06,27.01Z"/>
      <path d="M120.64,311.94c9.32,0,18.13-2.34,25.96-6.67,.37-.35,.76-.69,1.12-1.06-21.17,9.56-50.54,1.06-66.68-27.67-14.57-25.94-14.86-64.38-2.75-85.29-10.12,12.15-16.3,29.36-16.3,50.17,0,42.39,26.26,70.53,58.66,70.53Z"/>
    </g>
  </g>
</svg>