<?xml version="1.0" encoding="UTF-8"?>
<svg xmlns="http://www.w3.org/2000/svg" viewBox="0 0 233.21 352.83">
  <defs>
    <style>
      .cls-1 {
        fill: #dbdbdb;
      }

      .cls-2 {
        isolation: isolate;
      }

      .cls-3 {
        fill: #f68e56;
      }

      .cls-4 {
        fill: #f7ca9a;
      }

      .cls-5 {
        mix-blend-mode: multiply;
      }

      .cls-5, .cls-6 {
        fill: #f47f45;
      }

      .cls-7 {
        fill: #fff1e1;
      }

      .cls-8 {
        fill: #efefef;
      }

      .cls-9 {
        fill: #662400;
      }
    </style>
  </defs>
  <g class="cls-2">
    <g id="Calque_2" data-name="Calque 2">
      <g id="Calque_1-2" data-name="Calque 1">
        <g id="Calque_3" data-name="Calque 3">
          <path class="cls-1" d="m43.68,55.81l9.62,9.8s-17.99,18.12-19.02,24.85c-1.03,6.73-8.46,22.54-8.46,22.54l-12.13-5.8s8.5-14.77,8.24-20.81c-.26-6.05,7.07-19.94,9.01-22.1,1.94-2.15,12.75-8.48,12.75-8.48Z"/>
          <path class="cls-1" d="m191.22,53.28l-10.39,8.98s16.45,19.53,16.92,26.33c.47,6.79,6.59,23.16,6.59,23.16l12.57-4.79s-7.26-15.41-6.5-21.42c.75-6.01-5.41-20.46-7.17-22.76s-12.01-9.5-12.01-9.5Z"/>
          <path class="cls-9" d="m218.98,256.56c.21,23.98.35,96.27-37.49,96.27h-7.5c-14.52,0-30.88-.99-30.88-18.15v-12.28c-6.65.47-9.31,1.2-16.58,1.2h-21.25c-5.57,0-9.67-1.03-14.36-1.66-1.15-.15-2.35-.28-3.61-.37l-.04,12.23c0,2.84-.37,5.26-1.06,7.32h0c-3.46,10.41-14.9,11.71-27.01,11.71h-7.5c-38.67,0-37.67-75.5-37.47-97.79C-1.23,254.08.02,221.68.02,214.95v-.06s3.19-17.88,3.19-17.88l2.28-12.81c5.04-22.18,17.97-35.96,25.51-41.42v-55.8c0-9.59,1.91-18.75,5.36-27.12.21-.52.43-1.04.66-1.55.07-.17.14-.33.22-.5.01-.03.03-.06.04-.09-.09-.06-.18-.11-.27-.17-.31-.2-.61-.4-.91-.62-.13-.09-.25-.19-.38-.3-8.81-6.7-10.67-19.71-5.45-31.98,1.28-3.04,3.01-6.03,5.17-8.87C44.71,3.59,59.04-1.91,70.12,1.58h.01c2.08.65,4.04,1.62,5.83,2.92,4.25,3.09,6.96,7.59,8.1,12.79,1.34-.39,2.7-.75,4.07-1.07.3-.07.61-.14.91-.21,5.29-1.18,10.81-1.8,16.47-1.8h21.25c6.55,0,10.21.33,15.4,1.73.02,0,.03,0,.05.01.96.25,1.98.55,3.08.89.02-.1.04-.19.07-.29.04-.18.08-.35.12-.52,1.2-4.96,3.85-9.26,7.96-12.24,11.37-8.25,33.31-2.48,44.32,11.99,1.94,2.55,3.53,5.22,4.76,7.94.77,1.67,1.4,3.36,1.89,5.05.24.8.45,1.61.63,2.42.11.48.2.95.29,1.42,1.49,8.42-.34,16.47-5.48,21.86-.33.36-.69.71-1.06,1.05-.45.43-.93.82-1.42,1.19-.09.08-.19.15-.28.22-.61.45-1.26.85-1.91,1.22l.06.15h.01c.42.95.81,1.91,1.19,2.88,3.11,8.02,4.83,16.71,4.83,25.8v55.16c7.02,4.64,21.27,28.49,25.34,39.61.01.01.01.02.01.03.59,1.62.97,2.96,1.08,3.93l1.95,10.92,3.53,19.84c0,.41,0,.92.01,1.51.08,9.06.28,37.66-14.21,38.58Z"/>
          <path class="cls-6" d="m218.45,252.02c.2,23.47.33,94.18-35.82,94.18h-7.16c-13.87,0-25.12-2.03-25.12-18.82v-12.02c-6.35.47-13.28,2.25-20.23,2.25h-20.29c-6.63,0-12.82-1.77-18.91-2.18v11.95c0,6.61-1.74,10.93-4.71,13.74h0c-4.55,4.33-12,5.08-20.41,5.08h-7.16c-36.94,0-35.99-73.86-35.8-95.66-14.77-.94-13.58-32.64-13.58-39.22l5.24-30.08c4.81-21.7,17.16-35.18,24.36-40.52v-54.59c0-9.19,1.75-17.97,4.94-26.04.2-.52.41-1.04.63-1.56.12-.29.24-.58.37-.87.02-.05.04-.1.06-.15-.38-.24-.76-.5-1.13-.77-.04-.03-.08-.06-.11-.09h-.01c-1.26-.95-2.37-2.03-3.32-3.23-5.73-7.06-6.44-18.02-2.06-28.43,1.22-2.91,2.84-5.78,4.87-8.51C50.33,6.75,60.77,1.37,70.12,1.58h.01c4.26.09,8.28,1.34,11.68,3.87,3.51,2.61,5.91,6.24,7.2,10.45.01.04.02.07.03.11.2.64.37,1.29.51,1.95,6.49-1.96,13.37-3.01,20.5-3.01h20.29c4.03,0,7.98.34,11.82.99.02,0,.03,0,.05.01,1.06.17,2.11.37,3.15.6,2.06.44,4.09.98,6.09,1.6.07.02.15.05.22.07,1.06-5.19,3.66-9.7,7.79-12.77,10.86-8.07,28.2-3.13,38.71,11.03,1.73,2.33,3.17,4.76,4.31,7.24.78,1.67,1.42,3.36,1.93,5.05.24.8.45,1.61.63,2.42.11.48.2.95.29,1.42,1.54,8.42-.22,16.5-5.27,21.86-.37.41-.77.8-1.19,1.17-.41.38-.84.73-1.29,1.07-.01,0-.03.02-.04.03-.59.44-1.21.83-1.83,1.19.05.11.1.23.14.34.41.96.8,1.92,1.16,2.9,2.92,7.77,4.52,16.17,4.52,24.96v53.97c7.39,4.99,23.16,32.82,25.08,41.65.01.01.01.02.01.03.08.34.13.66.16.94l5.23,30.08c0,6.58,1.19,38.26-13.56,39.22Z"/>
          <ellipse class="cls-4" cx="179.99" cy="30.33" rx="18.2" ry="23.72" transform="translate(17.4 113.28) rotate(-36.59)"/>
          <path class="cls-9" d="m169.67,38.29c-7.22-9.72-7.57-21.87-1.22-28.4-.85.4-1.68.86-2.46,1.43-8.07,5.99-8.28,19.38-.47,29.9,7.81,10.52,20.69,14.19,28.76,8.2.61-.46,1.17-.97,1.69-1.5-8.05,3.77-19.24-.12-26.3-9.63Z"/>
          <ellipse class="cls-4" cx="120.64" cy="95.52" rx="30.84" ry="21.94"/>
          <ellipse class="cls-3" cx="120.64" cy="86.88" rx="15.33" ry="10.9"/>
          <ellipse class="cls-4" cx="176.83" cy="336.43" rx="19.76" ry="7.9"/>
          <ellipse class="cls-4" cx="65.72" cy="336.43" rx="19.76" ry="7.9"/>
          <ellipse class="cls-4" cx="218.7" cy="232.03" rx="9.67" ry="14.77"/>
          <ellipse class="cls-4" cx="23.81" cy="232.03" rx="9.67" ry="14.77"/>
          <circle class="cls-4" cx="149.83" cy="61.21" r="14.77"/>
          <circle class="cls-3" cx="149.83" cy="61.21" r="7.39"/>
          <ellipse class="cls-4" cx="61.33" cy="29.44" rx="23.72" ry="18.2" transform="translate(1.13 61.13) rotate(-53.41)"/>
          <path class="cls-9" d="m51.05,45.38c-8.07-5.99-8.28-19.38-.47-29.9,1.14-1.54,2.41-2.92,3.74-4.16-2.84,1.82-5.5,4.25-7.73,7.27-7.81,10.52-7.6,23.91.47,29.9,6.89,5.11,17.27,3.17,25.02-4.04-7.07,4.54-15.26,5.21-21.02.93Z"/>
          <circle class="cls-7" cx="158.79" cy="54.56" r="3.43"/>
          <g>
            <circle class="cls-4" cx="91.46" cy="61.21" r="14.77"/>
            <circle class="cls-3" cx="91.46" cy="61.21" r="7.39"/>
            <circle class="cls-7" cx="100.42" cy="54.56" r="3.43"/>
          </g>
          <path class="cls-9" d="m107.97,110.88c-11.21-4.57-17.81-14.78-15.76-23.65-.52.78-1,1.61-1.36,2.5-3.8,9.31,3.05,20.66,15.09,25.81,11.61,4.97,34.82.98,40.72-8.41.41-.65,1.61-1.32,1.78-2.05-4.93,7.39-29.5,10.27-40.47,5.8Z"/>
          <circle class="cls-7" cx="127.55" cy="83.8" r="3.43"/>
          <circle class="cls-7" cx="181.37" cy="13.84" r="2.4"/>
          <g>
            <circle class="cls-7" cx="195.89" cy="37.02" r="2.4"/>
            <circle class="cls-7" cx="195.84" cy="35.83" r="2.4"/>
            <circle class="cls-7" cx="195.76" cy="34.68" r="2.4"/>
            <circle class="cls-7" cx="195.63" cy="33.56" r="2.4"/>
            <circle class="cls-7" cx="195.47" cy="32.48" r="2.4"/>
            <circle class="cls-7" cx="195.27" cy="31.43" r="2.4"/>
            <circle class="cls-7" cx="195.03" cy="30.4" r="2.4"/>
            <circle class="cls-7" cx="194.75" cy="29.41" r="2.4"/>
            <circle class="cls-7" cx="194.43" cy="28.45" r="2.4"/>
            <circle class="cls-7" cx="194.08" cy="27.53" r="2.4"/>
            <circle class="cls-7" cx="193.69" cy="26.63" r="2.4"/>
            <circle class="cls-7" cx="193.27" cy="25.76" r="2.4"/>
            <circle class="cls-7" cx="192.81" cy="24.92" r="2.4"/>
            <circle class="cls-7" cx="192.31" cy="24.11" r="2.4"/>
            <circle class="cls-7" cx="191.78" cy="23.33" r="2.4"/>
            <circle class="cls-7" cx="191.21" cy="22.58" r="2.4"/>
            <circle class="cls-7" cx="190.61" cy="21.86" r="2.4"/>
            <circle class="cls-7" cx="189.98" cy="21.16" r="2.4"/>
            <circle class="cls-7" cx="189.32" cy="20.5" r="2.4"/>
            <circle class="cls-7" cx="188.62" cy="19.86" r="2.4"/>
            <circle class="cls-7" cx="187.89" cy="19.24" r="2.4"/>
          </g>
          <g>
            <path class="cls-4" d="m120,171.5c-32.39,0-58.02,27.53-58.02,69.92,0,42.39,26.26,70.53,58.66,70.53,32.39,0,58.66-28.14,58.66-70.53s-26.9-69.92-59.3-69.92Zm33.29,37.92c-3.27-2.77-3.69-7.67-.94-10.96,2.76-3.29,7.64-3.71,10.91-.94,3.27,2.77,3.69,7.67.94,10.96-2.76,3.29-7.64,3.71-10.91.94Z"/>
            <ellipse class="cls-7" cx="158.28" cy="203.47" rx="7.75" ry="7.78"/>
          </g>
          <g>
            <ellipse class="cls-7" cx="149.91" cy="293.55" rx="2.66" ry="3.42" transform="translate(-163.73 192.19) rotate(-45.04)"/>
            <ellipse class="cls-7" cx="150.71" cy="292.6" rx="2.66" ry="3.42" transform="translate(-162.83 192.47) rotate(-45.04)"/>
            <ellipse class="cls-7" cx="151.48" cy="291.66" rx="2.66" ry="3.42" transform="translate(-161.93 192.74) rotate(-45.04)"/>
            <ellipse class="cls-7" cx="152.24" cy="290.72" rx="2.66" ry="3.42" transform="translate(-161.04 193) rotate(-45.04)"/>
            <ellipse class="cls-7" cx="152.98" cy="289.78" rx="2.66" ry="3.42" transform="translate(-160.16 193.25) rotate(-45.04)"/>
            <ellipse class="cls-7" cx="153.7" cy="288.84" rx="2.66" ry="3.42" transform="translate(-159.28 193.49) rotate(-45.04)"/>
            <ellipse class="cls-7" cx="154.41" cy="287.9" rx="2.66" ry="3.42" transform="translate(-158.41 193.71) rotate(-45.04)"/>
            <ellipse class="cls-7" cx="155.1" cy="286.96" rx="2.66" ry="3.42" transform="translate(-157.54 193.93) rotate(-45.04)"/>
            <ellipse class="cls-7" cx="155.77" cy="286.02" rx="2.66" ry="3.42" transform="translate(-156.68 194.13) rotate(-45.04)"/>
            <ellipse class="cls-7" cx="156.43" cy="285.08" rx="2.66" ry="3.42" transform="translate(-155.82 194.32) rotate(-45.04)"/>
            <ellipse class="cls-7" cx="157.07" cy="284.14" rx="2.66" ry="3.42" transform="translate(-154.97 194.49) rotate(-45.04)"/>
            <ellipse class="cls-7" cx="157.69" cy="283.2" rx="2.66" ry="3.42" transform="translate(-154.12 194.66) rotate(-45.04)"/>
            <ellipse class="cls-7" cx="158.3" cy="282.26" rx="2.66" ry="3.42" transform="translate(-153.28 194.81) rotate(-45.04)"/>
            <ellipse class="cls-7" cx="158.89" cy="281.33" rx="2.66" ry="3.42" transform="translate(-152.45 194.95) rotate(-45.04)"/>
            <ellipse class="cls-7" cx="159.46" cy="280.39" rx="2.66" ry="3.42" transform="translate(-151.62 195.09) rotate(-45.04)"/>
            <ellipse class="cls-7" cx="160.02" cy="279.46" rx="2.66" ry="3.42" transform="translate(-150.79 195.2) rotate(-45.04)"/>
            <ellipse class="cls-7" cx="160.56" cy="278.52" rx="2.66" ry="3.42" transform="translate(-149.97 195.31) rotate(-45.04)"/>
            <ellipse class="cls-7" cx="161.08" cy="277.59" rx="2.66" ry="3.42" transform="translate(-149.16 195.41) rotate(-45.04)"/>
            <ellipse class="cls-7" cx="161.59" cy="276.65" rx="2.66" ry="3.42" transform="translate(-148.35 195.49) rotate(-45.04)"/>
            <ellipse class="cls-7" cx="162.08" cy="275.72" rx="2.66" ry="3.42" transform="translate(-147.54 195.57) rotate(-45.04)"/>
            <ellipse class="cls-7" cx="162.55" cy="274.79" rx="2.66" ry="3.42" transform="translate(-146.74 195.63) rotate(-45.04)"/>
            <ellipse class="cls-7" cx="163.01" cy="273.85" rx="2.66" ry="3.42" transform="translate(-145.95 195.68) rotate(-45.04)"/>
            <ellipse class="cls-7" cx="163.45" cy="272.92" rx="2.66" ry="3.42" transform="translate(-145.16 195.72) rotate(-45.04)"/>
            <ellipse class="cls-7" cx="163.88" cy="271.99" rx="2.66" ry="3.42" transform="translate(-144.38 195.75) rotate(-45.04)"/>
            <ellipse class="cls-7" cx="164.29" cy="271.06" rx="2.66" ry="3.42" transform="translate(-143.6 195.76) rotate(-45.04)"/>
            <ellipse class="cls-7" cx="164.68" cy="270.13" rx="2.66" ry="3.42" transform="translate(-142.83 195.77) rotate(-45.04)"/>
            <ellipse class="cls-7" cx="165.06" cy="269.2" rx="2.66" ry="3.42" transform="translate(-142.06 195.76) rotate(-45.04)"/>
            <ellipse class="cls-7" cx="165.42" cy="268.27" rx="2.66" ry="3.42" transform="translate(-141.3 195.74) rotate(-45.04)"/>
            <ellipse class="cls-7" cx="165.76" cy="267.35" rx="2.66" ry="3.42" transform="translate(-140.54 195.72) rotate(-45.04)"/>
            <ellipse class="cls-7" cx="166.09" cy="266.42" rx="2.66" ry="3.42" transform="translate(-139.79 195.68) rotate(-45.04)"/>
            <ellipse class="cls-7" cx="166.4" cy="265.49" rx="2.66" ry="3.42" transform="translate(-139.04 195.63) rotate(-45.04)"/>
            <ellipse class="cls-7" cx="166.7" cy="264.57" rx="2.66" ry="3.42" transform="translate(-138.3 195.56) rotate(-45.04)"/>
            <ellipse class="cls-7" cx="166.98" cy="263.64" rx="2.66" ry="3.42" transform="translate(-137.56 195.49) rotate(-45.04)"/>
            <ellipse class="cls-7" cx="167.25" cy="262.72" rx="2.66" ry="3.42" transform="translate(-136.83 195.41) rotate(-45.04)"/>
            <ellipse class="cls-7" cx="167.49" cy="261.79" rx="2.66" ry="3.42" transform="translate(-136.1 195.31) rotate(-45.04)"/>
            <ellipse class="cls-7" cx="167.73" cy="260.87" rx="2.66" ry="3.42" transform="translate(-135.38 195.21) rotate(-45.04)"/>
            <ellipse class="cls-7" cx="167.94" cy="259.95" rx="2.66" ry="3.42" transform="translate(-134.66 195.09) rotate(-45.04)"/>
            <ellipse class="cls-7" cx="168.15" cy="259.02" rx="2.66" ry="3.42" transform="translate(-133.95 194.96) rotate(-45.04)"/>
            <ellipse class="cls-7" cx="168.33" cy="258.1" rx="2.66" ry="3.42" transform="translate(-133.24 194.82) rotate(-45.04)"/>
            <ellipse class="cls-7" cx="168.5" cy="257.18" rx="2.66" ry="3.42" transform="translate(-132.54 194.67) rotate(-45.04)"/>
            <ellipse class="cls-7" cx="168.66" cy="256.26" rx="2.66" ry="3.42" transform="translate(-131.84 194.51) rotate(-45.04)"/>
            <ellipse class="cls-7" cx="168.8" cy="255.34" rx="2.66" ry="3.42" transform="translate(-131.15 194.34) rotate(-45.04)"/>
            <ellipse class="cls-7" cx="168.92" cy="254.42" rx="2.66" ry="3.42" transform="translate(-130.47 194.16) rotate(-45.04)"/>
            <ellipse class="cls-7" cx="169.03" cy="253.5" rx="2.66" ry="3.42" transform="translate(-129.78 193.97) rotate(-45.04)"/>
            <ellipse class="cls-7" cx="169.12" cy="252.59" rx="2.66" ry="3.42" transform="translate(-129.11 193.76) rotate(-45.04)"/>
            <ellipse class="cls-7" cx="169.2" cy="251.67" rx="2.66" ry="3.42" transform="translate(-128.44 193.55) rotate(-45.04)"/>
            <ellipse class="cls-7" cx="169.26" cy="250.75" rx="2.66" ry="3.42" transform="translate(-127.77 193.33) rotate(-45.04)"/>
            <ellipse class="cls-7" cx="169.31" cy="249.84" rx="2.66" ry="3.42" transform="translate(-127.11 193.09) rotate(-45.04)"/>
            <ellipse class="cls-7" cx="169.34" cy="248.92" rx="2.66" ry="3.42" transform="translate(-126.45 192.84) rotate(-45.04)"/>
            <ellipse class="cls-7" cx="169.36" cy="248.01" rx="2.66" ry="3.42" transform="translate(-125.8 192.59) rotate(-45.04)"/>
            <ellipse class="cls-7" cx="169.36" cy="247.09" rx="2.66" ry="3.42" transform="translate(-125.15 192.32) rotate(-45.04)"/>
            <ellipse class="cls-7" cx="169.35" cy="246.18" rx="2.66" ry="3.42" transform="translate(-124.51 192.04) rotate(-45.04)"/>
            <ellipse class="cls-7" cx="169.32" cy="245.27" rx="2.66" ry="3.42" transform="translate(-123.87 191.76) rotate(-45.04)"/>
            <ellipse class="cls-7" cx="169.27" cy="244.36" rx="2.66" ry="3.42" transform="translate(-123.24 191.46) rotate(-45.04)"/>
            <ellipse class="cls-7" cx="169.22" cy="243.45" rx="2.66" ry="3.42" transform="translate(-122.61 191.15) rotate(-45.04)"/>
            <ellipse class="cls-7" cx="169.14" cy="242.54" rx="2.66" ry="3.42" transform="translate(-121.99 190.83) rotate(-45.04)"/>
            <ellipse class="cls-7" cx="169.05" cy="241.63" rx="2.66" ry="3.42" transform="translate(-121.38 190.5) rotate(-45.04)"/>
            <ellipse class="cls-7" cx="168.95" cy="240.72" rx="2.66" ry="3.42" transform="translate(-120.76 190.16) rotate(-45.04)"/>
            <ellipse class="cls-7" cx="168.83" cy="239.81" rx="2.66" ry="3.42" transform="translate(-120.16 189.81) rotate(-45.04)"/>
            <ellipse class="cls-7" cx="168.7" cy="238.9" rx="2.66" ry="3.42" transform="translate(-119.55 189.45) rotate(-45.04)"/>
            <ellipse class="cls-7" cx="168.55" cy="238" rx="2.66" ry="3.42" transform="translate(-118.96 189.08) rotate(-45.04)"/>
            <ellipse class="cls-7" cx="168.39" cy="237.09" rx="2.66" ry="3.42" transform="translate(-118.36 188.7) rotate(-45.04)"/>
            <ellipse class="cls-7" cx="168.21" cy="236.19" rx="2.66" ry="3.42" transform="translate(-117.77 188.31) rotate(-45.04)"/>
            <ellipse class="cls-7" cx="168.02" cy="235.28" rx="2.66" ry="3.42" transform="translate(-117.19 187.91) rotate(-45.04)"/>
            <ellipse class="cls-7" cx="167.81" cy="234.38" rx="2.66" ry="3.42" transform="translate(-116.61 187.49) rotate(-45.04)"/>
            <ellipse class="cls-7" cx="167.59" cy="233.48" rx="2.66" ry="3.42" transform="translate(-116.04 187.07) rotate(-45.04)"/>
            <ellipse class="cls-7" cx="167.35" cy="232.58" rx="2.66" ry="3.42" transform="translate(-115.47 186.64) rotate(-45.04)"/>
            <ellipse class="cls-7" cx="167.1" cy="231.68" rx="2.66" ry="3.42" transform="translate(-114.91 186.2) rotate(-45.04)"/>
            <ellipse class="cls-7" cx="166.84" cy="230.78" rx="2.66" ry="3.42" transform="translate(-114.35 185.75) rotate(-45.04)"/>
            <ellipse class="cls-7" cx="166.56" cy="229.88" rx="2.66" ry="3.42" transform="translate(-113.79 185.29) rotate(-45.04)"/>
            <ellipse class="cls-7" cx="166.27" cy="228.98" rx="2.66" ry="3.42" transform="translate(-113.24 184.82) rotate(-45.04)"/>
            <ellipse class="cls-7" cx="165.96" cy="228.08" rx="2.66" ry="3.42" transform="translate(-112.7 184.34) rotate(-45.04)"/>
            <ellipse class="cls-7" cx="165.64" cy="227.18" rx="2.66" ry="3.42" transform="translate(-112.16 183.84) rotate(-45.04)"/>
            <ellipse class="cls-7" cx="165.3" cy="226.29" rx="2.66" ry="3.42" transform="translate(-111.62 183.34) rotate(-45.04)"/>
            <ellipse class="cls-7" cx="164.95" cy="225.39" rx="2.66" ry="3.42" transform="translate(-111.09 182.83) rotate(-45.04)"/>
            <ellipse class="cls-7" cx="164.58" cy="224.5" rx="2.66" ry="3.42" transform="translate(-110.57 182.31) rotate(-45.04)"/>
          </g>
          <circle class="cls-7" cx="74.05" cy="14.8" r="2.4"/>
          <path class="cls-9" d="m81.04,276.54c-16.49-29.36-14.7-74.77,2.68-92.6-2.25,1.01-5.08,5.7-7.03,7.39-18.53,16.02-22.02,59.5-6.61,89.95,12.98,25.66,54.06,42.08,73.06,27.01,1.61-1.27,3.15-2.61,4.58-4.08-21.17,9.56-50.54,1.06-66.68-27.67Z"/>
          <g>
            <circle class="cls-7" cx="67.92" cy="41.46" r="2.4"/>
            <circle class="cls-7" cx="68.73" cy="40.59" r="2.4"/>
            <circle class="cls-7" cx="69.48" cy="39.71" r="2.4"/>
            <circle class="cls-7" cx="70.18" cy="38.83" r="2.4"/>
            <circle class="cls-7" cx="70.84" cy="37.95" r="2.4"/>
            <circle class="cls-7" cx="71.44" cy="37.06" r="2.4"/>
            <circle class="cls-7" cx="71.99" cy="36.17" r="2.4"/>
            <circle class="cls-7" cx="72.49" cy="35.27" r="2.4"/>
            <circle class="cls-7" cx="72.95" cy="34.37" r="2.4"/>
            <circle class="cls-7" cx="73.36" cy="33.47" r="2.4"/>
            <circle class="cls-7" cx="73.72" cy="32.56" r="2.4"/>
            <circle class="cls-7" cx="74.03" cy="31.64" r="2.4"/>
            <circle class="cls-7" cx="74.3" cy="30.72" r="2.4"/>
            <circle class="cls-7" cx="74.52" cy="29.8" r="2.4"/>
            <circle class="cls-7" cx="74.69" cy="28.87" r="2.4"/>
            <circle class="cls-7" cx="74.83" cy="27.94" r="2.4"/>
            <circle class="cls-7" cx="74.91" cy="27.01" r="2.4"/>
            <circle class="cls-7" cx="74.96" cy="26.07" r="2.4"/>
            <circle class="cls-7" cx="74.96" cy="25.13" r="2.4"/>
            <circle class="cls-7" cx="74.92" cy="24.18" r="2.4"/>
            <circle class="cls-7" cx="74.84" cy="23.23" r="2.4"/>
          </g>
          <circle class="cls-7" cx="26.68" cy="222.09" r="2.4"/>
          <circle class="cls-7" cx="221.23" cy="222.09" r="2.4"/>
          <g>
            <circle class="cls-7" cx="27.6" cy="240.26" r="1.63"/>
            <circle class="cls-7" cx="28.14" cy="238.87" r="1.63"/>
            <circle class="cls-7" cx="28.59" cy="237.66" r="1.63"/>
            <circle class="cls-7" cx="28.95" cy="236.6" r="1.63"/>
            <circle class="cls-7" cx="29.25" cy="235.67" r="1.63"/>
            <circle class="cls-7" cx="29.46" cy="234.83" r="1.63"/>
            <circle class="cls-7" cx="29.61" cy="234.06" r="1.63"/>
            <circle class="cls-7" cx="29.7" cy="233.33" r="1.63"/>
            <circle class="cls-7" cx="29.73" cy="232.61" r="1.63"/>
            <circle class="cls-7" cx="29.7" cy="231.89" r="1.63"/>
            <circle class="cls-7" cx="29.62" cy="231.12" r="1.63"/>
            <circle class="cls-7" cx="29.5" cy="230.28" r="1.63"/>
            <circle class="cls-7" cx="29.33" cy="229.34" r="1.63"/>
            <circle class="cls-7" cx="29.12" cy="228.28" r="1.63"/>
            <circle class="cls-7" cx="28.88" cy="227.07" r="1.63"/>
          </g>
          <g>
            <circle class="cls-7" cx="222.86" cy="241.53" r="1.63"/>
            <circle class="cls-7" cx="223.4" cy="240.15" r="1.63"/>
            <circle class="cls-7" cx="223.85" cy="238.94" r="1.63"/>
            <circle class="cls-7" cx="224.21" cy="237.88" r="1.63"/>
            <circle class="cls-7" cx="224.51" cy="236.94" r="1.63"/>
            <circle class="cls-7" cx="224.72" cy="236.1" r="1.63"/>
            <circle class="cls-7" cx="224.87" cy="235.33" r="1.63"/>
            <circle class="cls-7" cx="224.96" cy="234.6" r="1.63"/>
            <circle class="cls-7" cx="224.99" cy="233.89" r="1.63"/>
            <circle class="cls-7" cx="224.96" cy="233.16" r="1.63"/>
            <circle class="cls-7" cx="224.88" cy="232.39" r="1.63"/>
            <circle class="cls-7" cx="224.75" cy="231.55" r="1.63"/>
            <circle class="cls-7" cx="224.59" cy="230.62" r="1.63"/>
            <circle class="cls-7" cx="224.38" cy="229.56" r="1.63"/>
            <circle class="cls-7" cx="224.14" cy="228.35" r="1.63"/>
          </g>
          <path class="cls-5" d="m198.87,55.64h-.01c-.41.39-.83.73-1.28,1.07-.01,0-.03.02-.04.03-.59.44-1.21.83-1.83,1.19.05.11.1.23.14.34.41.96.8,1.92,1.16,2.9-.18,0-.37.01-.57.01-16.26.23-82.04.97-152.64-1.09-2.47-.07-4.95-.15-7.44-.23.21-.52.43-1.04.66-1.55.07-.17.14-.33.22-.5l7.56-.15,26.68-.55,20.96-.43,12.42-.26,7.86-.16,4.09-.08,6.55-.14,4.93-.1,9.04-.18,26.2-.54,30.93-.64,3.58-.07c.28.35.52.69.75,1.01.03.04.06.08.08.12Z"/>
          <path class="cls-8" d="m198.87,55.64h-.01c-.41.39-.83.73-1.28,1.07-.01,0-.03.02-.04.03-.59.44-1.21.83-1.83,1.19.05.11.1.23.14.34-.2,0-.4.02-.6.03h-.01c-5.98.35-12.41.62-19.14.83-11.12.36-23.06.55-35.09.62-3.28.02-6.57.03-9.85.04-2.43,0-4.85,0-7.26-.01-2.33,0-4.64,0-6.95-.02-1.99-.01-3.97-.02-5.94-.04-2.76,0-5.49-.04-8.18-.07-5.29-.05-10.43-.11-15.37-.19-7.41-.11-14.35-.24-20.57-.37-9.37-.2-17.13-.41-22.46-.56-3.78-.11-6.35-.19-7.41-.22.07-.17.14-.33.22-.5.01-.03.03-.06.04-.09-.09-.06-.18-.11-.27-.17.91-1.23,2.01-2.62,3.28-4.13,4.19-4.98,10.19-11.27,17.13-17.36,3.22-2.84,6.65-5.64,10.2-8.24,6.63-4.87,13.66-9.07,20.51-11.6.29-.11.59-.22.88-.32.12-.05.25-.09.37-.13.04-.01.09-.03.13-.04,3.18-.91,6.4-1.61,9.63-2.11,5.28-.84,10.55-1.19,15.57-1.21,2.58,0,5.09.06,7.5.2,3.34.18,6.49.48,9.38.84,3.35.43,6.35.93,8.85,1.41.28.05.55.11.82.16,1.42.28,2.83.62,4.22,1.01,2.03.57,4.03,1.28,5.97,2.12l.81.36c1.41.65,2.83,1.34,4.25,2.09,3.62,1.89,7.23,4.08,10.74,6.44,13.61,9.13,25.67,20.73,30.79,27.47.28.35.52.69.75,1.01.03.04.06.08.08.12Z"/>
        </g>
      </g>
    </g>
  </g>
</svg>