<?xml version="1.0" encoding="UTF-8"?>
<svg id="Calque_2" data-name="Calque 2" xmlns="http://www.w3.org/2000/svg" viewBox="0 0 110 101.67">
  <defs>
    <style>
      .cls-1 {
        fill: #332c33;
      }

      .cls-2 {
        fill: none;
        stroke: #191819;
        stroke-linecap: round;
        stroke-miterlimit: 10;
        stroke-width: 10px;
      }
    </style>
  </defs>
  <g id="Calque_3" data-name="Calque 3">
    <path class="cls-1" d="m108.67,49.95c-2.83,27.67-20.1,49.65-50.17,49.65S1.49,77.6,5.74,49.95C10.48,19.08,31.54.3,61.61.3s49.91,21.81,47.06,49.65Z"/>
    <g>
      <path class="cls-2" d="m105,46.67c0,27.64-22.36,50-50,50S5,74.3,5,46.67"/>
      <path class="cls-2" d="m88.33,46.67c0,18.42-14.91,33.33-33.33,33.33s-33.33-14.91-33.33-33.33"/>
      <path class="cls-2" d="m71.67,46.67c0,9.21-7.45,16.67-16.67,16.67s-16.67-7.45-16.67-16.67"/>
      <path class="cls-2" d="m105,46.67c0-23.03-18.64-41.67-41.67-41.67S21.67,23.64,21.67,46.67"/>
      <path class="cls-2" d="m88.33,46.67c0-13.82-11.18-25-25-25s-25,11.18-25,25"/>
      <path class="cls-2" d="m71.67,46.67c0-4.61-3.73-8.33-8.33-8.33s-8.33,3.73-8.33,8.33"/>
    </g>
  </g>
</svg>