<?xml version="1.0" encoding="UTF-8"?>
<svg id="Calque_2" data-name="Calque 2" xmlns="http://www.w3.org/2000/svg" viewBox="0 0 233.2 352.83">
  <defs>
    <style>
      .cls-1 {
        fill: #cff;
      }

      .cls-2 {
        fill: #3faf6c;
      }

      .cls-3 {
        fill: #f7ca9a;
      }

      .cls-4 {
        fill: #7f2a3b;
      }

      .cls-5 {
        fill: #fff1e1;
      }

      .cls-6 {
        fill: #54e28e;
      }

      .cls-7 {
        fill: #f28d4f;
      }

      .cls-8 {
        fill: none;
        stroke: #cff;
        stroke-miterlimit: 10;
      }

      .cls-9 {
        fill: #662400;
      }

      .cls-10 {
        fill: #063;
      }
    </style>
  </defs>
  <g id="Siamese">
    <g id="Bear1">
      <path class="cls-10" d="M233.18,216.46l-5.48-30.75c-.84-7.7-18.38-38.26-26.43-43.57v-55.17c0-10.24-2.18-19.99-6.09-28.83,.66-.37,1.3-.77,1.92-1.22,11.37-8.25,11.67-26.67,.66-41.15S164.82-4.46,153.44,3.79c-4.33,3.14-7.04,7.75-8.15,13.05-7.05-2.16-10.75-2.63-18.53-2.63h-21.25c-7.46,0-14.66,1.08-21.45,3.08-1.14-5.19-3.85-9.7-8.1-12.78-11.37-8.25-29.52-3.2-40.52,11.28-11.01,14.48-10.71,32.9,.66,41.15,.39,.28,.78,.54,1.18,.79-4.04,8.95-6.28,18.85-6.28,29.26v55.8c-7.54,5.46-20.47,19.24-25.51,41.42L.02,214.95c0,6.73-1.25,39.13,14.21,40.09-.2,22.28-1.2,97.79,37.48,97.79h7.5c14.52,0,28.07-1.87,28.07-19.03l.04-12.22c6.37,.42,11.04,2.03,17.97,2.03h21.25c7.27,0,9.93-.73,16.58-1.21v12.29c0,17.16,16.37,18.15,30.89,18.15h7.5c37.84,0,37.7-72.29,37.49-96.27,15.44-.98,14.19-33.37,14.19-40.09Z"/>
      <path class="cls-2" d="M232.01,212.8l-5.23-30.08c-.8-7.53-17.56-37.43-25.25-42.62v-53.97c0-10.02-2.08-19.55-5.82-28.2,.63-.36,1.24-.76,1.83-1.19,10.87-8.07,11.15-26.09,.63-40.25s-27.85-19.1-38.72-11.03c-4.13,3.07-6.73,7.58-7.79,12.77-6.73-2.12-13.89-3.27-21.33-3.27h-20.3c-7.13,0-14,1.06-20.49,3.01-1.09-5.08-3.68-9.49-7.74-12.5-10.87-8.07-28.2-3.13-38.72,11.03-10.52,14.16-10.23,32.18,.63,40.25,.37,.27,.75,.53,1.13,.77-3.86,8.76-6,18.44-6,28.62v54.59c-7.2,5.34-19.56,18.82-24.37,40.52l-5.23,30.08c0,6.58-1.19,38.28,13.57,39.22-.19,21.8-1.14,95.66,35.8,95.66h7.16c13.87,0,25.12-2.03,25.12-18.82v-11.96c6.09,.41,12.28,2.19,18.9,2.19h20.3c6.95,0,13.88-1.78,20.23-2.25v12.02c0,16.79,11.25,18.82,25.12,18.82h7.16c36.15,0,36.02-70.72,35.82-94.18,14.75-.96,13.56-32.64,13.56-39.22Z"/>
      <ellipse class="cls-6" cx="179.99" cy="30.33" rx="18.2" ry="23.72" transform="translate(17.4 113.28) rotate(-36.59)"/>
      <path class="cls-10" d="M169.67,38.29c-7.22-9.72-7.57-21.87-1.22-28.4-.85,.4-1.68,.86-2.46,1.43-8.07,5.99-8.28,19.38-.47,29.9,7.81,10.52,20.69,14.19,28.76,8.2,.61-.46,1.17-.97,1.69-1.5-8.05,3.77-19.24-.12-26.3-9.63Z"/>
      <ellipse class="cls-6" cx="120.64" cy="95.52" rx="30.84" ry="21.94"/>
      <ellipse class="cls-2" cx="120.64" cy="86.88" rx="15.33" ry="10.9"/>
      <ellipse class="cls-6" cx="176.83" cy="336.43" rx="19.76" ry="7.9"/>
      <ellipse class="cls-6" cx="65.72" cy="336.43" rx="19.76" ry="7.9"/>
      <ellipse class="cls-6" cx="218.7" cy="232.03" rx="9.67" ry="14.77"/>
      <ellipse class="cls-6" cx="23.81" cy="232.03" rx="9.67" ry="14.77"/>
      <circle class="cls-6" cx="149.83" cy="61.21" r="14.77"/>
      <circle class="cls-2" cx="149.83" cy="61.21" r="7.39"/>
      <ellipse class="cls-6" cx="61.33" cy="29.44" rx="23.72" ry="18.2" transform="translate(1.13 61.13) rotate(-53.41)"/>
      <path class="cls-10" d="M51.05,45.38c-8.07-5.99-8.28-19.38-.47-29.9,1.14-1.54,2.41-2.92,3.74-4.16-2.84,1.82-5.5,4.25-7.73,7.27-7.81,10.52-7.6,23.91,.47,29.9,6.89,5.11,17.27,3.17,25.02-4.04-7.07,4.54-15.26,5.21-21.02,.93Z"/>
      <circle class="cls-1" cx="158.8" cy="54.56" r="3.43"/>
      <g>
        <circle class="cls-6" cx="91.46" cy="61.21" r="14.77"/>
        <circle class="cls-2" cx="91.46" cy="61.21" r="7.39"/>
        <circle class="cls-1" cx="100.42" cy="54.56" r="3.43"/>
      </g>
      <path class="cls-10" d="M107.98,110.88c-11.21-4.57-17.81-14.78-15.76-23.65-.52,.78-1,1.61-1.36,2.5-3.8,9.31,3.05,20.66,15.09,25.81,11.61,4.97,34.82,.98,40.72-8.41,.41-.65,1.61-1.32,1.78-2.05-4.93,7.39-29.5,10.27-40.47,5.8Z"/>
      <circle class="cls-1" cx="127.56" cy="83.8" r="3.43"/>
      <circle class="cls-1" cx="181.38" cy="13.84" r="2.4"/>
      <g>
        <circle class="cls-1" cx="195.89" cy="37.02" r="2.4"/>
        <circle class="cls-1" cx="195.84" cy="35.83" r="2.4"/>
        <circle class="cls-1" cx="195.76" cy="34.68" r="2.4"/>
        <circle class="cls-1" cx="195.63" cy="33.56" r="2.4"/>
        <circle class="cls-1" cx="195.47" cy="32.48" r="2.4"/>
        <circle class="cls-1" cx="195.27" cy="31.43" r="2.4"/>
        <circle class="cls-1" cx="195.03" cy="30.4" r="2.4"/>
        <circle class="cls-1" cx="194.75" cy="29.41" r="2.4"/>
        <circle class="cls-1" cx="194.43" cy="28.45" r="2.4"/>
        <circle class="cls-1" cx="194.08" cy="27.53" r="2.4"/>
        <circle class="cls-1" cx="193.69" cy="26.63" r="2.4"/>
        <circle class="cls-1" cx="193.27" cy="25.76" r="2.4"/>
        <circle class="cls-1" cx="192.81" cy="24.92" r="2.4"/>
        <circle class="cls-1" cx="192.31" cy="24.11" r="2.4"/>
        <circle class="cls-1" cx="191.78" cy="23.33" r="2.4"/>
        <circle class="cls-1" cx="191.21" cy="22.58" r="2.4"/>
        <circle class="cls-1" cx="190.62" cy="21.86" r="2.4"/>
        <circle class="cls-1" cx="189.98" cy="21.16" r="2.4"/>
        <circle class="cls-1" cx="189.32" cy="20.5" r="2.4"/>
        <circle class="cls-1" cx="188.62" cy="19.86" r="2.4"/>
        <circle class="cls-1" cx="187.89" cy="19.24" r="2.4"/>
      </g>
      <g>
        <path class="cls-6" d="M120,171.5c-32.39,0-58.02,27.53-58.02,69.92,0,42.39,26.26,70.53,58.66,70.53,32.39,0,58.66-28.14,58.66-70.53s-26.9-69.92-59.3-69.92Zm33.29,37.92c-3.27-2.77-3.69-7.67-.94-10.96,2.76-3.29,7.64-3.71,10.91-.94,3.27,2.77,3.69,7.67,.94,10.96-2.76,3.29-7.64,3.71-10.91,.94Z"/>
        <ellipse class="cls-1" cx="158.28" cy="203.47" rx="7.75" ry="7.78"/>
      </g>
      <g>
        <ellipse class="cls-8" cx="149.92" cy="293.54" rx="2.66" ry="3.42" transform="translate(-163.72 192.19) rotate(-45.04)"/>
        <ellipse class="cls-8" cx="150.71" cy="292.6" rx="2.66" ry="3.42" transform="translate(-162.83 192.47) rotate(-45.04)"/>
        <ellipse class="cls-8" cx="151.48" cy="291.66" rx="2.66" ry="3.42" transform="translate(-161.93 192.74) rotate(-45.04)"/>
        <ellipse class="cls-8" cx="152.24" cy="290.72" rx="2.66" ry="3.42" transform="translate(-161.04 193) rotate(-45.04)"/>
        <ellipse class="cls-8" cx="152.98" cy="289.78" rx="2.66" ry="3.42" transform="translate(-160.16 193.25) rotate(-45.04)"/>
        <ellipse class="cls-8" cx="153.71" cy="288.84" rx="2.66" ry="3.42" transform="translate(-159.28 193.49) rotate(-45.04)"/>
        <ellipse class="cls-8" cx="154.41" cy="287.9" rx="2.66" ry="3.42" transform="translate(-158.41 193.71) rotate(-45.04)"/>
        <ellipse class="cls-8" cx="155.1" cy="286.96" rx="2.66" ry="3.42" transform="translate(-157.54 193.93) rotate(-45.04)"/>
        <ellipse class="cls-8" cx="155.78" cy="286.02" rx="2.66" ry="3.42" transform="translate(-156.68 194.13) rotate(-45.04)"/>
        <ellipse class="cls-8" cx="156.43" cy="285.08" rx="2.66" ry="3.42" transform="translate(-155.82 194.32) rotate(-45.04)"/>
        <ellipse class="cls-8" cx="157.07" cy="284.14" rx="2.66" ry="3.42" transform="translate(-154.97 194.49) rotate(-45.04)"/>
        <ellipse class="cls-8" cx="157.69" cy="283.2" rx="2.66" ry="3.42" transform="translate(-154.12 194.66) rotate(-45.04)"/>
        <ellipse class="cls-8" cx="158.3" cy="282.26" rx="2.66" ry="3.42" transform="translate(-153.28 194.81) rotate(-45.04)"/>
        <ellipse class="cls-8" cx="158.89" cy="281.33" rx="2.66" ry="3.42" transform="translate(-152.45 194.96) rotate(-45.04)"/>
        <ellipse class="cls-8" cx="159.46" cy="280.39" rx="2.66" ry="3.42" transform="translate(-151.62 195.09) rotate(-45.04)"/>
        <ellipse class="cls-8" cx="160.02" cy="279.46" rx="2.66" ry="3.42" transform="translate(-150.79 195.21) rotate(-45.04)"/>
        <ellipse class="cls-8" cx="160.56" cy="278.52" rx="2.66" ry="3.42" transform="translate(-149.97 195.31) rotate(-45.04)"/>
        <ellipse class="cls-8" cx="161.08" cy="277.59" rx="2.66" ry="3.42" transform="translate(-149.16 195.41) rotate(-45.04)"/>
        <ellipse class="cls-8" cx="161.59" cy="276.65" rx="2.66" ry="3.42" transform="translate(-148.35 195.49) rotate(-45.04)"/>
        <ellipse class="cls-8" cx="162.08" cy="275.72" rx="2.66" ry="3.42" transform="translate(-147.54 195.57) rotate(-45.04)"/>
        <ellipse class="cls-8" cx="162.55" cy="274.79" rx="2.66" ry="3.42" transform="translate(-146.74 195.63) rotate(-45.04)"/>
        <ellipse class="cls-8" cx="163.01" cy="273.85" rx="2.66" ry="3.42" transform="translate(-145.95 195.68) rotate(-45.04)"/>
        <ellipse class="cls-8" cx="163.45" cy="272.92" rx="2.66" ry="3.42" transform="translate(-145.16 195.72) rotate(-45.04)"/>
        <ellipse class="cls-8" cx="163.88" cy="271.99" rx="2.66" ry="3.42" transform="translate(-144.38 195.75) rotate(-45.04)"/>
        <ellipse class="cls-8" cx="164.29" cy="271.06" rx="2.66" ry="3.42" transform="translate(-143.6 195.76) rotate(-45.04)"/>
        <ellipse class="cls-8" cx="164.68" cy="270.13" rx="2.66" ry="3.42" transform="translate(-142.83 195.77) rotate(-45.04)"/>
        <ellipse class="cls-8" cx="165.06" cy="269.2" rx="2.66" ry="3.42" transform="translate(-142.06 195.76) rotate(-45.04)"/>
        <ellipse class="cls-8" cx="165.42" cy="268.27" rx="2.66" ry="3.42" transform="translate(-141.3 195.74) rotate(-45.04)"/>
        <ellipse class="cls-8" cx="165.76" cy="267.35" rx="2.66" ry="3.42" transform="translate(-140.54 195.72) rotate(-45.04)"/>
        <ellipse class="cls-8" cx="166.09" cy="266.42" rx="2.66" ry="3.42" transform="translate(-139.79 195.68) rotate(-45.04)"/>
        <ellipse class="cls-8" cx="166.4" cy="265.49" rx="2.66" ry="3.42" transform="translate(-139.04 195.63) rotate(-45.04)"/>
        <ellipse class="cls-8" cx="166.7" cy="264.57" rx="2.66" ry="3.42" transform="translate(-138.3 195.56) rotate(-45.04)"/>
        <ellipse class="cls-8" cx="166.98" cy="263.64" rx="2.66" ry="3.42" transform="translate(-137.56 195.49) rotate(-45.04)"/>
        <ellipse class="cls-8" cx="167.25" cy="262.72" rx="2.66" ry="3.42" transform="translate(-136.83 195.41) rotate(-45.04)"/>
        <ellipse class="cls-8" cx="167.5" cy="261.79" rx="2.66" ry="3.42" transform="translate(-136.1 195.31) rotate(-45.04)"/>
        <ellipse class="cls-8" cx="167.73" cy="260.87" rx="2.66" ry="3.42" transform="translate(-135.38 195.21) rotate(-45.04)"/>
        <ellipse class="cls-8" cx="167.95" cy="259.94" rx="2.66" ry="3.42" transform="translate(-134.66 195.09) rotate(-45.04)"/>
        <ellipse class="cls-8" cx="168.15" cy="259.02" rx="2.66" ry="3.42" transform="translate(-133.95 194.96) rotate(-45.04)"/>
        <ellipse class="cls-8" cx="168.33" cy="258.1" rx="2.66" ry="3.42" transform="translate(-133.24 194.82) rotate(-45.04)"/>
        <ellipse class="cls-8" cx="168.5" cy="257.18" rx="2.66" ry="3.42" transform="translate(-132.54 194.67) rotate(-45.04)"/>
        <ellipse class="cls-8" cx="168.66" cy="256.26" rx="2.66" ry="3.42" transform="translate(-131.84 194.51) rotate(-45.04)"/>
        <ellipse class="cls-8" cx="168.8" cy="255.34" rx="2.66" ry="3.42" transform="translate(-131.15 194.34) rotate(-45.04)"/>
        <ellipse class="cls-8" cx="168.92" cy="254.42" rx="2.66" ry="3.42" transform="translate(-130.47 194.16) rotate(-45.04)"/>
        <ellipse class="cls-8" cx="169.03" cy="253.5" rx="2.66" ry="3.42" transform="translate(-129.78 193.97) rotate(-45.04)"/>
        <ellipse class="cls-8" cx="169.12" cy="252.58" rx="2.66" ry="3.42" transform="translate(-129.11 193.76) rotate(-45.04)"/>
        <ellipse class="cls-8" cx="169.2" cy="251.67" rx="2.66" ry="3.42" transform="translate(-128.44 193.55) rotate(-45.04)"/>
        <ellipse class="cls-8" cx="169.26" cy="250.75" rx="2.66" ry="3.42" transform="translate(-127.77 193.33) rotate(-45.04)"/>
        <ellipse class="cls-8" cx="169.31" cy="249.84" rx="2.66" ry="3.42" transform="translate(-127.11 193.09) rotate(-45.04)"/>
        <ellipse class="cls-8" cx="169.34" cy="248.92" rx="2.66" ry="3.42" transform="translate(-126.45 192.84) rotate(-45.04)"/>
        <ellipse class="cls-8" cx="169.36" cy="248.01" rx="2.66" ry="3.42" transform="translate(-125.8 192.59) rotate(-45.04)"/>
        <ellipse class="cls-8" cx="169.36" cy="247.09" rx="2.66" ry="3.42" transform="translate(-125.15 192.32) rotate(-45.04)"/>
        <ellipse class="cls-8" cx="169.35" cy="246.18" rx="2.66" ry="3.42" transform="translate(-124.51 192.04) rotate(-45.04)"/>
        <ellipse class="cls-8" cx="169.32" cy="245.27" rx="2.66" ry="3.42" transform="translate(-123.87 191.76) rotate(-45.04)"/>
        <ellipse class="cls-8" cx="169.28" cy="244.36" rx="2.66" ry="3.42" transform="translate(-123.24 191.46) rotate(-45.04)"/>
        <ellipse class="cls-8" cx="169.22" cy="243.45" rx="2.66" ry="3.42" transform="translate(-122.61 191.15) rotate(-45.04)"/>
        <ellipse class="cls-8" cx="169.14" cy="242.54" rx="2.66" ry="3.42" transform="translate(-121.99 190.83) rotate(-45.04)"/>
        <ellipse class="cls-8" cx="169.05" cy="241.63" rx="2.66" ry="3.42" transform="translate(-121.38 190.5) rotate(-45.04)"/>
        <ellipse class="cls-8" cx="168.95" cy="240.72" rx="2.66" ry="3.42" transform="translate(-120.76 190.16) rotate(-45.04)"/>
        <ellipse class="cls-8" cx="168.83" cy="239.81" rx="2.66" ry="3.42" transform="translate(-120.16 189.81) rotate(-45.04)"/>
        <ellipse class="cls-8" cx="168.7" cy="238.9" rx="2.66" ry="3.42" transform="translate(-119.55 189.45) rotate(-45.04)"/>
        <ellipse class="cls-8" cx="168.55" cy="238" rx="2.66" ry="3.42" transform="translate(-118.95 189.08) rotate(-45.04)"/>
        <ellipse class="cls-8" cx="168.39" cy="237.09" rx="2.66" ry="3.42" transform="translate(-118.36 188.7) rotate(-45.04)"/>
        <ellipse class="cls-8" cx="168.21" cy="236.19" rx="2.66" ry="3.42" transform="translate(-117.77 188.31) rotate(-45.04)"/>
        <ellipse class="cls-8" cx="168.02" cy="235.28" rx="2.66" ry="3.42" transform="translate(-117.19 187.91) rotate(-45.04)"/>
        <ellipse class="cls-8" cx="167.81" cy="234.38" rx="2.66" ry="3.42" transform="translate(-116.61 187.5) rotate(-45.04)"/>
        <ellipse class="cls-8" cx="167.59" cy="233.48" rx="2.66" ry="3.42" transform="translate(-116.04 187.07) rotate(-45.04)"/>
        <ellipse class="cls-8" cx="167.35" cy="232.58" rx="2.66" ry="3.42" transform="translate(-115.47 186.64) rotate(-45.04)"/>
        <ellipse class="cls-8" cx="167.1" cy="231.68" rx="2.66" ry="3.42" transform="translate(-114.91 186.2) rotate(-45.04)"/>
        <ellipse class="cls-8" cx="166.84" cy="230.78" rx="2.66" ry="3.42" transform="translate(-114.35 185.75) rotate(-45.04)"/>
        <ellipse class="cls-8" cx="166.56" cy="229.88" rx="2.66" ry="3.42" transform="translate(-113.79 185.29) rotate(-45.04)"/>
        <ellipse class="cls-8" cx="166.27" cy="228.98" rx="2.66" ry="3.42" transform="translate(-113.24 184.82) rotate(-45.04)"/>
        <ellipse class="cls-8" cx="165.96" cy="228.08" rx="2.66" ry="3.42" transform="translate(-112.7 184.34) rotate(-45.04)"/>
        <ellipse class="cls-8" cx="165.64" cy="227.18" rx="2.66" ry="3.42" transform="translate(-112.16 183.84) rotate(-45.04)"/>
        <ellipse class="cls-8" cx="165.3" cy="226.29" rx="2.66" ry="3.42" transform="translate(-111.62 183.34) rotate(-45.04)"/>
        <ellipse class="cls-8" cx="164.95" cy="225.39" rx="2.66" ry="3.42" transform="translate(-111.09 182.83) rotate(-45.04)"/>
        <ellipse class="cls-8" cx="164.58" cy="224.5" rx="2.66" ry="3.42" transform="translate(-110.57 182.31) rotate(-45.04)"/>
      </g>
      <circle class="cls-1" cx="74.05" cy="14.8" r="2.4"/>
      <path class="cls-10" d="M81.04,276.54c-16.49-29.36-14.7-74.77,2.68-92.6-2.25,1.01-5.08,5.7-7.03,7.39-18.53,16.02-22.02,59.5-6.61,89.95,12.98,25.66,54.06,42.08,73.06,27.01,1.61-1.27,3.15-2.61,4.58-4.08-21.17,9.56-50.54,1.06-66.68-27.67Z"/>
      <g>
        <circle class="cls-1" cx="67.92" cy="41.46" r="2.4"/>
        <circle class="cls-1" cx="68.73" cy="40.59" r="2.4"/>
        <circle class="cls-1" cx="69.48" cy="39.71" r="2.4"/>
        <circle class="cls-1" cx="70.19" cy="38.83" r="2.4"/>
        <circle class="cls-1" cx="70.84" cy="37.95" r="2.4"/>
        <circle class="cls-1" cx="71.44" cy="37.06" r="2.4"/>
        <circle class="cls-1" cx="71.99" cy="36.17" r="2.4"/>
        <circle class="cls-1" cx="72.5" cy="35.27" r="2.4"/>
        <circle class="cls-1" cx="72.95" cy="34.37" r="2.4"/>
        <circle class="cls-1" cx="73.36" cy="33.47" r="2.4"/>
        <circle class="cls-1" cx="73.72" cy="32.56" r="2.4"/>
        <circle class="cls-1" cx="74.03" cy="31.64" r="2.4"/>
        <circle class="cls-1" cx="74.3" cy="30.72" r="2.4"/>
        <circle class="cls-1" cx="74.52" cy="29.8" r="2.4"/>
        <circle class="cls-1" cx="74.69" cy="28.87" r="2.4"/>
        <circle class="cls-1" cx="74.83" cy="27.94" r="2.4"/>
        <circle class="cls-1" cx="74.91" cy="27.01" r="2.4"/>
        <circle class="cls-1" cx="74.96" cy="26.07" r="2.4"/>
        <circle class="cls-1" cx="74.96" cy="25.13" r="2.4"/>
        <circle class="cls-1" cx="74.92" cy="24.18" r="2.4"/>
        <circle class="cls-1" cx="74.84" cy="23.23" r="2.4"/>
      </g>
      <circle class="cls-1" cx="26.69" cy="222.09" r="2.4"/>
      <circle class="cls-1" cx="221.23" cy="222.09" r="2.4"/>
      <g>
        <circle class="cls-1" cx="27.61" cy="240.26" r="1.63"/>
        <circle class="cls-1" cx="28.14" cy="238.87" r="1.63"/>
        <circle class="cls-1" cx="28.59" cy="237.66" r="1.63"/>
        <circle class="cls-1" cx="28.96" cy="236.6" r="1.63"/>
        <circle class="cls-1" cx="29.25" cy="235.67" r="1.63"/>
        <circle class="cls-1" cx="29.47" cy="234.83" r="1.63"/>
        <circle class="cls-1" cx="29.62" cy="234.06" r="1.63"/>
        <circle class="cls-1" cx="29.7" cy="233.33" r="1.63"/>
        <circle class="cls-1" cx="29.73" cy="232.61" r="1.63"/>
        <circle class="cls-1" cx="29.7" cy="231.89" r="1.63"/>
        <circle class="cls-1" cx="29.62" cy="231.11" r="1.63"/>
        <circle class="cls-1" cx="29.5" cy="230.28" r="1.63"/>
        <circle class="cls-1" cx="29.33" cy="229.34" r="1.63"/>
        <circle class="cls-1" cx="29.12" cy="228.28" r="1.63"/>
        <circle class="cls-1" cx="28.88" cy="227.07" r="1.63"/>
      </g>
      <g>
        <circle class="cls-1" cx="222.86" cy="241.53" r="1.63"/>
        <circle class="cls-1" cx="223.4" cy="240.14" r="1.63"/>
        <circle class="cls-1" cx="223.85" cy="238.94" r="1.63"/>
        <circle class="cls-1" cx="224.22" cy="237.88" r="1.63"/>
        <circle class="cls-1" cx="224.51" cy="236.94" r="1.63"/>
        <circle class="cls-1" cx="224.72" cy="236.1" r="1.63"/>
        <circle class="cls-1" cx="224.88" cy="235.33" r="1.63"/>
        <circle class="cls-1" cx="224.96" cy="234.6" r="1.63"/>
        <circle class="cls-1" cx="224.99" cy="233.89" r="1.63"/>
        <circle class="cls-1" cx="224.96" cy="233.16" r="1.63"/>
        <circle class="cls-1" cx="224.88" cy="232.39" r="1.63"/>
        <circle class="cls-1" cx="224.76" cy="231.55" r="1.63"/>
        <circle class="cls-1" cx="224.59" cy="230.62" r="1.63"/>
        <circle class="cls-1" cx="224.38" cy="229.56" r="1.63"/>
        <circle class="cls-1" cx="224.14" cy="228.35" r="1.63"/>
      </g>
    </g>
    <g>
      <path class="cls-9" d="M58.7,346.1c-36.95,0-35.99-73.86-35.8-95.66-14.76-.94-13.57-32.64-13.57-39.22l5.23-30.08c4.81-21.7,17.17-35.18,24.37-40.52v-54.59c0-10.18,2.14-19.86,6-28.62-.38-.24-.76-.5-1.13-.77-10.87-8.07-11.15-26.09-.63-40.25C50.39,6.64,60.84,1.26,70.19,1.47c-11.09-3.5-25.43,2-34.7,14.2-11.01,14.48-10.71,32.9,.66,41.15,.39,.28,.78,.54,1.18,.79-4.04,8.95-6.28,18.85-6.28,29.26v55.8c-7.54,5.46-20.47,19.24-25.51,41.42L.08,214.84c0,6.73-1.25,39.13,14.21,40.09-.2,22.28-1.2,97.79,37.48,97.79h7.5c12.11,0,23.54-1.31,27-11.7-4.56,4.32-11.99,5.07-20.4,5.07h-7.16Z"/>
      <path class="cls-9" d="M109.88,317.5c-6.63,0-12.82-1.77-18.9-2.19v6.52c4.69,.63,8.8,1.65,14.36,1.65h15.36v-5.99h-10.81Z"/>
      <path class="cls-9" d="M110.1,14.84h10.59v-.74h-15.12c-5.66,0-11.17,.62-16.47,1.8,.19,.64,.36,1.29,.51,1.95,6.49-1.95,13.37-3.01,20.49-3.01Z"/>
      <path class="cls-7" d="M87.33,333.69c0,2.85-.38,5.27-1.07,7.34,2.97-2.81,4.72-7.13,4.72-13.75v-5.43c-1.16-.16-2.35-.29-3.61-.38l-.04,12.22Z"/>
      <path class="cls-7" d="M84.12,17.18c1.64-.48,3.3-.91,4.99-1.28-1.29-4.25-3.7-7.93-7.23-10.56-3.4-2.52-7.43-3.77-11.68-3.87,2.07,.65,4.03,1.62,5.83,2.92,4.25,3.08,6.96,7.59,8.1,12.78Z"/>
      <path class="cls-7" d="M109.88,317.5h10.81v-3.73c-19.24-1.58-41.6-14.89-50.57-32.6-15.41-30.45-11.92-73.93,6.61-89.95,1.95-1.69,4.79-6.38,7.03-7.39-2.03,2.08-3.83,4.55-5.43,7.31,10.49-12.6,25.22-19.75,41.72-19.75,.21,0,.43,.01,.64,.02v-53.88c-5.48,.24-10.75-.41-14.69-2.1-4.36-1.87-8.04-4.55-10.78-7.65-3.39-3.52-5.37-7.78-5.37-12.37,0-.1,0-.2,.01-.29-.01-1.87,.32-3.72,1.05-5.5,.07-.16,.15-.31,.22-.46,3.79-9.07,15.59-15.69,29.56-15.69V14.84h-10.59c-7.13,0-14,1.06-20.49,3.01-.14-.66-.31-1.31-.51-1.95-1.68,.37-3.35,.8-4.99,1.28-1.14-5.19-3.85-9.7-8.1-12.78-1.79-1.3-3.75-2.27-5.83-2.92-9.36-.21-19.81,5.17-27.04,14.9-10.52,14.16-10.23,32.18,.63,40.25,.37,.27,.75,.53,1.13,.77-3.86,8.76-6,18.44-6,28.62v54.59c-7.2,5.34-19.56,18.82-24.37,40.52l-5.23,30.08c0,6.58-1.19,38.28,13.57,39.22-.19,21.8-1.14,95.66,35.8,95.66h7.16c8.4,0,15.84-.75,20.4-5.07,.69-2.07,1.07-4.49,1.07-7.34l.04-12.22c1.27,.08,2.45,.22,3.61,.38v-6.52c6.09,.41,12.28,2.19,18.9,2.19ZM23.87,246.7c-5.34,0-9.67-6.61-9.67-14.77s4.33-14.77,9.67-14.77,9.67,6.61,9.67,14.77-4.33,14.77-9.67,14.77ZM91.51,46.33c8.16,0,14.77,6.61,14.77,14.77,0,8.16-6.61,14.77-14.77,14.77s-14.77-6.61-14.77-14.77c0-8.16,6.61-14.77,14.77-14.77ZM46.64,18.48c2.24-3.01,4.9-5.44,7.73-7.27-.09,.09-.18,.18-.27,.26,7.15-4.78,15.56-5.55,21.43-1.19,8.07,5.99,8.28,19.38,.47,29.9-5.48,7.38-13.45,11.37-20.51,11.04-.47-.02-.94-.05-1.41-.11-.04,0-.07-.01-.11-.02-2.48-.33-4.83-1.21-6.86-2.72-8.07-5.99-8.28-19.38-.47-29.9Zm19.14,325.74c-10.91,0-19.76-3.54-19.76-7.9,0-4.36,8.85-7.9,19.76-7.9s19.76,3.54,19.76,7.9c0,4.36-8.85,7.9-19.76,7.9Z"/>
      <path class="cls-3" d="M108.03,110.77c3.29,1.34,7.82,2.02,12.67,2.11v-15.21c-8.46,0-15.33-4.88-15.33-10.9,0-6.02,6.86-10.9,15.33-10.9v-2.4c-13.98,0-25.78,6.62-29.56,15.69,.33-.71,.71-1.39,1.14-2.04-2.05,8.87,4.55,19.08,15.76,23.65Z"/>
      <path class="cls-3" d="M89.85,95.41c0,4.59,1.98,8.85,5.37,12.37-3.38-3.83-5.33-8.29-5.36-12.66,0,.1-.01,.2-.01,.29Z"/>
      <path class="cls-7" d="M105.37,86.77c0,6.02,6.86,10.9,15.33,10.9v-21.8c-8.46,0-15.33,4.88-15.33,10.9Z"/>
      <ellipse class="cls-3" cx="65.77" cy="336.33" rx="19.76" ry="7.9"/>
      <path class="cls-3" d="M23.87,217.15c-5.34,0-9.67,6.61-9.67,14.77s4.33,14.77,9.67,14.77c5.34,0,9.67-6.61,9.67-14.77s-4.33-14.77-9.67-14.77Zm4.57,6.53c-.94,.94-2.46,.94-3.4,0-.94-.94-.94-2.46,0-3.4s2.46-.94,3.4,0c.94,.94,.94,2.46,0,3.4Z"/>
      <path class="cls-3" d="M54.08,51.12s-.07-.01-.11-.02c.04,0,.07,.01,.11,.02Z"/>
      <path class="cls-3" d="M50.63,15.37c-7.81,10.52-7.6,23.91,.47,29.9,5.76,4.28,13.96,3.61,21.02-.93-5,4.66-11.1,7.1-16.64,6.88,7.06,.34,15.03-3.65,20.51-11.04,7.81-10.52,7.6-23.91-.47-29.9-5.87-4.36-14.27-3.59-21.43,1.19-1.23,1.17-2.4,2.46-3.47,3.89Zm21.77-2.38c.94-.94,2.46-.94,3.4,0s.94,2.46,0,3.4-2.46,.94-3.4,0-.94-2.46,0-3.4Z"/>
      <path class="cls-9" d="M53.97,51.1c-2.44-.34-4.73-1.23-6.73-2.71-8.07-5.99-8.28-19.38-.47-29.9,2.13-2.87,4.65-5.21,7.33-7,.09-.09,.18-.18,.27-.26-2.84,1.82-5.5,4.25-7.73,7.27-7.81,10.52-7.6,23.91,.47,29.9,2.03,1.51,4.38,2.39,6.86,2.72Z"/>
      <path class="cls-9" d="M55.48,51.23c-.47-.02-.94-.05-1.41-.11,.46,.06,.93,.09,1.41,.11Z"/>
      <path class="cls-9" d="M46.77,18.49c-7.81,10.52-7.6,23.91,.47,29.9,2,1.48,4.29,2.37,6.73,2.71,.04,0,.07,.01,.11,.02,.46,.06,.93,.09,1.41,.11,5.55,.22,11.64-2.23,16.64-6.88-7.07,4.54-15.26,5.21-21.02,.93-8.07-5.99-8.28-19.38-.47-29.9,1.07-1.44,2.24-2.72,3.47-3.89-2.69,1.79-5.2,4.13-7.33,7Z"/>
      <path class="cls-3" d="M76.74,61.1c0,8.16,6.61,14.77,14.77,14.77s14.77-6.61,14.77-14.77c0-8.16-6.61-14.77-14.77-14.77s-14.77,6.61-14.77,14.77Zm23.74-10.08c1.89,0,3.43,1.53,3.43,3.43s-1.53,3.43-3.43,3.43-3.43-1.53-3.43-3.43c0-1.89,1.53-3.43,3.43-3.43Zm-8.97,2.69c4.08,0,7.39,3.31,7.39,7.39s-3.31,7.39-7.39,7.39-7.39-3.31-7.39-7.39,3.31-7.39,7.39-7.39Z"/>
      <circle class="cls-7" cx="91.51" cy="61.1" r="7.39"/>
      <path class="cls-5" d="M100.48,57.88c1.89,0,3.43-1.53,3.43-3.43s-1.53-3.43-3.43-3.43-3.43,1.53-3.43,3.43c0,1.89,1.53,3.43,3.43,3.43Z"/>
      <path class="cls-9" d="M90.91,89.62c-.72,1.78-1.06,3.63-1.05,5.5,.04-2.07,.48-4.07,1.27-5.96-.07,.16-.16,.3-.22,.46Z"/>
      <path class="cls-9" d="M95.22,107.78c2.74,3.1,6.42,5.79,10.78,7.65,3.94,1.68,9.21,2.34,14.69,2.1v-.18c-10.58,0-19.92-3.79-25.47-9.57Z"/>
      <path class="cls-9" d="M120.69,117.35v-4.47c-4.85-.09-9.37-.77-12.67-2.11-11.21-4.57-17.81-14.78-15.76-23.65-.43,.64-.81,1.32-1.14,2.04-.79,1.89-1.23,3.89-1.27,5.96,.03,4.37,1.98,8.84,5.36,12.66,5.55,5.78,14.89,9.57,25.47,9.57Z"/>
      <path class="cls-3" d="M81.09,276.43c9.88,17.59,24.72,27.59,39.6,30.51V171.41c-.21,0-.43-.02-.64-.02-16.49,0-31.22,7.15-41.72,19.75-12.11,20.91-11.82,59.35,2.75,85.29Z"/>
      <path class="cls-5" d="M75.8,16.4c.94-.94,.94-2.46,0-3.4s-2.46-.94-3.4,0c-.94,.94-.94,2.46,0,3.4s2.46,.94,3.4,0Z"/>
      <path class="cls-9" d="M62.04,241.31c0-20.81,6.18-38.02,16.3-50.17,1.6-2.76,3.41-5.23,5.43-7.31-2.25,1.01-5.08,5.7-7.03,7.39-18.53,16.02-22.02,59.5-6.61,89.95,8.97,17.72,31.33,31.02,50.57,32.6v-1.94c-32.39,0-58.66-28.14-58.66-70.53Z"/>
      <path class="cls-9" d="M120.69,311.83v-4.89c-14.88-2.92-29.72-12.92-39.6-30.51-14.57-25.94-14.86-64.38-2.75-85.29-10.12,12.15-16.3,29.36-16.3,50.17,0,42.39,26.26,70.53,58.66,70.53Z"/>
      <path class="cls-5" d="M25.04,220.29c-.94,.94-.94,2.46,0,3.4,.94,.94,2.46,.94,3.4,0,.94-.94,.94-2.46,0-3.4-.94-.94-2.46-.94-3.4,0Z"/>
      <path class="cls-4" d="M120.69,117.35h0v.18"/>
      <path class="cls-4" d="M120.69,112.88v4.47h0"/>
    </g>
    <g id="Bear2">
      <g>
        <circle class="cls-5" cx="67.97" cy="41.35" r="2.4"/>
        <circle class="cls-5" cx="68.78" cy="40.48" r="2.4"/>
        <circle class="cls-5" cx="69.53" cy="39.61" r="2.4"/>
        <circle class="cls-5" cx="70.24" cy="38.73" r="2.4"/>
        <circle class="cls-5" cx="70.89" cy="37.84" r="2.4"/>
        <circle class="cls-5" cx="71.49" cy="36.96" r="2.4"/>
        <circle class="cls-5" cx="72.04" cy="36.06" r="2.4"/>
        <circle class="cls-5" cx="72.55" cy="35.17" r="2.4"/>
        <circle class="cls-5" cx="73" cy="34.27" r="2.4"/>
        <circle class="cls-5" cx="73.41" cy="33.36" r="2.4"/>
        <circle class="cls-5" cx="73.77" cy="32.45" r="2.4"/>
        <circle class="cls-5" cx="74.08" cy="31.54" r="2.4"/>
        <circle class="cls-5" cx="74.35" cy="30.62" r="2.4"/>
        <circle class="cls-5" cx="74.57" cy="29.69" r="2.4"/>
        <circle class="cls-5" cx="74.75" cy="28.77" r="2.4"/>
        <circle class="cls-5" cx="74.88" cy="27.84" r="2.4"/>
        <circle class="cls-5" cx="74.97" cy="26.9" r="2.4"/>
        <circle class="cls-5" cx="75.01" cy="25.96" r="2.4"/>
        <circle class="cls-5" cx="75.01" cy="25.02" r="2.4"/>
        <circle class="cls-5" cx="74.97" cy="24.07" r="2.4"/>
        <circle class="cls-5" cx="74.89" cy="23.12" r="2.4"/>
      </g>
      <g>
        <circle class="cls-5" cx="27.66" cy="240.15" r="1.63"/>
        <circle class="cls-5" cx="28.19" cy="238.76" r="1.63"/>
        <circle class="cls-5" cx="28.64" cy="237.55" r="1.63"/>
        <circle class="cls-5" cx="29.01" cy="236.5" r="1.63"/>
        <circle class="cls-5" cx="29.3" cy="235.56" r="1.63"/>
        <circle class="cls-5" cx="29.52" cy="234.72" r="1.63"/>
        <circle class="cls-5" cx="29.67" cy="233.95" r="1.63"/>
        <circle class="cls-5" cx="29.75" cy="233.22" r="1.63"/>
        <circle class="cls-5" cx="29.78" cy="232.51" r="1.63"/>
        <circle class="cls-5" cx="29.75" cy="231.78" r="1.63"/>
        <circle class="cls-5" cx="29.67" cy="231.01" r="1.63"/>
        <circle class="cls-5" cx="29.55" cy="230.17" r="1.63"/>
        <circle class="cls-5" cx="29.38" cy="229.23" r="1.63"/>
        <circle class="cls-5" cx="29.17" cy="228.17" r="1.63"/>
        <circle class="cls-5" cx="28.93" cy="226.96" r="1.63"/>
      </g>
    </g>
  </g>
</svg>