<?xml version="1.0" encoding="UTF-8"?>
<svg id="Calque_2" data-name="Calque 2" xmlns="http://www.w3.org/2000/svg" viewBox="0 0 42.75 101.13">
  <defs>
    <style>
      .cls-1 {
        fill: #ddd;
      }

      .cls-2 {
        fill: none;
        stroke: #ddd;
        stroke-linecap: round;
        stroke-miterlimit: 10;
        stroke-width: 2px;
      }

      .cls-3 {
        fill: #605ca8;
      }

      .cls-4 {
        fill: #a864a8;
      }

      .cls-5 {
        fill: #e6e6e6;
      }

      .cls-6 {
        fill: #8560a8;
      }
    </style>
  </defs>
  <g id="Calque_3" data-name="Calque 3">
    <rect class="cls-5" x="19.35" y="36.86" width="4.15" height="64.27" rx="2.08" ry="2.08"/>
    <path class="cls-3" d="m41.98,23.84c-1.46,10.07-10.13,17.8-20.6,17.8S2.23,33.91.77,23.84c.17.08.36.13.56.13h40.09c.2,0,.39-.04.56-.12Z"/>
    <path class="cls-4" d="m42.13,19.14C41.27,8.42,32.31,0,21.38,0S1.48,8.42.62,19.14c-.04.56-.07,1.12-.07,1.69,0,1.02.07,2.03.22,3.02.17.08.36.13.56.13h40.09c.2,0,.39-.04.56-.12.14-.98.22-1.99.22-3.02,0-.57-.02-1.13-.07-1.69Z"/>
    <path class="cls-6" d="m42.75,22.78v2.37c0,.54-.32,1-.78,1.21-.17.08-.36.12-.56.12H1.33c-.2,0-.39-.04-.56-.13-.46-.21-.77-.67-.77-1.21v-2.37c0-.48.25-.89.62-1.13.2-.13.45-.21.71-.21h40.09c.26,0,.51.07.71.21.37.24.62.65.62,1.13Z"/>
    <path class="cls-2" d="m3.64,15.41S6.46,6.31,16,3.78"/>
    <circle class="cls-1" cx="19" cy="3.19" r="1.04"/>
  </g>
</svg>