<?xml version="1.0" encoding="UTF-8"?>
<svg id="Calque_2" data-name="Calque 2" xmlns="http://www.w3.org/2000/svg" viewBox="0 0 308.14 422.57">
  <defs>
    <style>
      .cls-1 {
        fill: #ffd4d4;
      }

      .cls-2 {
        fill: #ec677a;
      }

      .cls-3 {
        fill: #f49a9a;
      }

      .cls-4 {
        fill: #7f2a3b;
      }
    </style>
  </defs>
  <g id="Tank">
    <g>
      <path class="cls-4" d="M94.97,416.64h-8.66c-44.67,0-43.51-89.3-43.29-115.65-10.41-.66-14.26-13.98-15.66-26.54-1.84-16.53-5.8-32.75-11.29-48.45-4.78-13.66-6.37-28.98-6.37-37.39,0-25.4,42.99-45.99,42.99-45.99,0,0,12.3-64.41,16.96-75-.46-.29-.92-.6-1.36-.93-13.14-9.75-13.48-31.54-.77-48.66C74.94,8.03,85.16,1.84,95.01,.36c-12.27-1.99-26.91,4.66-36.7,17.92-12.82,17.37-12.48,39.46,.77,49.36,.45,.34,.91,.65,1.38,.95-4.7,10.74-17.1,76.07-17.1,76.07,0,0-43.35,20.88-43.35,46.64,0,8.53,1.61,24.07,6.43,37.92,5.54,15.92,9.52,32.37,11.38,49.14,1.41,12.74,5.29,26.25,15.79,26.92-.23,26.73-1.39,117.3,43.66,117.3h8.73c16.91,0,38.8-1.16,38.8-21.74v-.54c-2.68,14.43-15.01,16.36-29.82,16.36Z"/>
      <path class="cls-4" d="M208.19,4.68c3.24-2.4,6.95-3.85,10.9-4.41-6.88-.92-13.54,.47-18.91,4.48-4.43,3.31-7.41,7.98-8.94,13.38,2.55,.55,5.07,1.21,7.54,1.98,1.28-6.27,4.42-11.72,9.42-15.43Z"/>
      <path class="cls-4" d="M142.17,16.39h-2.24c-5.72,0-11.3,.57-16.71,1.64,.16,.58,.32,1.17,.45,1.77,5.92-1.78,12.11-2.95,18.49-3.41Z"/>
      <path class="cls-4" d="M279.52,303.73c.34-.33,.67-.68,.99-1.05-.32,.05-.65,.09-.99,.11,0,.31,0,.63,0,.94Z"/>
      <path class="cls-4" d="M227.55,416.64c-16.77,0-30.37-2.46-30.37-22.75v-14.53c-7.68,.56-16.06,2.72-24.46,2.72h-24.54c-8.01,0-15.49-2.14-22.85-2.64v6.77c6.83,.51,6.46,1.3,14.33,1.3h24.75c8.47,0,16.92-2.19,24.67-2.76v14.74c0,20.59,13.71,23.08,30.63,23.08h8.73c8.85,0,15.91-3.5,21.54-9.31-4.02,2.17-8.59,3.39-13.77,3.39h-8.66Z"/>
      <path class="cls-2" d="M114.95,20.08c2.71-.82,5.47-1.5,8.28-2.05-1.51-5.39-4.47-10.06-8.9-13.35C108.85,.62,102.03-.7,95.01,.36c3.8,.62,7.38,2.05,10.51,4.39,4.95,3.7,8.1,9.11,9.44,15.33Z"/>
      <path class="cls-2" d="M266.16,142.62s-9.62-64.04-14.14-74.49c.76-.44,1.5-.91,2.21-1.44,13.14-9.75,13.48-31.54,.77-48.66C245.42,5.12,231.16-1.45,219.09,.27c9.43,1.26,19.26,6.87,26.74,16.01,1.74,1.58,3.37,3.37,4.86,5.36,6.33,8.53,8.3,18.61,5.97,26.52-.67,7.95-4.01,14.97-10.03,19.47-.72,.54-1.47,1.02-2.23,1.46,4.56,10.6,14.26,75.55,14.26,75.55,0,0,42.34,20.88,42.34,46.64,0,8.98-.83,28.29-5.26,44-3.01,10.67-5.25,21.55-6.6,32.55,1.49,3,2.38,6.72,2.38,10.78,0,7.12-2.74,13.26-6.69,16.12-1.1,3.09-2.51,5.83-4.31,7.94,10.61-1.58,13.96-16.93,14.99-30,1.09-13.78,3.67-27.39,7.43-40.69,4.39-15.49,5.22-34.53,5.22-43.38,0-25.4-41.99-45.99-41.99-45.99Z"/>
      <path class="cls-2" d="M124.79,400.29c.35-1.91,.55-4.03,.55-6.4v-7.68c-.18-.01-.35-.03-.55-.04v14.12Z"/>
      <path class="cls-2" d="M249.98,413.26c29.52-15.92,29.74-83.78,29.54-109.53-2,1.94-4.44,3.17-7.41,3.36,.19,23,.34,83.01-22.13,106.17Z"/>
      <path class="cls-2" d="M190.69,20.4c.16-.77,.34-1.53,.55-2.27-5.88-1.28-11.98-1.97-18.25-1.97h-24.54c-2.11,0-4.21,.08-6.28,.23h22.51c9.06,0,17.79,1.41,26,4.01Z"/>
      <path class="cls-2" d="M279.81,296.47c-6.46,0-11.69-8-11.69-17.86s5.24-17.86,11.69-17.86c3.8,0,7.17,2.79,9.31,7.08,1.35-11,3.6-21.87,6.6-32.55,4.43-15.71,5.26-35.02,5.26-44,0-25.76-42.34-46.64-42.34-46.64,0,0-9.7-64.95-14.26-75.55,.76-.44,1.51-.93,2.23-1.46,6.02-4.5,9.37-11.52,10.03-19.47-.9,3.06-2.45,5.79-4.63,7.98,.1-.04,.21-.08,.31-.12-.63,.65-1.3,1.27-2.04,1.82-4.89,3.63-11.24,4.33-17.54,2.52-6.33-1.77-12.64-6.07-17.39-12.47-9.44-12.72-9.19-28.9,.57-36.15,8.23-6.11,20.58-3.91,29.91,4.54-7.47-9.15-17.31-14.75-26.74-16.01-3.95,.56-7.66,2.01-10.9,4.41-5,3.71-8.14,9.16-9.42,15.43-2.46-.78-4.98-1.43-7.54-1.98-.21,.74-.4,1.5-.55,2.27-8.21-2.6-16.94-4.01-26-4.01h-22.51c-6.38,.46-12.57,1.63-18.49,3.41-.13-.6-.29-1.19-.45-1.77-2.81,.55-5.57,1.23-8.28,2.05-1.33-6.23-4.48-11.63-9.44-15.33-3.13-2.34-6.71-3.78-10.51-4.39-9.84,1.49-20.07,7.67-27.49,17.67-12.71,17.12-12.37,38.91,.77,48.66,.45,.33,.9,.64,1.36,.93-4.66,10.59-16.96,75-16.96,75,0,0-42.99,20.59-42.99,45.99,0,8.41,1.6,23.74,6.37,37.39,5.49,15.7,9.44,31.92,11.29,48.45,1.4,12.56,5.25,25.88,15.66,26.54-.23,26.35-1.38,115.65,43.29,115.65h8.66c14.81,0,27.14-1.93,29.82-16.36v-14.12c.2,.01,.36,.03,.55,.04v-6.77c7.36,.5,14.84,2.64,22.85,2.64h24.54c8.4,0,16.78-2.16,24.46-2.72v14.53c0,20.3,13.6,22.75,30.37,22.75h8.66c5.19,0,9.75-1.22,13.77-3.39,22.46-23.16,22.32-83.17,22.13-106.17,2.97-.19,5.41-1.42,7.41-3.36,0-.32,0-.64,0-.94,.34-.02,.67-.06,.99-.11,1.8-2.11,3.21-4.85,4.31-7.94-1.52,1.1-3.21,1.74-5.01,1.74ZM196.54,54.23c9.86,0,17.86,8,17.86,17.86s-8,17.86-17.86,17.86-17.86-8-17.86-17.86,8-17.86,17.86-17.86Zm2,59.34c0,4.49-1.57,8.72-4.34,12.42,.25-.28,.47-.57,.67-.86-.11,.46-.55,.9-1.03,1.33-.52,.67-1.08,1.32-1.68,1.96-2.98,4.05-8.67,7.2-15.33,9.25-2.73,.89-5.64,1.56-8.67,1.96-8.93,1.36-18.25,.88-24.65-1.86-5.28-2.26-9.72-5.5-13.04-9.25-4.09-4.26-6.49-9.41-6.49-14.95,0-.12,.01-.24,.01-.36-.02-2.26,.39-4.5,1.26-6.65,.08-.19,.18-.37,.27-.56,4.58-10.96,18.84-18.96,35.74-18.96,20.59,0,37.29,11.88,37.29,26.53ZM125.97,54.23c9.86,0,17.86,8,17.86,17.86s-8,17.86-17.86,17.86-17.86-8-17.86-17.86,8-17.86,17.86-17.86ZM71.72,20.57c2.71-3.64,5.92-6.58,9.35-8.79-.08,.08-.16,.16-.25,.24,8.63-5.72,18.75-6.61,25.82-1.36,9.76,7.25,10.01,23.43,.57,36.15-6.88,9.26-17,14.13-25.77,13.29-.24-.02-.47-.05-.7-.07-.13-.02-.25-.04-.38-.06-2.92-.42-5.68-1.47-8.08-3.25-9.76-7.25-10.01-23.43-.57-36.15Zm-27.53,275.9c-6.46,0-11.69-8-11.69-17.86s5.24-17.86,11.69-17.86,11.69,8,11.69,17.86-5.24,17.86-11.69,17.86Zm50.67,117.91c-13.19,0-23.89-4.27-23.89-9.55s10.69-9.55,23.89-9.55,23.89,4.27,23.89,9.55-10.69,9.55-23.89,9.55Zm134.33,0c-13.19,0-23.89-4.27-23.89-9.55s10.69-9.55,23.89-9.55,23.89,4.27,23.89,9.55-10.69,9.55-23.89,9.55Zm29.1-205.99c0,14.37-9.81,26.45-23.1,29.9,5.77-.66,10.97-3.19,14.97-6.98-4.59,6.12-11.8,10.15-19.97,10.46,1.47,3.09,2.56,6.62,3.17,10.43,.36,1.95,.56,3.95,.56,6.01v11.92c0,11.45-.28,21.39-6.8,26.45,3.04,4.01,5.26,9.4,6.24,15.53,.36,1.95,.56,3.95,.56,6.01v11.92c0,16.57-.58,30.01-19.85,30.01h-36.89c-6.4,0-12.08-4.58-15.72-11.68-2.11,7.1-6.99,11.68-18.24,11.68h-36.89c-10.96,0-19.85-13.44-19.85-30.01v-10.86c0-10.14,3.33-19.09,8.42-24.53-5.09-5.43-8.42-14.39-8.42-24.53v-10.86c0-7,1.59-13.43,4.25-18.54h-2.45c-14.45,0-26.17-11.72-26.17-26.17v-9.47c0-11.28,7.14-20.9,17.15-24.57,4.82-3.11,10.56-4.93,16.73-4.93h39.7c11.38,0,21.13,6.94,25.27,16.82,1.48-6.35,4.4-7.16,7.87-10.44-.84,1.12-1.53,2.58-2.11,4.22,5.56-5.39,13.14-8.71,21.5-8.71h39.16c17.07,0,30.9,13.83,30.9,30.9h0Z"/>
      <path class="cls-2" d="M156.29,296.59c1.53,2.02,2.86,4.39,3.92,7.03,1.42-3.53,3.31-6.58,5.54-8.96-1.62-1.73-3.07-3.82-4.28-6.2-.99,3.34-2.59,6.12-5.18,8.13Z"/>
      <path class="cls-2" d="M156.11,236.44c1.61,2.07,3,4.52,4.1,7.27,1.41-3.51,3.29-6.54,5.5-8.92-1.59-2.04-2.83-4.44-3.75-7.09-.94,3.51-2.68,6.51-5.85,8.73Z"/>
      <path class="cls-3" d="M256.65,48.17c2.33-7.91,.37-17.99-5.97-26.52-1.48-2-3.12-3.79-4.86-5.36,.53,.65,1.05,1.31,1.56,2,6.99,9.47,10.06,20.35,9.26,29.89Z"/>
      <path class="cls-3" d="M215.92,11.74c-9.76,7.25-10.01,23.43-.57,36.15,4.75,6.4,11.06,10.7,17.39,12.47-6.28-1.8-12.51-6.08-17.23-12.43-9.44-12.72-9.19-28.9,.57-36.15,.94-.7,1.94-1.25,2.97-1.73-7.68,7.88-7.25,22.58,1.47,34.33,8.45,11.38,21.78,16.08,31.49,11.76,2.19-2.19,3.73-4.92,4.63-7.98,.8-9.54-2.27-20.42-9.26-29.89-.51-.69-1.03-1.35-1.56-2-9.33-8.46-21.69-10.65-29.91-4.54Zm18.77,.18c1.6,0,2.91,1.3,2.91,2.91s-1.3,2.91-2.91,2.91-2.91-1.3-2.91-2.91,1.3-2.91,2.91-2.91Z"/>
      <path class="cls-4" d="M232.74,60.36c6.3,1.81,12.65,1.11,17.54-2.52,.74-.55,1.41-1.17,2.04-1.82-.1,.05-.21,.08-.31,.12-.59,.59-1.22,1.14-1.9,1.65-4.85,3.6-11.12,4.31-17.37,2.57Z"/>
      <path class="cls-4" d="M220.53,44.38c-8.73-11.75-9.15-26.44-1.47-34.33-1.03,.48-2.04,1.04-2.97,1.73-9.76,7.25-10.01,23.43-.57,36.15,4.71,6.35,10.95,10.63,17.23,12.43,6.25,1.75,12.53,1.03,17.37-2.57,.68-.51,1.31-1.06,1.9-1.65-9.71,4.32-23.04-.39-31.49-11.76Z"/>
      <path class="cls-3" d="M123.97,113.57c0,5.55,2.4,10.69,6.49,14.95-4.08-4.63-6.44-10.02-6.48-15.31,0,.12-.01,.24-.01,.36Z"/>
      <path class="cls-3" d="M192.72,127.61c-.17,.27-.37,.54-.56,.81,.6-.63,1.16-1.29,1.68-1.96-.43,.39-.89,.77-1.12,1.15Z"/>
      <path class="cls-3" d="M125.52,106.01c.4-.86,.86-1.68,1.38-2.46-2.48,10.72,5.5,23.07,19.05,28.59,12.83,5.23,41.03,2.15,48.26-6.15,2.77-3.71,4.34-7.93,4.34-12.42,0-14.65-16.69-26.53-37.29-26.53-16.9,0-31.17,8-35.74,18.96Zm35.74-16.06c10.23,0,18.53,5.9,18.53,13.18s-8.3,13.18-18.53,13.18-18.53-5.9-18.53-13.18c0-7.28,8.3-13.18,18.53-13.18Z"/>
      <path class="cls-3" d="M176.82,137.67c-2.77,.85-5.69,1.51-8.67,1.96,3.04-.4,5.94-1.07,8.67-1.96Z"/>
      <path class="cls-2" d="M161.26,116.31c10.23,0,18.53-5.9,18.53-13.18s-8.3-13.18-18.53-13.18-18.53,5.9-18.53,13.18c0,7.28,8.3,13.18,18.53,13.18Zm8.36-21.05c2.29,0,4.14,1.85,4.14,4.14,0,2.29-1.85,4.14-4.14,4.14s-4.14-1.86-4.14-4.14,1.86-4.14,4.14-4.14Z"/>
      <path class="cls-3" d="M229.19,395.29c-13.19,0-23.89,4.27-23.89,9.55s10.69,9.55,23.89,9.55,23.89-4.27,23.89-9.55-10.69-9.55-23.89-9.55Z"/>
      <path class="cls-3" d="M94.86,395.29c-13.19,0-23.89,4.27-23.89,9.55s10.69,9.55,23.89,9.55,23.89-4.27,23.89-9.55-10.69-9.55-23.89-9.55Z"/>
      <path class="cls-3" d="M284.82,294.73c3.95-2.87,6.69-9,6.69-16.12,0-4.05-.89-7.78-2.38-10.78-.36,2.9-.67,5.8-.89,8.72-.48,6.1-1.46,12.68-3.41,18.18Z"/>
      <path class="cls-3" d="M279.81,260.76c-6.46,0-11.69,8-11.69,17.86s5.24,17.86,11.69,17.86c1.79,0,3.49-.63,5.01-1.74,1.95-5.49,2.93-12.08,3.41-18.18,.23-2.91,.54-5.82,.89-8.72-2.14-4.3-5.51-7.08-9.31-7.08Zm5.11,7.9c-1.13,1.13-2.97,1.13-4.11,0-1.14-1.13-1.14-2.97,0-4.11,1.13-1.13,2.97-1.13,4.11,0,1.14,1.13,1.14,2.97,0,4.11Z"/>
      <path class="cls-3" d="M44.2,260.76c-6.46,0-11.69,8-11.69,17.86s5.24,17.86,11.69,17.86,11.69-8,11.69-17.86-5.24-17.86-11.69-17.86Zm5.53,7.9c-1.13,1.13-2.97,1.13-4.11,0-1.13-1.13-1.13-2.97,0-4.11,1.14-1.13,2.97-1.13,4.11,0s1.13,2.97,0,4.11Z"/>
      <path class="cls-3" d="M196.54,89.95c9.86,0,17.86-8,17.86-17.86s-8-17.86-17.86-17.86-17.86,8-17.86,17.86,8,17.86,17.86,17.86Zm10.84-30.04c2.29,0,4.14,1.85,4.14,4.14s-1.85,4.14-4.14,4.14-4.14-1.86-4.14-4.14,1.86-4.14,4.14-4.14Zm-10.84,3.25c4.93,0,8.93,4,8.93,8.93s-4,8.93-8.93,8.93-8.93-4-8.93-8.93,4-8.93,8.93-8.93Z"/>
      <circle class="cls-2" cx="196.54" cy="72.09" r="8.93" transform="translate(-10.09 38.47) rotate(-10.9)"/>
      <path class="cls-3" d="M76.55,16.81c-9.44,12.72-9.19,28.9,.57,36.15,6.96,5.17,16.87,4.37,25.42-1.12-6.34,5.9-14.13,8.87-21.09,8.27,8.77,.84,18.89-4.02,25.77-13.29,9.44-12.72,9.19-28.9-.57-36.15-7.07-5.25-17.19-4.36-25.82,1.36-1.52,1.44-2.96,3.02-4.27,4.79Zm26.32-2.87c1.13-1.13,2.97-1.13,4.11,0s1.13,2.97,0,4.11c-1.13,1.13-2.97,1.13-4.11,0-1.13-1.13-1.13-2.97,0-4.11Z"/>
      <path class="cls-4" d="M72.29,56.72c2.4,1.78,5.15,2.83,8.08,3.25-2.87-.44-5.56-1.5-7.92-3.25-9.76-7.25-10.01-23.43-.57-36.15,2.6-3.5,5.67-6.37,8.95-8.55,.08-.08,.16-.16,.25-.24-3.43,2.2-6.65,5.14-9.35,8.79-9.44,12.72-9.19,28.9,.57,36.15Z"/>
      <path class="cls-4" d="M71.88,20.57c-9.44,12.72-9.19,28.9,.57,36.15,2.36,1.75,5.05,2.81,7.92,3.25,.13,.02,.25,.04,.38,.06,.23,.03,.47,.05,.7,.07,6.96,.6,14.75-2.37,21.09-8.27-8.54,5.49-18.45,6.29-25.42,1.12-9.76-7.25-10.01-23.43-.57-36.15,1.31-1.77,2.76-3.35,4.27-4.79-3.28,2.18-6.35,5.05-8.95,8.55Z"/>
      <circle class="cls-1" cx="207.39" cy="64.05" r="4.14"/>
      <path class="cls-3" d="M108.12,72.09c0,9.86,8,17.86,17.86,17.86s17.86-8,17.86-17.86-8-17.86-17.86-17.86-17.86,8-17.86,17.86Zm28.7-12.18c2.29,0,4.14,1.85,4.14,4.14s-1.86,4.14-4.14,4.14-4.14-1.86-4.14-4.14,1.85-4.14,4.14-4.14Zm-10.84,3.25c4.93,0,8.93,4,8.93,8.93s-4,8.93-8.93,8.93-8.93-4-8.93-8.93,4-8.93,8.93-8.93Z"/>
      <circle class="cls-2" cx="125.97" cy="72.09" r="8.93" transform="translate(-11.36 25.12) rotate(-10.9)"/>
      <circle class="cls-1" cx="136.82" cy="64.05" r="4.14"/>
      <path class="cls-4" d="M194.87,125.13c-.2,.29-.42,.58-.67,.86-.12,.16-.24,.31-.36,.47,.47-.43,.92-.87,1.03-1.33Z"/>
      <path class="cls-4" d="M130.46,128.52c3.31,3.75,7.76,7,13.04,9.25,6.4,2.74,15.73,3.22,24.65,1.86-2.23,.3-4.54,.46-6.89,.46-12.8,0-24.08-4.59-30.8-11.57Z"/>
      <path class="cls-4" d="M125.25,106.57c-.88,2.15-1.28,4.39-1.26,6.65,.05-2.5,.58-4.92,1.53-7.2-.09,.19-.19,.37-.27,.56Z"/>
      <path class="cls-4" d="M192.16,128.42c-3.81,4-9.11,7.22-15.33,9.25,6.67-2.05,12.35-5.2,15.33-9.25Z"/>
      <path class="cls-4" d="M145.95,132.14c-13.55-5.53-21.53-17.87-19.05-28.59-.52,.78-.98,1.6-1.38,2.46-.95,2.29-1.49,4.7-1.53,7.2,.04,5.29,2.39,10.68,6.48,15.31,6.72,6.99,18,11.57,30.8,11.57,2.36,0,4.66-.16,6.89-.46,2.98-.45,5.91-1.11,8.67-1.96,6.22-2.04,11.53-5.25,15.33-9.25,.2-.27,.39-.53,.56-.81,.23-.37,.69-.76,1.12-1.15,.12-.16,.24-.31,.36-.47-7.23,8.29-35.43,11.38-48.26,6.15Z"/>
      <path class="cls-1" d="M169.62,103.55c2.29,0,4.14-1.86,4.14-4.14,0-2.29-1.85-4.14-4.14-4.14s-4.14,1.85-4.14,4.14,1.86,4.14,4.14,4.14Z"/>
      <path class="cls-1" d="M234.68,17.73c1.6,0,2.91-1.3,2.91-2.91s-1.3-2.91-2.91-2.91-2.91,1.3-2.91,2.91,1.3,2.91,2.91,2.91Z"/>
      <path class="cls-1" d="M106.99,18.05c1.13-1.13,1.13-2.97,0-4.11s-2.97-1.13-4.11,0-1.13,2.97,0,4.11c1.13,1.13,2.97,1.13,4.11,0Z"/>
      <path class="cls-1" d="M45.61,264.54c-1.13,1.13-1.13,2.97,0,4.11,1.14,1.13,2.97,1.13,4.11,0s1.13-2.97,0-4.11-2.97-1.13-4.11,0Z"/>
      <path class="cls-1" d="M280.81,264.54c-1.14,1.13-1.14,2.97,0,4.11,1.13,1.13,2.97,1.13,4.11,0,1.14-1.13,1.14-2.97,0-4.11-1.13-1.13-2.97-1.13-4.11,0Z"/>
      <path class="cls-4" d="M133.69,356.23h-11.76c-18.32,0-33.18-14.85-33.18-33.18v-4.53c0-8.4,3.12-16.06,8.27-21.9-.73-.59-1.44-1.25-2.11-1.97-5.09,5.43-8.42,14.39-8.42,24.53v10.86c0,16.57,8.89,30.01,19.85,30.01h36.89c11.25,0,16.12-4.58,18.24-11.68-1.02-1.99-1.88-4.18-2.54-6.52-5.15,8.6-14.55,14.39-25.24,14.39Z"/>
      <path class="cls-4" d="M155.5,297.16c1.78,2.14,3.29,4.5,4.49,7.05,.07-.2,.15-.4,.22-.59-1.06-2.64-2.39-5.01-3.92-7.03-.25,.2-.52,.39-.79,.57Z"/>
      <path class="cls-3" d="M157.33,319.18c0-5.46,.97-10.57,2.65-14.98-1.2-2.54-2.71-4.91-4.49-7.05-1.24,.83-2.68,1.49-4.36,1.98,1.1,.38,1.92,1.87,1.92,3.64,0,2.07-1.11,3.75-2.48,3.75s-2.48-1.68-2.48-3.75c0-1.36,.48-2.54,1.2-3.19-1.79,.36-3.79,.55-6.07,.55h-36.89c-3.37,0-6.54-1.27-9.33-3.52-5.14,5.84-8.27,13.5-8.27,21.9v4.53c0,18.32,14.85,33.18,33.18,33.18h11.76c10.69,0,20.1-5.79,25.24-14.39-1.03-3.62-1.6-7.61-1.6-11.8v-10.86Z"/>
      <path class="cls-1" d="M148.1,302.79c0,2.07,1.11,3.75,2.48,3.75s2.48-1.68,2.48-3.75c0-1.78-.82-3.26-1.92-3.64-.58,.17-1.2,.32-1.84,.45-.72,.66-1.2,1.84-1.2,3.19Z"/>
      <path class="cls-4" d="M204.53,356.23h-11.76c-13.09,0-24.4-7.58-29.8-18.59-.16,3.95-.56,7.59-1.5,10.73,3.63,7.1,9.32,11.68,15.72,11.68h36.89c19.28,0,19.85-13.44,19.85-30.01v-3.21c0,16.17-13.23,29.4-29.4,29.4Z"/>
      <path class="cls-4" d="M165.75,294.66c-2.23,2.38-4.12,5.43-5.54,8.96,.49,1.22,.92,2.49,1.29,3.81,1.42-4.01,3.6-7.67,6.36-10.8-.73-.59-1.44-1.25-2.11-1.97Z"/>
      <path class="cls-4" d="M233.37,312.12c-.98-6.12-3.2-11.51-6.24-15.53-.25,.2-.52,.39-.79,.57,3.52,4.22,5.98,9.34,7.03,14.96Z"/>
      <path class="cls-4" d="M161.87,335.14c-.7,2.37-1.7,4.62-2.94,6.7,.66,2.34,1.52,4.53,2.54,6.52,.93-3.14,1.33-6.77,1.5-10.73-.4-.81-.76-1.65-1.09-2.5Z"/>
      <path class="cls-4" d="M159.98,304.21c.54,1.14,1.01,2.33,1.41,3.54,.04-.1,.07-.21,.11-.31-.37-1.32-.8-2.6-1.29-3.81-.08,.19-.15,.39-.22,.59Z"/>
      <path class="cls-4" d="M159.59,318.53c0-3.78,.64-7.4,1.8-10.79-.4-1.21-.87-2.39-1.41-3.54-1.68,4.41-2.65,9.52-2.65,14.98v10.86c0,4.19,.57,8.18,1.6,11.8,1.25-2.08,2.24-4.33,2.94-6.7-1.47-3.75-2.28-7.82-2.28-12.08v-4.53Z"/>
      <path class="cls-3" d="M233.93,318.12c0-2.05-.2-4.06-.56-6.01,.36,2.27,.56,4.63,.56,7.07v-1.06Z"/>
      <path class="cls-3" d="M221.99,299.14c1.1,.38,1.92,1.87,1.92,3.64,0,2.07-1.11,3.75-2.48,3.75s-2.48-1.68-2.48-3.75c0-1.36,.48-2.54,1.2-3.19-1.79,.36-3.79,.55-6.07,.55h-36.89c-3.37,0-6.54-1.27-9.33-3.52-2.76,3.13-4.93,6.79-6.36,10.8,.42,1.5,.76,3.07,1.02,4.69,.36,1.95,.56,3.95,.56,6.01v11.92c0,2.63-.02,5.17-.12,7.6,5.4,11.01,16.71,18.59,29.8,18.59h11.76c16.17,0,29.4-13.23,29.4-29.4v-7.65c0-2.44-.2-4.8-.56-7.07-1.04-5.62-3.51-10.74-7.03-14.96-1.24,.82-2.68,1.49-4.36,1.98Z"/>
      <path class="cls-3" d="M162.52,312.12c-.26-1.62-.6-3.18-1.02-4.69-.04,.1-.07,.21-.11,.31,.47,1.42,.85,2.88,1.13,4.37Z"/>
      <path class="cls-3" d="M162.97,337.64c.1-2.43,.12-4.97,.12-7.6v-3.21c0,2.88-.43,5.67-1.21,8.31,.33,.85,.69,1.69,1.09,2.5Z"/>
      <path class="cls-3" d="M163.08,318.12c0-2.05-.2-4.06-.56-6.01,.36,2.27,.56,4.63,.56,7.07v-1.06Z"/>
      <path class="cls-3" d="M159.59,318.53v4.53c0,4.27,.81,8.34,2.28,12.08,.78-2.64,1.21-5.42,1.21-8.31v-7.65c0-2.44-.2-4.8-.56-7.07-.28-1.5-.66-2.96-1.13-4.37-1.16,3.38-1.8,7.01-1.8,10.79Z"/>
      <path class="cls-1" d="M218.95,302.79c0,2.07,1.11,3.75,2.48,3.75s2.48-1.68,2.48-3.75c0-1.78-.82-3.26-1.92-3.64-.58,.17-1.2,.32-1.84,.45-.72,.66-1.2,1.84-1.2,3.19Z"/>
      <path class="cls-4" d="M150.3,291.14c2.21,1.28,4.24,3.13,5.99,5.45,2.59-2.01,4.19-4.79,5.18-8.13-1.02-1.99-1.88-4.18-2.54-6.52-2.18,3.65-5.14,6.79-8.63,9.2Z"/>
      <path class="cls-4" d="M155.27,237c1.88,2.2,3.47,4.66,4.71,7.31,.07-.2,.15-.4,.22-.59-1.1-2.74-2.49-5.2-4.1-7.27-.27,.19-.54,.37-.83,.55Z"/>
      <path class="cls-4" d="M102.21,289.83c-8.16-6.04-13.46-15.74-13.46-26.68v-4.53c0-6.59,1.93-12.72,5.24-17.88h-3.25c-2.66,5.1-4.25,11.54-4.25,18.54v10.86c0,10.14,3.33,19.09,8.42,24.53,2.16-2.3,4.63-3.97,7.3-4.83Z"/>
      <path class="cls-4" d="M150.3,291.14c-.24,.16-.48,.32-.72,.48,2.19,1.6,4.19,3.46,5.92,5.54,.27-.18,.54-.37,.79-.57-1.75-2.32-3.77-4.17-5.99-5.45Z"/>
      <path class="cls-4" d="M97.02,296.63c1.94-2.21,4.18-4.16,6.64-5.79-.49-.33-.98-.66-1.45-1.01-2.67,.86-5.14,2.53-7.3,4.83,.67,.72,1.38,1.38,2.11,1.97Z"/>
      <path class="cls-4" d="M143.23,300.15c2.28,0,4.29-.19,6.07-.55,.37-.34,.81-.55,1.28-.55,.19,0,.38,.04,.56,.1,1.67-.49,3.12-1.16,4.36-1.98-1.74-2.08-3.73-3.94-5.92-5.54-4.59,2.97-10.05,4.71-15.89,4.71h-11.76c-6.75,0-13.03-2.02-18.27-5.49-2.46,1.63-4.7,3.58-6.64,5.79,2.78,2.24,5.95,3.52,9.33,3.52h36.89Z"/>
      <path class="cls-4" d="M149.3,299.59c.64-.13,1.26-.28,1.84-.45-.18-.06-.37-.1-.56-.1-.47,0-.91,.21-1.28,.55Z"/>
      <path class="cls-3" d="M106.47,289.17c4.62-2.43,9.87-3.82,15.45-3.82h8.39c5.82,0,11.29,1.53,16.03,4.19,1.37,.33,2.7,.87,3.96,1.6,3.49-2.41,6.44-5.55,8.63-9.2-1.03-3.62-1.6-7.61-1.6-11.8v-10.86c0-5.46,.97-10.57,2.65-14.98-1.24-2.65-2.83-5.1-4.71-7.31-1.44,.88-3.16,1.63-5.19,2.21,.16-.05,.33-.08,.5-.08,1.37,0,2.48,1.68,2.48,3.75s-1.11,3.75-2.48,3.75-2.48-1.68-2.48-3.75c0-1.81,.85-3.32,1.98-3.67-3.42,.99-7.72,1.53-13.17,1.53h-42.93c-3.31,5.16-5.24,11.3-5.24,17.88v4.53c0,10.94,5.29,20.64,13.46,26.68,1.33-.43,2.72-.66,4.13-.66h.13Z"/>
      <path class="cls-3" d="M146.34,289.54c1.12,.63,2.2,1.32,3.24,2.08,.24-.16,.49-.32,.72-.48-1.26-.73-2.59-1.27-3.96-1.6Z"/>
      <path class="cls-3" d="M106.34,289.17c-1.42,0-2.8,.23-4.13,.66,.47,.35,.96,.69,1.45,1.01,.91-.6,1.85-1.16,2.82-1.67h-.13Z"/>
      <path class="cls-3" d="M121.93,285.35c-5.58,0-10.84,1.38-15.45,3.82h36.76c1.06,0,2.1,.13,3.11,.37-4.74-2.66-10.2-4.19-16.03-4.19h-8.39Z"/>
      <path class="cls-3" d="M133.69,296.33c5.84,0,11.3-1.74,15.89-4.71-1.04-.75-2.12-1.45-3.24-2.08-1.01-.24-2.05-.37-3.11-.37h-36.76c-.97,.51-1.91,1.07-2.82,1.67,5.24,3.46,11.52,5.49,18.27,5.49h11.76Z"/>
      <path class="cls-4" d="M160.21,243.71c.49,1.22,.92,2.49,1.29,3.81,1.39-3.91,3.5-7.49,6.16-10.57-.7-.66-1.35-1.39-1.95-2.16-2.21,2.37-4.09,5.4-5.5,8.92Z"/>
      <path class="cls-4" d="M221.14,291.14c2.21,1.28,4.24,3.13,5.99,5.45,6.52-5.06,6.8-15.01,6.8-26.45v-3.21c0,10.01-5.08,18.9-12.78,24.21Z"/>
      <path class="cls-4" d="M165.75,294.66c2.16-2.3,4.63-3.97,7.3-4.83-4.26-3.15-7.73-7.3-10.08-12.09-.16,3.95-.56,7.59-1.5,10.73,1.21,2.37,2.66,4.46,4.28,6.2Z"/>
      <path class="cls-4" d="M233.37,252.21c-.61-3.82-1.7-7.34-3.17-10.43-.23,0-.46,.02-.68,.02,1.84,3.17,3.16,6.68,3.86,10.41Z"/>
      <path class="cls-4" d="M165.75,294.66c.67,.72,1.38,1.38,2.11,1.97,1.94-2.21,4.18-4.16,6.64-5.79-.49-.33-.98-.66-1.45-1.01-2.67,.86-5.14,2.53-7.3,4.83Z"/>
      <path class="cls-4" d="M221.14,291.14c-.24,.16-.48,.32-.72,.48,2.19,1.6,4.19,3.46,5.92,5.54,.27-.18,.54-.37,.79-.57-1.75-2.32-3.77-4.17-5.99-5.45Z"/>
      <path class="cls-4" d="M192.77,296.33c-6.75,0-13.03-2.02-18.27-5.49-2.46,1.63-4.7,3.58-6.64,5.79,2.78,2.24,5.95,3.52,9.33,3.52h36.89c2.28,0,4.29-.19,6.07-.55,.37-.34,.81-.55,1.28-.55,.19,0,.38,.04,.56,.1,1.67-.49,3.12-1.16,4.36-1.98-1.74-2.08-3.73-3.94-5.92-5.54-4.59,2.97-10.05,4.71-15.89,4.71h-11.76Z"/>
      <path class="cls-4" d="M220.15,299.59c.64-.13,1.26-.28,1.84-.45-.18-.06-.37-.1-.56-.1-.47,0-.91,.21-1.28,.55Z"/>
      <path class="cls-4" d="M159.98,244.3c.54,1.14,1.01,2.33,1.41,3.54,.04-.1,.07-.21,.11-.31-.37-1.32-.8-2.6-1.29-3.81-.08,.19-.15,.39-.22,.59Z"/>
      <path class="cls-4" d="M158.93,281.94c.66,2.34,1.52,4.53,2.54,6.52,.93-3.14,1.33-6.77,1.5-10.73-.4-.81-.76-1.65-1.09-2.5-.7,2.37-1.7,4.62-2.94,6.7Z"/>
      <path class="cls-4" d="M157.33,270.13c0,4.19,.57,8.18,1.6,11.8,1.25-2.08,2.24-4.33,2.94-6.7-1.47-3.75-2.28-7.82-2.28-12.08v-4.53c0-3.78,.64-7.4,1.8-10.79-.4-1.21-.87-2.39-1.41-3.54-1.68,4.41-2.65,9.52-2.65,14.98v10.86Z"/>
      <path class="cls-3" d="M227.39,177.49h-39.16c-8.36,0-15.93,3.32-21.5,8.71-1.65,4.76-2.25,11.11-2.25,15.48v9.47c0,7.91,1.39,15.34,5.02,20.45,2.36-1.5,4.96-2.33,7.68-2.33h.13c4.62-2.43,9.87-3.82,15.45-3.82h8.39c5.82,0,11.29,1.53,16.03,4.19,4.37,1.04,8.26,4.23,11.19,8.84h3.82c1.01,0,2.01-.06,3-.18,13.29-3.46,23.1-15.53,23.1-29.9h0c0-17.07-13.83-30.9-30.9-30.9Zm16.25,17.65c-1.8,0-3.27-1.46-3.27-3.27,0-1.8,1.46-3.27,3.27-3.27s3.27,1.46,3.27,3.27-1.46,3.27-3.27,3.27Z"/>
      <path class="cls-3" d="M177.32,229.27h-.13c-2.72,0-5.32,.83-7.68,2.33,.49,.69,1.01,1.33,1.58,1.93,1.9-1.65,3.99-3.08,6.23-4.26Z"/>
      <path class="cls-3" d="M227.31,238.47h1.07c-2.93-4.6-6.82-7.8-11.19-8.84,3.96,2.22,7.41,5.24,10.13,8.84Z"/>
      <path class="cls-1" d="M148.1,242.88c0,2.07,1.11,3.75,2.48,3.75s2.48-1.68,2.48-3.75-1.11-3.75-2.48-3.75c-.17,0-.34,.03-.5,.08,0,0,0,0,0,0-1.13,.35-1.98,1.86-1.98,3.67Z"/>
      <path class="cls-3" d="M233.93,258.22c0-2.05-.2-4.06-.56-6.01,.36,2.27,.56,4.63,.56,7.07v-1.06Z"/>
      <path class="cls-3" d="M173.22,235.4c1.9,1.38,4.15,2.34,6.82,2.78-2.4-.66-4.69-1.6-6.82-2.78Z"/>
      <path class="cls-3" d="M229.22,241.8h-5.43c.07,.34,.12,.7,.12,1.08,0,2.07-1.11,3.75-2.48,3.75s-2.48-1.68-2.48-3.75c0-.38,.05-.73,.12-1.08h-38.47c-5.44,0-9.72-1.82-12.93-4.85-2.66,3.08-4.77,6.65-6.16,10.57,.42,1.5,.76,3.07,1.02,4.69,.36,1.95,.56,3.95,.56,6.01v11.92c0,2.63-.02,5.17-.12,7.6,2.35,4.8,5.83,8.94,10.08,12.09,1.33-.43,2.72-.66,4.13-.66h.13c4.62-2.43,9.87-3.82,15.45-3.82h8.39c5.82,0,11.29,1.53,16.03,4.19,1.37,.33,2.7,.87,3.96,1.6,7.7-5.31,12.78-14.2,12.78-24.21v-7.65c0-2.44-.2-4.8-.56-7.07-.69-3.73-2.01-7.24-3.86-10.41-.1,0-.2,0-.29,0Z"/>
      <path class="cls-3" d="M221.14,291.14c-1.26-.73-2.59-1.27-3.96-1.6,1.12,.63,2.2,1.32,3.24,2.08,.24-.16,.49-.32,.72-.48Z"/>
      <path class="cls-3" d="M177.32,289.17h-.13c-1.42,0-2.8,.23-4.13,.66,.47,.35,.96,.69,1.45,1.01,.91-.6,1.85-1.16,2.82-1.67Z"/>
      <path class="cls-3" d="M217.18,289.54c-4.74-2.66-10.2-4.19-16.03-4.19h-8.39c-5.58,0-10.84,1.38-15.45,3.82h36.76c1.06,0,2.1,.13,3.11,.37Z"/>
      <path class="cls-3" d="M192.77,296.33h11.76c5.84,0,11.3-1.74,15.89-4.71-1.03-.75-2.12-1.45-3.24-2.08-1.01-.24-2.05-.37-3.11-.37h-36.76c-.97,.51-1.91,1.07-2.82,1.67,5.24,3.46,11.52,5.49,18.27,5.49Z"/>
      <path class="cls-3" d="M162.97,277.73c.1-2.43,.12-4.97,.12-7.6v-3.21c0,2.88-.43,5.67-1.21,8.31,.33,.85,.69,1.69,1.09,2.5Z"/>
      <path class="cls-3" d="M162.52,252.21c-.26-1.62-.6-3.18-1.02-4.69-.04,.1-.07,.21-.11,.31,.47,1.42,.85,2.88,1.13,4.37Z"/>
      <path class="cls-3" d="M163.08,258.22c0-2.05-.2-4.06-.56-6.01,.36,2.27,.56,4.63,.56,7.07v-1.06Z"/>
      <path class="cls-3" d="M159.59,258.62v4.53c0,4.27,.81,8.34,2.28,12.08,.78-2.64,1.21-5.42,1.21-8.31v-7.65c0-2.44-.2-4.8-.56-7.07-.28-1.5-.66-2.96-1.13-4.37-1.16,3.38-1.8,7.01-1.8,10.79Z"/>
      <path class="cls-3" d="M217.18,229.64c-4.74-2.66-10.2-4.19-16.03-4.19h-8.39c-5.58,0-10.84,1.38-15.45,3.82h36.76c1.06,0,2.1,.13,3.11,.37Z"/>
      <path class="cls-3" d="M173.22,235.4c2.13,1.19,4.42,2.13,6.82,2.78,1.11,.19,2.28,.29,3.53,.29h43.74c-2.72-3.6-6.17-6.62-10.13-8.84-1.01-.24-2.05-.37-3.11-.37h-36.76c-2.24,1.18-4.33,2.62-6.23,4.26,.66,.69,1.37,1.31,2.14,1.87Z"/>
      <path class="cls-1" d="M218.95,242.88c0,2.07,1.11,3.75,2.48,3.75s2.48-1.68,2.48-3.75c0-.38-.05-.73-.12-1.08h-4.73c-.07,.34-.12,.7-.12,1.08Z"/>
      <path class="cls-4" d="M156.11,236.44c3.17-2.23,4.91-5.22,5.85-8.73-.61-1.77-1.09-3.65-1.42-5.61-.3-.61-.59-1.23-.85-1.86-2.22,4.36-5.43,8.14-9.33,11.03,2.11,1.23,4.05,2.99,5.75,5.18Z"/>
      <path class="cls-4" d="M65.1,206.51h0c0-10.9,5.65-20.47,14.17-25.97-10.01,3.67-17.15,13.29-17.15,24.57v9.47c0,14.45,11.72,26.17,26.17,26.17h2.45c.65-1.25,1.36-2.41,2.13-3.49-15.59-1.57-27.76-14.74-27.76-30.74Z"/>
      <path class="cls-4" d="M155.27,237c.29-.18,.56-.36,.83-.55-1.69-2.18-3.63-3.95-5.75-5.18-.23,.17-.47,.34-.7,.5,2.07,1.52,3.96,3.27,5.62,5.23Z"/>
      <path class="cls-4" d="M96.42,237.41h-.42c-1.06,0-2.11-.05-3.14-.16-.77,1.08-1.48,2.24-2.13,3.49h3.25c.74-1.16,1.55-2.27,2.43-3.33Z"/>
      <path class="cls-4" d="M150.08,239.21s0,0,0,0c2.03-.59,3.74-1.33,5.19-2.21-1.66-1.95-3.55-3.71-5.62-5.23-5.07,3.55-11.23,5.64-17.85,5.64h-35.38c-.88,1.06-1.69,2.17-2.43,3.33h42.93c5.44,0,9.75-.54,13.17-1.53Z"/>
      <path class="cls-4" d="M160.16,219.27c-.15,.33-.31,.65-.47,.97,.26,.63,.55,1.25,.85,1.86-.16-.93-.28-1.87-.38-2.83Z"/>
      <path class="cls-1" d="M243.64,188.61c-1.8,0-3.27,1.46-3.27,3.27,0,1.8,1.46,3.27,3.27,3.27s3.27-1.46,3.27-3.27-1.46-3.27-3.27-3.27Z"/>
      <path class="cls-3" d="M136.92,178.94c10.51,0,19.56,6.19,23.73,15.13,.1-.59,.21-1.13,.33-1.64-4.14-9.88-13.89-16.82-25.27-16.82h-39.7c-6.17,0-11.91,1.81-16.73,4.93,2.81-1.03,5.85-1.59,9.02-1.59h48.63Z"/>
      <path class="cls-3" d="M65.1,206.51h0c0,16.01,12.17,29.17,27.76,30.74,3.54-4.95,8.27-7.98,13.48-7.98h.13c4.62-2.43,9.87-3.82,15.45-3.82h8.39c5.82,0,11.29,1.53,16.03,4.19,1.39,.33,2.74,.89,4.02,1.63,3.9-2.89,7.11-6.67,9.33-11.03-1.52-3.65-2.36-7.65-2.36-11.85h0c0-4.93,1.16-9.59,3.21-13.72,.03-.2,.06-.41,.1-.6-4.16-8.93-13.22-15.13-23.73-15.13h-48.63c-3.17,0-6.2,.56-9.02,1.59-8.52,5.5-14.17,15.08-14.17,25.97Zm81.5-18.97c1.8,0,3.27,1.46,3.27,3.27s-1.46,3.27-3.27,3.27-3.27-1.46-3.27-3.27,1.46-3.27,3.27-3.27Z"/>
      <path class="cls-3" d="M106.47,229.27h-.13c-5.2,0-9.94,3.03-13.48,7.98,1.03,.1,2.08,.16,3.14,.16h.42c2.77-3.33,6.19-6.1,10.05-8.14Z"/>
      <path class="cls-3" d="M150.36,231.27c-1.28-.75-2.63-1.3-4.02-1.63,1.15,.65,2.26,1.36,3.32,2.13,.24-.17,.47-.33,.7-.5Z"/>
      <path class="cls-3" d="M146.34,229.64c-4.74-2.66-10.2-4.19-16.03-4.19h-8.39c-5.58,0-10.84,1.38-15.45,3.82h36.76c1.06,0,2.1,.13,3.11,.37Z"/>
      <path class="cls-3" d="M149.66,231.77c-1.06-.78-2.17-1.49-3.32-2.13-1.01-.24-2.05-.37-3.11-.37h-36.76c-3.86,2.04-7.28,4.81-10.05,8.14h35.38c6.62,0,12.78-2.09,17.85-5.64Z"/>
      <path class="cls-3" d="M159.93,214.57v-9.47c0-4.45,.22-7.82,.62-10.44-2.05,4.13-3.21,8.79-3.21,13.72h0c0,4.2,.84,8.2,2.36,11.85,.16-.32,.32-.64,.47-.97-.15-1.54-.23-3.11-.23-4.7Z"/>
      <path class="cls-4" d="M230.2,241.78c8.17-.3,15.38-4.33,19.97-10.46-4,3.79-9.2,6.32-14.97,6.98-2.04,.53-4.16,.86-6.33,.96,.48,.8,.92,1.64,1.34,2.52Z"/>
      <path class="cls-4" d="M165.71,234.8c.9-.97,1.86-1.83,2.86-2.57-2.36-1.95-4.42-4.24-6.12-6.8-.13,.78-.3,1.54-.5,2.28,.92,2.65,2.16,5.05,3.75,7.09Z"/>
      <path class="cls-4" d="M166.74,186.21c.57-1.64,1.26-3.1,2.11-4.22-3.48,3.29-6.4,4.1-7.87,10.44,.11,.27,.22,.55,.33,.83,1.47-2.61,3.31-4.98,5.44-7.05Z"/>
      <path class="cls-4" d="M227.89,239.28c.58,.81,1.12,1.65,1.62,2.52,.23,0,.46-.01,.68-.02-.42-.88-.86-1.72-1.34-2.52-.32,.01-.64,.02-.97,.02Z"/>
      <path class="cls-4" d="M170.72,233.85c-.74-.51-1.46-1.04-2.15-1.61-1.01,.73-1.96,1.6-2.86,2.57,.6,.77,1.25,1.5,1.95,2.16,.95-1.1,1.97-2.14,3.06-3.11Z"/>
      <path class="cls-4" d="M228.38,238.47c.16,.26,.33,.52,.48,.78,2.18-.1,4.3-.43,6.33-.96-.98,.11-1.98,.18-3,.18h-3.82Z"/>
      <path class="cls-4" d="M163.08,202.99v11.58c0,3.87-.06,7.55-.63,10.85,1.7,2.56,3.76,4.86,6.12,6.8,.31-.22,.62-.43,.93-.63-3.62-5.11-5.02-12.54-5.02-20.45v-9.47c0-4.37,.6-10.72,2.25-15.48-2.14,2.07-3.97,4.44-5.44,7.05,1.15,3.03,1.79,6.31,1.79,9.73Z"/>
      <path class="cls-4" d="M170.72,233.85c.12-.11,.24-.21,.36-.32-.57-.6-1.09-1.24-1.58-1.93-.31,.2-.62,.41-.93,.63,.69,.57,1.41,1.1,2.15,1.61Z"/>
      <path class="cls-4" d="M227.89,239.28c.32,0,.65,0,.97-.02-.16-.27-.32-.52-.48-.78h-1.07c.2,.26,.39,.53,.58,.81Z"/>
      <path class="cls-4" d="M220.75,239.29h-32.52c-2.84,0-5.58-.39-8.19-1.11-2.66-.45-4.92-1.41-6.82-2.78-.86-.48-1.7-1-2.51-1.56-1.09,.97-2.11,2.01-3.06,3.11,3.21,3.03,7.49,4.85,12.93,4.85h38.47c.24-1.22,.88-2.16,1.69-2.51Z"/>
      <path class="cls-4" d="M222.1,239.29c.81,.35,1.45,1.3,1.69,2.51h5.43c.1,0,.2,0,.29,0-.5-.86-1.04-1.7-1.62-2.52-.17,0-.33,.01-.5,.01h-5.29Z"/>
      <path class="cls-4" d="M171.08,233.53c-.12,.11-.24,.21-.36,.32,.81,.56,1.64,1.08,2.51,1.56-.77-.56-1.49-1.18-2.14-1.87Z"/>
      <path class="cls-4" d="M183.57,238.47c-1.25,0-2.42-.1-3.53-.29,2.61,.72,5.35,1.11,8.19,1.11h32.52c.22-.09,.44-.16,.67-.16s.46,.07,.67,.16h5.29c.17,0,.33,0,.5-.01-.19-.27-.38-.54-.58-.81h-43.74Z"/>
      <path class="cls-4" d="M222.1,239.29h-1.35c-.81,.35-1.45,1.3-1.69,2.51h4.73c-.24-1.22-.88-2.16-1.69-2.51Z"/>
      <path class="cls-4" d="M221.43,239.13c-.24,0-.46,.07-.67,.16h1.35c-.22-.09-.44-.16-.67-.16Z"/>
      <path class="cls-4" d="M161.96,227.71c.2-.74,.36-1.5,.5-2.28-.7-1.06-1.34-2.17-1.91-3.32,.33,1.96,.8,3.84,1.42,5.61Z"/>
      <path class="cls-4" d="M160.54,222.1c.57,1.15,1.21,2.26,1.91,3.32,.57-3.31,.63-6.98,.63-10.85v-8.44c0,4.69-1.05,9.14-2.92,13.14,.1,.96,.22,1.9,.38,2.83Z"/>
      <path class="cls-4" d="M160.74,194.29c.18-.35,.36-.69,.55-1.03-.11-.28-.21-.56-.33-.83-.12,.51-.23,1.06-.33,1.64,.03,.07,.07,.15,.1,.22Z"/>
      <path class="cls-4" d="M163.08,202.99c0-3.43-.64-6.71-1.79-9.73-.19,.34-.38,.68-.55,1.03,1.5,3.3,2.34,6.96,2.34,10.82v-2.12Z"/>
      <path class="cls-4" d="M160.64,194.07c-.03,.19-.06,.4-.1,.6,.06-.13,.13-.25,.2-.38-.03-.07-.07-.15-.1-.22Z"/>
      <path class="cls-4" d="M159.93,214.57c0,1.59,.08,3.16,.23,4.7,1.87-4,2.92-8.45,2.92-13.14v-1.02c0-3.86-.84-7.52-2.34-10.82-.07,.13-.13,.25-.2,.38-.4,2.62-.62,5.98-.62,10.44v9.47Z"/>
      <path class="cls-1" d="M146.61,194.08c1.8,0,3.27-1.46,3.27-3.27s-1.46-3.27-3.27-3.27-3.27,1.46-3.27,3.27,1.46,3.27,3.27,3.27Z"/>
    </g>
    <g>
      <g>
        <ellipse class="cls-1" cx="141.19" cy="351.09" rx="2.1" ry="3.42" transform="translate(-86.12 48.55) rotate(-15.01)"/>
        <ellipse class="cls-1" cx="141.84" cy="350.82" rx="2.1" ry="3.42" transform="translate(-86.02 48.71) rotate(-15.01)"/>
        <ellipse class="cls-1" cx="142.48" cy="350.51" rx="2.1" ry="3.42" transform="translate(-85.92 48.86) rotate(-15.01)"/>
        <ellipse class="cls-1" cx="143.11" cy="350.15" rx="2.1" ry="3.42" transform="translate(-85.81 49.02) rotate(-15.01)"/>
        <ellipse class="cls-1" cx="143.74" cy="349.75" rx="2.1" ry="3.42" transform="translate(-85.68 49.16) rotate(-15.01)"/>
        <ellipse class="cls-1" cx="144.35" cy="349.31" rx="2.1" ry="3.42" transform="translate(-85.55 49.31) rotate(-15.01)"/>
        <ellipse class="cls-1" cx="144.96" cy="348.83" rx="2.1" ry="3.42" transform="translate(-85.4 49.45) rotate(-15.01)"/>
        <ellipse class="cls-1" cx="145.56" cy="348.32" rx="2.1" ry="3.42" transform="translate(-85.25 49.59) rotate(-15.01)"/>
        <ellipse class="cls-1" cx="146.14" cy="347.76" rx="2.1" ry="3.42" transform="translate(-85.09 49.72) rotate(-15.01)"/>
        <ellipse class="cls-1" cx="146.71" cy="347.17" rx="2.1" ry="3.42" transform="translate(-84.91 49.85) rotate(-15.01)"/>
        <ellipse class="cls-1" cx="147.27" cy="346.55" rx="2.1" ry="3.42" transform="translate(-84.73 49.97) rotate(-15.01)"/>
        <ellipse class="cls-1" cx="147.82" cy="345.89" rx="2.1" ry="3.42" transform="translate(-84.54 50.09) rotate(-15.01)"/>
        <ellipse class="cls-1" cx="148.36" cy="345.2" rx="2.1" ry="3.42" transform="translate(-84.35 50.2) rotate(-15.01)"/>
        <ellipse class="cls-1" cx="148.88" cy="344.48" rx="2.1" ry="3.42" transform="translate(-84.14 50.31) rotate(-15.01)"/>
        <ellipse class="cls-1" cx="149.38" cy="343.73" rx="2.1" ry="3.42" transform="translate(-83.93 50.42) rotate(-15.01)"/>
        <ellipse class="cls-1" cx="149.87" cy="342.95" rx="2.1" ry="3.42" transform="translate(-83.71 50.52) rotate(-15.01)"/>
        <ellipse class="cls-1" cx="150.35" cy="342.14" rx="2.1" ry="3.42" transform="translate(-83.48 50.62) rotate(-15.01)"/>
        <ellipse class="cls-1" cx="150.8" cy="341.3" rx="2.1" ry="3.42" transform="translate(-83.25 50.71) rotate(-15.01)"/>
        <ellipse class="cls-1" cx="151.24" cy="340.44" rx="2.1" ry="3.42" transform="translate(-83.01 50.79) rotate(-15.01)"/>
        <ellipse class="cls-1" cx="151.67" cy="339.55" rx="2.1" ry="3.42" transform="translate(-82.77 50.87) rotate(-15.01)"/>
        <ellipse class="cls-1" cx="152.07" cy="338.64" rx="2.1" ry="3.42" transform="translate(-82.52 50.94) rotate(-15.01)"/>
        <ellipse class="cls-1" cx="152.46" cy="337.71" rx="2.1" ry="3.42" transform="translate(-82.27 51.01) rotate(-15.01)"/>
        <ellipse class="cls-1" cx="152.82" cy="336.75" rx="2.1" ry="3.42" transform="translate(-82.01 51.07) rotate(-15.01)"/>
        <ellipse class="cls-1" cx="153.17" cy="335.78" rx="2.1" ry="3.42" transform="translate(-81.74 51.13) rotate(-15.01)"/>
        <ellipse class="cls-1" cx="153.49" cy="334.78" rx="2.1" ry="3.42" transform="translate(-81.47 51.18) rotate(-15.01)"/>
        <ellipse class="cls-1" cx="153.8" cy="333.77" rx="2.1" ry="3.42" transform="translate(-81.2 51.22) rotate(-15.01)"/>
        <ellipse class="cls-1" cx="154.08" cy="332.74" rx="2.1" ry="3.42" transform="translate(-80.92 51.26) rotate(-15.01)"/>
        <ellipse class="cls-1" cx="154.34" cy="331.7" rx="2.1" ry="3.42" transform="translate(-80.65 51.29) rotate(-15.01)"/>
        <ellipse class="cls-1" cx="154.57" cy="330.64" rx="2.1" ry="3.42" transform="translate(-80.36 51.32) rotate(-15.01)"/>
        <ellipse class="cls-1" cx="154.79" cy="329.57" rx="2.1" ry="3.42" transform="translate(-80.08 51.34) rotate(-15.01)"/>
        <ellipse class="cls-1" cx="154.97" cy="328.49" rx="2.1" ry="3.42" transform="translate(-79.79 51.35) rotate(-15.01)"/>
        <ellipse class="cls-1" cx="155.13" cy="327.39" rx="2.1" ry="3.42" transform="translate(-79.5 51.35) rotate(-15.01)"/>
        <ellipse class="cls-1" cx="155.27" cy="326.28" rx="2.1" ry="3.42" transform="translate(-79.21 51.35) rotate(-15.01)"/>
        <ellipse class="cls-1" cx="155.38" cy="325.17" rx="2.1" ry="3.42" transform="translate(-78.92 51.34) rotate(-15.01)"/>
        <ellipse class="cls-1" cx="155.47" cy="324.05" rx="2.1" ry="3.42" transform="translate(-78.63 51.32) rotate(-15.01)"/>
        <ellipse class="cls-1" cx="155.52" cy="322.92" rx="2.1" ry="3.42" transform="translate(-78.33 51.3) rotate(-15.01)"/>
        <ellipse class="cls-1" cx="155.55" cy="321.79" rx="2.1" ry="3.42" transform="translate(-78.04 51.27) rotate(-15.01)"/>
        <ellipse class="cls-1" cx="155.55" cy="320.65" rx="2.1" ry="3.42" transform="translate(-77.74 51.23) rotate(-15.01)"/>
        <ellipse class="cls-1" cx="155.52" cy="319.5" rx="2.1" ry="3.42" transform="translate(-77.45 51.18) rotate(-15.01)"/>
        <ellipse class="cls-1" cx="155.46" cy="318.36" rx="2.1" ry="3.42" transform="translate(-77.15 51.13) rotate(-15.01)"/>
        <ellipse class="cls-1" cx="155.37" cy="317.22" rx="2.1" ry="3.42" transform="translate(-76.86 51.07) rotate(-15.01)"/>
        <ellipse class="cls-1" cx="155.25" cy="316.07" rx="2.1" ry="3.42" transform="translate(-76.57 51) rotate(-15.01)"/>
        <ellipse class="cls-1" cx="155.09" cy="314.93" rx="2.1" ry="3.42" transform="translate(-76.28 50.92) rotate(-15.01)"/>
        <ellipse class="cls-1" cx="154.91" cy="313.79" rx="2.1" ry="3.42" transform="translate(-75.99 50.83) rotate(-15.01)"/>
        <ellipse class="cls-1" cx="154.69" cy="312.65" rx="2.1" ry="3.42" transform="translate(-75.7 50.73) rotate(-15.01)"/>
        <ellipse class="cls-1" cx="154.44" cy="311.52" rx="2.1" ry="3.42" transform="translate(-75.41 50.63) rotate(-15.01)"/>
      </g>
      <g>
        <ellipse class="cls-1" cx="212.03" cy="351.09" rx="2.1" ry="3.42" transform="translate(-83.7 66.9) rotate(-15.01)"/>
        <ellipse class="cls-1" cx="212.68" cy="350.82" rx="2.1" ry="3.42" transform="translate(-83.61 67.06) rotate(-15.01)"/>
        <ellipse class="cls-1" cx="213.32" cy="350.51" rx="2.1" ry="3.42" transform="translate(-83.5 67.21) rotate(-15.01)"/>
        <ellipse class="cls-1" cx="213.96" cy="350.15" rx="2.1" ry="3.42" transform="translate(-83.39 67.36) rotate(-15.01)"/>
        <ellipse class="cls-1" cx="214.58" cy="349.75" rx="2.1" ry="3.42" transform="translate(-83.26 67.51) rotate(-15.01)"/>
        <ellipse class="cls-1" cx="215.2" cy="349.31" rx="2.1" ry="3.42" transform="translate(-83.13 67.66) rotate(-15.01)"/>
        <ellipse class="cls-1" cx="215.8" cy="348.83" rx="2.1" ry="3.42" transform="translate(-82.99 67.8) rotate(-15.01)"/>
        <ellipse class="cls-1" cx="216.4" cy="348.32" rx="2.1" ry="3.42" transform="translate(-82.83 67.93) rotate(-15.01)"/>
        <ellipse class="cls-1" cx="216.98" cy="347.76" rx="2.1" ry="3.42" transform="translate(-82.67 68.07) rotate(-15.01)"/>
        <ellipse class="cls-1" cx="217.56" cy="347.17" rx="2.1" ry="3.42" transform="translate(-82.5 68.2) rotate(-15.01)"/>
        <ellipse class="cls-1" cx="218.12" cy="346.55" rx="2.1" ry="3.42" transform="translate(-82.32 68.32) rotate(-15.01)"/>
        <ellipse class="cls-1" cx="218.67" cy="345.89" rx="2.1" ry="3.42" transform="translate(-82.13 68.44) rotate(-15.01)"/>
        <ellipse class="cls-1" cx="219.2" cy="345.2" rx="2.1" ry="3.42" transform="translate(-81.93 68.55) rotate(-15.01)"/>
        <ellipse class="cls-1" cx="219.72" cy="344.48" rx="2.1" ry="3.42" transform="translate(-81.72 68.66) rotate(-15.01)"/>
        <ellipse class="cls-1" cx="220.23" cy="343.73" rx="2.1" ry="3.42" transform="translate(-81.51 68.77) rotate(-15.01)"/>
        <ellipse class="cls-1" cx="220.72" cy="342.95" rx="2.1" ry="3.42" transform="translate(-81.29 68.87) rotate(-15.01)"/>
        <ellipse class="cls-1" cx="221.19" cy="342.14" rx="2.1" ry="3.42" transform="translate(-81.07 68.96) rotate(-15.01)"/>
        <ellipse class="cls-1" cx="221.65" cy="341.3" rx="2.1" ry="3.42" transform="translate(-80.84 69.05) rotate(-15.01)"/>
        <ellipse class="cls-1" cx="222.09" cy="340.44" rx="2.1" ry="3.42" transform="translate(-80.6 69.14) rotate(-15.01)"/>
        <ellipse class="cls-1" cx="222.51" cy="339.55" rx="2.1" ry="3.42" transform="translate(-80.35 69.22) rotate(-15.01)"/>
        <ellipse class="cls-1" cx="222.92" cy="338.64" rx="2.1" ry="3.42" transform="translate(-80.1 69.29) rotate(-15.01)"/>
        <ellipse class="cls-1" cx="223.3" cy="337.71" rx="2.1" ry="3.42" transform="translate(-79.85 69.36) rotate(-15.01)"/>
        <ellipse class="cls-1" cx="223.67" cy="336.75" rx="2.1" ry="3.42" transform="translate(-79.59 69.42) rotate(-15.01)"/>
        <ellipse class="cls-1" cx="224.01" cy="335.78" rx="2.1" ry="3.42" transform="translate(-79.32 69.48) rotate(-15.01)"/>
        <ellipse class="cls-1" cx="224.34" cy="334.78" rx="2.1" ry="3.42" transform="translate(-79.06 69.53) rotate(-15.01)"/>
        <ellipse class="cls-1" cx="224.64" cy="333.77" rx="2.1" ry="3.42" transform="translate(-78.78 69.57) rotate(-15.01)"/>
        <ellipse class="cls-1" cx="224.92" cy="332.74" rx="2.1" ry="3.42" transform="translate(-78.51 69.61) rotate(-15.01)"/>
        <ellipse class="cls-1" cx="225.18" cy="331.7" rx="2.1" ry="3.42" transform="translate(-78.23 69.64) rotate(-15.01)"/>
        <ellipse class="cls-1" cx="225.42" cy="330.64" rx="2.1" ry="3.42" transform="translate(-77.95 69.67) rotate(-15.01)"/>
        <ellipse class="cls-1" cx="225.63" cy="329.57" rx="2.1" ry="3.42" transform="translate(-77.66 69.69) rotate(-15.01)"/>
        <ellipse class="cls-1" cx="225.82" cy="328.49" rx="2.1" ry="3.42" transform="translate(-77.37 69.7) rotate(-15.01)"/>
        <ellipse class="cls-1" cx="225.98" cy="327.39" rx="2.1" ry="3.42" transform="translate(-77.08 69.7) rotate(-15.01)"/>
        <ellipse class="cls-1" cx="226.11" cy="326.28" rx="2.1" ry="3.42" transform="translate(-76.79 69.7) rotate(-15.01)"/>
        <ellipse class="cls-1" cx="226.23" cy="325.17" rx="2.1" ry="3.42" transform="translate(-76.5 69.69) rotate(-15.01)"/>
        <ellipse class="cls-1" cx="226.31" cy="324.05" rx="2.1" ry="3.42" transform="translate(-76.21 69.67) rotate(-15.01)"/>
        <ellipse class="cls-1" cx="226.36" cy="322.92" rx="2.1" ry="3.42" transform="translate(-75.91 69.65) rotate(-15.01)"/>
        <ellipse class="cls-1" cx="226.39" cy="321.79" rx="2.1" ry="3.42" transform="translate(-75.62 69.62) rotate(-15.01)"/>
        <ellipse class="cls-1" cx="226.39" cy="320.65" rx="2.1" ry="3.42" transform="translate(-75.32 69.58) rotate(-15.01)"/>
        <ellipse class="cls-1" cx="226.36" cy="319.5" rx="2.1" ry="3.42" transform="translate(-75.03 69.53) rotate(-15.01)"/>
        <ellipse class="cls-1" cx="226.3" cy="318.36" rx="2.1" ry="3.42" transform="translate(-74.73 69.48) rotate(-15.01)"/>
        <ellipse class="cls-1" cx="226.21" cy="317.22" rx="2.1" ry="3.42" transform="translate(-74.44 69.41) rotate(-15.01)"/>
        <ellipse class="cls-1" cx="226.09" cy="316.07" rx="2.1" ry="3.42" transform="translate(-74.15 69.34) rotate(-15.01)"/>
        <ellipse class="cls-1" cx="225.94" cy="314.93" rx="2.1" ry="3.42" transform="translate(-73.86 69.27) rotate(-15.01)"/>
        <ellipse class="cls-1" cx="225.75" cy="313.79" rx="2.1" ry="3.42" transform="translate(-73.57 69.18) rotate(-15.01)"/>
        <ellipse class="cls-1" cx="225.53" cy="312.65" rx="2.1" ry="3.42" transform="translate(-73.28 69.08) rotate(-15.01)"/>
        <ellipse class="cls-1" cx="225.28" cy="311.52" rx="2.1" ry="3.42" transform="translate(-73 68.98) rotate(-15.01)"/>
      </g>
      <g>
        <ellipse class="cls-1" cx="141.19" cy="291.18" rx="2.1" ry="3.42" transform="translate(-70.6 46.5) rotate(-15.01)"/>
        <ellipse class="cls-1" cx="141.84" cy="290.91" rx="2.1" ry="3.42" transform="translate(-70.51 46.66) rotate(-15.01)"/>
        <ellipse class="cls-1" cx="142.48" cy="290.6" rx="2.1" ry="3.42" transform="translate(-70.4 46.82) rotate(-15.01)"/>
        <ellipse class="cls-1" cx="143.11" cy="290.24" rx="2.1" ry="3.42" transform="translate(-70.29 46.97) rotate(-15.01)"/>
        <ellipse class="cls-1" cx="143.74" cy="289.85" rx="2.1" ry="3.42" transform="translate(-70.17 47.12) rotate(-15.01)"/>
        <ellipse class="cls-1" cx="144.35" cy="289.41" rx="2.1" ry="3.42" transform="translate(-70.03 47.26) rotate(-15.01)"/>
        <ellipse class="cls-1" cx="144.96" cy="288.93" rx="2.1" ry="3.42" transform="translate(-69.89 47.4) rotate(-15.01)"/>
        <ellipse class="cls-1" cx="145.56" cy="288.41" rx="2.1" ry="3.42" transform="translate(-69.73 47.54) rotate(-15.01)"/>
        <ellipse class="cls-1" cx="146.14" cy="287.86" rx="2.1" ry="3.42" transform="translate(-69.57 47.67) rotate(-15.01)"/>
        <ellipse class="cls-1" cx="146.71" cy="287.27" rx="2.1" ry="3.42" transform="translate(-69.4 47.8) rotate(-15.01)"/>
        <ellipse class="cls-1" cx="147.27" cy="286.64" rx="2.1" ry="3.42" transform="translate(-69.22 47.93) rotate(-15.01)"/>
        <ellipse class="cls-1" cx="147.82" cy="285.99" rx="2.1" ry="3.42" transform="translate(-69.03 48.05) rotate(-15.01)"/>
        <ellipse class="cls-1" cx="148.36" cy="285.3" rx="2.1" ry="3.42" transform="translate(-68.83 48.16) rotate(-15.01)"/>
        <ellipse class="cls-1" cx="148.88" cy="284.57" rx="2.1" ry="3.42" transform="translate(-68.63 48.27) rotate(-15.01)"/>
        <ellipse class="cls-1" cx="149.38" cy="283.82" rx="2.1" ry="3.42" transform="translate(-68.41 48.38) rotate(-15.01)"/>
        <ellipse class="cls-1" cx="149.87" cy="283.04" rx="2.1" ry="3.42" transform="translate(-68.19 48.48) rotate(-15.01)"/>
        <ellipse class="cls-1" cx="150.35" cy="282.23" rx="2.1" ry="3.42" transform="translate(-67.97 48.57) rotate(-15.01)"/>
        <ellipse class="cls-1" cx="150.8" cy="281.39" rx="2.1" ry="3.42" transform="translate(-67.74 48.66) rotate(-15.01)"/>
        <ellipse class="cls-1" cx="151.24" cy="280.53" rx="2.1" ry="3.42" transform="translate(-67.5 48.75) rotate(-15.01)"/>
        <ellipse class="cls-1" cx="151.67" cy="279.64" rx="2.1" ry="3.42" transform="translate(-67.25 48.83) rotate(-15.01)"/>
        <ellipse class="cls-1" cx="152.07" cy="278.73" rx="2.1" ry="3.42" transform="translate(-67 48.9) rotate(-15.01)"/>
        <ellipse class="cls-1" cx="152.46" cy="277.8" rx="2.1" ry="3.42" transform="translate(-66.75 48.97) rotate(-15.01)"/>
        <ellipse class="cls-1" cx="152.82" cy="276.85" rx="2.1" ry="3.42" transform="translate(-66.49 49.03) rotate(-15.01)"/>
        <ellipse class="cls-1" cx="153.17" cy="275.87" rx="2.1" ry="3.42" transform="translate(-66.23 49.09) rotate(-15.01)"/>
        <ellipse class="cls-1" cx="153.49" cy="274.88" rx="2.1" ry="3.42" transform="translate(-65.96 49.14) rotate(-15.01)"/>
        <ellipse class="cls-1" cx="153.8" cy="273.87" rx="2.1" ry="3.42" transform="translate(-65.68 49.18) rotate(-15.01)"/>
        <ellipse class="cls-1" cx="154.08" cy="272.84" rx="2.1" ry="3.42" transform="translate(-65.41 49.22) rotate(-15.01)"/>
        <ellipse class="cls-1" cx="154.34" cy="271.79" rx="2.1" ry="3.42" transform="translate(-65.13 49.25) rotate(-15.01)"/>
        <ellipse class="cls-1" cx="154.57" cy="270.74" rx="2.1" ry="3.42" transform="translate(-64.85 49.27) rotate(-15.01)"/>
        <ellipse class="cls-1" cx="154.79" cy="269.66" rx="2.1" ry="3.42" transform="translate(-64.56 49.29) rotate(-15.01)"/>
        <ellipse class="cls-1" cx="154.97" cy="268.58" rx="2.1" ry="3.42" transform="translate(-64.28 49.3) rotate(-15.01)"/>
        <ellipse class="cls-1" cx="155.13" cy="267.48" rx="2.1" ry="3.42" transform="translate(-63.99 49.31) rotate(-15.01)"/>
        <ellipse class="cls-1" cx="155.27" cy="266.38" rx="2.1" ry="3.42" transform="translate(-63.7 49.31) rotate(-15.01)"/>
        <ellipse class="cls-1" cx="155.38" cy="265.26" rx="2.1" ry="3.42" transform="translate(-63.4 49.3) rotate(-15.01)"/>
        <ellipse class="cls-1" cx="155.47" cy="264.14" rx="2.1" ry="3.42" transform="translate(-63.11 49.28) rotate(-15.01)"/>
        <ellipse class="cls-1" cx="155.52" cy="263.01" rx="2.1" ry="3.42" transform="translate(-62.81 49.26) rotate(-15.01)"/>
        <ellipse class="cls-1" cx="155.55" cy="261.88" rx="2.1" ry="3.42" transform="translate(-62.52 49.22) rotate(-15.01)"/>
        <ellipse class="cls-1" cx="155.55" cy="260.74" rx="2.1" ry="3.42" transform="translate(-62.23 49.19) rotate(-15.01)"/>
        <ellipse class="cls-1" cx="155.52" cy="259.6" rx="2.1" ry="3.42" transform="translate(-61.93 49.14) rotate(-15.01)"/>
        <ellipse class="cls-1" cx="155.46" cy="258.46" rx="2.1" ry="3.42" transform="translate(-61.64 49.08) rotate(-15.01)"/>
        <ellipse class="cls-1" cx="155.37" cy="257.31" rx="2.1" ry="3.42" transform="translate(-61.34 49.02) rotate(-15.01)"/>
        <ellipse class="cls-1" cx="155.25" cy="256.17" rx="2.1" ry="3.42" transform="translate(-61.05 48.95) rotate(-15.01)"/>
        <ellipse class="cls-1" cx="155.09" cy="255.02" rx="2.1" ry="3.42" transform="translate(-60.76 48.87) rotate(-15.01)"/>
        <ellipse class="cls-1" cx="154.91" cy="253.88" rx="2.1" ry="3.42" transform="translate(-60.47 48.79) rotate(-15.01)"/>
        <ellipse class="cls-1" cx="154.69" cy="252.74" rx="2.1" ry="3.42" transform="translate(-60.18 48.69) rotate(-15.01)"/>
        <ellipse class="cls-1" cx="154.44" cy="251.61" rx="2.1" ry="3.42" transform="translate(-59.9 48.59) rotate(-15.01)"/>
      </g>
      <g>
        <ellipse class="cls-1" cx="212.03" cy="291.18" rx="2.1" ry="3.42" transform="translate(-68.18 64.85) rotate(-15.01)"/>
        <ellipse class="cls-1" cx="212.68" cy="290.91" rx="2.1" ry="3.42" transform="translate(-68.09 65.01) rotate(-15.01)"/>
        <ellipse class="cls-1" cx="213.32" cy="290.6" rx="2.1" ry="3.42" transform="translate(-67.99 65.17) rotate(-15.01)"/>
        <ellipse class="cls-1" cx="213.96" cy="290.24" rx="2.1" ry="3.42" transform="translate(-67.87 65.32) rotate(-15.01)"/>
        <ellipse class="cls-1" cx="214.58" cy="289.85" rx="2.1" ry="3.42" transform="translate(-67.75 65.47) rotate(-15.01)"/>
        <ellipse class="cls-1" cx="215.2" cy="289.41" rx="2.1" ry="3.42" transform="translate(-67.61 65.61) rotate(-15.01)"/>
        <ellipse class="cls-1" cx="215.8" cy="288.93" rx="2.1" ry="3.42" transform="translate(-67.47 65.75) rotate(-15.01)"/>
        <ellipse class="cls-1" cx="216.4" cy="288.41" rx="2.1" ry="3.42" transform="translate(-67.32 65.89) rotate(-15.01)"/>
        <ellipse class="cls-1" cx="216.98" cy="287.86" rx="2.1" ry="3.42" transform="translate(-67.15 66.02) rotate(-15.01)"/>
        <ellipse class="cls-1" cx="217.56" cy="287.27" rx="2.1" ry="3.42" transform="translate(-66.98 66.15) rotate(-15.01)"/>
        <ellipse class="cls-1" cx="218.12" cy="286.64" rx="2.1" ry="3.42" transform="translate(-66.8 66.28) rotate(-15.01)"/>
        <ellipse class="cls-1" cx="218.67" cy="285.99" rx="2.1" ry="3.42" transform="translate(-66.61 66.39) rotate(-15.01)"/>
        <ellipse class="cls-1" cx="219.2" cy="285.3" rx="2.1" ry="3.42" transform="translate(-66.41 66.51) rotate(-15.01)"/>
        <ellipse class="cls-1" cx="219.72" cy="284.57" rx="2.1" ry="3.42" transform="translate(-66.21 66.62) rotate(-15.01)"/>
        <ellipse class="cls-1" cx="220.23" cy="283.82" rx="2.1" ry="3.42" transform="translate(-66 66.72) rotate(-15.01)"/>
        <ellipse class="cls-1" cx="220.72" cy="283.04" rx="2.1" ry="3.42" transform="translate(-65.78 66.82) rotate(-15.01)"/>
        <ellipse class="cls-1" cx="221.19" cy="282.23" rx="2.1" ry="3.42" transform="translate(-65.55 66.92) rotate(-15.01)"/>
        <ellipse class="cls-1" cx="221.65" cy="281.39" rx="2.1" ry="3.42" transform="translate(-65.32 67.01) rotate(-15.01)"/>
        <ellipse class="cls-1" cx="222.09" cy="280.53" rx="2.1" ry="3.42" transform="translate(-65.08 67.09) rotate(-15.01)"/>
        <ellipse class="cls-1" cx="222.51" cy="279.64" rx="2.1" ry="3.42" transform="translate(-64.84 67.17) rotate(-15.01)"/>
        <ellipse class="cls-1" cx="222.92" cy="278.73" rx="2.1" ry="3.42" transform="translate(-64.59 67.25) rotate(-15.01)"/>
        <ellipse class="cls-1" cx="223.3" cy="277.8" rx="2.1" ry="3.42" transform="translate(-64.33 67.32) rotate(-15.01)"/>
        <ellipse class="cls-1" cx="223.67" cy="276.85" rx="2.1" ry="3.42" transform="translate(-64.07 67.38) rotate(-15.01)"/>
        <ellipse class="cls-1" cx="224.01" cy="275.87" rx="2.1" ry="3.42" transform="translate(-63.81 67.43) rotate(-15.01)"/>
        <ellipse class="cls-1" cx="224.34" cy="274.88" rx="2.1" ry="3.42" transform="translate(-63.54 67.48) rotate(-15.01)"/>
        <ellipse class="cls-1" cx="224.64" cy="273.87" rx="2.1" ry="3.42" transform="translate(-63.27 67.53) rotate(-15.01)"/>
        <ellipse class="cls-1" cx="224.92" cy="272.84" rx="2.1" ry="3.42" transform="translate(-62.99 67.57) rotate(-15.01)"/>
        <ellipse class="cls-1" cx="225.18" cy="271.79" rx="2.1" ry="3.42" transform="translate(-62.71 67.6) rotate(-15.01)"/>
        <ellipse class="cls-1" cx="225.42" cy="270.74" rx="2.1" ry="3.42" transform="translate(-62.43 67.62) rotate(-15.01)"/>
        <ellipse class="cls-1" cx="225.63" cy="269.66" rx="2.1" ry="3.42" transform="translate(-62.14 67.64) rotate(-15.01)"/>
        <ellipse class="cls-1" cx="225.82" cy="268.58" rx="2.1" ry="3.42" transform="translate(-61.86 67.65) rotate(-15.01)"/>
        <ellipse class="cls-1" cx="225.98" cy="267.48" rx="2.1" ry="3.42" transform="translate(-61.57 67.66) rotate(-15.01)"/>
        <ellipse class="cls-1" cx="226.11" cy="266.38" rx="2.1" ry="3.42" transform="translate(-61.28 67.65) rotate(-15.01)"/>
        <ellipse class="cls-1" cx="226.23" cy="265.26" rx="2.1" ry="3.42" transform="translate(-60.99 67.65) rotate(-15.01)"/>
        <ellipse class="cls-1" cx="226.31" cy="264.14" rx="2.1" ry="3.42" transform="translate(-60.69 67.63) rotate(-15.01)"/>
        <ellipse class="cls-1" cx="226.36" cy="263.01" rx="2.1" ry="3.42" transform="translate(-60.4 67.6) rotate(-15.01)"/>
        <ellipse class="cls-1" cx="226.39" cy="261.88" rx="2.1" ry="3.42" transform="translate(-60.1 67.57) rotate(-15.01)"/>
        <ellipse class="cls-1" cx="226.39" cy="260.74" rx="2.1" ry="3.42" transform="translate(-59.81 67.53) rotate(-15.01)"/>
        <ellipse class="cls-1" cx="226.36" cy="259.6" rx="2.1" ry="3.42" transform="translate(-59.51 67.49) rotate(-15.01)"/>
        <ellipse class="cls-1" cx="226.3" cy="258.46" rx="2.1" ry="3.42" transform="translate(-59.22 67.43) rotate(-15.01)"/>
        <ellipse class="cls-1" cx="226.21" cy="257.31" rx="2.1" ry="3.42" transform="translate(-58.93 67.37) rotate(-15.01)"/>
        <ellipse class="cls-1" cx="226.09" cy="256.17" rx="2.1" ry="3.42" transform="translate(-58.63 67.3) rotate(-15.01)"/>
        <ellipse class="cls-1" cx="225.94" cy="255.02" rx="2.1" ry="3.42" transform="translate(-58.34 67.22) rotate(-15.01)"/>
        <ellipse class="cls-1" cx="225.75" cy="253.88" rx="2.1" ry="3.42" transform="translate(-58.05 67.13) rotate(-15.01)"/>
        <ellipse class="cls-1" cx="225.53" cy="252.74" rx="2.1" ry="3.42" transform="translate(-57.77 67.04) rotate(-15.01)"/>
        <ellipse class="cls-1" cx="225.28" cy="251.61" rx="2.1" ry="3.42" transform="translate(-57.48 66.93) rotate(-15.01)"/>
      </g>
      <g>
        <ellipse class="cls-1" cx="230.14" cy="233.99" rx="2.54" ry="3.26" transform="translate(-98.05 231.49) rotate(-45.04)"/>
        <ellipse class="cls-1" cx="231.27" cy="233.69" rx="2.54" ry="3.26" transform="translate(-97.51 232.19) rotate(-45.04)"/>
        <ellipse class="cls-1" cx="232.37" cy="233.35" rx="2.54" ry="3.26" transform="translate(-96.95 232.87) rotate(-45.04)"/>
        <ellipse class="cls-1" cx="233.43" cy="232.99" rx="2.54" ry="3.26" transform="translate(-96.38 233.51) rotate(-45.04)"/>
        <ellipse class="cls-1" cx="234.46" cy="232.59" rx="2.54" ry="3.26" transform="translate(-95.8 234.13) rotate(-45.04)"/>
        <ellipse class="cls-1" cx="235.45" cy="232.17" rx="2.54" ry="3.26" transform="translate(-95.2 234.71) rotate(-45.04)"/>
        <ellipse class="cls-1" cx="236.42" cy="231.72" rx="2.54" ry="3.26" transform="translate(-94.6 235.26) rotate(-45.04)"/>
        <ellipse class="cls-1" cx="237.35" cy="231.23" rx="2.54" ry="3.26" transform="translate(-93.99 235.77) rotate(-45.04)"/>
        <ellipse class="cls-1" cx="238.25" cy="230.73" rx="2.54" ry="3.26" transform="translate(-93.36 236.26) rotate(-45.04)"/>
        <ellipse class="cls-1" cx="239.11" cy="230.19" rx="2.54" ry="3.26" transform="translate(-92.73 236.72) rotate(-45.04)"/>
        <ellipse class="cls-1" cx="239.94" cy="229.63" rx="2.54" ry="3.26" transform="translate(-92.09 237.14) rotate(-45.04)"/>
        <ellipse class="cls-1" cx="240.74" cy="229.04" rx="2.54" ry="3.26" transform="translate(-91.44 237.53) rotate(-45.04)"/>
        <ellipse class="cls-1" cx="241.51" cy="228.43" rx="2.54" ry="3.26" transform="translate(-90.78 237.89) rotate(-45.04)"/>
        <ellipse class="cls-1" cx="242.24" cy="227.79" rx="2.54" ry="3.26" transform="translate(-90.11 238.22) rotate(-45.04)"/>
        <ellipse class="cls-1" cx="242.94" cy="227.13" rx="2.54" ry="3.26" transform="translate(-89.44 238.52) rotate(-45.04)"/>
        <ellipse class="cls-1" cx="243.6" cy="226.45" rx="2.54" ry="3.26" transform="translate(-88.76 238.79) rotate(-45.04)"/>
        <ellipse class="cls-1" cx="244.23" cy="225.74" rx="2.54" ry="3.26" transform="translate(-88.08 239.03) rotate(-45.04)"/>
        <ellipse class="cls-1" cx="244.83" cy="225.01" rx="2.54" ry="3.26" transform="translate(-87.39 239.24) rotate(-45.04)"/>
        <ellipse class="cls-1" cx="245.39" cy="224.26" rx="2.54" ry="3.26" transform="translate(-86.69 239.42) rotate(-45.04)"/>
        <ellipse class="cls-1" cx="245.91" cy="223.49" rx="2.54" ry="3.26" transform="translate(-86 239.56) rotate(-45.04)"/>
        <ellipse class="cls-1" cx="246.41" cy="222.7" rx="2.54" ry="3.26" transform="translate(-85.29 239.68) rotate(-45.04)"/>
        <ellipse class="cls-1" cx="246.87" cy="221.89" rx="2.54" ry="3.26" transform="translate(-84.59 239.77) rotate(-45.04)"/>
        <ellipse class="cls-1" cx="247.29" cy="221.07" rx="2.54" ry="3.26" transform="translate(-83.88 239.83) rotate(-45.04)"/>
        <ellipse class="cls-1" cx="247.68" cy="220.22" rx="2.54" ry="3.26" transform="translate(-83.16 239.85) rotate(-45.04)"/>
        <ellipse class="cls-1" cx="248.03" cy="219.36" rx="2.54" ry="3.26" transform="translate(-82.45 239.85) rotate(-45.04)"/>
        <ellipse class="cls-1" cx="248.35" cy="218.48" rx="2.54" ry="3.26" transform="translate(-81.74 239.82) rotate(-45.04)"/>
        <ellipse class="cls-1" cx="248.63" cy="217.59" rx="2.54" ry="3.26" transform="translate(-81.02 239.76) rotate(-45.04)"/>
        <ellipse class="cls-1" cx="248.88" cy="216.68" rx="2.54" ry="3.26" transform="translate(-80.3 239.67) rotate(-45.04)"/>
        <ellipse class="cls-1" cx="249.1" cy="215.75" rx="2.54" ry="3.26" transform="translate(-79.59 239.55) rotate(-45.04)"/>
        <ellipse class="cls-1" cx="249.27" cy="214.81" rx="2.54" ry="3.26" transform="translate(-78.87 239.4) rotate(-45.04)"/>
        <ellipse class="cls-1" cx="249.42" cy="213.86" rx="2.54" ry="3.26" transform="translate(-78.15 239.22) rotate(-45.04)"/>
        <ellipse class="cls-1" cx="249.52" cy="212.9" rx="2.54" ry="3.26" transform="translate(-77.44 239.01) rotate(-45.04)"/>
        <ellipse class="cls-1" cx="249.59" cy="211.92" rx="2.54" ry="3.26" transform="translate(-76.73 238.77) rotate(-45.04)"/>
        <ellipse class="cls-1" cx="249.63" cy="210.93" rx="2.54" ry="3.26" transform="translate(-76.02 238.51) rotate(-45.04)"/>
        <ellipse class="cls-1" cx="249.63" cy="209.93" rx="2.54" ry="3.26" transform="translate(-75.31 238.21) rotate(-45.04)"/>
        <ellipse class="cls-1" cx="249.59" cy="208.92" rx="2.54" ry="3.26" transform="translate(-74.61 237.89) rotate(-45.04)"/>
        <ellipse class="cls-1" cx="249.52" cy="207.9" rx="2.54" ry="3.26" transform="translate(-73.91 237.54) rotate(-45.04)"/>
        <ellipse class="cls-1" cx="249.41" cy="206.88" rx="2.54" ry="3.26" transform="translate(-73.21 237.16) rotate(-45.04)"/>
        <ellipse class="cls-1" cx="249.26" cy="205.84" rx="2.54" ry="3.26" transform="translate(-72.52 236.75) rotate(-45.04)"/>
        <ellipse class="cls-1" cx="249.08" cy="204.8" rx="2.54" ry="3.26" transform="translate(-71.84 236.32) rotate(-45.04)"/>
        <ellipse class="cls-1" cx="248.86" cy="203.74" rx="2.54" ry="3.26" transform="translate(-71.16 235.85) rotate(-45.04)"/>
        <ellipse class="cls-1" cx="248.6" cy="202.69" rx="2.54" ry="3.26" transform="translate(-70.49 235.36) rotate(-45.04)"/>
        <ellipse class="cls-1" cx="248.3" cy="201.63" rx="2.54" ry="3.26" transform="translate(-69.82 234.84) rotate(-45.04)"/>
        <ellipse class="cls-1" cx="247.97" cy="200.56" rx="2.54" ry="3.26" transform="translate(-69.16 234.29) rotate(-45.04)"/>
        <ellipse class="cls-1" cx="247.61" cy="199.49" rx="2.54" ry="3.26" transform="translate(-68.51 233.72) rotate(-45.04)"/>
      </g>
      <g>
        <ellipse class="cls-1" cx="134.22" cy="232.93" rx="2.54" ry="3.26" transform="translate(-125.44 163.3) rotate(-45.04)"/>
        <ellipse class="cls-1" cx="135.12" cy="232.68" rx="2.54" ry="3.26" transform="translate(-125 163.86) rotate(-45.04)"/>
        <ellipse class="cls-1" cx="136" cy="232.39" rx="2.54" ry="3.26" transform="translate(-124.54 164.4) rotate(-45.04)"/>
        <ellipse class="cls-1" cx="136.88" cy="232.06" rx="2.54" ry="3.26" transform="translate(-124.05 164.93) rotate(-45.04)"/>
        <ellipse class="cls-1" cx="137.74" cy="231.69" rx="2.54" ry="3.26" transform="translate(-123.53 165.43) rotate(-45.04)"/>
        <ellipse class="cls-1" cx="138.58" cy="231.28" rx="2.54" ry="3.26" transform="translate(-122.99 165.91) rotate(-45.04)"/>
        <ellipse class="cls-1" cx="139.42" cy="230.84" rx="2.54" ry="3.26" transform="translate(-122.44 166.36) rotate(-45.04)"/>
        <ellipse class="cls-1" cx="140.23" cy="230.36" rx="2.54" ry="3.26" transform="translate(-121.86 166.8) rotate(-45.04)"/>
        <ellipse class="cls-1" cx="141.03" cy="229.84" rx="2.54" ry="3.26" transform="translate(-121.25 167.22) rotate(-45.04)"/>
        <ellipse class="cls-1" cx="141.82" cy="229.29" rx="2.54" ry="3.26" transform="translate(-120.64 167.61) rotate(-45.04)"/>
        <ellipse class="cls-1" cx="142.58" cy="228.71" rx="2.54" ry="3.26" transform="translate(-120 167.98) rotate(-45.04)"/>
        <ellipse class="cls-1" cx="143.33" cy="228.09" rx="2.54" ry="3.26" transform="translate(-119.34 168.33) rotate(-45.04)"/>
        <ellipse class="cls-1" cx="144.06" cy="227.45" rx="2.54" ry="3.26" transform="translate(-118.67 168.65) rotate(-45.04)"/>
        <ellipse class="cls-1" cx="144.76" cy="226.77" rx="2.54" ry="3.26" transform="translate(-117.99 168.95) rotate(-45.04)"/>
        <ellipse class="cls-1" cx="145.45" cy="226.07" rx="2.54" ry="3.26" transform="translate(-117.29 169.23) rotate(-45.04)"/>
        <ellipse class="cls-1" cx="146.11" cy="225.34" rx="2.54" ry="3.26" transform="translate(-116.58 169.49) rotate(-45.04)"/>
        <ellipse class="cls-1" cx="146.75" cy="224.58" rx="2.54" ry="3.26" transform="translate(-115.86 169.71) rotate(-45.04)"/>
        <ellipse class="cls-1" cx="147.36" cy="223.8" rx="2.54" ry="3.26" transform="translate(-115.12 169.92) rotate(-45.04)"/>
        <ellipse class="cls-1" cx="147.95" cy="222.99" rx="2.54" ry="3.26" transform="translate(-114.38 170.1) rotate(-45.04)"/>
        <ellipse class="cls-1" cx="148.51" cy="222.16" rx="2.54" ry="3.26" transform="translate(-113.63 170.25) rotate(-45.04)"/>
        <ellipse class="cls-1" cx="149.04" cy="221.32" rx="2.54" ry="3.26" transform="translate(-112.87 170.38) rotate(-45.04)"/>
        <ellipse class="cls-1" cx="149.55" cy="220.45" rx="2.54" ry="3.26" transform="translate(-112.11 170.48) rotate(-45.04)"/>
        <ellipse class="cls-1" cx="150.03" cy="219.56" rx="2.54" ry="3.26" transform="translate(-111.34 170.56) rotate(-45.04)"/>
        <ellipse class="cls-1" cx="150.47" cy="218.65" rx="2.54" ry="3.26" transform="translate(-110.57 170.61) rotate(-45.04)"/>
        <ellipse class="cls-1" cx="150.89" cy="217.72" rx="2.54" ry="3.26" transform="translate(-109.79 170.63) rotate(-45.04)"/>
        <ellipse class="cls-1" cx="151.27" cy="216.78" rx="2.54" ry="3.26" transform="translate(-109.01 170.63) rotate(-45.04)"/>
        <ellipse class="cls-1" cx="151.62" cy="215.83" rx="2.54" ry="3.26" transform="translate(-108.23 170.6) rotate(-45.04)"/>
        <ellipse class="cls-1" cx="151.94" cy="214.86" rx="2.54" ry="3.26" transform="translate(-107.46 170.54) rotate(-45.04)"/>
        <ellipse class="cls-1" cx="152.22" cy="213.88" rx="2.54" ry="3.26" transform="translate(-106.68 170.45) rotate(-45.04)"/>
        <ellipse class="cls-1" cx="152.47" cy="212.89" rx="2.54" ry="3.26" transform="translate(-105.9 170.33) rotate(-45.04)"/>
        <ellipse class="cls-1" cx="152.68" cy="211.88" rx="2.54" ry="3.26" transform="translate(-105.13 170.19) rotate(-45.04)"/>
        <ellipse class="cls-1" cx="152.86" cy="210.87" rx="2.54" ry="3.26" transform="translate(-104.36 170.02) rotate(-45.04)"/>
        <ellipse class="cls-1" cx="152.99" cy="209.85" rx="2.54" ry="3.26" transform="translate(-103.6 169.81) rotate(-45.04)"/>
        <ellipse class="cls-1" cx="153.09" cy="208.82" rx="2.54" ry="3.26" transform="translate(-102.85 169.58) rotate(-45.04)"/>
        <ellipse class="cls-1" cx="153.14" cy="207.79" rx="2.54" ry="3.26" transform="translate(-102.1 169.31) rotate(-45.04)"/>
        <ellipse class="cls-1" cx="153.16" cy="206.75" rx="2.54" ry="3.26" transform="translate(-101.36 169.02) rotate(-45.04)"/>
        <ellipse class="cls-1" cx="153.13" cy="205.71" rx="2.54" ry="3.26" transform="translate(-100.63 168.7) rotate(-45.04)"/>
        <ellipse class="cls-1" cx="153.06" cy="204.67" rx="2.54" ry="3.26" transform="translate(-99.92 168.34) rotate(-45.04)"/>
        <ellipse class="cls-1" cx="152.94" cy="203.62" rx="2.54" ry="3.26" transform="translate(-99.21 167.95) rotate(-45.04)"/>
        <ellipse class="cls-1" cx="152.79" cy="202.58" rx="2.54" ry="3.26" transform="translate(-98.52 167.53) rotate(-45.04)"/>
        <ellipse class="cls-1" cx="152.58" cy="201.54" rx="2.54" ry="3.26" transform="translate(-97.84 167.08) rotate(-45.04)"/>
        <ellipse class="cls-1" cx="152.33" cy="200.49" rx="2.54" ry="3.26" transform="translate(-97.18 166.6) rotate(-45.04)"/>
        <ellipse class="cls-1" cx="152.03" cy="199.46" rx="2.54" ry="3.26" transform="translate(-96.53 166.08) rotate(-45.04)"/>
        <ellipse class="cls-1" cx="151.68" cy="198.42" rx="2.54" ry="3.26" transform="translate(-95.9 165.54) rotate(-45.04)"/>
      </g>
    </g>
    <g>
      <g>
        <circle class="cls-1" cx="252.23" cy="42.85" r="2.91"/>
        <circle class="cls-1" cx="252.19" cy="41.65" r="2.91"/>
        <circle class="cls-1" cx="252.11" cy="40.49" r="2.91"/>
        <circle class="cls-1" cx="252" cy="39.34" r="2.91"/>
        <circle class="cls-1" cx="251.86" cy="38.23" r="2.91"/>
        <circle class="cls-1" cx="251.69" cy="37.15" r="2.91"/>
        <circle class="cls-1" cx="251.48" cy="36.09" r="2.91"/>
        <circle class="cls-1" cx="251.24" cy="35.05" r="2.91"/>
        <circle class="cls-1" cx="250.97" cy="34.05" r="2.91"/>
        <circle class="cls-1" cx="250.67" cy="33.07" r="2.91"/>
        <circle class="cls-1" cx="250.33" cy="32.12" r="2.91"/>
        <circle class="cls-1" cx="249.97" cy="31.19" r="2.91"/>
        <circle class="cls-1" cx="249.57" cy="30.29" r="2.91"/>
        <circle class="cls-1" cx="249.15" cy="29.41" r="2.91"/>
        <circle class="cls-1" cx="248.69" cy="28.56" r="2.91"/>
        <circle class="cls-1" cx="248.21" cy="27.73" r="2.91"/>
        <circle class="cls-1" cx="247.69" cy="26.93" r="2.91"/>
        <circle class="cls-1" cx="247.15" cy="26.15" r="2.91"/>
        <circle class="cls-1" cx="246.58" cy="25.39" r="2.91"/>
        <circle class="cls-1" cx="245.98" cy="24.66" r="2.91"/>
        <circle class="cls-1" cx="245.35" cy="23.96" r="2.91"/>
        <circle class="cls-1" cx="244.69" cy="23.27" r="2.91"/>
        <circle class="cls-1" cx="244.01" cy="22.61" r="2.91"/>
        <circle class="cls-1" cx="243.3" cy="21.97" r="2.91"/>
        <circle class="cls-1" cx="242.56" cy="21.36" r="2.91"/>
      </g>
      <g>
        <circle class="cls-1" cx="97.52" cy="48.22" r="2.91"/>
        <circle class="cls-1" cx="98.34" cy="47.34" r="2.91"/>
        <circle class="cls-1" cx="99.11" cy="46.46" r="2.91"/>
        <circle class="cls-1" cx="99.84" cy="45.58" r="2.91"/>
        <circle class="cls-1" cx="100.53" cy="44.69" r="2.91"/>
        <circle class="cls-1" cx="101.17" cy="43.8" r="2.91"/>
        <circle class="cls-1" cx="101.77" cy="42.9" r="2.91"/>
        <circle class="cls-1" cx="102.34" cy="42" r="2.91"/>
        <circle class="cls-1" cx="102.85" cy="41.1" r="2.91"/>
        <circle class="cls-1" cx="103.33" cy="40.2" r="2.91"/>
        <circle class="cls-1" cx="103.77" cy="39.29" r="2.91"/>
        <circle class="cls-1" cx="104.17" cy="38.37" r="2.91"/>
        <circle class="cls-1" cx="104.53" cy="37.45" r="2.91"/>
        <circle class="cls-1" cx="104.85" cy="36.53" r="2.91"/>
        <circle class="cls-1" cx="105.13" cy="35.61" r="2.91"/>
        <circle class="cls-1" cx="105.37" cy="34.68" r="2.91"/>
        <circle class="cls-1" cx="105.57" cy="33.75" r="2.91"/>
        <circle class="cls-1" cx="105.74" cy="32.82" r="2.91"/>
        <circle class="cls-1" cx="105.87" cy="31.88" r="2.91"/>
        <circle class="cls-1" cx="105.96" cy="30.94" r="2.91"/>
        <circle class="cls-1" cx="106.02" cy="29.99" r="2.91"/>
        <circle class="cls-1" cx="106.04" cy="29.04" r="2.91"/>
        <circle class="cls-1" cx="106.02" cy="28.09" r="2.91"/>
        <circle class="cls-1" cx="105.97" cy="27.14" r="2.91"/>
        <circle class="cls-1" cx="105.88" cy="26.18" r="2.91"/>
      </g>
      <g>
        <circle class="cls-1" cx="48.78" cy="288.56" r="1.97"/>
        <circle class="cls-1" cx="49.35" cy="287.08" r="1.97"/>
        <circle class="cls-1" cx="49.84" cy="285.77" r="1.97"/>
        <circle class="cls-1" cx="50.26" cy="284.6" r="1.97"/>
        <circle class="cls-1" cx="50.6" cy="283.56" r="1.97"/>
        <circle class="cls-1" cx="50.87" cy="282.62" r="1.97"/>
        <circle class="cls-1" cx="51.08" cy="281.76" r="1.97"/>
        <circle class="cls-1" cx="51.23" cy="280.95" r="1.97"/>
        <circle class="cls-1" cx="51.32" cy="280.18" r="1.97"/>
        <circle class="cls-1" cx="51.35" cy="279.43" r="1.97"/>
        <circle class="cls-1" cx="51.33" cy="278.66" r="1.97"/>
        <circle class="cls-1" cx="51.26" cy="277.86" r="1.97"/>
        <circle class="cls-1" cx="51.15" cy="277.01" r="1.97"/>
        <circle class="cls-1" cx="51" cy="276.08" r="1.97"/>
        <circle class="cls-1" cx="50.81" cy="275.06" r="1.97"/>
        <circle class="cls-1" cx="50.58" cy="273.91" r="1.97"/>
        <circle class="cls-1" cx="50.32" cy="272.62" r="1.97"/>
      </g>
      <g>
        <circle class="cls-1" cx="284.84" cy="290.1" r="1.97"/>
        <circle class="cls-1" cx="285.41" cy="288.62" r="1.97"/>
        <circle class="cls-1" cx="285.91" cy="287.31" r="1.97"/>
        <circle class="cls-1" cx="286.32" cy="286.14" r="1.97"/>
        <circle class="cls-1" cx="286.66" cy="285.1" r="1.97"/>
        <circle class="cls-1" cx="286.94" cy="284.16" r="1.97"/>
        <circle class="cls-1" cx="287.15" cy="283.3" r="1.97"/>
        <circle class="cls-1" cx="287.29" cy="282.49" r="1.97"/>
        <circle class="cls-1" cx="287.38" cy="281.73" r="1.97"/>
        <circle class="cls-1" cx="287.41" cy="280.97" r="1.97"/>
        <circle class="cls-1" cx="287.39" cy="280.2" r="1.97"/>
        <circle class="cls-1" cx="287.32" cy="279.4" r="1.97"/>
        <circle class="cls-1" cx="287.21" cy="278.55" r="1.97"/>
        <circle class="cls-1" cx="287.06" cy="277.62" r="1.97"/>
        <circle class="cls-1" cx="286.87" cy="276.6" r="1.97"/>
        <circle class="cls-1" cx="286.64" cy="275.45" r="1.97"/>
        <circle class="cls-1" cx="286.39" cy="274.16" r="1.97"/>
      </g>
    </g>
  </g>
</svg>