<?xml version="1.0" encoding="UTF-8"?>
<svg id="Calque_2" data-name="Calque 2" xmlns="http://www.w3.org/2000/svg" viewBox="0 0 163.11 329.75">
  <defs>
    <style>
      .cls-1 {
        fill: #2a7f79;
      }

      .cls-2 {
        fill: #d7fffe;
      }

      .cls-3 {
        fill: #25b4b1;
      }
    </style>
  </defs>
  <g id="TicTac">
    <g id="TicTac2">
      <path class="cls-1" d="M72.86,327.08c-35.58,0-64.42-28.84-64.42-64.42V64.42C8.44,37.17,25.38,13.88,49.29,4.47,21.01,11.28,0,36.72,0,67.09v198.24c0,35.58,28.84,64.42,64.42,64.42h25.83c8.32,0,16.27-1.6,23.58-4.47-4.85,1.17-9.92,1.8-15.13,1.8h-25.83Z"/>
      <path class="cls-3" d="M98.69,0h-25.83c-8.32,0-16.27,1.6-23.58,4.47C25.38,13.88,8.44,37.17,8.44,64.42v198.24c0,35.58,28.84,64.42,64.42,64.42h25.83c5.21,0,10.28-.64,15.13-1.8,28.27-6.81,49.29-32.25,49.29-62.61V64.42C163.11,28.84,134.27,0,98.69,0Zm37.31,205.28V120.84c0-4.17,3.38-7.56,7.56-7.56s7.56,3.38,7.56,7.56v84.44c0,4.17-3.38,7.56-7.56,7.56s-7.56-3.38-7.56-7.56Zm7.56-130.67c-6.14,0-11.11-4.97-11.11-11.11s4.97-11.11,11.11-11.11,11.11,4.97,11.11,11.11-4.97,11.11-11.11,11.11Z"/>
      <path class="cls-2" d="M151.11,205.28V120.84c0-4.17-3.38-7.56-7.56-7.56s-7.56,3.38-7.56,7.56v84.44c0,4.17,3.38,7.56,7.56,7.56s7.56-3.38,7.56-7.56Z"/>
      <circle class="cls-2" cx="143.56" cy="63.5" r="11.11" transform="translate(-2.86 120.11) rotate(-45)"/>
    </g>
  </g>
</svg>