<?xml version="1.0" encoding="UTF-8"?>
<svg id="Calque_2" data-name="Calque 2" xmlns="http://www.w3.org/2000/svg" viewBox="0 0 292.98 193.79">
  <defs>
    <style>
      .cls-1 {
        fill: #b75e2c;
      }

      .cls-2 {
        fill: #efa47b;
      }

      .cls-3 {
        fill: #723317;
      }

      .cls-4 {
        fill: #f28d4f;
      }
    </style>
  </defs>
  <g id="Vendeur">
    <g>
      <rect class="cls-1" y="15.26" width="292.98" height="178.53" rx="58.5" ry="58.5"/>
      <rect class="cls-1" x="0" y="76.3" width="292.98" height="32.04"/>
      <rect class="cls-4" x="0" y="0" width="292.98" height="154.12" rx="50.5" ry="50.5"/>
      <rect class="cls-1" x="129.7" y="51.88" width="137.33" height="32.04"/>
      <rect class="cls-1" x="129.7" y="32.04" width="137.33" height="96.13" rx="31.5" ry="31.5"/>
      <rect class="cls-2" x="129.7" y="4.58" width="137.33" height="96.13" rx="31.5" ry="31.5"/>
      <path class="cls-3" d="m109.12,163.27h74.73c6.33,0,11.46,5.14,11.46,11.46v19.06h-97.66v-19.06c0-6.33,5.14-11.46,11.46-11.46Z"/>
    </g>
    <path class="cls-3" d="m111.45,101.18c-.82,0-1.57-.34-2.11-.88-.55-.54-.88-1.28-.88-2.11v-11.81h-8.98v11.81c0,1.65-1.34,2.99-2.99,2.99h-41.91c-1.65,0-2.99-1.34-2.99-2.99v-11.81h-8.98v11.81c0,1.65-1.34,2.99-2.99,2.99-.83,0-1.58.34-2.12.88-.55.54-.88,1.28-.88,2.11v17.96c0,1.66,1.34,3,3,3h71.83c1.65,0,2.99-1.34,2.99-3v-17.96c0-1.65-1.34-2.99-2.99-2.99Zm0-35.92h-.76c.94,0,1.83.23,2.61.65-.51-.41-1.15-.65-1.85-.65Z"/>
    <path class="cls-3" d="m111.94,86.38H39.36c-3.54,0-6.2-3.22-5.53-6.69l1.91-9.87c.16-.82.49-1.57.95-2.22t.01-.01c1.04-1.43,2.71-2.33,4.57-2.33h69.42c.94,0,1.83.23,2.61.65,1.59.82,2.74,2.39,2.97,4.27l1.25,9.87c.42,3.36-2.19,6.33-5.58,6.33Z"/>
    <rect class="cls-1" x="85.13" y="160.31" width="125.63" height="33.48"/>
  </g>
  <g id="Usine">
    <path class="cls-1" d="m197.73,12.13l9.09,15.74c1.07,1.85-.27,4.17-2.41,4.17h-18.17c-2.14,0-3.48-2.32-2.41-4.17l9.09-15.74c1.07-1.85,3.75-1.85,4.82,0Z"/>
  </g>
</svg>