<?xml version="1.0" encoding="UTF-8"?>
<svg id="Calque_2" data-name="Calque 2" xmlns="http://www.w3.org/2000/svg" viewBox="0 0 105.9 100.83">
  <defs>
    <style>
      .cls-1 {
        fill: #3a3737;
      }

      .cls-2 {
        fill: #686665;
      }

      .cls-3 {
        fill: #afafaf;
      }
    </style>
  </defs>
  <g id="Calque_3" data-name="Calque 3">
    <g>
      <rect class="cls-1" y="12.6" width="105.9" height="76"/>
      <path class="cls-2" d="m82.37,50.32l-13.6-7.68c-2.16-1.22-4.64.99-3.61,3.2l2.64,5.7c.31.66.3,1.42,0,2.08l-2.57,5.46c-1.04,2.22,1.45,4.44,3.61,3.22l13.53-7.64c1.71-.96,1.71-3.37,0-4.34Z"/>
      <path class="cls-2" d="m46.7,50.32l-13.6-7.68c-2.16-1.22-4.64.99-3.61,3.2l2.64,5.7c.31.66.3,1.42,0,2.08l-2.57,5.46c-1.04,2.22,1.45,4.44,3.61,3.22l13.53-7.64c1.71-.96,1.71-3.37,0-4.34Z"/>
      <rect class="cls-3" x="47.98" y="43.42" width="12.22" height="102.59" rx="4.61" ry="4.61" transform="translate(148.81 40.62) rotate(90)"/>
      <rect class="cls-3" x="46.84" y="-45.18" width="12.22" height="102.59" rx="4.61" ry="4.61" transform="translate(59.06 -46.84) rotate(90)"/>
    </g>
  </g>
</svg>