<?xml version="1.0" encoding="UTF-8"?>
<svg id="Calque_2" data-name="Calque 2" xmlns="http://www.w3.org/2000/svg" viewBox="0 0 105.9 100.83">
  <defs>
    <style>
      .cls-1 {
        fill: #3a3737;
      }

      .cls-2 {
        fill: #686665;
      }

      .cls-3 {
        fill: #afafaf;
      }
    </style>
  </defs>
  <g id="Calque_3" data-name="Calque 3">
    <g>
      <rect class="cls-1" y="12.6" width="105.9" height="76"/>
      <path class="cls-2" d="m23.53,50.32l13.6-7.68c2.16-1.22,4.64.99,3.61,3.2l-2.64,5.7c-.31.66-.3,1.42,0,2.08l2.57,5.46c1.04,2.22-1.45,4.44-3.61,3.22l-13.53-7.64c-1.71-.96-1.71-3.37,0-4.34Z"/>
      <path class="cls-2" d="m59.2,50.32l13.6-7.68c2.16-1.22,4.64.99,3.61,3.2l-2.64,5.7c-.31.66-.3,1.42,0,2.08l2.57,5.46c1.04,2.22-1.45,4.44-3.61,3.22l-13.53-7.64c-1.71-.96-1.71-3.37,0-4.34Z"/>
      <rect class="cls-3" x="45.69" y="43.42" width="12.22" height="102.59" rx="4.61" ry="4.61" transform="translate(146.52 42.91) rotate(90)"/>
      <rect class="cls-3" x="46.84" y="-45.18" width="12.22" height="102.59" rx="4.61" ry="4.61" transform="translate(59.06 -46.84) rotate(90)"/>
    </g>
  </g>
</svg>