<?xml version="1.0" encoding="UTF-8"?>
<svg id="Calque_2" data-name="Calque 2" xmlns="http://www.w3.org/2000/svg" viewBox="0 0 88.22 140.22">
  <defs>
    <style>
      .cls-1 {
        fill: #3a3737;
      }

      .cls-2 {
        fill: none;
        stroke: #afafaf;
        stroke-linecap: round;
        stroke-miterlimit: 10;
        stroke-width: 12px;
      }

      .cls-3 {
        fill: #686665;
      }

      .cls-4 {
        fill: #afafaf;
      }
    </style>
  </defs>
  <g id="Calque_3" data-name="Calque 3">
    <g>
      <rect class="cls-4" width="12.22" height="102.59" rx="4.61" ry="4.61" transform="translate(12.22 102.59) rotate(180)"/>
      <rect class="cls-4" x="55.79" y="107.79" width="12.22" height="52.65" rx="4.61" ry="4.61" transform="translate(-72.21 196.01) rotate(-90)"/>
      <path class="cls-1" d="m88.22,128h-46.34c-16.38,0-29.66-13.28-29.66-29.66V0h76v128Z"/>
      <path class="cls-3" d="m58.53,61.64l-13.6,7.68c-2.16,1.22-4.64-.99-3.61-3.2l2.64-5.7c.31-.66.3-1.42,0-2.08l-2.57-5.46c-1.04-2.22,1.45-4.44,3.61-3.22l13.53,7.64c1.71.96,1.71,3.37,0,4.34Z"/>
      <path class="cls-2" d="m9.34,111.72s4.63,13.23,16.63,17.85"/>
    </g>
  </g>
</svg>