<?xml version="1.0" encoding="UTF-8"?>
<svg id="Usine_Right_Out" xmlns="http://www.w3.org/2000/svg" viewBox="0 0 128 128.06">
  <defs>
    <style>
      .cls-1 {
        fill: #eb677a;
      }

      .cls-2 {
        fill: #802a3c;
      }

      .cls-3 {
        fill: #804675;
      }

      .cls-4 {
        fill: #a764a5;
      }

      .cls-5 {
        fill: #f39b9b;
      }

      .cls-6 {
        fill: #5b3151;
      }
    </style>
  </defs>
  <rect class="cls-3" width="128" height="128.06" rx="8.89" ry="8.89"/>
  <rect class="cls-4" y=".03" width="128" height="100.04" rx="8.89" ry="8.89"/>
  <g>
    <path class="cls-6" d="m85.09,34.18s-2.05-13.59-3.01-15.81c.17-.09.32-.19.47-.31,2.79-2.07,2.86-6.69.17-10.32-2.04-2.74-5.06-4.14-7.62-3.77-1.46-.2-2.88.1-4.02.95-.94.7-1.57,1.69-1.9,2.84-1.24-.27-2.54-.42-3.87-.42h-5.21c-.44,0-.89.02-1.33.05h-.48c-1.21,0-2.39.12-3.54.35-.32-1.15-.95-2.14-1.89-2.84-1.16-.86-2.61-1.14-4.1-.91-2.6-.43-5.71.98-7.79,3.8-2.72,3.69-2.65,8.37.17,10.48.09.07.19.13.29.2-1,2.28-3.63,16.14-3.63,16.14,0,0-9.2,4.43-9.2,9.9,0,1.81.34,5.11,1.36,8.05,1.18,3.38,2.02,6.87,2.42,10.43.3,2.7,1.12,5.57,3.35,5.71-.05,5.68-.3,24.9,9.27,24.9h1.85c3.59,0,8.23-.25,8.23-4.62v-3.11s.08,0,.12.01c1.45.11,1.37.27,3.04.27h5.25c1.8,0,3.59-.46,5.24-.58v3.13c0,4.37,2.91,4.9,6.5,4.9h1.85c1.88,0,3.38-.75,4.57-1.98,6.27-3.38,6.31-17.78,6.27-23.25.07-.07.14-.14.21-.22,2.26-.34,2.97-3.6,3.19-6.37.23-2.92.77-5.81,1.57-8.64.93-3.28,1.11-7.32,1.11-9.2,0-5.39-8.91-9.76-8.91-9.76Zm-47.11,32.65c-.34,0-.67-.11-.96-.3-.08-.04-.15-.1-.22-.16-.14-.11-.27-.25-.39-.4-.08-.08-.14-.16-.18-.25-.06-.08-.11-.17-.16-.27-.12-.19-.2-.39-.27-.6-.07-.19-.12-.38-.17-.59-.03-.15-.06-.3-.08-.45-.03-.12-.04-.25-.04-.38,0-.07,0-.13-.01-.2,0-.06,0-.12,0-.19s0-.13,0-.19c.01-.07.01-.13.01-.2,0-.13,0-.25.04-.37.02-.13.04-.25.06-.37.05-.23.11-.46.19-.68.07-.22.16-.42.27-.6.21-.4.47-.72.78-.96.04-.04.09-.07.13-.09.08-.06.17-.12.27-.16.07-.03.15-.07.23-.09.16-.05.33-.08.5-.08,1.37,0,2.48,1.7,2.48,3.79s-1.11,3.79-2.48,3.79ZM74.42,6.4c1.75-1.3,4.37-.83,6.35.96.01,0,.02.03.03.04.36.32.7.69,1,1.1,1.35,1.81,1.76,3.95,1.27,5.63h0s-.01.02,0,.03c-.02.2-.04.4-.08.59.03-.18.06-.38.07-.57-.05.15-.1.28-.16.42-.06.13-.11.25-.18.36-.03.05-.06.11-.09.16-.07.12-.14.23-.23.33-.09.13-.2.26-.32.37.02,0,.05-.01.07-.02-.14.14-.28.27-.43.39-1.04.77-2.39.91-3.73.53-.34-.1-.67-.23-1-.38-.04-.03-.08-.05-.12-.07-.12-.06-.25-.13-.37-.2-.18-.12-.37-.24-.55-.37-.09-.05-.17-.11-.25-.19-.07-.04-.14-.1-.2-.16-.25-.2-.48-.43-.7-.68-.06-.06-.12-.14-.18-.2-.11-.13-.22-.26-.32-.4-2-2.7-1.95-6.13.12-7.67Zm-4.11,9.02c2.09,0,3.79,1.7,3.79,3.79s-1.7,3.79-3.79,3.79-3.79-1.7-3.79-3.79,1.7-3.79,3.79-3.79Zm-10.34,7.34c.13-.03.26-.07.39-.1.19-.05.39-.09.59-.12.18-.03.37-.06.56-.08.19-.03.4-.05.6-.06.23-.01.47-.02.71-.02,4.37,0,7.92,2.52,7.92,5.63,0,.06,0,.12-.01.18,0,.06,0,.12,0,.18-.02.12-.03.24-.05.35-.07.43-.22.84-.42,1.24-.07.13-.15.26-.23.39-.02.03-.05.07-.06.1-.03.04-.06.08-.07.11.02-.03.05-.06.07-.09-.03.09-.12.19-.22.28-.11.14-.23.28-.36.42-.11.14-.23.28-.37.41-.07.07-.13.13-.21.19-.09.09-.2.17-.31.25-.51.36-1.14.68-1.84.93-.17.06-.34.12-.52.18-.08.03-.17.05-.25.07-.1.03-.19.06-.29.08-.01,0-.03,0-.04,0-.11.04-.22.06-.33.08-.06.02-.13.03-.2.05-.18.04-.36.07-.55.09-.06,0-.12.02-.18.03-.02,0-.03,0-.05.01-.17.02-.33.04-.5.06-.16.02-.32.03-.48.05-.56.04-1.12.05-1.66.02-.22-.01-.44-.03-.66-.06-.14,0-.27-.03-.41-.06-.27-.05-.53-.1-.78-.17s-.48-.15-.7-.24c-.28-.12-.55-.25-.81-.4-.19-.11-.38-.22-.55-.34-.21-.14-.41-.29-.6-.45-.18-.15-.36-.31-.53-.48-.04-.03-.07-.06-.09-.1l-.13-.13-.03-.03-.03-.03h0s-.05-.06-.08-.09h0s0-.02,0-.02l-.03-.03c-.13-.14-.25-.28-.35-.43-.02-.02-.03-.03-.04-.05-.11-.16-.21-.31-.3-.47-.05-.1-.1-.19-.14-.29-.05-.09-.09-.19-.12-.29-.06-.15-.11-.3-.15-.45-.03-.08-.05-.17-.07-.26-.02-.08-.03-.17-.04-.25-.03-.18-.04-.36-.04-.55v-.07c0-.48.08-.96.27-1.41l.06-.12c.04-.09.08-.18.13-.27.07-.14.14-.27.22-.4.09-.13.17-.26.27-.39.04-.06.08-.12.13-.17.1-.13.22-.26.34-.38.08-.09.17-.17.26-.25.09-.08.19-.16.29-.25.15-.13.31-.25.48-.35.12-.09.24-.17.37-.24.21-.13.43-.25.65-.35.12-.06.24-.12.37-.17.21-.09.43-.18.65-.25.19-.07.37-.13.57-.18Zm-4.64-7.34c2.1,0,3.79,1.7,3.79,3.79s-1.69,3.79-3.79,3.79-3.79-1.7-3.79-3.79,1.7-3.79,3.79-3.79Zm-11.51-7.14c.57-.78,1.26-1.4,1.98-1.87-.01.02-.03.03-.05.05,1.83-1.21,3.98-1.4,5.48-.29,2.07,1.54,2.13,4.98.12,7.68-.08.11-.17.22-.26.33-.18.21-.36.42-.56.6-.39.39-.8.71-1.24.98-.11.07-.22.13-.33.19-.22.12-.44.23-.66.32-.12.05-.23.09-.34.13-.6.21-1.21.3-1.79.28-.1,0-.19,0-.29-.01-.05,0-.1,0-.15-.02-.02,0-.05-.01-.08-.01-.62-.09-1.2-.31-1.71-.69-2.07-1.54-2.12-4.98-.12-7.67Zm4.91,83.58c-2.8,0-5.07-.91-5.07-2.03,0-.07,0-.14.03-.21,0-.06.03-.12.06-.18.04-.07.09-.15.15-.22.03-.05.07-.09.12-.14.11-.11.24-.22.4-.31.06-.04.12-.08.18-.11.11-.06.23-.12.36-.18.13-.06.27-.11.41-.16.12-.05.25-.09.39-.13.18-.05.36-.1.55-.14.29-.06.59-.12.91-.15.16-.02.32-.04.48-.05.25-.02.51-.03.77-.04.08,0,.17,0,.26,0s.18,0,.26,0c.26.01.52.02.77.04.16.01.32.03.48.05.32.03.62.09.91.15.19.04.37.09.55.14.14.04.27.08.39.13.14.05.28.1.41.16s.25.12.36.18c.06.03.12.07.18.11.16.09.29.2.4.31.05.05.09.09.12.14.06.07.11.15.15.22.03.06.05.12.06.18.02.07.03.14.03.21,0,1.12-2.27,2.03-5.07,2.03Zm28.51,0c-2.8,0-5.07-.91-5.07-2.03,0-.13.03-.25.09-.37.02-.05.04-.09.08-.14,0-.01,0-.02.02-.03.03-.05.07-.1.13-.15.02-.04.06-.08.11-.12.05-.06.12-.11.18-.15.08-.06.16-.12.26-.17.07-.04.15-.09.24-.13.09-.05.19-.09.29-.13.36-.16.78-.29,1.25-.39.29-.06.59-.12.91-.15.16-.03.32-.04.49-.05.25-.02.5-.03.76-.04.08,0,.17,0,.26,0s.18,0,.26,0c.26.01.51.02.76.04.17.01.33.02.49.05.32.03.62.09.91.15.47.1.89.23,1.25.39.1.04.2.08.29.13.09.04.17.09.24.13.1.05.18.11.26.17.06.04.13.09.18.15.02.02.04.04.06.06.11.1.19.2.25.31,0,.03.02.05.03.07.06.12.09.24.09.37,0,1.12-2.27,2.03-5.07,2.03Zm6.15-43.08c-.03.32-.09.64-.17.95-.04.16-.08.31-.13.46-.04.13-.09.25-.14.38-.05.12-.1.24-.16.36-.04.1-.09.2-.15.3-.03.06-.07.13-.11.19-.11.2-.24.4-.38.58-.08.12-.18.24-.28.35-.09.12-.19.23-.3.34-.05.06-.1.11-.16.16-.11.11-.22.21-.34.3-.09.08-.2.16-.3.24-.38.3-.8.54-1.24.74-.33.14-.67.26-1.02.35.02,0,.04,0,.06,0-.02,0-.04,0-.06.02l-.15.03s-.02.01-.03.01c-.02,0-.03,0-.05,0-.14.03-.28.06-.43.08-.22.04-.45.06-.68.07.1.17.2.35.29.53h0c.08.17.15.34.22.51.05.12.09.23.12.35.04.12.07.24.11.36.09.28.16.58.2.88h0s0,.02.01.03h0s0,.02,0,.03c0,.02,0,.04,0,.06.01.05.02.1.02.15,0,.04.02.08.02.12.01.02.01.03,0,.04h0c.01.05.02.1.02.15.02.08.03.16.03.24v.03c.02.18.03.36.03.54v.23c0-.08,0-.15,0-.23v2.25c0-.13,0-.27,0-.4v.68c0,.74,0,1.45-.06,2.11-.02.22-.04.44-.06.64-.05.42-.12.82-.24,1.18-.05.18-.12.35-.19.52-.04.08-.08.16-.12.24-.09.17-.2.33-.32.48-.07.08-.14.16-.22.24-.08.08-.16.15-.24.21.06.08.12.16.18.25.06.08.11.17.16.26.11.18.22.37.31.56.09.2.18.41.26.62s.15.43.21.66c.09.3.16.62.21.94.04.23.07.47.09.7,0,.01,0,.03,0,.04.02.18.03.36.03.54v.22c0-.08,0-.15,0-.22v2.06c0-.07,0-.14,0-.21v.68c0,.55,0,1.09-.04,1.6,0,.17,0,.34-.02.51-.01.23-.03.44-.06.65-.02.14-.04.28-.06.41-.02.14-.05.26-.08.39-.04.17-.08.33-.14.49-.05.16-.11.31-.18.45-.06.15-.14.28-.23.41-.16.26-.37.49-.62.69-.08.06-.16.12-.25.17-.07.05-.14.09-.22.13-.13.07-.26.13-.41.18-.05.02-.1.04-.15.05-.15.05-.3.09-.47.12-.18.04-.37.07-.57.09-.22.02-.46.03-.72.03h-7.83c-.11,0-.21,0-.32-.02-.1,0-.2-.03-.29-.05-.12-.03-.24-.06-.35-.1-.35-.12-.68-.31-.99-.56-.12-.09-.23-.2-.35-.31-.13-.13-.26-.27-.37-.42-.24-.3-.46-.64-.66-1.01-.06.18-.13.36-.2.53-.06.13-.12.26-.2.38-.07.11-.14.22-.22.32-.11.14-.23.27-.37.39-.11.09-.22.17-.34.25-.12.08-.25.15-.39.21-.12.05-.24.1-.37.14-.13.05-.28.09-.44.12-.13.03-.27.06-.42.07-.04.01-.09.02-.14.02-.05.01-.1.01-.15.01-.2.02-.41.03-.63.03h-7.83c-.29,0-.58-.04-.85-.13-.14-.04-.27-.1-.41-.16-.13-.06-.25-.13-.37-.21-.26-.16-.5-.36-.73-.59-.45-.46-.84-1.04-1.14-1.72-.07-.17-.15-.35-.21-.53-.07-.18-.13-.37-.18-.56-.05-.18-.1-.38-.14-.58-.04-.2-.08-.4-.1-.61-.06-.41-.09-.84-.09-1.28v-2.31c0-2.15.71-4.05,1.79-5.2-1.08-1.15-1.79-3.05-1.79-5.21v-2.3c0-1.49.34-2.84.9-3.93h-.52c-.45,0-.89-.05-1.31-.16-.06,0-.11-.03-.17-.05-.08-.02-.16-.04-.24-.07-.1-.03-.21-.07-.31-.11-.21-.09-.42-.18-.61-.29-.47-.25-.91-.58-1.28-.96-1.01-1-1.63-2.39-1.63-3.92v-2.01c0-1.2.38-2.31,1.02-3.22.16-.22.33-.43.53-.63.1-.1.2-.19.31-.29.27-.26.56-.48.88-.64.06-.04.13-.08.19-.11.1-.07.21-.12.32-.16.13-.07.26-.12.39-.17,1.02-.66,2.24-1.05,3.55-1.05h8.42c.61,0,1.19.09,1.74.27.27.09.53.19.79.32.13.05.25.12.37.2.13.06.25.13.36.22.12.07.23.15.34.25.12.09.23.19.34.29.11.1.22.21.32.32.09.09.17.18.25.28.06.08.12.16.18.24.05.06.1.13.14.2.09.13.17.27.25.41.11.19.2.37.29.57h0c.02.07.04.12.07.18.08-.14.16-.27.25-.4.13-.19.27-.38.42-.56.07-.09.15-.18.23-.26.08-.09.16-.18.25-.27,0-.01.01-.01.01-.02.07-.07.15-.14.23-.19.07-.07.15-.13.23-.2.32-.27.66-.49,1.02-.68.15-.08.31-.15.47-.22.08-.04.15-.06.23-.09.11-.05.22-.09.34-.12.09-.03.17-.06.26-.08.17-.05.34-.1.52-.13.14-.03.29-.06.45-.07h.05c.06-.01.13-.02.19-.02.19-.02.38-.03.57-.03h8.31c1.81,0,3.44.73,4.63,1.92h0c.14.15.28.3.41.46l.28.37c.08.1.15.21.22.32.15.24.29.49.4.75.15.3.27.62.35.95.04.14.08.29.11.43.1.44.15.89.15,1.36,0,.21,0,.43-.03.64Zm7.05,14.82c-.03.36-.1.7-.2,1.02h0c-.19.65-.5,1.2-.89,1.58-.1.1-.2.18-.3.26h0s-.01.01-.01.01h0c-.08.06-.16.11-.24.15-.07.04-.14.07-.21.09l-.18.06c-.06.02-.13.03-.19.04-.08.01-.16.02-.24.02-1.37,0-2.48-1.69-2.48-3.79s1.11-3.79,2.48-3.79c.1,0,.2.01.3.03.1.02.19.04.29.08.09.03.18.07.27.13.18.1.35.23.5.39.08.08.16.16.23.26.14.18.27.38.39.61h0c.32.65.51,1.43.51,2.29,0,.19-.01.37-.03.56Z"/>
    <path class="cls-1" d="m83.07,14.16c-.02.2-.04.4-.08.59.03-.18.06-.38.07-.57h0s.01-.02.01-.02Z"/>
    <path class="cls-6" d="m55.2,85.88v1.63c0,.5-.04.95-.12,1.36v-3s.08,0,.12.01Z"/>
    <path class="cls-1" d="m78.15,57.59c0-.05-.01-.1-.02-.15,0-.02,0-.04,0-.06t0-.02s0,.05,0,.08c.02.1.03.2.04.31h0s0,0,0,0c.01-.02,0-.03,0-.04,0-.04,0-.08-.02-.12Zm-.02,12.56s-.02-.08-.03-.12c0,.04.01.08.02.12.02.12.04.24.05.36,0-.12-.02-.24-.04-.36Zm.02-12.56c0-.05-.01-.1-.02-.15,0-.02,0-.04,0-.06t0-.02s0,.05,0,.08c.02.1.03.2.04.31h0s0,0,0,0c.01-.02,0-.03,0-.04,0-.04,0-.08-.02-.12Zm-.02,12.56s-.02-.08-.03-.12c0,.04.01.08.02.12.02.12.04.24.05.36,0-.12-.02-.24-.04-.36Zm.02-12.56c0-.05-.01-.1-.02-.15,0-.02,0-.04,0-.06t0-.02s0,.05,0,.08c.02.1.03.2.04.31h0s0,0,0,0c.01-.02,0-.03,0-.04,0-.04,0-.08-.02-.12Zm-.02,12.56s-.02-.08-.03-.12c0,.04.01.08.02.12.02.12.04.24.05.36,0-.12-.02-.24-.04-.36Zm.02-12.56c0-.05-.01-.1-.02-.15,0-.02,0-.04,0-.06t0-.02s0,.05,0,.08c.02.1.03.2.04.31h0s0,0,0,0c.01-.02,0-.03,0-.04,0-.04,0-.08-.02-.12Zm-.02,12.56s-.02-.08-.03-.12c0,.04.01.08.02.12.02.12.04.24.05.36,0-.12-.02-.24-.04-.36Zm.02-12.56c0-.05-.01-.1-.02-.15,0-.02,0-.04,0-.06t0-.02s0,.05,0,.08c.02.1.03.2.04.31h0s0,0,0,0c.01-.02,0-.03,0-.04,0-.04,0-.08-.02-.12Zm-.02,12.56s-.02-.08-.03-.12c0,.04.01.08.02.12.02.12.04.24.05.36,0-.12-.02-.24-.04-.36Zm.02-12.56c0-.05-.01-.1-.02-.15,0-.02,0-.04,0-.06t0-.02s0,.05,0,.08c.02.1.03.2.04.31h0s0,0,0,0c.01-.02,0-.03,0-.04,0-.04,0-.08-.02-.12Zm-.02,12.56s-.02-.08-.03-.12c0,.04.01.08.02.12.02.12.04.24.05.36,0-.12-.02-.24-.04-.36Zm.02-12.56c0-.05-.01-.1-.02-.15,0-.02,0-.04,0-.06t0-.02s0,.05,0,.08c.02.1.03.2.04.31h0s0,0,0,0c.01-.02,0-.03,0-.04,0-.04,0-.08-.02-.12Zm-.02,12.56s-.02-.08-.03-.12c0,.04.01.08.02.12.02.12.04.24.05.36,0-.12-.02-.24-.04-.36Zm.02-12.56c0-.05-.01-.1-.02-.15,0-.02,0-.04,0-.06t0-.02s0,.05,0,.08c.02.1.03.2.04.31h0s0,0,0,0c.01-.02,0-.03,0-.04,0-.04,0-.08-.02-.12Zm-.02,12.56s-.02-.08-.03-.12c0,.04.01.08.02.12.02.12.04.24.05.36,0-.12-.02-.24-.04-.36Zm.02-12.56c0-.05-.01-.1-.02-.15,0-.02,0-.04,0-.06t0-.02s0,.05,0,.08c.02.1.03.2.04.31h0s0,0,0,0c.01-.02,0-.03,0-.04,0-.04,0-.08-.02-.12Zm-.02,12.56s-.02-.08-.03-.12c0,.04.01.08.02.12.02.12.04.24.05.36,0-.12-.02-.24-.04-.36Zm.02-12.56c0-.05-.01-.1-.02-.15,0-.02,0-.04,0-.06t0-.02s0,.05,0,.08c.02.1.03.2.04.31h0s0,0,0,0c.01-.02,0-.03,0-.04,0-.04,0-.08-.02-.12Zm-.02,12.56s-.02-.08-.03-.12c0,.04.01.08.02.12.02.12.04.24.05.36,0-.12-.02-.24-.04-.36Zm0,0s-.02-.08-.03-.12c0,.04.01.08.02.12.02.12.04.24.05.36,0-.12-.02-.24-.04-.36Zm-30.8-15.15c-.45,0-.89-.05-1.31-.15.42.11.86.16,1.31.16h.52s-.52-.01-.52-.01Zm7.61-26.64c-.02-.12-.03-.23-.03-.35,0,.19,0,.37.04.55,0-.07-.02-.13,0-.2Zm1.03,2.45c-.06-.06-.11-.13-.16-.19.1.15.22.29.35.43-.06-.08-.12-.16-.19-.24Zm.32.38h0l.03.03s0-.02-.02-.03Zm.05.06l.06.06h0s-.04-.05-.06-.06Zm6.52,46.6c-.06.19-.12.37-.19.54.07-.17.14-.35.2-.53,0,0,0-.01,0-.01Zm.7-44.23c-.1.02-.2.03-.3.04.16-.02.32-.03.48-.05-.06,0-.12,0-.18,0Zm7.17-5.61v.18c.01-.06.01-.12.01-.18h-.01Zm4.85-12.6s-.05-.04-.08-.06c.06.06.13.12.2.16-.04-.04-.08-.07-.12-.1Zm2.31,49.76c.12-.36.19-.76.24-1.18-.06.42-.13.82-.24,1.18Zm.01-8.73c.04.14.07.28.09.42.03.11.06.22.08.34,0,.04.02.07.03.12-.04-.3-.11-.6-.2-.88Zm.25,1.15c0-.05-.01-.1-.02-.15,0-.02,0-.04,0-.06t0-.02s0,.05,0,.08c.02.1.03.2.04.31h0s0,0,0,0c.01-.02,0-.03,0-.04,0-.04,0-.08-.02-.12Zm-.02,12.56c-.05-.32-.12-.64-.21-.94.04.16.08.33.11.5,0,.03.02.06.02.1,0,.02,0,.03,0,.05.01.05.02.11.04.17,0,.04.01.08.02.12.02.12.04.24.05.36.02.11.03.23.05.34-.02-.23-.05-.47-.09-.7Zm.09-11.98c0,.18.02.36.02.54,0,.08,0,.15,0,.23v-.23c0-.18,0-.36-.03-.54Zm.02,2.79v.28c0,.74-.01,1.45-.05,2.11.06-.66.06-1.37.06-2.11v-.68c0,.13,0,.27,0,.4Zm-.02,9.93c0,.17.02.35.02.54,0,.07,0,.14,0,.22v-.22c0-.18,0-.36-.03-.54Zm.02,2.6v.47c0,.55-.01,1.09-.03,1.6.03-.51.04-1.05.04-1.6v-.68c0,.07,0,.14,0,.21Zm3.26-29.99h0c.15.15.29.3.42.46-.13-.16-.27-.31-.41-.46Zm1.56-29.33h0c0,.2-.04.4-.07.58.04-.19.06-.39.08-.59h-.01Zm-.25,31.23l.35.95c-.08-.33-.2-.65-.35-.95Zm.46,1.38c.09.43.14.89.14,1.35h0c0-.46-.05-.91-.15-1.35Zm5.53,19.84c.08-.04.16-.09.24-.14h0c-.08.04-.16.09-.24.14Zm-10.67,3.53s-.02-.08-.03-.12c0,.04.01.08.02.12.02.12.04.24.05.36,0-.12-.02-.24-.04-.36Zm0,0s-.02-.08-.03-.12c0,.04.01.08.02.12.02.12.04.24.05.36,0-.12-.02-.24-.04-.36Zm0,0s-.02-.08-.03-.12c0,.04.01.08.02.12.02.12.04.24.05.36,0-.12-.02-.24-.04-.36Zm.02-12.56c0-.05-.01-.1-.02-.15,0-.02,0-.04,0-.06t0-.02s0,.05,0,.08c.02.1.03.2.04.31h0s0,0,0,0c.01-.02,0-.03,0-.04,0-.04,0-.08-.02-.12Zm-.02,12.56s-.02-.08-.03-.12c0,.04.01.08.02.12.02.12.04.24.05.36,0-.12-.02-.24-.04-.36Zm.02-12.56c0-.05-.01-.1-.02-.15,0-.02,0-.04,0-.06t0-.02s0,.05,0,.08c.02.1.03.2.04.31h0s0,0,0,0c.01-.02,0-.03,0-.04,0-.04,0-.08-.02-.12Zm-.02,12.56s-.02-.08-.03-.12c0,.04.01.08.02.12.02.12.04.24.05.36,0-.12-.02-.24-.04-.36Zm.02-12.56c0-.05-.01-.1-.02-.15,0-.02,0-.04,0-.06t0-.02s0,.05,0,.08c.02.1.03.2.04.31h0s0,0,0,0c.01-.02,0-.03,0-.04,0-.04,0-.08-.02-.12Zm-.02,12.56s-.02-.08-.03-.12c0,.04.01.08.02.12.02.12.04.24.05.36,0-.12-.02-.24-.04-.36Zm.02-12.56c0-.05-.01-.1-.02-.15,0-.02,0-.04,0-.06t0-.02s0,.05,0,.08c.02.1.03.2.04.31h0s0,0,0,0c.01-.02,0-.03,0-.04,0-.04,0-.08-.02-.12Zm-.02,12.56s-.02-.08-.03-.12c0,.04.01.08.02.12.02.12.04.24.05.36,0-.12-.02-.24-.04-.36Zm.02-12.56c0-.05-.01-.1-.02-.15,0-.02,0-.04,0-.06t0-.02s0,.05,0,.08c.02.1.03.2.04.31h0s0,0,0,0c.01-.02,0-.03,0-.04,0-.04,0-.08-.02-.12Zm-.02,12.56s-.02-.08-.03-.12c0,.04.01.08.02.12.02.12.04.24.05.36,0-.12-.02-.24-.04-.36Zm.02-12.56c0-.05-.01-.1-.02-.15,0-.02,0-.04,0-.06t0-.02s0,.05,0,.08c.02.1.03.2.04.31h0s0,0,0,0c.01-.02,0-.03,0-.04,0-.04,0-.08-.02-.12Zm-.02,12.56s-.02-.08-.03-.12c0,.04.01.08.02.12.02.12.04.24.05.36,0-.12-.02-.24-.04-.36Zm.02-12.56c0-.05-.01-.1-.02-.15,0-.02,0-.04,0-.06t0-.02s0,.05,0,.08c.02.1.03.2.04.31h0s0,0,0,0c.01-.02,0-.03,0-.04,0-.04,0-.08-.02-.12Zm-.02,12.56s-.02-.08-.03-.12c0,.04.01.08.02.12.02.12.04.24.05.36,0-.12-.02-.24-.04-.36Zm.02-12.56c0-.05-.01-.1-.02-.15,0-.02,0-.04,0-.06t0-.02s0,.05,0,.08c.02.1.03.2.04.31h0s0,0,0,0c.01-.02,0-.03,0-.04,0-.04,0-.08-.02-.12Zm-.02,12.56s-.02-.08-.03-.12c0,.04.01.08.02.12.02.12.04.24.05.36,0-.12-.02-.24-.04-.36Zm.02-12.56c0-.05-.01-.1-.02-.15,0-.02,0-.04,0-.06t0-.02s0,.05,0,.08c.02.1.03.2.04.31h0s0,0,0,0c.01-.02,0-.03,0-.04,0-.04,0-.08-.02-.12Zm-.02,12.56s-.02-.08-.03-.12c0,.04.01.08.02.12.02.12.04.24.05.36,0-.12-.02-.24-.04-.36Zm.02-12.56c0-.05-.01-.1-.02-.15,0-.02,0-.04,0-.06t0-.02s0,.05,0,.08c.02.1.03.2.04.31h0s0,0,0,0c.01-.02,0-.03,0-.04,0-.04,0-.08-.02-.12Z"/>
    <path class="cls-6" d="m63.77,66.45c-.47.5-.87,1.15-1.17,1.9-.23-.56-.51-1.06-.83-1.49.55-.43.89-1.02,1.1-1.73.25.51.56.95.9,1.32Z"/>
    <path class="cls-6" d="m63.77,53.74h0c-.47.51-.87,1.15-1.17,1.89-.06-.14-.12-.28-.19-.42-.12-.27-.27-.53-.43-.77-.08-.12-.16-.24-.25-.35.67-.47,1.04-1.11,1.24-1.85.05.14.1.28.16.41.09.2.18.39.29.58.07.11.14.22.22.32.02.04.03.07.06.1,0,0,0,0,.02.02,0,.02.03.05.05.07Z"/>
    <path class="cls-5" d="m75.58,15.41s-.05-.04-.08-.06c.06.06.13.12.2.16-.04-.04-.08-.07-.12-.1Z"/>
    <path class="cls-3" d="m83.07,14.13h0s-.01.02,0,.03h-.01v.02c-.05.15-.1.28-.16.42-.06.13-.11.25-.18.36-.03.05-.06.11-.09.16-.07.12-.14.23-.23.33-.09.13-.2.26-.32.37-.12.13-.25.25-.4.35-1.03.77-2.36.92-3.69.55-.34-.1-.67-.23-1-.38-.04-.03-.08-.05-.12-.07-.12-.06-.25-.13-.37-.2-.18-.12-.37-.24-.55-.37-.08-.06-.17-.13-.25-.19-.04-.04-.08-.07-.12-.1-.02-.02-.05-.04-.08-.06-.25-.2-.48-.43-.7-.68-.06-.06-.12-.14-.18-.2-.11-.13-.22-.26-.32-.4-2-2.7-1.95-6.13.12-7.67,1.75-1.3,4.37-.83,6.35.96.01,0,.02.03.03.04.36.32.7.69,1,1.1,1.35,1.81,1.76,3.95,1.27,5.63Z"/>
    <path class="cls-2" d="m82.15,15.8c-.14.14-.28.27-.43.39-1.04.77-2.39.91-3.73.53,1.33.37,2.66.22,3.69-.55.15-.1.28-.22.4-.35.02,0,.05-.01.07-.02Z"/>
    <path class="cls-5" d="m56.16,31.05c-.13-.14-.25-.28-.35-.43-.02-.02-.03-.03-.04-.05-.11-.16-.21-.31-.3-.47-.05-.1-.1-.19-.14-.29-.05-.09-.09-.19-.12-.29-.06-.15-.11-.3-.15-.45-.03-.08-.05-.17-.07-.26-.02-.08-.03-.17-.04-.25-.03-.18-.04-.36-.04-.55,0,.12,0,.23.03.35.06.56.25,1.12.53,1.66.09.17.19.35.31.51.02.03.04.06.06.09.04.07.08.13.13.19.07.08.13.16.19.24Z"/>
    <path class="cls-5" d="m69.74,30.75c-.11.14-.23.28-.36.42.04-.06.08-.12.12-.18.02-.04.06-.08.1-.12.01,0,.01,0,.01,0,.04-.04.09-.07.13-.11Z"/>
    <path class="cls-5" d="m69.48,30.96s.08-.06.12-.09h0s-.08.06-.12.09Zm.33-.31s0,.02-.02.03l.03-.03h-.01Zm.92-2.64v.18c.01-.06.01-.12.01-.18h-.01Z"/>
    <path class="cls-3" d="m62.82,22.38c-.24,0-.48,0-.71.02-.21.02-.41.03-.6.06-.19.02-.38.05-.56.08-.2.03-.4.07-.59.12-.13.03-.26.07-.39.1-.2.05-.38.11-.57.18-.22.07-.44.16-.65.25-.13.05-.25.11-.37.17-.22.1-.44.22-.65.35-.13.07-.25.15-.37.24-.17.1-.33.22-.48.35-.1.09-.2.17-.29.25-.09.08-.18.16-.26.25-.12.12-.24.25-.34.38-.05.05-.09.11-.13.17-.1.13-.18.26-.27.39-.08.13-.15.26-.22.4-.05.09-.09.18-.13.27-.21.49-.32,1-.33,1.53v.07c0,.12,0,.23.03.35.06.56.25,1.12.53,1.66.09.17.2.34.31.51.02.03.04.06.06.09.1.15.21.29.32.43l.03.03h0v.02s.06.06.09.09c.01,0,.01.02.02.03l.03.03s.04.03.06.05h0s.07.08.07.08c.02.04.05.07.09.1.17.17.35.33.53.48.19.16.39.31.6.45.17.12.36.23.55.34.26.15.53.28.81.4.22.09.45.17.7.24s.51.12.78.17c.14.03.27.05.41.06.22.03.44.05.66.06.54.03,1.1.02,1.66-.02.1,0,.2-.02.3-.04.23-.02.46-.04.68-.07.02-.01.03-.01.05-.01.06,0,.12-.02.18-.03.26-.04.51-.09.75-.14.11-.02.22-.04.33-.08,0,0,.03,0,.04,0,.1-.02.19-.05.29-.08.08-.02.17-.04.25-.07.18-.06.35-.12.52-.18.7-.25,1.33-.57,1.84-.93.11-.08.22-.16.31-.25.08-.06.14-.12.21-.19.14-.13.26-.27.37-.41.04-.06.08-.12.12-.18.02-.04.06-.08.1-.12-.04.03-.08.06-.12.09.04-.03.08-.07.12-.1h.01c.06-.07.13-.13.18-.18.01-.01.01-.02.02-.03h.01s0-.02,0-.02c0,0,.01,0,.01-.01.02-.02.03-.04.05-.06.01-.03.04-.07.07-.11.01-.03.04-.07.06-.1.08-.13.16-.26.23-.39.2-.4.35-.81.42-1.24.02-.11.03-.23.05-.35,0-.06,0-.12,0-.18v-.18h.01c0-3.11-3.55-5.63-7.92-5.63Zm0,6.22c-2.17,0-3.93-1.26-3.93-2.8s1.76-2.8,3.93-2.8,3.93,1.25,3.93,2.8-1.76,2.8-3.93,2.8Z"/>
    <path class="cls-5" d="m65.22,33.37c-.06.02-.13.03-.2.05-.18.04-.36.07-.55.09.26-.04.51-.09.75-.14Z"/>
    <path class="cls-4" d="m66.75,25.8c0,1.54-1.76,2.8-3.93,2.8s-3.93-1.26-3.93-2.8,1.76-2.8,3.93-2.8,3.93,1.25,3.93,2.8Z"/>
    <path class="cls-3" d="m82.31,89.83c0,1.12-2.27,2.03-5.07,2.03s-5.07-.91-5.07-2.03c0-.13.03-.25.09-.37.02-.04.05-.09.08-.14,0-.01,0-.02.02-.03.04-.05.08-.1.13-.15.03-.05.07-.09.11-.12.05-.06.12-.11.18-.15.08-.06.17-.12.26-.17.07-.04.15-.09.24-.13.09-.05.19-.09.29-.13.36-.16.78-.29,1.25-.39.29-.06.59-.11.91-.15.16-.02.32-.04.49-.05.25-.02.5-.03.76-.04h.52c.26.01.51.02.76.04.17.01.33.03.49.05.32.04.62.09.91.15.47.1.89.23,1.25.39.1.04.2.08.29.13.09.04.17.09.24.13.09.05.18.11.26.17.06.04.13.09.18.15.02.02.04.04.06.06.11.1.19.2.25.31,0,.03.02.05.03.07.06.12.09.24.09.37Z"/>
    <path class="cls-3" d="m53.8,89.83c0,1.12-2.27,2.03-5.07,2.03s-5.07-.91-5.07-2.03c0-.07,0-.14.03-.21,0-.06.03-.12.06-.18.04-.07.09-.15.15-.22.03-.05.07-.09.12-.14.11-.11.24-.22.4-.31.06-.04.12-.08.18-.11.11-.06.23-.12.36-.18.13-.06.27-.11.41-.16.12-.05.25-.09.39-.13.18-.05.36-.1.55-.14.29-.06.59-.11.91-.15.16-.02.32-.04.48-.05.25-.02.51-.03.77-.04h.52c.26.01.52.02.77.04.16.01.32.03.48.05.32.04.62.09.91.15.19.04.37.09.55.14.14.04.27.08.39.13.14.05.28.1.41.16s.25.12.36.18c.06.03.12.07.18.11.16.09.29.2.4.31.05.05.09.09.12.14.06.07.11.15.15.22.03.06.05.12.06.18.02.07.03.14.03.21Z"/>
    <path class="cls-3" d="m90.47,63.04c0,.19-.01.37-.03.56-.03.36-.1.7-.2,1.02h0c-.2.65-.51,1.19-.89,1.58-.1.1-.2.18-.3.26h0s-.01.01-.01.01c-.08.05-.16.1-.24.15-.07.04-.14.07-.21.09l-.18.06c-.06.02-.13.03-.19.04-.08.01-.16.02-.24.02-1.37,0-2.48-1.69-2.48-3.79s1.11-3.79,2.48-3.79c.1,0,.2.01.3.03.1.02.19.04.29.08.09.03.18.07.27.13.18.1.35.23.5.39.08.08.16.16.23.26.14.18.27.38.39.61h0c.32.65.51,1.43.51,2.29Z"/>
    <path class="cls-5" d="m88.8,66.62c.08-.04.16-.09.24-.14h0c-.08.04-.16.09-.24.14Z"/>
    <path class="cls-3" d="m40.46,63.04c0,2.1-1.11,3.79-2.48,3.79-.34,0-.67-.11-.96-.3-.08-.04-.15-.1-.22-.16-.14-.11-.27-.25-.39-.4-.06-.08-.12-.16-.18-.25-.06-.08-.11-.17-.16-.27-.1-.18-.19-.39-.27-.6-.07-.19-.12-.38-.17-.59-.03-.15-.06-.3-.08-.45-.02-.13-.03-.25-.04-.38,0-.07,0-.13-.01-.2v-.38c.01-.07.01-.13.01-.2,0-.13.02-.25.04-.37.02-.13.04-.25.06-.37.05-.23.11-.46.19-.68.08-.21.17-.41.27-.6.21-.4.47-.72.78-.96.04-.04.09-.07.13-.09.08-.06.17-.12.27-.16.07-.04.15-.07.23-.09.16-.05.33-.08.5-.08,1.37,0,2.48,1.7,2.48,3.79Z"/>
    <path class="cls-3" d="m70.31,15.42c-2.09,0-3.79,1.7-3.79,3.79s1.7,3.79,3.79,3.79,3.79-1.7,3.79-3.79-1.7-3.79-3.79-3.79Zm1.84,4.23c-.01.09-.04.17-.08.25-.02.08-.05.15-.1.22,0,.01-.01.03-.01.03-.04.08-.09.15-.14.21-.04.05-.08.1-.14.15-.01.02-.03.04-.05.06-.05.05-.1.1-.15.13-.06.05-.12.09-.19.13-.09.06-.19.1-.29.14-.11.05-.22.08-.33.1,0,0-.02,0-.03,0-.1.02-.21.03-.32.03-.15,0-.29-.02-.43-.05-.1-.02-.2-.05-.29-.09-.08-.03-.16-.07-.23-.11-.08-.04-.15-.09-.21-.14-.05-.04-.1-.09-.15-.14-.02,0-.04-.03-.06-.05-.05-.05-.1-.1-.13-.15-.05-.06-.09-.12-.13-.19-.06-.09-.1-.19-.14-.29-.05-.11-.08-.22-.1-.33,0-.01,0-.02,0-.03-.02-.1-.03-.21-.03-.32,0-.15.02-.3.06-.45,0-.09.04-.17.08-.25.02-.08.05-.15.1-.22,0-.01,0-.03,0-.03.04-.08.09-.15.15-.21.01-.03.03-.05.06-.07.02-.04.04-.06.07-.08,0-.02.03-.04.05-.06.05-.05.1-.09.15-.13.06-.05.12-.1.19-.13.09-.06.19-.1.29-.14.11-.05.22-.08.33-.1,0,0,.02,0,.03,0,.1-.02.21-.03.32-.03.15,0,.3.02.44.05.1.02.19.05.28.09.08.03.16.07.23.11.08.04.15.09.21.15.03.02.06.04.08.06.03.02.05.04.07.07.02,0,.04.03.06.05.05.05.1.1.13.15.05.06.1.12.13.19.06.09.1.19.14.29.05.11.08.22.1.33,0,.01,0,.02.01.03.02.1.03.21.03.32,0,.15-.02.3-.06.45Z"/>
    <path class="cls-4" d="m72.21,19.2c0,.15-.02.3-.06.45-.01.09-.04.17-.08.25-.02.08-.05.15-.1.22,0,.01-.01.03-.01.03-.04.08-.09.15-.14.21-.04.05-.08.1-.14.15-.01.02-.03.04-.05.06-.05.05-.1.1-.15.13-.06.05-.12.09-.19.13-.09.06-.19.1-.29.14-.11.05-.22.08-.33.1,0,0-.02,0-.03,0-.1.02-.21.03-.32.03-.15,0-.29-.02-.43-.05-.1-.02-.2-.05-.29-.09-.08-.03-.16-.07-.23-.11-.08-.04-.15-.09-.21-.14-.05-.04-.1-.08-.15-.14-.02,0-.04-.03-.06-.05-.05-.05-.1-.1-.13-.15-.05-.06-.09-.12-.13-.19-.06-.09-.1-.19-.14-.29-.05-.11-.08-.22-.1-.33,0-.01,0-.02,0-.03-.02-.1-.03-.21-.03-.32,0-.15.02-.3.06-.45,0-.09.04-.17.08-.25.02-.08.05-.15.1-.22,0-.01,0-.03,0-.03.04-.08.09-.15.15-.21.03-.05.07-.1.13-.15,0-.02.03-.04.05-.06.05-.05.1-.1.15-.13.06-.05.12-.09.19-.13.09-.06.19-.1.29-.14.11-.05.22-.08.33-.1,0,0,.02,0,.03,0,.1-.02.21-.03.32-.03.15,0,.3.02.44.05.1.02.19.05.28.09.08.03.16.07.23.11.08.04.15.09.21.15.05.03.1.07.15.13.02,0,.04.03.06.05.05.05.1.1.13.15.05.06.09.12.13.19.06.09.1.19.14.29.05.11.08.22.1.33,0,.01,0,.02.01.03.02.1.03.21.03.32Z"/>
    <path class="cls-2" d="m43.85,8.28c-2,2.69-1.95,6.13.12,7.67.5.37,1.07.59,1.68.69-.62-.09-1.2-.31-1.71-.69-2.07-1.54-2.12-4.98-.12-7.67.57-.78,1.26-1.4,1.98-1.87-.01.02-.03.03-.05.05-.35.23-.68.49-1,.8-.16.15-.32.31-.47.48-.15.17-.29.35-.43.53h0Z"/>
    <path class="cls-5" d="m53.47,19.57s0,0,0,.02c-.03-.12-.04-.25-.04-.38,0,.12,0,.24.03.36Z"/>
    <path class="cls-3" d="m55.33,15.42c-2.09,0-3.79,1.7-3.79,3.79s1.7,3.79,3.79,3.79,3.79-1.7,3.79-3.79-1.69-3.79-3.79-3.79Zm1.84,4.23c0,.09-.04.17-.08.25-.02.08-.05.15-.1.22,0,.01-.01.03-.01.03-.04.08-.09.15-.14.21-.04.05-.08.1-.14.15,0,.02-.03.04-.05.06-.05.05-.1.1-.15.13-.06.05-.12.09-.19.13-.09.06-.19.1-.29.14-.11.05-.22.08-.33.1-.01,0-.02,0-.03,0-.1.02-.21.03-.32.03-.15,0-.29-.02-.43-.05-.11-.02-.21-.06-.31-.1-.08-.03-.15-.07-.22-.11-.06-.04-.12-.08-.18-.13-.07-.04-.14-.1-.2-.17-.08-.07-.15-.15-.2-.24-.16-.21-.27-.45-.32-.72t0-.02s-.01-.06-.01-.09c0,0,0-.02,0-.03,0-.04,0-.08,0-.12,0-.04,0-.08,0-.12,0-.15,0-.3.06-.44.01-.09.04-.17.08-.25.02-.08.06-.15.1-.22,0-.02,0-.03.01-.03.04-.07.09-.14.15-.21.03-.05.07-.1.13-.15,0-.02.03-.04.06-.06.04-.05.08-.09.12-.12.06-.05.13-.1.2-.14.09-.06.19-.1.3-.14.1-.05.21-.08.32-.1,0,0,.02,0,.03,0,.1-.02.21-.03.32-.03.15,0,.3.02.44.05.1.02.19.05.28.09.08.03.16.07.23.11.08.04.15.09.21.15.03.02.06.04.08.06.03.02.05.04.07.07.02,0,.04.03.06.05.05.05.1.1.13.15.05.06.1.12.13.19.06.09.1.19.14.29.05.11.08.22.1.33,0,.01,0,.02,0,.03.02.1.03.21.03.32,0,.15-.02.3-.06.45Z"/>
    <path class="cls-4" d="m57.23,19.2c0,.15-.02.3-.06.45,0,.09-.04.17-.08.25-.02.08-.05.15-.1.22,0,.01-.01.03-.01.03-.04.08-.09.15-.14.21-.04.05-.08.1-.14.15,0,.02-.03.04-.05.06-.05.05-.1.1-.15.13-.06.05-.12.09-.19.13-.09.06-.19.1-.29.14-.11.05-.22.08-.33.1-.01,0-.02,0-.03,0-.1.02-.21.03-.32.03-.15,0-.29-.02-.43-.05-.11-.02-.21-.06-.31-.1-.08-.03-.15-.07-.22-.11-.06-.03-.12-.07-.18-.13-.07-.04-.14-.1-.2-.17-.08-.07-.15-.15-.2-.24-.16-.21-.27-.45-.32-.72t0-.02c-.02-.12-.03-.24-.03-.36,0-.15,0-.3.06-.44.01-.09.04-.17.08-.25.02-.08.06-.15.1-.22,0-.02,0-.03.01-.03.04-.07.09-.14.15-.21.03-.05.07-.1.13-.15,0-.02.03-.04.06-.06.04-.05.08-.09.12-.12.06-.05.13-.1.2-.14.09-.06.19-.1.3-.14.1-.05.21-.08.32-.1,0,0,.02,0,.03,0,.1-.02.21-.03.32-.03.15,0,.3.02.44.05.1.02.19.05.28.09.08.03.16.07.23.11.08.04.15.09.21.15.05.03.1.07.15.13.02,0,.04.03.06.05.05.05.1.1.13.15.05.06.09.12.13.19.06.09.1.19.14.29.05.11.08.22.1.33,0,.01,0,.02,0,.03.02.1.03.21.03.32Z"/>
    <path class="cls-2" d="m69.96,30.47c-.03.09-.12.19-.22.28,0-.02.03-.05.05-.07.01-.01.01-.02.02-.03h.01s0-.02,0-.02c0,0,.01,0,.01-.01.02-.02.03-.04.05-.06.02-.03.05-.06.07-.09Z"/>
    <path class="cls-2" d="m56.31,31.22l-.03-.03h0s.01.02.02.03Z"/>
    <path class="cls-2" d="m56.4,31.3h0s-.06-.05-.06-.05c.02.01.04.03.06.05Z"/>
    <path class="cls-2" d="m64.24,33.55c-.17.02-.33.04-.5.06-.16.02-.32.03-.48.05.1,0,.2-.02.3-.04.23-.02.46-.04.68-.07Z"/>
    <path class="cls-2" d="m55.24,26.41c-.21.49-.32,1-.33,1.53,0-.48.08-.96.27-1.41l.06-.12Z"/>
    <path class="cls-2" d="m69.61,30.86s0,0-.01,0c-.04.03-.08.06-.12.09.04-.03.08-.07.12-.1h.01Z"/>
    <path class="cls-2" d="m69.79,30.68s-.04.05-.05.07c-.04.04-.09.07-.13.11.06-.07.13-.13.18-.18Z"/>
    <path class="cls-3" d="m51.35,13.85c-.08.11-.17.22-.26.33-.19.22-.37.42-.56.6-.39.39-.8.71-1.24.98-.11.07-.22.13-.33.19-.22.12-.44.23-.66.32-.12.05-.23.09-.34.13-.09.03-.19.04-.28.07-.2.05-.4.1-.59.14-.13.02-.25.03-.37.04-.18.02-.37.03-.55.03-.1,0-.19,0-.29-.01-.05,0-.1,0-.15-.02-.02,0-.05-.01-.08-.01-.61-.1-1.18-.32-1.68-.69-2.07-1.54-2.12-4.98-.12-7.67h0c.14-.19.28-.37.43-.54.15-.17.31-.33.47-.48.32-.31.65-.57,1-.8,1.83-1.21,3.98-1.4,5.48-.29,2.07,1.54,2.13,4.98.12,7.68Z"/>
    <path class="cls-2" d="m62.87,77.86c-.06.18-.13.36-.2.53.07-.17.13-.35.19-.54,0,0,0,.01,0,.01Z"/>
    <path class="cls-2" d="m78.25,73.28v.68c0,.55,0,1.09-.04,1.6.02-.51.03-1.05.03-1.6v-.47c0-.07,0-.14,0-.21Z"/>
    <path class="cls-2" d="m78.13,70.15s-.02-.08-.03-.12c-.02-.06-.03-.12-.04-.17,0-.02,0-.03,0-.05,0-.04-.01-.07-.02-.1-.03-.17-.07-.34-.11-.5.09.3.16.62.21.94Z"/>
    <path class="cls-5" d="m78.22,70.85c-.02-.11-.03-.23-.05-.34,0-.12-.02-.24-.04-.36.04.23.07.47.09.7Z"/>
    <path class="cls-5" d="m78.25,71.43v.22c0-.08,0-.15,0-.22,0-.19-.01-.37-.02-.54.02.18.03.36.03.54Z"/>
    <path class="cls-5" d="m76.42,67.1c-.21.12-.44.23-.71.3.26-.08.5-.18.71-.3Z"/>
    <path class="cls-4" d="m83.41,48.13c0-.46-.05-.92-.14-1.35-.03-.14-.07-.29-.11-.43l-.35-.95c-.11-.26-.25-.51-.4-.75-.07-.11-.14-.22-.22-.32l-.28-.37c-.13-.16-.27-.31-.42-.46-1.19-1.19-2.82-1.92-4.63-1.92h-8.31c-.19,0-.38.01-.57.03-.06,0-.13,0-.19.02h-.05c-.15.02-.3.04-.45.07-.18.03-.35.08-.52.13-.09.02-.17.05-.26.08-.12.03-.23.07-.34.12-.08.03-.15.05-.23.09-.16.07-.32.14-.47.22-.36.2-.71.42-1.02.68-.08.07-.16.13-.23.2-.08.07-.16.13-.23.21t-.01.02h0c-.09.09-.17.17-.24.25-.08.08-.16.17-.23.26-.15.18-.29.37-.42.56-.09.13-.17.26-.25.4-.03-.06-.05-.11-.07-.17h0c-.09-.21-.18-.39-.29-.58-.08-.14-.16-.28-.25-.41-.04-.07-.09-.14-.14-.2-.06-.08-.12-.16-.18-.24-.08-.1-.16-.19-.25-.28-.1-.11-.21-.22-.32-.32-.11-.1-.22-.2-.34-.29-.11-.09-.22-.17-.34-.25-.12-.08-.24-.15-.36-.22-.12-.07-.24-.14-.37-.2-.26-.13-.52-.23-.79-.32-.55-.17-1.13-.26-1.73-.26h-8.43c-1.31,0-2.52.39-3.55,1.05-.13.05-.26.1-.39.16-.11.05-.21.1-.32.16-.06.03-.13.07-.19.11-.32.18-.61.4-.88.64-.11.1-.21.19-.31.29-.19.2-.36.41-.53.63-.64.91-1.02,2.02-1.02,3.22v2.01c0,1.53.62,2.92,1.63,3.92.37.38.81.71,1.28.96.19.11.4.2.61.29.1.04.21.08.31.11.08.03.16.05.24.07.06.02.11.04.17.05.42.1.86.15,1.31.15h.52c-.56,1.1-.9,2.45-.9,3.94v2.3c0,2.16.71,4.06,1.79,5.21-1.08,1.15-1.79,3.05-1.79,5.2v2.31c0,.44.03.87.09,1.28.02.21.06.41.1.61.04.2.09.4.14.58.05.19.11.38.18.56.06.18.14.36.21.53.3.68.69,1.26,1.14,1.72.23.23.47.43.73.59.12.08.24.15.37.21.14.06.27.12.41.16.27.09.56.13.85.13h7.83c.22,0,.43,0,.63-.03.05,0,.1,0,.15-.01.05,0,.1,0,.14-.02.15-.02.29-.04.42-.07.16-.03.31-.07.44-.12.13-.04.25-.09.37-.14.14-.06.27-.13.39-.21.12-.08.23-.16.34-.25.14-.12.26-.25.37-.39.08-.1.15-.21.22-.32.08-.12.14-.25.2-.38.07-.17.13-.35.19-.54,0,0,0,.01,0,.01.2.37.42.71.66,1.01.12.15.24.29.37.42.12.11.23.22.35.31.31.25.64.44.99.56.11.04.23.07.35.1.09.02.19.04.29.05.11.01.21.02.32.02h7.83c.26,0,.5,0,.72-.03.2-.02.39-.05.57-.09.17-.03.32-.07.47-.12.05-.01.1-.03.15-.05.15-.05.28-.11.41-.18.08-.04.15-.08.22-.13.09-.05.17-.11.25-.17.25-.2.46-.43.62-.69.09-.13.16-.27.23-.41.07-.14.13-.29.18-.45.06-.16.1-.32.14-.49.03-.13.06-.25.08-.39.02-.13.04-.27.06-.41.03-.21.05-.42.06-.65,0-.17.02-.34.02-.51.02-.51.03-1.05.03-1.6v-.47c0,.1-.01.19-.02.29,0-.16.02-.33.02-.5v-1.63c0-.52-.04-1.02-.12-1.5,0-.04-.02-.08-.02-.12-.02-.06-.03-.12-.04-.17,0-.02,0-.03,0-.05-.05-.18-.1-.36-.15-.53.05.14.09.28.13.43-.03-.17-.07-.34-.11-.5-.06-.23-.13-.45-.21-.66s-.17-.42-.26-.62c-.09-.19-.2-.38-.31-.56-.05-.09-.1-.18-.16-.26-.06-.09-.12-.17-.18-.25.08-.06.16-.13.24-.21.08-.08.15-.16.22-.24.12-.15.23-.31.32-.48.04-.08.08-.16.12-.24.07-.17.14-.34.19-.52.11-.36.18-.76.24-1.18.02-.2.04-.42.06-.64.04-.66.05-1.37.05-2.11v-.28c-.01.1-.01.2-.04.29.03-.22.04-.46.04-.69v-1.62c0-.41-.02-.81-.08-1.19,0-.11-.02-.21-.04-.31,0-.03,0-.05,0-.08h0s-.01-.02-.01-.03h0c0-.06-.02-.09-.03-.13-.02-.12-.05-.23-.08-.34-.02-.14-.05-.28-.09-.42-.04-.12-.07-.24-.11-.36-.03-.12-.07-.23-.12-.35-.07-.17-.14-.34-.22-.51-.09-.18-.18-.36-.28-.53.23-.01.46-.03.68-.07.15-.02.29-.05.43-.08.02,0,.03,0,.05,0,.01,0,.02-.01.03-.01.03,0,.06-.02.09-.03.02,0,.04,0,.06-.01.35-.09.69-.21,1.02-.35.44-.2.86-.44,1.24-.74.1-.08.21-.16.3-.24.12-.09.23-.19.34-.3.06-.05.11-.1.16-.16.11-.11.21-.22.3-.34.1-.11.2-.23.28-.35.14-.18.27-.38.38-.58.04-.06.08-.13.11-.19.06-.1.11-.2.15-.3.06-.12.11-.24.16-.36.05-.13.1-.25.14-.38.05-.15.09-.3.13-.46.08-.31.14-.63.17-.95.02-.21.03-.43.03-.64h0Zm-20.33,3.62h0s0,0,0,0h0Zm-.48,16.6c-.23-.56-.51-1.06-.83-1.49.55-.43.89-1.02,1.1-1.73.25.51.56.95.9,1.32-.47.5-.87,1.15-1.17,1.9Zm1.17-14.6c-.47.5-.87,1.14-1.17,1.88-.06-.14-.12-.28-.19-.42-.13-.27-.28-.53-.43-.77-.08-.12-.16-.24-.25-.35.67-.47,1.04-1.11,1.24-1.85.05.14.1.28.16.41.09.2.18.39.29.58.07.11.14.22.22.32.02.04.03.07.06.1,0,0,0,0,.02.02,0,.02.03.05.05.07h0Z"/>
    <path class="cls-2" d="m78.13,63.99c-.05.42-.12.82-.24,1.18.11-.36.18-.76.24-1.18Z"/>
    <path class="cls-2" d="m78.25,60.56v.68c0,.74,0,1.45-.06,2.11.04-.66.05-1.37.05-2.11v-.28c0-.13,0-.27,0-.4Z"/>
    <path class="cls-2" d="m78.1,57.32c0-.05-.02-.08-.03-.12-.02-.12-.05-.23-.08-.34-.02-.14-.05-.28-.09-.42.09.28.16.58.2.88Z"/>
    <path class="cls-2" d="m76.42,67.1c-.21.12-.44.23-.71.3.26-.08.5-.18.71-.3Z"/>
    <path class="cls-5" d="m83.27,46.78c.09.43.14.89.14,1.35h0c0-.46-.05-.91-.15-1.35Zm-.46-1.38l.35.95c-.08-.33-.2-.65-.35-.95Zm-1.31-1.9h0c.15.15.29.3.42.46-.13-.16-.27-.31-.41-.46Zm-2.99,10.98s-.04.01-.06.01h.06s.04-.01.06-.02c-.02,0-.04,0-.06,0Zm-14.53-11.05v.02s0,0,.01-.02h-.01Z"/>
    <path class="cls-5" d="m78.17,57.71s.01.02,0,.04h0c0-.06,0-.1,0-.16,0,.04.02.08.02.12Z"/>
    <path class="cls-5" d="m78.25,58.71v.23c0-.08,0-.15,0-.23,0-.18-.01-.36-.02-.54.02.18.03.36.03.54Z"/>
    <path class="cls-2" d="m47.85,55h0s-.52.01-.52.01c-.45,0-.89-.05-1.31-.16.42.1.86.15,1.31.15h.52Z"/>
    <path class="cls-2" d="m63.77,53.74h0s-.04-.04-.04-.07c0,.02.03.05.05.07Z"/>
    <path class="cls-2" d="m63.99,43.43s-.01.01-.01.02h0c-.09.09-.17.17-.24.25.08-.09.16-.18.25-.27h.01Z"/>
    <path class="cls-2" d="m63.08,51.75h0s0,0,0,0h0Z"/>
    <path class="cls-2" d="m63.98,43.43v.02h0c-.09.09-.17.17-.24.25.08-.09.16-.18.25-.27Z"/>
    <path class="cls-2" d="m63.08,51.75h0s0,0,0,0h0Z"/>
  </g>
</svg>