<?xml version="1.0" encoding="UTF-8"?>
<svg id="Usine_Base" xmlns="http://www.w3.org/2000/svg" viewBox="0 0 128 128">
  <defs>
    <style>
      .cls-1 {
        fill: #bababa;
      }

      .cls-2 {
        fill: #883053;
      }

      .cls-3 {
        fill: #eb6aa4;
      }

      .cls-4 {
        fill: #bb4875;
      }
    </style>
  </defs>
  <g>
    <rect class="cls-4" x="0" y="-.06" width="128" height="128.11" rx="8.89" ry="8.89"/>
    <rect class="cls-3" x="0" y="-.06" width="128" height="100.09" rx="8.89" ry="8.89"/>
  </g>
  <g>
    <g>
      <path class="cls-2" d="M100.17,40.57c3.45-7.72,2.99-16.46-2.64-26.53-11.11,2.71-17.05,7.35-21.36,12.59-3.85-.86-7.94-1.32-12.18-1.32-4.48,0-8.79,.52-12.83,1.47-4.33-5.4-10.29-10.19-21.66-12.96-5.84,10.46-6.12,19.49-2.21,27.43-3.2,4.31-5.02,9.24-5.02,14.48,0,16.8,18.68,30.42,41.72,30.42s41.72-13.62,41.72-30.42c0-5.52-2.02-10.7-5.55-15.17Z"/>
      <polygon class="cls-1" points="97.54 14.04 97.54 14.04 97.54 14.04 97.54 14.04"/>
    </g>
    <ellipse class="cls-3" cx="64" cy="66.6" rx="14.9" ry="10.86"/>
    <ellipse class="cls-2" cx="70.49" cy="66.6" rx="3.22" ry="4.27"/>
    <ellipse class="cls-2" cx="57.51" cy="66.6" rx="3.22" ry="4.27"/>
    <g>
      <circle class="cls-3" cx="88.1" cy="55.74" r="5.67"/>
      <circle class="cls-3" cx="39.9" cy="55.74" r="5.67"/>
    </g>
  </g>
</svg>